G04 #@! TF.GenerationSoftware,KiCad,Pcbnew,(6.0.4)*
G04 #@! TF.CreationDate,2022-05-17T22:22:27-06:00*
G04 #@! TF.ProjectId,RP2040 Dev Board,52503230-3430-4204-9465-7620426f6172,4*
G04 #@! TF.SameCoordinates,Original*
G04 #@! TF.FileFunction,Copper,L1,Top*
G04 #@! TF.FilePolarity,Positive*
%FSLAX46Y46*%
G04 Gerber Fmt 4.6, Leading zero omitted, Abs format (unit mm)*
G04 Created by KiCad (PCBNEW (6.0.4)) date 2022-05-17 22:22:27*
%MOMM*%
%LPD*%
G01*
G04 APERTURE LIST*
G04 Aperture macros list*
%AMRoundRect*
0 Rectangle with rounded corners*
0 $1 Rounding radius*
0 $2 $3 $4 $5 $6 $7 $8 $9 X,Y pos of 4 corners*
0 Add a 4 corners polygon primitive as box body*
4,1,4,$2,$3,$4,$5,$6,$7,$8,$9,$2,$3,0*
0 Add four circle primitives for the rounded corners*
1,1,$1+$1,$2,$3*
1,1,$1+$1,$4,$5*
1,1,$1+$1,$6,$7*
1,1,$1+$1,$8,$9*
0 Add four rect primitives between the rounded corners*
20,1,$1+$1,$2,$3,$4,$5,0*
20,1,$1+$1,$4,$5,$6,$7,0*
20,1,$1+$1,$6,$7,$8,$9,0*
20,1,$1+$1,$8,$9,$2,$3,0*%
%AMRotRect*
0 Rectangle, with rotation*
0 The origin of the aperture is its center*
0 $1 length*
0 $2 width*
0 $3 Rotation angle, in degrees counterclockwise*
0 Add horizontal line*
21,1,$1,$2,0,0,$3*%
%AMFreePoly0*
4,1,9,3.862500,-0.866500,0.737500,-0.866500,0.737500,-0.450000,-0.737500,-0.450000,-0.737500,0.450000,0.737500,0.450000,0.737500,0.866500,3.862500,0.866500,3.862500,-0.866500,3.862500,-0.866500,$1*%
G04 Aperture macros list end*
G04 #@! TA.AperFunction,SMDPad,CuDef*
%ADD10R,0.600000X0.700000*%
G04 #@! TD*
G04 #@! TA.AperFunction,SMDPad,CuDef*
%ADD11R,0.700000X0.600000*%
G04 #@! TD*
G04 #@! TA.AperFunction,SMDPad,CuDef*
%ADD12R,0.900000X1.200000*%
G04 #@! TD*
G04 #@! TA.AperFunction,SMDPad,CuDef*
%ADD13RoundRect,0.243750X0.456250X-0.243750X0.456250X0.243750X-0.456250X0.243750X-0.456250X-0.243750X0*%
G04 #@! TD*
G04 #@! TA.AperFunction,SMDPad,CuDef*
%ADD14R,0.900000X1.300000*%
G04 #@! TD*
G04 #@! TA.AperFunction,SMDPad,CuDef*
%ADD15FreePoly0,90.000000*%
G04 #@! TD*
G04 #@! TA.AperFunction,SMDPad,CuDef*
%ADD16RotRect,0.700000X0.600000X225.000000*%
G04 #@! TD*
G04 #@! TA.AperFunction,SMDPad,CuDef*
%ADD17RoundRect,0.150000X0.150000X-0.650000X0.150000X0.650000X-0.150000X0.650000X-0.150000X-0.650000X0*%
G04 #@! TD*
G04 #@! TA.AperFunction,SMDPad,CuDef*
%ADD18RoundRect,0.250000X0.650000X-0.325000X0.650000X0.325000X-0.650000X0.325000X-0.650000X-0.325000X0*%
G04 #@! TD*
G04 #@! TA.AperFunction,SMDPad,CuDef*
%ADD19R,0.600000X1.450000*%
G04 #@! TD*
G04 #@! TA.AperFunction,SMDPad,CuDef*
%ADD20R,0.300000X1.450000*%
G04 #@! TD*
G04 #@! TA.AperFunction,ComponentPad*
%ADD21O,1.050000X2.100000*%
G04 #@! TD*
G04 #@! TA.AperFunction,SMDPad,CuDef*
%ADD22RoundRect,0.006000X-0.414000X-0.094000X0.414000X-0.094000X0.414000X0.094000X-0.414000X0.094000X0*%
G04 #@! TD*
G04 #@! TA.AperFunction,SMDPad,CuDef*
%ADD23RoundRect,0.020000X-0.080000X-0.400000X0.080000X-0.400000X0.080000X0.400000X-0.080000X0.400000X0*%
G04 #@! TD*
G04 #@! TA.AperFunction,SMDPad,CuDef*
%ADD24R,3.100000X3.100000*%
G04 #@! TD*
G04 #@! TA.AperFunction,ComponentPad*
%ADD25C,1.700000*%
G04 #@! TD*
G04 #@! TA.AperFunction,ComponentPad*
%ADD26R,1.700000X1.700000*%
G04 #@! TD*
G04 #@! TA.AperFunction,ComponentPad*
%ADD27O,1.700000X1.700000*%
G04 #@! TD*
G04 #@! TA.AperFunction,SMDPad,CuDef*
%ADD28R,1.400000X1.200000*%
G04 #@! TD*
G04 #@! TA.AperFunction,SMDPad,CuDef*
%ADD29R,1.600000X1.050000*%
G04 #@! TD*
G04 #@! TA.AperFunction,SMDPad,CuDef*
%ADD30RotRect,0.700000X0.600000X315.000000*%
G04 #@! TD*
G04 #@! TA.AperFunction,SMDPad,CuDef*
%ADD31RoundRect,0.250000X-0.650000X0.325000X-0.650000X-0.325000X0.650000X-0.325000X0.650000X0.325000X0*%
G04 #@! TD*
G04 #@! TA.AperFunction,SMDPad,CuDef*
%ADD32RotRect,0.700000X0.600000X45.000000*%
G04 #@! TD*
G04 #@! TA.AperFunction,ViaPad*
%ADD33C,0.460000*%
G04 #@! TD*
G04 #@! TA.AperFunction,ViaPad*
%ADD34C,0.700000*%
G04 #@! TD*
G04 #@! TA.AperFunction,Conductor*
%ADD35C,0.200000*%
G04 #@! TD*
G04 #@! TA.AperFunction,Conductor*
%ADD36C,0.750000*%
G04 #@! TD*
G04 #@! TA.AperFunction,Conductor*
%ADD37C,0.300000*%
G04 #@! TD*
G04 #@! TA.AperFunction,Conductor*
%ADD38C,0.500000*%
G04 #@! TD*
G04 #@! TA.AperFunction,Conductor*
%ADD39C,0.261112*%
G04 #@! TD*
G04 #@! TA.AperFunction,Conductor*
%ADD40C,0.261000*%
G04 #@! TD*
G04 APERTURE END LIST*
D10*
X151560000Y-62300000D03*
X152560000Y-62300000D03*
X142250000Y-62310000D03*
X141250000Y-62310000D03*
X146170000Y-68410000D03*
X147170000Y-68410000D03*
D11*
X150380000Y-56650000D03*
X150380000Y-55650000D03*
D12*
X151070000Y-36930000D03*
X154370000Y-36930000D03*
D11*
X147110000Y-66510000D03*
X147110000Y-67510000D03*
D10*
X150210000Y-42810000D03*
X149210000Y-42810000D03*
X145320000Y-68410000D03*
X144320000Y-68410000D03*
D11*
X146640000Y-56150000D03*
X146640000Y-55150000D03*
X149430000Y-56650000D03*
X149430000Y-55650000D03*
D13*
X151550000Y-71457500D03*
X151550000Y-69582500D03*
D14*
X148010000Y-41450000D03*
D15*
X149510000Y-41362500D03*
D14*
X151010000Y-41450000D03*
D16*
X149916447Y-66656447D03*
X150623553Y-67363553D03*
D17*
X141505000Y-52700000D03*
X142775000Y-52700000D03*
X144045000Y-52700000D03*
X145315000Y-52700000D03*
X145315000Y-45500000D03*
X144045000Y-45500000D03*
X142775000Y-45500000D03*
X141505000Y-45500000D03*
D18*
X151340000Y-51755000D03*
X151340000Y-48805000D03*
D19*
X150160000Y-34395000D03*
X149360000Y-34395000D03*
D20*
X148160000Y-34395000D03*
X147160000Y-34395000D03*
X146660000Y-34395000D03*
X145660000Y-34395000D03*
D19*
X143660000Y-34395000D03*
X144460000Y-34395000D03*
D20*
X145160000Y-34395000D03*
X146160000Y-34395000D03*
X147660000Y-34395000D03*
X148660000Y-34395000D03*
D21*
X151230000Y-33480000D03*
X142590000Y-33480000D03*
X151230000Y-29300000D03*
X142590000Y-29300000D03*
D11*
X144060000Y-36920000D03*
X144060000Y-35920000D03*
D22*
X143475000Y-58700000D03*
X143475000Y-59100000D03*
X143475000Y-59500000D03*
X143475000Y-59900000D03*
X143475000Y-60300000D03*
X143475000Y-60700000D03*
X143475000Y-61100000D03*
X143475000Y-61500000D03*
X143475000Y-61900000D03*
X143475000Y-62300000D03*
X143475000Y-62700000D03*
X143475000Y-63100000D03*
X143475000Y-63500000D03*
X143475000Y-63900000D03*
D23*
X144310000Y-64735000D03*
X144710000Y-64735000D03*
X145110000Y-64735000D03*
X145510000Y-64735000D03*
X145910000Y-64735000D03*
X146310000Y-64735000D03*
X146710000Y-64735000D03*
X147110000Y-64735000D03*
X147510000Y-64735000D03*
X147910000Y-64735000D03*
X148310000Y-64735000D03*
X148710000Y-64735000D03*
X149110000Y-64735000D03*
X149510000Y-64735000D03*
D22*
X150345000Y-63900000D03*
X150345000Y-63500000D03*
X150345000Y-63100000D03*
X150345000Y-62700000D03*
X150345000Y-62300000D03*
X150345000Y-61900000D03*
X150345000Y-61500000D03*
X150345000Y-61100000D03*
X150345000Y-60700000D03*
X150345000Y-60300000D03*
X150345000Y-59900000D03*
X150345000Y-59500000D03*
X150345000Y-59100000D03*
X150345000Y-58700000D03*
D23*
X149510000Y-57865000D03*
X149110000Y-57865000D03*
X148710000Y-57865000D03*
X148310000Y-57865000D03*
X147910000Y-57865000D03*
X147510000Y-57865000D03*
X147110000Y-57865000D03*
X146710000Y-57865000D03*
X146310000Y-57865000D03*
X145910000Y-57865000D03*
X145510000Y-57865000D03*
X145110000Y-57865000D03*
X144710000Y-57865000D03*
X144310000Y-57865000D03*
D24*
X146910000Y-61300000D03*
D11*
X151620000Y-58500000D03*
X151620000Y-57500000D03*
D13*
X142320000Y-71457500D03*
X142320000Y-69582500D03*
D25*
X149450000Y-73750000D03*
D26*
X146910000Y-73750000D03*
D27*
X144370000Y-73750000D03*
D28*
X144220000Y-71370000D03*
X146420000Y-71370000D03*
X146420000Y-69670000D03*
X144220000Y-69670000D03*
D11*
X148710000Y-36920000D03*
X148710000Y-35920000D03*
X142350000Y-54840000D03*
X142350000Y-55840000D03*
D29*
X144760000Y-38475000D03*
X144760000Y-42925000D03*
D11*
X147590000Y-56150000D03*
X147590000Y-55150000D03*
D12*
X142670000Y-36920000D03*
X139370000Y-36920000D03*
D11*
X148050000Y-53740000D03*
X148050000Y-52740000D03*
X145005000Y-35920000D03*
X145005000Y-36920000D03*
D30*
X143946447Y-67323553D03*
X144653553Y-66616447D03*
D11*
X141550000Y-40200000D03*
X141550000Y-41200000D03*
D31*
X151340000Y-44215000D03*
X151340000Y-47165000D03*
D10*
X151210000Y-42810000D03*
X152210000Y-42810000D03*
D32*
X142453553Y-57473553D03*
X141746447Y-56766447D03*
D11*
X147760000Y-36920000D03*
X147760000Y-35920000D03*
X149000000Y-53740000D03*
X149000000Y-52740000D03*
X149995000Y-68355000D03*
X149995000Y-69355000D03*
X146160000Y-67510000D03*
X146160000Y-66510000D03*
X148060000Y-66510000D03*
X148060000Y-67510000D03*
X141550000Y-43760000D03*
X141550000Y-42760000D03*
X145960000Y-36920000D03*
X145960000Y-35920000D03*
X149660000Y-36920000D03*
X149660000Y-35920000D03*
D25*
X155800000Y-28030000D03*
D27*
X155800000Y-30570000D03*
X155800000Y-33110000D03*
X155800000Y-35650000D03*
X155800000Y-38190000D03*
X155800000Y-40730000D03*
X155800000Y-43270000D03*
X155800000Y-45810000D03*
X155800000Y-48350000D03*
X155800000Y-50890000D03*
X155800000Y-53430000D03*
X155800000Y-55970000D03*
X155800000Y-58510000D03*
X155800000Y-61050000D03*
X155800000Y-63590000D03*
X155800000Y-66130000D03*
X155800000Y-68670000D03*
X155800000Y-71210000D03*
X155800000Y-73750000D03*
D25*
X138020000Y-28030000D03*
D27*
X138020000Y-30570000D03*
X138020000Y-33110000D03*
X138020000Y-35650000D03*
X138020000Y-38190000D03*
X138020000Y-40730000D03*
X138020000Y-43270000D03*
X138020000Y-45810000D03*
X138020000Y-48350000D03*
X138020000Y-50890000D03*
X138020000Y-53430000D03*
X138020000Y-55970000D03*
X138020000Y-58510000D03*
X138020000Y-61050000D03*
X138020000Y-63590000D03*
X138020000Y-66130000D03*
X138020000Y-68670000D03*
X138020000Y-71210000D03*
X138020000Y-73750000D03*
D33*
X141420000Y-56400000D03*
X138020000Y-69940000D03*
X155800000Y-42000000D03*
X144090000Y-37580000D03*
X145560000Y-62780000D03*
X148230000Y-63700000D03*
X155800000Y-54700000D03*
X155800000Y-47080000D03*
X145883086Y-63840104D03*
X138020000Y-34380000D03*
X147940000Y-58810000D03*
X138020000Y-31840000D03*
X155800000Y-72480000D03*
D34*
X148060000Y-39620000D03*
D33*
X155800000Y-34380000D03*
X146640000Y-54620000D03*
X138020000Y-36920000D03*
X155800000Y-67400000D03*
X148060000Y-69010000D03*
X147400000Y-71060000D03*
X143760000Y-68410000D03*
X148665000Y-42555000D03*
X145310000Y-51530000D03*
X148260000Y-59950000D03*
X145560000Y-62072500D03*
X138020000Y-54700000D03*
D34*
X142190000Y-35190000D03*
D33*
X149420000Y-55150000D03*
X142130000Y-42960000D03*
X148260000Y-62147500D03*
X155800000Y-36920000D03*
X155800000Y-44540000D03*
X152380000Y-62860000D03*
D34*
X151350000Y-49690000D03*
X141630000Y-37910000D03*
D33*
X138020000Y-72480000D03*
X155800000Y-69940000D03*
X143750000Y-50170000D03*
X149440000Y-58740000D03*
X155800000Y-59780000D03*
X148260000Y-62880000D03*
X138020000Y-52160000D03*
X148060000Y-68020000D03*
X143320000Y-70290000D03*
X155800000Y-64860000D03*
X138020000Y-39460000D03*
X138020000Y-49620000D03*
X144850000Y-37580000D03*
X155800000Y-49620000D03*
X155800000Y-57240000D03*
X138020000Y-64860000D03*
X138020000Y-29300000D03*
X145560000Y-59950000D03*
X138020000Y-44540000D03*
X148260000Y-60682500D03*
X151850000Y-57000000D03*
X138020000Y-67400000D03*
D34*
X151340000Y-46230000D03*
D33*
X145340000Y-59210000D03*
X142330000Y-70740000D03*
D34*
X151600000Y-35210000D03*
X152220000Y-42100000D03*
D33*
X155800000Y-62320000D03*
X148260000Y-61415000D03*
X138020000Y-47080000D03*
D34*
X148070000Y-38530000D03*
D33*
X138020000Y-57240000D03*
X138020000Y-42000000D03*
X145610000Y-37580000D03*
X150630000Y-65900000D03*
X155800000Y-39460000D03*
X155800000Y-31840000D03*
X138020000Y-62320000D03*
X145560000Y-61365000D03*
X150180000Y-67790000D03*
X147600000Y-54620000D03*
D34*
X143190000Y-35190000D03*
D33*
X141400000Y-62890000D03*
D34*
X152060000Y-37700000D03*
D33*
X145560000Y-60657500D03*
D34*
X150678260Y-35192240D03*
D33*
X138020000Y-59780000D03*
X155800000Y-29300000D03*
X155800000Y-52160000D03*
X150370000Y-55150000D03*
X147520000Y-63550000D03*
X148715016Y-58613579D03*
X141550000Y-41980000D03*
X143030000Y-50180000D03*
X144830000Y-59960000D03*
X144820000Y-60690000D03*
X144830000Y-61430000D03*
X144830000Y-62150000D03*
X144830000Y-62880000D03*
X149980000Y-65590000D03*
X148980000Y-62900000D03*
X148990000Y-62160000D03*
X148980000Y-61410000D03*
X148980000Y-60680000D03*
X148980000Y-59940000D03*
D34*
X149020000Y-39660000D03*
X149010000Y-38530000D03*
D33*
X150921879Y-66560751D03*
X146042396Y-59017918D03*
X142120000Y-62890000D03*
X146630000Y-63810000D03*
X142130000Y-43680000D03*
X151650000Y-62860000D03*
X147270000Y-58540000D03*
D34*
X151860000Y-36890000D03*
X141890000Y-36930000D03*
X154990000Y-34550000D03*
D35*
X144653553Y-66256447D02*
X144653553Y-66616447D01*
X145110000Y-65800000D02*
X144653553Y-66256447D01*
X145110000Y-64735000D02*
X145110000Y-65800000D01*
X145480000Y-68250000D02*
X145320000Y-68410000D01*
X145480000Y-66170000D02*
X145480000Y-68250000D01*
X146310000Y-65340000D02*
X145480000Y-66170000D01*
X146310000Y-64735000D02*
X146310000Y-65340000D01*
X139860000Y-68670000D02*
X143795000Y-64735000D01*
X138020000Y-68670000D02*
X139860000Y-68670000D01*
X143795000Y-64735000D02*
X144310000Y-64735000D01*
X141060000Y-66130000D02*
X138020000Y-66130000D01*
X143475000Y-63900000D02*
X143290000Y-63900000D01*
X143290000Y-63900000D02*
X141060000Y-66130000D01*
X144710000Y-64735000D02*
X144710000Y-65150000D01*
X144710000Y-65150000D02*
X138650000Y-71210000D01*
X138650000Y-71210000D02*
X138020000Y-71210000D01*
X142320000Y-68950000D02*
X142320000Y-69582500D01*
X143946447Y-67323553D02*
X142320000Y-68950000D01*
X146640000Y-54620000D02*
X146640000Y-55150000D01*
X141250000Y-62310000D02*
X141250000Y-62740000D01*
X150380000Y-55160000D02*
X150370000Y-55150000D01*
X151620000Y-57500000D02*
X151620000Y-57230000D01*
D36*
X151340000Y-48805000D02*
X151340000Y-49680000D01*
D35*
X148060000Y-67510000D02*
X148060000Y-68020000D01*
D36*
X152210000Y-42110000D02*
X152210000Y-42810000D01*
D35*
X143940000Y-69670000D02*
X143320000Y-70290000D01*
X151340000Y-49680000D02*
X151350000Y-49690000D01*
X142320000Y-71457500D02*
X142320000Y-70750000D01*
X144320000Y-68410000D02*
X143760000Y-68410000D01*
D37*
X152220000Y-42100000D02*
X152210000Y-42110000D01*
D38*
X143660000Y-34700000D02*
X143660000Y-34395000D01*
D36*
X143190000Y-35190000D02*
X142190000Y-35190000D01*
D35*
X141550000Y-42760000D02*
X141930000Y-42760000D01*
D36*
X151582240Y-35192240D02*
X150678260Y-35192240D01*
D35*
X141930000Y-42760000D02*
X142130000Y-42960000D01*
X141420000Y-56400000D02*
X141420000Y-56440000D01*
D38*
X150678260Y-35192240D02*
X150678260Y-34913260D01*
D35*
X149430000Y-55160000D02*
X149420000Y-55150000D01*
X141420000Y-56440000D02*
X141746447Y-56766447D01*
X144220000Y-69670000D02*
X143700000Y-69670000D01*
D38*
X143540000Y-34640000D02*
X143540000Y-34515000D01*
D35*
X150606447Y-67363553D02*
X150623553Y-67363553D01*
X145910000Y-64735000D02*
X145910000Y-63867018D01*
X150180000Y-67790000D02*
X149995000Y-67975000D01*
X148060000Y-69010000D02*
X147460000Y-68410000D01*
X145910000Y-63867018D02*
X145883086Y-63840104D01*
D37*
X148010000Y-41790000D02*
X148010000Y-41450000D01*
D35*
X152560000Y-62680000D02*
X152380000Y-62860000D01*
X147600000Y-54620000D02*
X147590000Y-54630000D01*
D38*
X149210000Y-42810000D02*
X148920000Y-42810000D01*
D35*
X145315000Y-52700000D02*
X145315000Y-51535000D01*
D38*
X148010000Y-41900000D02*
X148010000Y-41450000D01*
D35*
X144220000Y-69670000D02*
X144320000Y-69570000D01*
X146420000Y-71370000D02*
X147090000Y-71370000D01*
D36*
X143540000Y-34640000D02*
X143190000Y-34990000D01*
D35*
X144220000Y-69670000D02*
X143940000Y-69670000D01*
X147460000Y-68410000D02*
X147170000Y-68410000D01*
D38*
X150678260Y-34913260D02*
X150160000Y-34395000D01*
D36*
X143190000Y-34990000D02*
X143190000Y-35190000D01*
D38*
X151600000Y-35210000D02*
X151582240Y-35192240D01*
X143540000Y-34515000D02*
X143660000Y-34395000D01*
D35*
X144320000Y-69570000D02*
X144320000Y-68410000D01*
X152560000Y-62300000D02*
X152560000Y-62680000D01*
X151620000Y-57230000D02*
X151850000Y-57000000D01*
X147090000Y-71370000D02*
X147400000Y-71060000D01*
X147590000Y-54630000D02*
X147590000Y-55150000D01*
D38*
X148010000Y-41830000D02*
X148010000Y-41450000D01*
D36*
X151340000Y-47165000D02*
X151340000Y-46230000D01*
D35*
X149430000Y-55650000D02*
X149430000Y-55160000D01*
X145315000Y-51535000D02*
X145310000Y-51530000D01*
X142320000Y-70750000D02*
X142330000Y-70740000D01*
X150180000Y-67790000D02*
X150606447Y-67363553D01*
D38*
X148665000Y-42555000D02*
X148010000Y-41900000D01*
D35*
X150380000Y-55650000D02*
X150380000Y-55160000D01*
X141250000Y-62740000D02*
X141400000Y-62890000D01*
D38*
X148920000Y-42810000D02*
X148665000Y-42555000D01*
D35*
X149995000Y-67975000D02*
X149995000Y-68355000D01*
X146710000Y-59090000D02*
X146950000Y-59330000D01*
X146710000Y-57865000D02*
X146710000Y-56220000D01*
X147510000Y-64735000D02*
X147510000Y-65470000D01*
X148710000Y-57865000D02*
X148710000Y-57370000D01*
X146710000Y-56220000D02*
X146640000Y-56150000D01*
X147510000Y-65470000D02*
X148060000Y-66020000D01*
X147520000Y-63550000D02*
X147510000Y-63560000D01*
X147510000Y-63560000D02*
X147510000Y-64735000D01*
X148710000Y-57865000D02*
X148710000Y-58608563D01*
X146950000Y-59330000D02*
X148270000Y-59330000D01*
X146710000Y-57865000D02*
X146710000Y-59090000D01*
X148060000Y-66020000D02*
X148060000Y-66510000D01*
X148270000Y-59330000D02*
X148715016Y-58884984D01*
X148710000Y-57370000D02*
X149430000Y-56650000D01*
X148715016Y-58884984D02*
X148715016Y-58613579D01*
X148710000Y-58608563D02*
X148715016Y-58613579D01*
X145320000Y-70390000D02*
X144340000Y-71370000D01*
X145320000Y-68410000D02*
X145320000Y-70390000D01*
X144340000Y-71370000D02*
X144220000Y-71370000D01*
X146160000Y-67510000D02*
X146160000Y-68400000D01*
X146420000Y-69670000D02*
X146170000Y-69420000D01*
X146160000Y-68400000D02*
X146170000Y-68410000D01*
X146170000Y-69420000D02*
X146170000Y-68410000D01*
D39*
X148310000Y-57188320D02*
X148310000Y-57800686D01*
X149000000Y-53740000D02*
X149000000Y-53790000D01*
X148757156Y-56741164D02*
X148310000Y-57188320D01*
X148757156Y-54032844D02*
X148757156Y-56741164D01*
X149000000Y-53790000D02*
X148757156Y-54032844D01*
X148050000Y-53790000D02*
X148292844Y-54032844D01*
X148292844Y-56548836D02*
X147910000Y-56931680D01*
X148050000Y-53740000D02*
X148050000Y-53790000D01*
X147910000Y-56931680D02*
X147910000Y-57865000D01*
X148292844Y-54032844D02*
X148292844Y-56548836D01*
D37*
X148160000Y-35160000D02*
X148710000Y-35710000D01*
X148160000Y-34395000D02*
X148160000Y-35160000D01*
X148710000Y-35710000D02*
X148710000Y-35920000D01*
D40*
X146160000Y-33409000D02*
X146289000Y-33280000D01*
D39*
X146331681Y-35920000D02*
X145960000Y-35920000D01*
D40*
X146160000Y-34395000D02*
X146160000Y-35720000D01*
D39*
X148292844Y-52497156D02*
X148292844Y-44321164D01*
X146647844Y-42676164D02*
X146647844Y-36236163D01*
X148050000Y-52740000D02*
X148292844Y-52497156D01*
D40*
X146289000Y-33280000D02*
X147000000Y-33280000D01*
D39*
X146647844Y-36236163D02*
X146331681Y-35920000D01*
D40*
X147000000Y-33280000D02*
X147160000Y-33440000D01*
X146160000Y-34395000D02*
X146160000Y-33409000D01*
X146160000Y-35720000D02*
X145960000Y-35920000D01*
X147160000Y-33440000D02*
X147160000Y-34395000D01*
D39*
X148292844Y-44321164D02*
X146647844Y-42676164D01*
X149000000Y-52740000D02*
X148757156Y-52497156D01*
X146660000Y-35591681D02*
X146660000Y-34395000D01*
X148757156Y-52497156D02*
X148757156Y-44128836D01*
D40*
X147760000Y-35610000D02*
X147660000Y-35510000D01*
D39*
X147112156Y-42483836D02*
X147112156Y-36043837D01*
X148757156Y-44128836D02*
X147112156Y-42483836D01*
D40*
X146660000Y-35431000D02*
X146660000Y-34395000D01*
X147660000Y-35510000D02*
X147660000Y-34395000D01*
X147760000Y-35920000D02*
X147760000Y-35610000D01*
D39*
X147112156Y-36043837D02*
X146660000Y-35591681D01*
D40*
X147760000Y-35920000D02*
X147149000Y-35920000D01*
D37*
X145160000Y-35765000D02*
X145005000Y-35920000D01*
X145160000Y-34395000D02*
X145160000Y-35765000D01*
D35*
X146160000Y-66150000D02*
X146160000Y-66510000D01*
X146710000Y-64735000D02*
X146710000Y-65600000D01*
X146710000Y-65600000D02*
X146160000Y-66150000D01*
X144760000Y-41010000D02*
X144760000Y-42925000D01*
X141550000Y-40200000D02*
X143950000Y-40200000D01*
X143950000Y-40200000D02*
X144760000Y-41010000D01*
X142980000Y-56380000D02*
X142980000Y-55420000D01*
X141550000Y-41980000D02*
X141550000Y-41200000D01*
X142980000Y-55420000D02*
X142400000Y-54840000D01*
X141505000Y-53145000D02*
X142350000Y-53990000D01*
X144310000Y-57865000D02*
X144310000Y-57710000D01*
X142350000Y-53990000D02*
X142350000Y-54840000D01*
X141505000Y-52700000D02*
X141505000Y-51705000D01*
X144310000Y-57710000D02*
X142980000Y-56380000D01*
X142400000Y-54840000D02*
X142350000Y-54840000D01*
X141505000Y-52700000D02*
X141505000Y-53145000D01*
X141505000Y-51705000D02*
X143030000Y-50180000D01*
X143475000Y-59500000D02*
X144370000Y-59500000D01*
X144370000Y-59500000D02*
X144830000Y-59960000D01*
X143475000Y-59900000D02*
X142430000Y-59900000D01*
X142430000Y-59900000D02*
X140240000Y-57710000D01*
X140240000Y-45490000D02*
X138020000Y-43270000D01*
X140240000Y-57710000D02*
X140240000Y-45490000D01*
X144430000Y-60300000D02*
X144820000Y-60690000D01*
X143475000Y-60300000D02*
X144430000Y-60300000D01*
X141820000Y-60700000D02*
X139640000Y-58520000D01*
X139640000Y-58520000D02*
X139640000Y-49970000D01*
X143475000Y-60700000D02*
X141820000Y-60700000D01*
X139640000Y-49970000D02*
X138020000Y-48350000D01*
X143475000Y-61100000D02*
X144500000Y-61100000D01*
X144500000Y-61100000D02*
X144830000Y-61430000D01*
X139069511Y-59269511D02*
X139069511Y-54479511D01*
X139069511Y-54479511D02*
X138020000Y-53430000D01*
X141300000Y-61500000D02*
X139069511Y-59269511D01*
X143475000Y-61500000D02*
X141300000Y-61500000D01*
X144580000Y-61900000D02*
X144830000Y-62150000D01*
X143475000Y-61900000D02*
X144580000Y-61900000D01*
X144650000Y-62700000D02*
X144830000Y-62880000D01*
X143475000Y-62700000D02*
X144650000Y-62700000D01*
X141100000Y-63410000D02*
X138740000Y-61050000D01*
X143475000Y-63100000D02*
X142660000Y-63100000D01*
X138740000Y-61050000D02*
X138020000Y-61050000D01*
X142660000Y-63100000D02*
X142350000Y-63410000D01*
X142350000Y-63410000D02*
X141100000Y-63410000D01*
X142470000Y-64090000D02*
X140420000Y-64090000D01*
X143060000Y-63500000D02*
X142470000Y-64090000D01*
X143475000Y-63500000D02*
X143060000Y-63500000D01*
X140420000Y-64090000D02*
X139920000Y-63590000D01*
X139920000Y-63590000D02*
X138020000Y-63590000D01*
X144370000Y-73750000D02*
X144370000Y-73300000D01*
X144370000Y-73300000D02*
X145240000Y-72430000D01*
X145240000Y-72430000D02*
X147550000Y-72430000D01*
X148670000Y-71310000D02*
X148670000Y-66130000D01*
X147550000Y-72430000D02*
X148670000Y-71310000D01*
X148670000Y-66130000D02*
X147910000Y-65370000D01*
X147910000Y-65370000D02*
X147910000Y-64735000D01*
X149140000Y-66120000D02*
X149140000Y-73440000D01*
X149140000Y-73440000D02*
X149450000Y-73750000D01*
X148310000Y-65290000D02*
X149140000Y-66120000D01*
X148310000Y-64735000D02*
X148310000Y-65290000D01*
X149110000Y-64735000D02*
X149110000Y-65170000D01*
X149460000Y-65520000D02*
X149530000Y-65590000D01*
X149530000Y-65590000D02*
X149980000Y-65590000D01*
X149110000Y-65170000D02*
X149460000Y-65520000D01*
X150225000Y-64735000D02*
X154160000Y-68670000D01*
X149510000Y-64735000D02*
X150225000Y-64735000D01*
X154160000Y-68670000D02*
X155800000Y-68670000D01*
X151990000Y-65540000D02*
X155210000Y-65540000D01*
X150350000Y-63900000D02*
X151990000Y-65540000D01*
X155210000Y-65540000D02*
X155800000Y-66130000D01*
X150345000Y-63900000D02*
X150350000Y-63900000D01*
X150345000Y-63500000D02*
X150780000Y-63500000D01*
X155160000Y-64230000D02*
X155800000Y-63590000D01*
X150780000Y-63500000D02*
X151510000Y-64230000D01*
X151510000Y-64230000D02*
X155160000Y-64230000D01*
X151050000Y-63100000D02*
X151360000Y-63410000D01*
X151360000Y-63410000D02*
X152820000Y-63410000D01*
X155180000Y-61050000D02*
X155800000Y-61050000D01*
X152820000Y-63410000D02*
X155180000Y-61050000D01*
X150345000Y-63100000D02*
X151050000Y-63100000D01*
X149180000Y-62700000D02*
X148980000Y-62900000D01*
X150345000Y-62700000D02*
X149180000Y-62700000D01*
X149250000Y-61900000D02*
X148990000Y-62160000D01*
X150345000Y-61900000D02*
X149250000Y-61900000D01*
X150345000Y-61500000D02*
X153350000Y-61500000D01*
X154720000Y-60130000D02*
X154720000Y-54510000D01*
X153350000Y-61500000D02*
X154720000Y-60130000D01*
X154720000Y-54510000D02*
X155800000Y-53430000D01*
X150345000Y-61100000D02*
X149290000Y-61100000D01*
X149290000Y-61100000D02*
X148980000Y-61410000D01*
X154030000Y-50130000D02*
X155800000Y-48360000D01*
X155800000Y-48360000D02*
X155800000Y-48350000D01*
X150345000Y-60700000D02*
X153000000Y-60700000D01*
X154030000Y-59670000D02*
X154030000Y-50130000D01*
X153000000Y-60700000D02*
X154030000Y-59670000D01*
X149360000Y-60300000D02*
X148980000Y-60680000D01*
X150345000Y-60300000D02*
X149360000Y-60300000D01*
X153370000Y-59100000D02*
X153370000Y-46060000D01*
X150345000Y-59900000D02*
X152570000Y-59900000D01*
X155800000Y-43630000D02*
X155800000Y-43270000D01*
X152570000Y-59900000D02*
X153370000Y-59100000D01*
X153370000Y-46060000D02*
X155800000Y-43630000D01*
X149420000Y-59500000D02*
X150345000Y-59500000D01*
X148980000Y-59940000D02*
X149420000Y-59500000D01*
X154270000Y-39720000D02*
X155800000Y-38190000D01*
X154270000Y-42500000D02*
X154270000Y-39720000D01*
X152590000Y-58760000D02*
X152590000Y-44180000D01*
X152250000Y-59100000D02*
X152590000Y-58760000D01*
X152590000Y-44180000D02*
X154270000Y-42500000D01*
X150345000Y-59100000D02*
X152250000Y-59100000D01*
X142775000Y-44875000D02*
X142775000Y-45500000D01*
X146700000Y-44590000D02*
X145930000Y-43820000D01*
X146310000Y-57865000D02*
X146310000Y-56760000D01*
X146310000Y-56760000D02*
X146070000Y-56520000D01*
X145930000Y-43820000D02*
X143830000Y-43820000D01*
X143830000Y-43820000D02*
X142775000Y-44875000D01*
X146700000Y-53760000D02*
X146700000Y-44590000D01*
X146070000Y-56520000D02*
X146070000Y-54390000D01*
X146070000Y-54390000D02*
X146700000Y-53760000D01*
X146010000Y-44700000D02*
X145710000Y-44400000D01*
X145910000Y-56920000D02*
X145460000Y-56470000D01*
X144045000Y-44805000D02*
X144045000Y-45500000D01*
X145910000Y-57865000D02*
X145910000Y-56920000D01*
X145710000Y-44400000D02*
X144450000Y-44400000D01*
X146010000Y-53490000D02*
X146010000Y-44700000D01*
X144450000Y-44400000D02*
X144045000Y-44805000D01*
X145460000Y-56470000D02*
X145460000Y-54040000D01*
X145460000Y-54040000D02*
X146010000Y-53490000D01*
X144870000Y-56430000D02*
X144870000Y-53650000D01*
X145510000Y-57070000D02*
X144870000Y-56430000D01*
X145315000Y-47055000D02*
X145315000Y-45500000D01*
X145510000Y-57865000D02*
X145510000Y-57070000D01*
X144680000Y-53460000D02*
X144680000Y-47690000D01*
X144680000Y-47690000D02*
X145315000Y-47055000D01*
X144870000Y-53650000D02*
X144680000Y-53460000D01*
X144240000Y-53790000D02*
X144045000Y-53595000D01*
X144240000Y-56400000D02*
X144240000Y-53790000D01*
X145110000Y-57270000D02*
X144240000Y-56400000D01*
X145110000Y-57865000D02*
X145110000Y-57270000D01*
X144045000Y-53595000D02*
X144045000Y-52700000D01*
X143610000Y-56370000D02*
X143610000Y-54390000D01*
X144710000Y-57470000D02*
X143610000Y-56370000D01*
X144710000Y-57865000D02*
X144710000Y-57470000D01*
X143610000Y-54390000D02*
X142775000Y-53555000D01*
X142775000Y-53555000D02*
X142775000Y-52700000D01*
X151560000Y-62770000D02*
X151650000Y-62860000D01*
X147510000Y-58300000D02*
X147270000Y-58540000D01*
D36*
X149510000Y-41770000D02*
X149510000Y-41362500D01*
D35*
X147110000Y-66510000D02*
X147110000Y-64735000D01*
X147310000Y-56700000D02*
X147310000Y-57130000D01*
X142250000Y-62760000D02*
X142120000Y-62890000D01*
X150826183Y-66656447D02*
X150921879Y-66560751D01*
X147590000Y-56420000D02*
X147310000Y-56700000D01*
X149340000Y-57230000D02*
X149800000Y-57230000D01*
X141550000Y-43760000D02*
X142050000Y-43760000D01*
X149540000Y-57230000D02*
X149800000Y-57230000D01*
D36*
X150380000Y-56650000D02*
X150380000Y-57609022D01*
D35*
X149880000Y-57230000D02*
X150380000Y-56730000D01*
X146720000Y-63810000D02*
X146630000Y-63810000D01*
X148710000Y-65193586D02*
X149916447Y-66400033D01*
X151420000Y-58700000D02*
X151620000Y-58500000D01*
D36*
X149510000Y-40150000D02*
X149020000Y-39660000D01*
D35*
X143475000Y-58495000D02*
X142453553Y-57473553D01*
D36*
X151340000Y-51470000D02*
X149910000Y-50040000D01*
X150210000Y-42810000D02*
X150210000Y-42470000D01*
D35*
X147110000Y-57865000D02*
X147110000Y-57330000D01*
D36*
X138370000Y-27680000D02*
X155450000Y-27680000D01*
X151340000Y-56180000D02*
X151340000Y-51755000D01*
D35*
X146990000Y-64080000D02*
X146720000Y-63810000D01*
X142250000Y-62310000D02*
X142250000Y-62760000D01*
X149110000Y-57460000D02*
X149340000Y-57230000D01*
D36*
X150210000Y-42470000D02*
X149510000Y-41770000D01*
D35*
X147510000Y-57865000D02*
X147510000Y-58300000D01*
D36*
X150380000Y-56650000D02*
X150870000Y-56650000D01*
D35*
X149110000Y-57865000D02*
X149110000Y-57460000D01*
X143475000Y-58700000D02*
X143475000Y-58495000D01*
D36*
X149910000Y-50040000D02*
X149910000Y-43550000D01*
X149510000Y-41362500D02*
X149510000Y-40150000D01*
X150210000Y-43250000D02*
X150210000Y-42810000D01*
D35*
X147110000Y-64200000D02*
X146990000Y-64080000D01*
X151550000Y-67188872D02*
X150921879Y-66560751D01*
X150345000Y-58700000D02*
X151420000Y-58700000D01*
X149916447Y-66400033D02*
X149916447Y-66656447D01*
X149916447Y-66656447D02*
X150826183Y-66656447D01*
X142050000Y-43760000D02*
X142130000Y-43680000D01*
D36*
X150870000Y-56650000D02*
X151340000Y-56180000D01*
D35*
X147110000Y-57330000D02*
X147310000Y-57130000D01*
X147510000Y-57330000D02*
X147510000Y-57865000D01*
X141550000Y-43760000D02*
X141550000Y-45455000D01*
D38*
X138020000Y-28030000D02*
X138530000Y-28030000D01*
D36*
X150380000Y-57609022D02*
X151270978Y-58500000D01*
D35*
X147110000Y-64735000D02*
X147110000Y-64200000D01*
X148710000Y-64735000D02*
X148710000Y-65193586D01*
X149510000Y-57260000D02*
X149540000Y-57230000D01*
X147110000Y-58380000D02*
X147270000Y-58540000D01*
D36*
X155450000Y-27680000D02*
X155800000Y-28030000D01*
D35*
X143475000Y-58700000D02*
X144860000Y-58700000D01*
D38*
X151340000Y-51755000D02*
X151340000Y-51470000D01*
D35*
X151550000Y-69582500D02*
X151550000Y-67188872D01*
X147310000Y-57130000D02*
X147510000Y-57330000D01*
X142453553Y-57473553D02*
X142453553Y-55943553D01*
D36*
X138020000Y-28030000D02*
X138370000Y-27680000D01*
D35*
X141550000Y-45455000D02*
X141505000Y-45500000D01*
X151560000Y-62300000D02*
X151560000Y-62770000D01*
X144930000Y-58630000D02*
X145654478Y-58630000D01*
D36*
X149910000Y-43550000D02*
X150210000Y-43250000D01*
D35*
X145654478Y-58630000D02*
X146042396Y-59017918D01*
X149510000Y-57865000D02*
X149510000Y-57260000D01*
X143475000Y-62300000D02*
X142260000Y-62300000D01*
X147590000Y-56150000D02*
X147590000Y-56420000D01*
X147110000Y-57865000D02*
X147110000Y-58380000D01*
X142453553Y-55943553D02*
X142350000Y-55840000D01*
X150345000Y-62300000D02*
X151560000Y-62300000D01*
X149800000Y-57230000D02*
X149880000Y-57230000D01*
D36*
X151270978Y-58500000D02*
X151620000Y-58500000D01*
D35*
X144860000Y-58700000D02*
X144930000Y-58630000D01*
X140820000Y-40990000D02*
X138020000Y-38190000D01*
X140820000Y-56843649D02*
X140820000Y-40990000D01*
X143475000Y-59100000D02*
X143076351Y-59100000D01*
X143076351Y-59100000D02*
X140820000Y-56843649D01*
D38*
X151010000Y-36990000D02*
X151070000Y-36930000D01*
D36*
X151210000Y-44085000D02*
X151340000Y-44215000D01*
D35*
X151210000Y-41650000D02*
X151010000Y-41450000D01*
D38*
X151110000Y-36890000D02*
X151070000Y-36930000D01*
D36*
X151010000Y-41450000D02*
X151010000Y-36990000D01*
X151210000Y-42810000D02*
X151210000Y-44085000D01*
D38*
X141890000Y-36930000D02*
X141900000Y-36920000D01*
D36*
X151210000Y-42810000D02*
X151210000Y-41650000D01*
D38*
X141900000Y-36920000D02*
X142670000Y-36920000D01*
X151860000Y-36890000D02*
X151110000Y-36890000D01*
D36*
X151795480Y-30824520D02*
X152500000Y-30120000D01*
X155350000Y-30120000D02*
X155800000Y-30570000D01*
X152500000Y-30120000D02*
X155350000Y-30120000D01*
X149470000Y-29580000D02*
X150714520Y-30824520D01*
X154370000Y-35170000D02*
X154370000Y-36930000D01*
X144390000Y-29580000D02*
X149470000Y-29580000D01*
X150714520Y-30824520D02*
X151795480Y-30824520D01*
X154990000Y-34550000D02*
X154370000Y-35170000D01*
X142034520Y-30824520D02*
X143145480Y-30824520D01*
X138020000Y-30570000D02*
X138430000Y-30160000D01*
X141370000Y-30160000D02*
X142034520Y-30824520D01*
X143145480Y-30824520D02*
X144390000Y-29580000D01*
X138430000Y-30160000D02*
X141370000Y-30160000D01*
D38*
X144060000Y-35700000D02*
X144460000Y-35300000D01*
D36*
X139370000Y-35970000D02*
X139370000Y-36920000D01*
X140430000Y-36920000D02*
X139370000Y-36920000D01*
D38*
X149660000Y-35530000D02*
X149360000Y-35230000D01*
X153060000Y-35400000D02*
X153060000Y-35220000D01*
X144460000Y-35300000D02*
X144460000Y-34395000D01*
X144900000Y-33165339D02*
X144900000Y-31910000D01*
X149690000Y-35950000D02*
X152510000Y-35950000D01*
D36*
X148990000Y-31910000D02*
X151860000Y-31910000D01*
X140780000Y-33150000D02*
X142020000Y-31910000D01*
X151860000Y-31910000D02*
X153060000Y-33110000D01*
X153350000Y-33110000D02*
X155800000Y-33110000D01*
X144900000Y-31910000D02*
X148990000Y-31910000D01*
D38*
X152510000Y-35950000D02*
X153060000Y-35400000D01*
D36*
X138020000Y-33110000D02*
X138980000Y-33110000D01*
D38*
X149660000Y-35920000D02*
X149660000Y-35530000D01*
X149360000Y-33782116D02*
X149360000Y-33605339D01*
D36*
X141280000Y-36070000D02*
X140430000Y-36920000D01*
X138020000Y-33110000D02*
X138060000Y-33150000D01*
D38*
X149660000Y-35920000D02*
X149690000Y-35950000D01*
X149360000Y-34395000D02*
X149360000Y-33782116D01*
X144060000Y-35920000D02*
X144060000Y-35700000D01*
X144030000Y-35950000D02*
X141380000Y-35950000D01*
X148990000Y-33235339D02*
X148990000Y-31910000D01*
D36*
X139370000Y-33500000D02*
X139370000Y-35970000D01*
D38*
X144460000Y-33782116D02*
X144460000Y-33605339D01*
X149360000Y-33605339D02*
X148990000Y-33235339D01*
D36*
X138980000Y-33110000D02*
X139370000Y-33500000D01*
D38*
X149660000Y-35920000D02*
X149680000Y-35940000D01*
D36*
X142020000Y-31910000D02*
X144900000Y-31910000D01*
D38*
X144460000Y-33605339D02*
X144900000Y-33165339D01*
D36*
X138060000Y-33150000D02*
X140780000Y-33150000D01*
D38*
X144060000Y-35920000D02*
X144030000Y-35950000D01*
D36*
X153060000Y-35220000D02*
X153060000Y-33110000D01*
X153060000Y-33110000D02*
X153350000Y-33110000D01*
D38*
X144460000Y-34395000D02*
X144460000Y-33782116D01*
X149360000Y-35230000D02*
X149360000Y-34395000D01*
D35*
X151317500Y-71457500D02*
X151550000Y-71457500D01*
X149995000Y-70135000D02*
X151317500Y-71457500D01*
X149995000Y-69355000D02*
X149995000Y-70135000D01*
G04 #@! TA.AperFunction,Conductor*
G36*
X146295648Y-36634352D02*
G01*
X146310000Y-36669000D01*
X146310000Y-37199315D01*
X146295177Y-37234428D01*
X145567107Y-37943082D01*
X145567107Y-37943083D01*
X145560000Y-37950000D01*
X145560000Y-38951000D01*
X145545648Y-38985648D01*
X145511000Y-39000000D01*
X144009000Y-39000000D01*
X143974352Y-38985648D01*
X143960000Y-38951000D01*
X143960000Y-37950000D01*
X143712643Y-37227717D01*
X143710000Y-37211842D01*
X143710000Y-36669000D01*
X143724352Y-36634352D01*
X143759000Y-36620000D01*
X146261000Y-36620000D01*
X146295648Y-36634352D01*
G37*
G04 #@! TD.AperFunction*
G04 #@! TA.AperFunction,Conductor*
G36*
X148361297Y-67209705D02*
G01*
X148395858Y-67224266D01*
X148410000Y-67258704D01*
X148410000Y-69321000D01*
X148395648Y-69355648D01*
X148361000Y-69370000D01*
X147619000Y-69370000D01*
X147584352Y-69355648D01*
X147570000Y-69321000D01*
X147570000Y-68770000D01*
X147560439Y-68769861D01*
X147560438Y-68769861D01*
X146926949Y-68760680D01*
X146892512Y-68745827D01*
X146878678Y-68713065D01*
X146860127Y-68054499D01*
X146860127Y-68054498D01*
X146860000Y-68050000D01*
X146763769Y-67819045D01*
X146760000Y-67800200D01*
X146760000Y-67249298D01*
X146774352Y-67214650D01*
X146809297Y-67200299D01*
X148361297Y-67209705D01*
G37*
G04 #@! TD.AperFunction*
G04 #@! TA.AperFunction,Conductor*
G36*
X150005648Y-36634352D02*
G01*
X150020000Y-36669000D01*
X150020000Y-37171000D01*
X150005648Y-37205648D01*
X149971000Y-37220000D01*
X148460000Y-37220000D01*
X148460000Y-42051541D01*
X148445648Y-42086189D01*
X148411544Y-42100538D01*
X148050644Y-42104548D01*
X147609543Y-42109450D01*
X147574739Y-42095484D01*
X147560000Y-42060453D01*
X147560000Y-36669000D01*
X147574352Y-36634352D01*
X147609000Y-36620000D01*
X149971000Y-36620000D01*
X150005648Y-36634352D01*
G37*
G04 #@! TD.AperFunction*
M02*
