G04 #@! TF.GenerationSoftware,KiCad,Pcbnew,(6.0.4)*
G04 #@! TF.CreationDate,2022-04-05T22:09:31-06:00*
G04 #@! TF.ProjectId,2208 - RP2040 Simple Dev Board,32323038-202d-4205-9250-323034302053,1*
G04 #@! TF.SameCoordinates,Original*
G04 #@! TF.FileFunction,Legend,Bot*
G04 #@! TF.FilePolarity,Positive*
%FSLAX46Y46*%
G04 Gerber Fmt 4.6, Leading zero omitted, Abs format (unit mm)*
G04 Created by KiCad (PCBNEW (6.0.4)) date 2022-04-05 22:09:31*
%MOMM*%
%LPD*%
G01*
G04 APERTURE LIST*
%ADD10C,0.150000*%
%ADD11C,0.000003*%
%ADD12C,0.700000*%
%ADD13O,1.050000X2.100000*%
%ADD14C,1.700000*%
%ADD15R,1.700000X1.700000*%
%ADD16O,1.700000X1.700000*%
G04 APERTURE END LIST*
D10*
X157085714Y-25152380D02*
X157085714Y-25866666D01*
X157133333Y-26009523D01*
X157228571Y-26104761D01*
X157371428Y-26152380D01*
X157466666Y-26152380D01*
X156085714Y-26152380D02*
X156657142Y-26152380D01*
X156371428Y-26152380D02*
X156371428Y-25152380D01*
X156466666Y-25295238D01*
X156561904Y-25390476D01*
X156657142Y-25438095D01*
X155466666Y-25152380D02*
X155371428Y-25152380D01*
X155276190Y-25200000D01*
X155228571Y-25247619D01*
X155180952Y-25342857D01*
X155133333Y-25533333D01*
X155133333Y-25771428D01*
X155180952Y-25961904D01*
X155228571Y-26057142D01*
X155276190Y-26104761D01*
X155371428Y-26152380D01*
X155466666Y-26152380D01*
X155561904Y-26104761D01*
X155609523Y-26057142D01*
X155657142Y-25961904D01*
X155704761Y-25771428D01*
X155704761Y-25533333D01*
X155657142Y-25342857D01*
X155609523Y-25247619D01*
X155561904Y-25200000D01*
X155466666Y-25152380D01*
X154752380Y-25247619D02*
X154704761Y-25200000D01*
X154609523Y-25152380D01*
X154371428Y-25152380D01*
X154276190Y-25200000D01*
X154228571Y-25247619D01*
X154180952Y-25342857D01*
X154180952Y-25438095D01*
X154228571Y-25580952D01*
X154800000Y-26152380D01*
X154180952Y-26152380D01*
D11*
X142115932Y-56888040D02*
X142115678Y-56888040D01*
X142115836Y-56888064D02*
X142115932Y-56888137D01*
X142115763Y-56888137D02*
X142115860Y-56888040D01*
X142115932Y-56888246D02*
X142115763Y-56888246D01*
X142115678Y-56888246D02*
X142115691Y-56888234D01*
X142115703Y-56888246D01*
X142115691Y-56888258D01*
X142115678Y-56888246D01*
X142115703Y-56888246D01*
X142115932Y-56888367D02*
X142115678Y-56888367D01*
X142115775Y-56888367D02*
X142115763Y-56888391D01*
X142115763Y-56888439D01*
X142115775Y-56888463D01*
X142115787Y-56888476D01*
X142115811Y-56888488D01*
X142115884Y-56888488D01*
X142115908Y-56888476D01*
X142115920Y-56888463D01*
X142115932Y-56888439D01*
X142115932Y-56888391D01*
X142115920Y-56888367D01*
X142115763Y-56888705D02*
X142115932Y-56888705D01*
X142115763Y-56888596D02*
X142115896Y-56888596D01*
X142115920Y-56888609D01*
X142115932Y-56888633D01*
X142115932Y-56888669D01*
X142115920Y-56888693D01*
X142115908Y-56888705D01*
X142115763Y-56888802D02*
X142115763Y-56888935D01*
X142115932Y-56888802D01*
X142115932Y-56888935D01*
X142115763Y-56889008D02*
X142115763Y-56889141D01*
X142115932Y-56889008D01*
X142115932Y-56889141D01*
X142115932Y-56889346D02*
X142115799Y-56889346D01*
X142115775Y-56889334D01*
X142115763Y-56889310D01*
X142115763Y-56889262D01*
X142115775Y-56889238D01*
X142115920Y-56889346D02*
X142115932Y-56889322D01*
X142115932Y-56889262D01*
X142115920Y-56889238D01*
X142115896Y-56889225D01*
X142115872Y-56889225D01*
X142115848Y-56889238D01*
X142115836Y-56889262D01*
X142115836Y-56889322D01*
X142115824Y-56889346D01*
X142115932Y-56889467D02*
X142115763Y-56889467D01*
X142115811Y-56889467D02*
X142115787Y-56889479D01*
X142115775Y-56889492D01*
X142115763Y-56889516D01*
X142115763Y-56889540D01*
X142115932Y-56889733D02*
X142115678Y-56889733D01*
X142115920Y-56889733D02*
X142115932Y-56889709D01*
X142115932Y-56889661D01*
X142115920Y-56889637D01*
X142115908Y-56889625D01*
X142115884Y-56889612D01*
X142115811Y-56889612D01*
X142115787Y-56889625D01*
X142115775Y-56889637D01*
X142115763Y-56889661D01*
X142115763Y-56889709D01*
X142115775Y-56889733D01*
X142115836Y-56889854D02*
X142115836Y-56890048D01*
X142115678Y-56890278D02*
X142115678Y-56890229D01*
X142115691Y-56890205D01*
X142115703Y-56890193D01*
X142115739Y-56890169D01*
X142115787Y-56890157D01*
X142115884Y-56890157D01*
X142115908Y-56890169D01*
X142115920Y-56890181D01*
X142115932Y-56890205D01*
X142115932Y-56890254D01*
X142115920Y-56890278D01*
X142115908Y-56890290D01*
X142115884Y-56890302D01*
X142115824Y-56890302D01*
X142115799Y-56890290D01*
X142115787Y-56890278D01*
X142115775Y-56890254D01*
X142115775Y-56890205D01*
X142115787Y-56890181D01*
X142115799Y-56890169D01*
X142115824Y-56890157D01*
X142115703Y-56890399D02*
X142115691Y-56890411D01*
X142115678Y-56890435D01*
X142115678Y-56890495D01*
X142115691Y-56890520D01*
X142115703Y-56890532D01*
X142115727Y-56890544D01*
X142115751Y-56890544D01*
X142115787Y-56890532D01*
X142115932Y-56890387D01*
X142115932Y-56890544D01*
X142115763Y-56890762D02*
X142115932Y-56890762D01*
X142115666Y-56890701D02*
X142115848Y-56890641D01*
X142115848Y-56890798D01*
X142115908Y-56891040D02*
X142115920Y-56891028D01*
X142115932Y-56890991D01*
X142115932Y-56890967D01*
X142115920Y-56890931D01*
X142115896Y-56890907D01*
X142115872Y-56890895D01*
X142115824Y-56890882D01*
X142115787Y-56890882D01*
X142115739Y-56890895D01*
X142115715Y-56890907D01*
X142115691Y-56890931D01*
X142115678Y-56890967D01*
X142115678Y-56890991D01*
X142115691Y-56891028D01*
X142115703Y-56891040D01*
X142115799Y-56891233D02*
X142115799Y-56891149D01*
X142115932Y-56891149D02*
X142115678Y-56891149D01*
X142115678Y-56891270D01*
X142115703Y-56891354D02*
X142115691Y-56891366D01*
X142115678Y-56891390D01*
X142115678Y-56891451D01*
X142115691Y-56891475D01*
X142115703Y-56891487D01*
X142115727Y-56891499D01*
X142115751Y-56891499D01*
X142115787Y-56891487D01*
X142115932Y-56891342D01*
X142115932Y-56891499D01*
X142115703Y-56891596D02*
X142115691Y-56891608D01*
X142115678Y-56891632D01*
X142115678Y-56891693D01*
X142115691Y-56891717D01*
X142115703Y-56891729D01*
X142115727Y-56891741D01*
X142115751Y-56891741D01*
X142115787Y-56891729D01*
X142115932Y-56891584D01*
X142115932Y-56891741D01*
X142115799Y-56891850D02*
X142115799Y-56891935D01*
X142115932Y-56891971D02*
X142115932Y-56891850D01*
X142115678Y-56891850D01*
X142115678Y-56891971D01*
D10*
X139305714Y-25152380D02*
X139305714Y-25866666D01*
X139353333Y-26009523D01*
X139448571Y-26104761D01*
X139591428Y-26152380D01*
X139686666Y-26152380D01*
X138305714Y-26152380D02*
X138877142Y-26152380D01*
X138591428Y-26152380D02*
X138591428Y-25152380D01*
X138686666Y-25295238D01*
X138781904Y-25390476D01*
X138877142Y-25438095D01*
X137686666Y-25152380D02*
X137591428Y-25152380D01*
X137496190Y-25200000D01*
X137448571Y-25247619D01*
X137400952Y-25342857D01*
X137353333Y-25533333D01*
X137353333Y-25771428D01*
X137400952Y-25961904D01*
X137448571Y-26057142D01*
X137496190Y-26104761D01*
X137591428Y-26152380D01*
X137686666Y-26152380D01*
X137781904Y-26104761D01*
X137829523Y-26057142D01*
X137877142Y-25961904D01*
X137924761Y-25771428D01*
X137924761Y-25533333D01*
X137877142Y-25342857D01*
X137829523Y-25247619D01*
X137781904Y-25200000D01*
X137686666Y-25152380D01*
X136400952Y-26152380D02*
X136972380Y-26152380D01*
X136686666Y-26152380D02*
X136686666Y-25152380D01*
X136781904Y-25295238D01*
X136877142Y-25390476D01*
X136972380Y-25438095D01*
D11*
X143586302Y-38358028D02*
X143586048Y-38358028D01*
X143586206Y-38358052D02*
X143586302Y-38358125D01*
X143586133Y-38358125D02*
X143586230Y-38358028D01*
X143586302Y-38358234D02*
X143586133Y-38358234D01*
X143586048Y-38358234D02*
X143586061Y-38358222D01*
X143586073Y-38358234D01*
X143586061Y-38358246D01*
X143586048Y-38358234D01*
X143586073Y-38358234D01*
X143586302Y-38358355D02*
X143586048Y-38358355D01*
X143586145Y-38358355D02*
X143586133Y-38358379D01*
X143586133Y-38358427D01*
X143586145Y-38358451D01*
X143586157Y-38358463D01*
X143586181Y-38358476D01*
X143586254Y-38358476D01*
X143586278Y-38358463D01*
X143586290Y-38358451D01*
X143586302Y-38358427D01*
X143586302Y-38358379D01*
X143586290Y-38358355D01*
X143586133Y-38358693D02*
X143586302Y-38358693D01*
X143586133Y-38358584D02*
X143586266Y-38358584D01*
X143586290Y-38358596D01*
X143586302Y-38358621D01*
X143586302Y-38358657D01*
X143586290Y-38358681D01*
X143586278Y-38358693D01*
X143586133Y-38358790D02*
X143586133Y-38358923D01*
X143586302Y-38358790D01*
X143586302Y-38358923D01*
X143586133Y-38358996D02*
X143586133Y-38359129D01*
X143586302Y-38358996D01*
X143586302Y-38359129D01*
X143586302Y-38359334D02*
X143586169Y-38359334D01*
X143586145Y-38359322D01*
X143586133Y-38359298D01*
X143586133Y-38359250D01*
X143586145Y-38359225D01*
X143586290Y-38359334D02*
X143586302Y-38359310D01*
X143586302Y-38359250D01*
X143586290Y-38359225D01*
X143586266Y-38359213D01*
X143586242Y-38359213D01*
X143586218Y-38359225D01*
X143586206Y-38359250D01*
X143586206Y-38359310D01*
X143586194Y-38359334D01*
X143586302Y-38359455D02*
X143586133Y-38359455D01*
X143586181Y-38359455D02*
X143586157Y-38359467D01*
X143586145Y-38359479D01*
X143586133Y-38359504D01*
X143586133Y-38359528D01*
X143586302Y-38359721D02*
X143586048Y-38359721D01*
X143586290Y-38359721D02*
X143586302Y-38359697D01*
X143586302Y-38359649D01*
X143586290Y-38359625D01*
X143586278Y-38359612D01*
X143586254Y-38359600D01*
X143586181Y-38359600D01*
X143586157Y-38359612D01*
X143586145Y-38359625D01*
X143586133Y-38359649D01*
X143586133Y-38359697D01*
X143586145Y-38359721D01*
X143586206Y-38359842D02*
X143586206Y-38360036D01*
X143586048Y-38360266D02*
X143586048Y-38360217D01*
X143586061Y-38360193D01*
X143586073Y-38360181D01*
X143586109Y-38360157D01*
X143586157Y-38360145D01*
X143586254Y-38360145D01*
X143586278Y-38360157D01*
X143586290Y-38360169D01*
X143586302Y-38360193D01*
X143586302Y-38360241D01*
X143586290Y-38360266D01*
X143586278Y-38360278D01*
X143586254Y-38360290D01*
X143586194Y-38360290D01*
X143586169Y-38360278D01*
X143586157Y-38360266D01*
X143586145Y-38360241D01*
X143586145Y-38360193D01*
X143586157Y-38360169D01*
X143586169Y-38360157D01*
X143586194Y-38360145D01*
X143586073Y-38360387D02*
X143586061Y-38360399D01*
X143586048Y-38360423D01*
X143586048Y-38360483D01*
X143586061Y-38360508D01*
X143586073Y-38360520D01*
X143586097Y-38360532D01*
X143586121Y-38360532D01*
X143586157Y-38360520D01*
X143586302Y-38360374D01*
X143586302Y-38360532D01*
X143586133Y-38360749D02*
X143586302Y-38360749D01*
X143586036Y-38360689D02*
X143586218Y-38360628D01*
X143586218Y-38360786D01*
X143586278Y-38361028D02*
X143586290Y-38361016D01*
X143586302Y-38360979D01*
X143586302Y-38360955D01*
X143586290Y-38360919D01*
X143586266Y-38360895D01*
X143586242Y-38360882D01*
X143586194Y-38360870D01*
X143586157Y-38360870D01*
X143586109Y-38360882D01*
X143586085Y-38360895D01*
X143586061Y-38360919D01*
X143586048Y-38360955D01*
X143586048Y-38360979D01*
X143586061Y-38361016D01*
X143586073Y-38361028D01*
X143586169Y-38361221D02*
X143586169Y-38361136D01*
X143586302Y-38361136D02*
X143586048Y-38361136D01*
X143586048Y-38361257D01*
X143586302Y-38361487D02*
X143586302Y-38361342D01*
X143586302Y-38361415D02*
X143586048Y-38361415D01*
X143586085Y-38361390D01*
X143586109Y-38361366D01*
X143586121Y-38361342D01*
X143586169Y-38361681D02*
X143586181Y-38361717D01*
X143586194Y-38361729D01*
X143586218Y-38361741D01*
X143586254Y-38361741D01*
X143586278Y-38361729D01*
X143586290Y-38361717D01*
X143586302Y-38361693D01*
X143586302Y-38361596D01*
X143586048Y-38361596D01*
X143586048Y-38361681D01*
X143586061Y-38361705D01*
X143586073Y-38361717D01*
X143586097Y-38361729D01*
X143586121Y-38361729D01*
X143586145Y-38361717D01*
X143586157Y-38361705D01*
X143586169Y-38361681D01*
X143586169Y-38361596D01*
X143586302Y-38361862D02*
X143586302Y-38361911D01*
X143586290Y-38361935D01*
X143586278Y-38361947D01*
X143586242Y-38361971D01*
X143586194Y-38361983D01*
X143586097Y-38361983D01*
X143586073Y-38361971D01*
X143586061Y-38361959D01*
X143586048Y-38361935D01*
X143586048Y-38361886D01*
X143586061Y-38361862D01*
X143586073Y-38361850D01*
X143586097Y-38361838D01*
X143586157Y-38361838D01*
X143586181Y-38361850D01*
X143586194Y-38361862D01*
X143586206Y-38361886D01*
X143586206Y-38361935D01*
X143586194Y-38361959D01*
X143586181Y-38361971D01*
X143586157Y-38361983D01*
G36*
X148083903Y-54149294D02*
G01*
X148122613Y-54317428D01*
X148135516Y-54534048D01*
X148119007Y-54753535D01*
X148069479Y-54932357D01*
X147986932Y-55070513D01*
X147807459Y-55203066D01*
X147566206Y-55247250D01*
X147420359Y-55233956D01*
X147301883Y-55194073D01*
X147126711Y-55058001D01*
X147014100Y-54876573D01*
X146937462Y-54687324D01*
X146890541Y-54566893D01*
X146832671Y-54457410D01*
X146757597Y-54377644D01*
X146659063Y-54346363D01*
X146492493Y-54423001D01*
X146436969Y-54652915D01*
X146468250Y-54873445D01*
X146543324Y-55047053D01*
X146246157Y-55159664D01*
X146155442Y-54936006D01*
X146124943Y-54791723D01*
X146114777Y-54624762D01*
X146131808Y-54433081D01*
X146182900Y-54270942D01*
X146268053Y-54138346D01*
X146451046Y-54005794D01*
X146693472Y-53961610D01*
X146923386Y-54011659D01*
X147078225Y-54138346D01*
X147181452Y-54308826D01*
X147253398Y-54490255D01*
X147308139Y-54621634D01*
X147373829Y-54740501D01*
X147456723Y-54828087D01*
X147563078Y-54862496D01*
X147655356Y-54848420D01*
X147736686Y-54796807D01*
X147792991Y-54695144D01*
X147813324Y-54534048D01*
X147802376Y-54378035D01*
X147769531Y-54247829D01*
X147675689Y-54046068D01*
X147988496Y-53933457D01*
X148083903Y-54149294D01*
G37*
G36*
X143254564Y-56109505D02*
G01*
X143316476Y-56239680D01*
X143254564Y-56365092D01*
X143106926Y-56414305D01*
X142957701Y-56365092D01*
X142894201Y-56239680D01*
X142957701Y-56109505D01*
X143106926Y-56061880D01*
X143254564Y-56109505D01*
G37*
G36*
X142149664Y-52712255D02*
G01*
X142163951Y-52567792D01*
X142186176Y-52439205D01*
X144126101Y-52439205D01*
X144126101Y-52829730D01*
X143462526Y-52829730D01*
X143462526Y-52969430D01*
X143445064Y-53204203D01*
X143392676Y-53400524D01*
X143305364Y-53558392D01*
X143178893Y-53673927D01*
X143009030Y-53743248D01*
X142795776Y-53766355D01*
X142584639Y-53743424D01*
X142416893Y-53674633D01*
X142292539Y-53559980D01*
X142206990Y-53403699D01*
X142155661Y-53210024D01*
X142141842Y-53023405D01*
X142478276Y-53023405D01*
X142496135Y-53163502D01*
X142549714Y-53272642D01*
X142646154Y-53342889D01*
X142792601Y-53366305D01*
X142946985Y-53342492D01*
X143048189Y-53271055D01*
X143104148Y-53152786D01*
X143122801Y-52988480D01*
X143122801Y-52829730D01*
X142487801Y-52829730D01*
X142479864Y-52926567D01*
X142478276Y-53023405D01*
X142141842Y-53023405D01*
X142138551Y-52978955D01*
X142141726Y-52855130D01*
X142149664Y-52712255D01*
G37*
G36*
X142687429Y-56875474D02*
G01*
X142511514Y-56820903D01*
X142368739Y-56744505D01*
X142228509Y-56610449D01*
X142144372Y-56441116D01*
X142116326Y-56236505D01*
X142449701Y-56236505D01*
X142493754Y-56378983D01*
X142625914Y-56482567D01*
X142761204Y-56529310D01*
X142932125Y-56557356D01*
X143138676Y-56566705D01*
X143346991Y-56557356D01*
X143518971Y-56529310D01*
X143654614Y-56482567D01*
X143786773Y-56378983D01*
X143830826Y-56236505D01*
X143786773Y-56096011D01*
X143654614Y-55992030D01*
X143518971Y-55944405D01*
X143346991Y-55915830D01*
X143138676Y-55906305D01*
X142932125Y-55915830D01*
X142761204Y-55944405D01*
X142625914Y-55992030D01*
X142493754Y-56096011D01*
X142449701Y-56236505D01*
X142116326Y-56236505D01*
X142144548Y-56035069D01*
X142229215Y-55866794D01*
X142370326Y-55731680D01*
X142513598Y-55653892D01*
X142689414Y-55598330D01*
X142897773Y-55564992D01*
X143138676Y-55553880D01*
X143382357Y-55564794D01*
X143592701Y-55597536D01*
X143769707Y-55652106D01*
X143913376Y-55728505D01*
X144054487Y-55862560D01*
X144139154Y-56031894D01*
X144167376Y-56236505D01*
X144139154Y-56441116D01*
X144054487Y-56610449D01*
X143913376Y-56744505D01*
X143769707Y-56820903D01*
X143592701Y-56875474D01*
X143382357Y-56908216D01*
X143138676Y-56919130D01*
X142896483Y-56908216D01*
X142687429Y-56875474D01*
G37*
G36*
X151540728Y-58514105D02*
G01*
X151711712Y-58569494D01*
X151852448Y-58647039D01*
X151992018Y-58782841D01*
X152075760Y-58953921D01*
X152103674Y-59160279D01*
X152075760Y-59361671D01*
X151992018Y-59530182D01*
X151852448Y-59665813D01*
X151711712Y-59744032D01*
X151540728Y-59799903D01*
X151339497Y-59833425D01*
X151108019Y-59844600D01*
X150876540Y-59833618D01*
X150675309Y-59800674D01*
X150504325Y-59745766D01*
X150363589Y-59668896D01*
X150224019Y-59533950D01*
X150140277Y-59363383D01*
X150112363Y-59157197D01*
X150442193Y-59157197D01*
X150494596Y-59314405D01*
X150636392Y-59405340D01*
X150847545Y-59448495D01*
X151108019Y-59459284D01*
X151366951Y-59448495D01*
X151578104Y-59405340D01*
X151721441Y-59312864D01*
X151773844Y-59157197D01*
X151721441Y-58999988D01*
X151579645Y-58909053D01*
X151368492Y-58865898D01*
X151108019Y-58855109D01*
X150849087Y-58865898D01*
X150637934Y-58909053D01*
X150494596Y-58999988D01*
X150442193Y-59157197D01*
X150112363Y-59157197D01*
X150140277Y-58957175D01*
X150224019Y-58788664D01*
X150363589Y-58651663D01*
X150504325Y-58572095D01*
X150675309Y-58515261D01*
X150876540Y-58481160D01*
X151108019Y-58469794D01*
X151339497Y-58480872D01*
X151540728Y-58514105D01*
G37*
G36*
X152063601Y-55180740D02*
G01*
X151749184Y-55180740D01*
X151749184Y-54336129D01*
X151212824Y-54336129D01*
X151212824Y-55011201D01*
X150898407Y-55011201D01*
X150898407Y-54336129D01*
X150469936Y-54336129D01*
X150469936Y-55112925D01*
X150155519Y-55112925D01*
X150155519Y-53956978D01*
X152063601Y-53956978D01*
X152063601Y-55180740D01*
G37*
G36*
X142149664Y-51115230D02*
G01*
X142165539Y-50977117D01*
X142189351Y-50851705D01*
X144126101Y-50851705D01*
X144126101Y-51242230D01*
X143402201Y-51242230D01*
X143402201Y-51445430D01*
X143581985Y-51552983D01*
X143759389Y-51653392D01*
X143939173Y-51744277D01*
X144126101Y-51823255D01*
X144126101Y-52232830D01*
X143918139Y-52142342D01*
X143699064Y-52032805D01*
X143489514Y-51915330D01*
X143306951Y-51801030D01*
X143217257Y-51939936D01*
X143094226Y-52032805D01*
X142946589Y-52085192D01*
X142783076Y-52102655D01*
X142628692Y-52089558D01*
X142495739Y-52050267D01*
X142294126Y-51899455D01*
X142225070Y-51791505D01*
X142176651Y-51664505D01*
X142148076Y-51520042D01*
X142138551Y-51359705D01*
X142478276Y-51359705D01*
X142496532Y-51500199D01*
X142551301Y-51610530D01*
X142644964Y-51681967D01*
X142779901Y-51705780D01*
X143000564Y-51616880D01*
X143058904Y-51500199D01*
X143078351Y-51327955D01*
X143078351Y-51242230D01*
X142487801Y-51242230D01*
X142479864Y-51305730D01*
X142478276Y-51359705D01*
X142138551Y-51359705D01*
X142141726Y-51248580D01*
X142149664Y-51115230D01*
G37*
G36*
X142296110Y-57849405D02*
G01*
X142448114Y-57722405D01*
X142609642Y-57598580D01*
X142773551Y-57481105D01*
X142936667Y-57371567D01*
X143095814Y-57271555D01*
X143244642Y-57185036D01*
X143376801Y-57115980D01*
X143662551Y-57115980D01*
X143662551Y-57935130D01*
X144126101Y-57935130D01*
X144126101Y-58325655D01*
X143662551Y-58325655D01*
X143662551Y-58538380D01*
X143341876Y-58538380D01*
X143341876Y-58325655D01*
X142160776Y-58325655D01*
X142160776Y-57976405D01*
X142204760Y-57935130D01*
X142649726Y-57935130D01*
X143341876Y-57935130D01*
X143341876Y-57490630D01*
X143160901Y-57585880D01*
X142978339Y-57698592D01*
X142805301Y-57817655D01*
X142649726Y-57935130D01*
X142204760Y-57935130D01*
X142296110Y-57849405D01*
G37*
G36*
X143254564Y-59284505D02*
G01*
X143316476Y-59414680D01*
X143254564Y-59540092D01*
X143106926Y-59589305D01*
X142957701Y-59540092D01*
X142894201Y-59414680D01*
X142957701Y-59284505D01*
X143106926Y-59236880D01*
X143254564Y-59284505D01*
G37*
G36*
X150144730Y-52643823D02*
G01*
X150160142Y-52509733D01*
X150183261Y-52387973D01*
X152063601Y-52387973D01*
X152063601Y-52767124D01*
X151360786Y-52767124D01*
X151360786Y-52964405D01*
X151535333Y-53068826D01*
X151707570Y-53166311D01*
X151882117Y-53254548D01*
X152063601Y-53331226D01*
X152063601Y-53728871D01*
X151861696Y-53641019D01*
X151649002Y-53534672D01*
X151445555Y-53420619D01*
X151268310Y-53309648D01*
X151181229Y-53444508D01*
X151061781Y-53534672D01*
X150918443Y-53585534D01*
X150759693Y-53602488D01*
X150609806Y-53589772D01*
X150480725Y-53551626D01*
X150284985Y-53405206D01*
X150170931Y-53177100D01*
X150143188Y-53036845D01*
X150133941Y-52881177D01*
X150463771Y-52881177D01*
X150481496Y-53017579D01*
X150534669Y-53124697D01*
X150625604Y-53194053D01*
X150756611Y-53217172D01*
X150970846Y-53130862D01*
X151027488Y-53017579D01*
X151046368Y-52850352D01*
X151046368Y-52767124D01*
X150473019Y-52767124D01*
X150465312Y-52828774D01*
X150463771Y-52881177D01*
X150133941Y-52881177D01*
X150137023Y-52773289D01*
X150144730Y-52643823D01*
G37*
G36*
X142649726Y-54185455D02*
G01*
X142500501Y-54385480D01*
X142456051Y-54579155D01*
X142521139Y-54763305D01*
X142706876Y-54836330D01*
X142875151Y-54777592D01*
X143046601Y-54628367D01*
X143137485Y-54534705D01*
X143232339Y-54434692D01*
X143333145Y-54334680D01*
X143441889Y-54241017D01*
X143559760Y-54158467D01*
X143687951Y-54091792D01*
X143827651Y-54047739D01*
X143980051Y-54033055D01*
X144046726Y-54031467D01*
X144126101Y-54039405D01*
X144126101Y-55322105D01*
X143802251Y-55322105D01*
X143802251Y-54477555D01*
X143697476Y-54510892D01*
X143584764Y-54591855D01*
X143476814Y-54693455D01*
X143386326Y-54788705D01*
X143227576Y-54950630D01*
X143056126Y-55093505D01*
X142873564Y-55195105D01*
X142678301Y-55233205D01*
X142432239Y-55182405D01*
X142256026Y-55045880D01*
X142151251Y-54849030D01*
X142116326Y-54617255D01*
X142132201Y-54451758D01*
X142179826Y-54285467D01*
X142260789Y-54128702D01*
X142376676Y-53991780D01*
X142649726Y-54185455D01*
G37*
G36*
X146477634Y-55963580D02*
G01*
X147775787Y-55963580D01*
X147775787Y-55541289D01*
X148094851Y-55541289D01*
X148094851Y-56770624D01*
X147775787Y-56770624D01*
X147775787Y-56351462D01*
X146477634Y-56351462D01*
X146477634Y-56770624D01*
X146158570Y-56770624D01*
X146158570Y-55541289D01*
X146477634Y-55541289D01*
X146477634Y-55963580D01*
G37*
G36*
X151234402Y-52056602D02*
G01*
X151126514Y-51956035D01*
X151043286Y-51793046D01*
X150876829Y-51970291D01*
X150636392Y-52036566D01*
X150457606Y-52008823D01*
X150295773Y-51904017D01*
X150178637Y-51691323D01*
X150145115Y-51535655D01*
X150137284Y-51398483D01*
X150463771Y-51398483D01*
X150471477Y-51500206D01*
X150502303Y-51586517D01*
X150567036Y-51645085D01*
X150676465Y-51666663D01*
X150850628Y-51592682D01*
X150897800Y-51429308D01*
X151228237Y-51429308D01*
X151288346Y-51665121D01*
X151487169Y-51752973D01*
X151624341Y-51722148D01*
X151707570Y-51643544D01*
X151747642Y-51534114D01*
X151758431Y-51407731D01*
X151755349Y-51313714D01*
X151746101Y-51225862D01*
X151228237Y-51225862D01*
X151228237Y-51429308D01*
X150897800Y-51429308D01*
X150913820Y-51373823D01*
X150913820Y-51225862D01*
X150476101Y-51225862D01*
X150466854Y-51309090D01*
X150463771Y-51398483D01*
X150137284Y-51398483D01*
X150133941Y-51339915D01*
X150147812Y-51084066D01*
X150180179Y-50846711D01*
X152032776Y-50846711D01*
X152057051Y-50980030D01*
X152074390Y-51114891D01*
X152088261Y-51376905D01*
X152080940Y-51529105D01*
X152058977Y-51671286D01*
X151960337Y-51908641D01*
X151775385Y-52067391D01*
X151645534Y-52111317D01*
X151487169Y-52125959D01*
X151357703Y-52108620D01*
X151234402Y-52056602D01*
G37*
G36*
X142687429Y-60050474D02*
G01*
X142511514Y-59995903D01*
X142368739Y-59919505D01*
X142228509Y-59785449D01*
X142144372Y-59616116D01*
X142116326Y-59411505D01*
X142449701Y-59411505D01*
X142493754Y-59553983D01*
X142625914Y-59657567D01*
X142761204Y-59704310D01*
X142932125Y-59732356D01*
X143138676Y-59741705D01*
X143346991Y-59732356D01*
X143518971Y-59704310D01*
X143654614Y-59657567D01*
X143786773Y-59553983D01*
X143830826Y-59411505D01*
X143786773Y-59271011D01*
X143654614Y-59167030D01*
X143518971Y-59119405D01*
X143346991Y-59090830D01*
X143138676Y-59081305D01*
X142932125Y-59090830D01*
X142761204Y-59119405D01*
X142625914Y-59167030D01*
X142493754Y-59271011D01*
X142449701Y-59411505D01*
X142116326Y-59411505D01*
X142144548Y-59210069D01*
X142229215Y-59041794D01*
X142370326Y-58906680D01*
X142513598Y-58828892D01*
X142689414Y-58773330D01*
X142897773Y-58739992D01*
X143138676Y-58728880D01*
X143382357Y-58739794D01*
X143592701Y-58772536D01*
X143769707Y-58827106D01*
X143913376Y-58903505D01*
X144054487Y-59037560D01*
X144139154Y-59206894D01*
X144167376Y-59411505D01*
X144139154Y-59616116D01*
X144054487Y-59785449D01*
X143913376Y-59919505D01*
X143769707Y-59995903D01*
X143592701Y-60050474D01*
X143382357Y-60083216D01*
X143138676Y-60094130D01*
X142896483Y-60083216D01*
X142687429Y-60050474D01*
G37*
G36*
X150469936Y-62048604D02*
G01*
X152063601Y-62048604D01*
X152063601Y-62430837D01*
X150469936Y-62430837D01*
X150469936Y-62933289D01*
X150155519Y-62933289D01*
X150155519Y-61546153D01*
X150469936Y-61546153D01*
X150469936Y-62048604D01*
G37*
G36*
X151531866Y-60055752D02*
G01*
X151675203Y-60078871D01*
X151906392Y-60183677D01*
X152052812Y-60382500D01*
X152090958Y-60522370D01*
X152103674Y-60692294D01*
X152090958Y-60864915D01*
X152052812Y-61006711D01*
X151906392Y-61210158D01*
X151675203Y-61318046D01*
X151531866Y-61341165D01*
X151373116Y-61348871D01*
X150155519Y-61348871D01*
X150155519Y-60969721D01*
X151345373Y-60969721D01*
X151547278Y-60957391D01*
X151679827Y-60914235D01*
X151752266Y-60831007D01*
X151773844Y-60698459D01*
X151752266Y-60565910D01*
X151681368Y-60484223D01*
X151550361Y-60442609D01*
X151348455Y-60430279D01*
X150155519Y-60430279D01*
X150155519Y-60048046D01*
X151373116Y-60048046D01*
X151531866Y-60055752D01*
G37*
G36*
X152063601Y-56817561D02*
G01*
X151794169Y-56753887D01*
X151534563Y-56689251D01*
X151284782Y-56623651D01*
X151044827Y-56557087D01*
X150812963Y-56489946D01*
X150587457Y-56422612D01*
X150368309Y-56355086D01*
X150155519Y-56287367D01*
X150155519Y-56071590D01*
X150525421Y-56071590D01*
X150730409Y-56128617D01*
X150921526Y-56177937D01*
X151111101Y-56219551D01*
X151308383Y-56256541D01*
X151308383Y-55883556D01*
X151111101Y-55922087D01*
X150921526Y-55965243D01*
X150730409Y-56014563D01*
X150525421Y-56071590D01*
X150155519Y-56071590D01*
X150155519Y-55874308D01*
X150366575Y-55808997D01*
X150583604Y-55742530D01*
X150806605Y-55674907D01*
X151035579Y-55606129D01*
X151225154Y-55550767D01*
X151422744Y-55495651D01*
X151628349Y-55440782D01*
X151841968Y-55386160D01*
X152063601Y-55331784D01*
X152063601Y-55726347D01*
X151622800Y-55812658D01*
X151622800Y-56321274D01*
X152063601Y-56410667D01*
X152063601Y-56817561D01*
G37*
G36*
X148094851Y-53780181D02*
G01*
X147875323Y-53728568D01*
X147662175Y-53676329D01*
X147455409Y-53623464D01*
X147255024Y-53569974D01*
X147061021Y-53515858D01*
X146825731Y-53447725D01*
X146596892Y-53379396D01*
X146374505Y-53310871D01*
X146158570Y-53242151D01*
X146158570Y-53023186D01*
X146533940Y-53023186D01*
X146741957Y-53081055D01*
X146935898Y-53131105D01*
X147128275Y-53173334D01*
X147328472Y-53210871D01*
X147328472Y-52832373D01*
X147128275Y-52871474D01*
X146935898Y-52915267D01*
X146741957Y-52965316D01*
X146533940Y-53023186D01*
X146158570Y-53023186D01*
X146158570Y-52822989D01*
X146372746Y-52756713D01*
X146592982Y-52689263D01*
X146819279Y-52620641D01*
X147051637Y-52550846D01*
X147244014Y-52494666D01*
X147444524Y-52438736D01*
X147653166Y-52383056D01*
X147869942Y-52327626D01*
X148094851Y-52272447D01*
X148094851Y-52672841D01*
X147647536Y-52760427D01*
X147647536Y-53276560D01*
X148094851Y-53367275D01*
X148094851Y-53780181D01*
G37*
G36*
X147253398Y-52076942D02*
G01*
X147143915Y-51974888D01*
X147059457Y-51809491D01*
X146890541Y-51989356D01*
X146646551Y-52056610D01*
X146465122Y-52028457D01*
X146300898Y-51922102D01*
X146182031Y-51706265D01*
X146148013Y-51548297D01*
X146140067Y-51409097D01*
X146471378Y-51409097D01*
X146479198Y-51512324D01*
X146510479Y-51599910D01*
X146576169Y-51659344D01*
X146687216Y-51681240D01*
X146863952Y-51606166D01*
X146911821Y-51440378D01*
X147247142Y-51440378D01*
X147308139Y-51679676D01*
X147509900Y-51768826D01*
X147649100Y-51737545D01*
X147733558Y-51657779D01*
X147774223Y-51546733D01*
X147785171Y-51418481D01*
X147782043Y-51323075D01*
X147772659Y-51233925D01*
X147247142Y-51233925D01*
X147247142Y-51440378D01*
X146911821Y-51440378D01*
X146928078Y-51384073D01*
X146928078Y-51233925D01*
X146483891Y-51233925D01*
X146474506Y-51318383D01*
X146471378Y-51409097D01*
X146140067Y-51409097D01*
X146136674Y-51349664D01*
X146150750Y-51090033D01*
X146183595Y-50849171D01*
X148063570Y-50849171D01*
X148088204Y-50984461D01*
X148105799Y-51121314D01*
X148116357Y-51256603D01*
X148119876Y-51387201D01*
X148112447Y-51541650D01*
X148090159Y-51685932D01*
X148050276Y-51815747D01*
X147990060Y-51926794D01*
X147802376Y-52087890D01*
X147670605Y-52132465D01*
X147509900Y-52147324D01*
X147378521Y-52129728D01*
X147253398Y-52076942D01*
G37*
G36*
X147353692Y-57034360D02*
G01*
X147554475Y-57074830D01*
X147727497Y-57142279D01*
X147872757Y-57236708D01*
X148018735Y-57402149D01*
X148106321Y-57610687D01*
X148135516Y-57862324D01*
X148124959Y-58033195D01*
X148093287Y-58182952D01*
X148001009Y-58403481D01*
X147697585Y-58306511D01*
X147766403Y-58148543D01*
X147800812Y-57899861D01*
X147756628Y-57676594D01*
X147624075Y-57526055D01*
X147489046Y-57462625D01*
X147319609Y-57424567D01*
X147115762Y-57411880D01*
X146940590Y-57422438D01*
X146796698Y-57454110D01*
X146591809Y-57563592D01*
X146482326Y-57716868D01*
X146449482Y-57893605D01*
X146482326Y-58126646D01*
X146562092Y-58300255D01*
X146255541Y-58400353D01*
X146218004Y-58336228D01*
X146171083Y-58231437D01*
X146131982Y-58085981D01*
X146114777Y-57899861D01*
X146131591Y-57716477D01*
X146182031Y-57547952D01*
X146264925Y-57397804D01*
X146379100Y-57269553D01*
X146523382Y-57165153D01*
X146696600Y-57086560D01*
X146897579Y-57037293D01*
X147125147Y-57020871D01*
X147353692Y-57034360D01*
G37*
G36*
X152063601Y-57363167D02*
G01*
X151191247Y-57363167D01*
X151365409Y-57525000D01*
X151472527Y-57607843D01*
X151587351Y-57686833D01*
X151707570Y-57760428D01*
X151830871Y-57827087D01*
X152063601Y-57924187D01*
X152063601Y-58352658D01*
X151926043Y-58302567D01*
X151784633Y-58238604D01*
X151642837Y-58163468D01*
X151504123Y-58079854D01*
X151371189Y-57989305D01*
X151246732Y-57893362D01*
X151133449Y-57795492D01*
X151034038Y-57699163D01*
X150920755Y-57792794D01*
X150802849Y-57882573D01*
X150683786Y-57967728D01*
X150567036Y-58047488D01*
X150345094Y-58184660D01*
X150155519Y-58287925D01*
X150155519Y-57859454D01*
X150340470Y-57766978D01*
X150546999Y-57645218D01*
X150756611Y-57504964D01*
X150947727Y-57363167D01*
X150155519Y-57363167D01*
X150155519Y-56984017D01*
X152063601Y-56984017D01*
X152063601Y-57363167D01*
G37*
G36*
X147653699Y-34487790D02*
G01*
X148323107Y-34487790D01*
X148274622Y-34356411D01*
X148264791Y-34268825D01*
X148588994Y-34268825D01*
X148606199Y-34387692D01*
X148648428Y-34487790D01*
X149449216Y-34487790D01*
X149458600Y-34403332D01*
X149461728Y-34315746D01*
X149430447Y-34175373D01*
X149336605Y-34079576D01*
X149193495Y-34024444D01*
X149014413Y-34006066D01*
X148832202Y-34021707D01*
X148698477Y-34068628D01*
X148588994Y-34268825D01*
X148264791Y-34268825D01*
X148257418Y-34203135D01*
X148280531Y-34025008D01*
X148349870Y-33878510D01*
X148465435Y-33763640D01*
X148620970Y-33681094D01*
X148810219Y-33631566D01*
X149033181Y-33615056D01*
X149252147Y-33634694D01*
X149437746Y-33693606D01*
X149589979Y-33791793D01*
X149702938Y-33928212D01*
X149770713Y-34101820D01*
X149793304Y-34312618D01*
X149787830Y-34461202D01*
X149771408Y-34612913D01*
X149746383Y-34754459D01*
X149715102Y-34872544D01*
X147588009Y-34872544D01*
X147653699Y-34487790D01*
G37*
G36*
X149364758Y-30552667D02*
G01*
X149494182Y-30621094D01*
X149600928Y-30713763D01*
X149684604Y-30829502D01*
X149744819Y-30967138D01*
X149781183Y-31125497D01*
X149793304Y-31303406D01*
X149769844Y-31556780D01*
X149711974Y-31769490D01*
X149383526Y-31716312D01*
X149433575Y-31539576D01*
X149458600Y-31319046D01*
X149437876Y-31148566D01*
X149375706Y-31012495D01*
X149277562Y-30923345D01*
X149148920Y-30893628D01*
X149148920Y-31847692D01*
X149083231Y-31852384D01*
X149005029Y-31853948D01*
X148778590Y-31835179D01*
X148591427Y-31778874D01*
X148443538Y-31685032D01*
X148336662Y-31555043D01*
X148272537Y-31390297D01*
X148251832Y-31197051D01*
X148573354Y-31197051D01*
X148599942Y-31328431D01*
X148670324Y-31416017D01*
X148768859Y-31466066D01*
X148883033Y-31481707D01*
X148883033Y-30893628D01*
X148767295Y-30920216D01*
X148667196Y-30976522D01*
X148598378Y-31067236D01*
X148573354Y-31197051D01*
X148251832Y-31197051D01*
X148251162Y-31190795D01*
X148263674Y-31060980D01*
X148301211Y-30934293D01*
X148363381Y-30816208D01*
X148449795Y-30712199D01*
X148560450Y-30624613D01*
X148695349Y-30555795D01*
X148854099Y-30511220D01*
X149036309Y-30496362D01*
X149212264Y-30510438D01*
X149364758Y-30552667D01*
G37*
G36*
X144621746Y-40498363D02*
G01*
X145171021Y-40498363D01*
X145317864Y-40504713D01*
X145447246Y-40523763D01*
X145652033Y-40611075D01*
X145780621Y-40776175D01*
X145813958Y-40891666D01*
X145825071Y-41031763D01*
X145804433Y-41227025D01*
X145726646Y-41454038D01*
X145412321Y-41403238D01*
X145471058Y-41231788D01*
X145485346Y-41101613D01*
X145420258Y-40938100D01*
X145221821Y-40888888D01*
X144297896Y-40888888D01*
X144297896Y-40085613D01*
X144621746Y-40085613D01*
X144621746Y-40498363D01*
G37*
G36*
X149180983Y-39933385D02*
G01*
X149327221Y-39969748D01*
X149458600Y-40031919D01*
X149571211Y-40121460D01*
X149663489Y-40239154D01*
X149733871Y-40385783D01*
X149778446Y-40562910D01*
X149793304Y-40772101D01*
X149788221Y-40918338D01*
X149772972Y-41044244D01*
X149721359Y-41241313D01*
X149405423Y-41185007D01*
X149446088Y-41005143D01*
X149458600Y-40815894D01*
X149429665Y-40580897D01*
X149342861Y-40426448D01*
X149205226Y-40340817D01*
X149023797Y-40312273D01*
X148848625Y-40337298D01*
X148709425Y-40418628D01*
X148618711Y-40567212D01*
X148585866Y-40797125D01*
X148603070Y-40992630D01*
X148642171Y-41131830D01*
X148332492Y-41216288D01*
X148269930Y-41000450D01*
X148251162Y-40762716D01*
X148266411Y-40559000D01*
X148312159Y-40385783D01*
X148384105Y-40241500D01*
X148477947Y-40124588D01*
X148591731Y-40034656D01*
X148723501Y-39971313D01*
X148868957Y-39933776D01*
X149023797Y-39921263D01*
X149180983Y-39933385D01*
G37*
G36*
X145790146Y-32624362D02*
G01*
X144618571Y-32624362D01*
X144609046Y-32714850D01*
X144605871Y-32802162D01*
X144697946Y-32995837D01*
X144819389Y-33031556D01*
X144999571Y-33043462D01*
X145790146Y-33043462D01*
X145790146Y-33433987D01*
X144948771Y-33433987D01*
X144803117Y-33426844D01*
X144670958Y-33405412D01*
X144455058Y-33308575D01*
X144315358Y-33122837D01*
X144278449Y-32990281D01*
X144266146Y-32827562D01*
X144272496Y-32653334D01*
X144291546Y-32492600D01*
X144317739Y-32350916D01*
X144345521Y-32233837D01*
X145790146Y-32233837D01*
X145790146Y-32624362D01*
G37*
G36*
X148951851Y-32285623D02*
G01*
X149092615Y-32151115D01*
X149308452Y-32101066D01*
X149535238Y-32144859D01*
X149685386Y-32269982D01*
X149768280Y-32465487D01*
X149793304Y-32720426D01*
X149787048Y-32916713D01*
X149768280Y-33092667D01*
X149724487Y-33342913D01*
X148848625Y-33342913D01*
X148599942Y-33311633D01*
X148412258Y-33208406D01*
X148293391Y-33016029D01*
X148261719Y-32880349D01*
X148251162Y-32714170D01*
X148256245Y-32575752D01*
X148271494Y-32442027D01*
X148316851Y-32238702D01*
X148626531Y-32291879D01*
X148588994Y-32456103D01*
X148573354Y-32667248D01*
X148591731Y-32811140D01*
X148646864Y-32904982D01*
X148829856Y-32973800D01*
X148876777Y-32973800D01*
X148858009Y-32849459D01*
X148855209Y-32786115D01*
X149120767Y-32786115D01*
X149125460Y-32883086D01*
X149136408Y-32973800D01*
X149474240Y-32973800D01*
X149482061Y-32870574D01*
X149483625Y-32748579D01*
X149441396Y-32554638D01*
X149299068Y-32479564D01*
X149208354Y-32504588D01*
X149155176Y-32571842D01*
X149128588Y-32670377D01*
X149120767Y-32786115D01*
X148855209Y-32786115D01*
X148851753Y-32707913D01*
X148875213Y-32479564D01*
X148951851Y-32285623D01*
G37*
G36*
X149180983Y-44625503D02*
G01*
X149327221Y-44661867D01*
X149458600Y-44724037D01*
X149571211Y-44813579D01*
X149663489Y-44931272D01*
X149733871Y-45077901D01*
X149778446Y-45255029D01*
X149793304Y-45464219D01*
X149788221Y-45610457D01*
X149772972Y-45736362D01*
X149721359Y-45933431D01*
X149405423Y-45877125D01*
X149446088Y-45697261D01*
X149458600Y-45508012D01*
X149429665Y-45273015D01*
X149342861Y-45118566D01*
X149205226Y-45032935D01*
X149023797Y-45004391D01*
X148848625Y-45029416D01*
X148709425Y-45110746D01*
X148618711Y-45259330D01*
X148585866Y-45489244D01*
X148603070Y-45684748D01*
X148642171Y-45823948D01*
X148332492Y-45908406D01*
X148269930Y-45692569D01*
X148251162Y-45454835D01*
X148266411Y-45251119D01*
X148312159Y-45077901D01*
X148384105Y-44933619D01*
X148477947Y-44816707D01*
X148591731Y-44726774D01*
X148723501Y-44663431D01*
X148868957Y-44625894D01*
X149023797Y-44613381D01*
X149180983Y-44625503D01*
G37*
G36*
X149749511Y-35476263D02*
G01*
X149782356Y-35624847D01*
X149793304Y-35801583D01*
X149784702Y-35974410D01*
X149758896Y-36117519D01*
X149665053Y-36325537D01*
X149524290Y-36439712D01*
X149352245Y-36474120D01*
X149156740Y-36427199D01*
X149025361Y-36306768D01*
X148939339Y-36142544D01*
X148876777Y-35967372D01*
X148837676Y-35856325D01*
X148795447Y-35765611D01*
X148746962Y-35703049D01*
X148685965Y-35679588D01*
X148609327Y-35731202D01*
X148573354Y-35929835D01*
X148609327Y-36183209D01*
X148660940Y-36348997D01*
X148335620Y-36408431D01*
X148273058Y-36194157D01*
X148256636Y-36065515D01*
X148251162Y-35926707D01*
X148260155Y-35772649D01*
X148287134Y-35642051D01*
X148387233Y-35446546D01*
X148534253Y-35333936D01*
X148710989Y-35297963D01*
X148903366Y-35344884D01*
X149030053Y-35463751D01*
X149112947Y-35623283D01*
X149170817Y-35795327D01*
X149208354Y-35909502D01*
X149247455Y-36006473D01*
X149295940Y-36072162D01*
X149364758Y-36095623D01*
X149447652Y-36020549D01*
X149467984Y-35804712D01*
X149430447Y-35552901D01*
X149349117Y-35319859D01*
X149671309Y-35260426D01*
X149749511Y-35476263D01*
G37*
G36*
X145790146Y-43736863D02*
G01*
X144640796Y-43736863D01*
X144618571Y-43821000D01*
X144605871Y-43927363D01*
X144697946Y-44108338D01*
X144819389Y-44144056D01*
X144999571Y-44155963D01*
X145790146Y-44155963D01*
X145790146Y-44546488D01*
X144948771Y-44546488D01*
X144803117Y-44539344D01*
X144670958Y-44517913D01*
X144455058Y-44422663D01*
X144315358Y-44244863D01*
X144278449Y-44120244D01*
X144266146Y-43968638D01*
X144280433Y-43851163D01*
X144310596Y-43736863D01*
X143586696Y-43736863D01*
X143653371Y-43346338D01*
X145790146Y-43346338D01*
X145790146Y-43736863D01*
G37*
G36*
X144322105Y-28744512D02*
G01*
X144169308Y-28706412D01*
X144044292Y-28646881D01*
X143945471Y-28569887D01*
X143820058Y-28369862D01*
X143780371Y-28125387D01*
X143795849Y-27970606D01*
X143842283Y-27823762D01*
X143924833Y-27688825D01*
X144048658Y-27569762D01*
X144215346Y-27470147D01*
X144426483Y-27393550D01*
X144594229Y-27357390D01*
X144786316Y-27335694D01*
X145002746Y-27328462D01*
X145224466Y-27336929D01*
X145419729Y-27362329D01*
X145588533Y-27404662D01*
X145798877Y-27494753D01*
X145963183Y-27612625D01*
X146083436Y-27756691D01*
X146161621Y-27925362D01*
X146204483Y-28113481D01*
X146218771Y-28315887D01*
X146215596Y-28419075D01*
X146207658Y-28509562D01*
X146194958Y-28598462D01*
X146174321Y-28696887D01*
X145898096Y-28661962D01*
X145923496Y-28550837D01*
X145939371Y-28315887D01*
X145924289Y-28132134D01*
X145879046Y-27980925D01*
X145804830Y-27859481D01*
X145702833Y-27765025D01*
X145573055Y-27695969D01*
X145415496Y-27650725D01*
X145231346Y-27625722D01*
X145021796Y-27617387D01*
X144763430Y-27627309D01*
X144553483Y-27657075D01*
X144386399Y-27703906D01*
X144256621Y-27765025D01*
X144101046Y-27926950D01*
X144056596Y-28125387D01*
X144140733Y-28347637D01*
X144345521Y-28423837D01*
X144396321Y-28423837D01*
X144386526Y-28331762D01*
X144704296Y-28331762D01*
X144707471Y-28376212D01*
X144716996Y-28423837D01*
X145351996Y-28423837D01*
X145361521Y-28334937D01*
X145328183Y-28231750D01*
X145244046Y-28169837D01*
X145129746Y-28139675D01*
X145005921Y-28131737D01*
X144897971Y-28141262D01*
X144801133Y-28173012D01*
X144731283Y-28233337D01*
X144704296Y-28331762D01*
X144386526Y-28331762D01*
X144380446Y-28274612D01*
X144431246Y-28050775D01*
X144569358Y-27903137D01*
X144774146Y-27822175D01*
X145024971Y-27798362D01*
X145192055Y-27809078D01*
X145331358Y-27841225D01*
X145534558Y-27960287D01*
X145648858Y-28139675D01*
X145685371Y-28363512D01*
X145667908Y-28558775D01*
X145615521Y-28757212D01*
X144504271Y-28757212D01*
X144322105Y-28744512D01*
G37*
G36*
X148951851Y-46361978D02*
G01*
X149092615Y-46227470D01*
X149308452Y-46177421D01*
X149535238Y-46221214D01*
X149685386Y-46346337D01*
X149768280Y-46541842D01*
X149793304Y-46796780D01*
X149787048Y-46993067D01*
X149768280Y-47169022D01*
X149724487Y-47419268D01*
X148848625Y-47419268D01*
X148599942Y-47387987D01*
X148412258Y-47284761D01*
X148293391Y-47092384D01*
X148261719Y-46956704D01*
X148251162Y-46790524D01*
X148256245Y-46652107D01*
X148271494Y-46518381D01*
X148316851Y-46315056D01*
X148626531Y-46368234D01*
X148588994Y-46532458D01*
X148573354Y-46743603D01*
X148591731Y-46887495D01*
X148646864Y-46981337D01*
X148829856Y-47050155D01*
X148876777Y-47050155D01*
X148858009Y-46925814D01*
X148855209Y-46862470D01*
X149120767Y-46862470D01*
X149125460Y-46959441D01*
X149136408Y-47050155D01*
X149474240Y-47050155D01*
X149482061Y-46946928D01*
X149483625Y-46824933D01*
X149441396Y-46630992D01*
X149299068Y-46555918D01*
X149208354Y-46580943D01*
X149155176Y-46648197D01*
X149128588Y-46746731D01*
X149120767Y-46862470D01*
X148855209Y-46862470D01*
X148851753Y-46784268D01*
X148875213Y-46555918D01*
X148951851Y-46361978D01*
G37*
G36*
X144050246Y-40452325D02*
G01*
X144116921Y-40625363D01*
X144050246Y-40799988D01*
X143869271Y-40873013D01*
X143685121Y-40799988D01*
X143618446Y-40625363D01*
X143685121Y-40452325D01*
X143869271Y-40380888D01*
X144050246Y-40452325D01*
G37*
G36*
X143929596Y-48435863D02*
G01*
X145196421Y-48435863D01*
X145467486Y-48466819D01*
X145664733Y-48559688D01*
X145784986Y-48720025D01*
X145825071Y-48953388D01*
X145812371Y-49129600D01*
X145782208Y-49261363D01*
X145748871Y-49348675D01*
X145726646Y-49391538D01*
X145412321Y-49340738D01*
X145453596Y-49235963D01*
X145485346Y-49039113D01*
X145431371Y-48886713D01*
X145224996Y-48826388D01*
X143605746Y-48826388D01*
X143605746Y-48023113D01*
X143929596Y-48023113D01*
X143929596Y-48435863D01*
G37*
G36*
X145790146Y-37386862D02*
G01*
X144618571Y-37386862D01*
X144609046Y-37477350D01*
X144605871Y-37564662D01*
X144697946Y-37758337D01*
X144819389Y-37794056D01*
X144999571Y-37805962D01*
X145790146Y-37805962D01*
X145790146Y-38196487D01*
X144948771Y-38196487D01*
X144803117Y-38189344D01*
X144670958Y-38167912D01*
X144455058Y-38071075D01*
X144315358Y-37885337D01*
X144278449Y-37752781D01*
X144266146Y-37590062D01*
X144272496Y-37415834D01*
X144291546Y-37255100D01*
X144317739Y-37113416D01*
X144345521Y-36996337D01*
X145790146Y-36996337D01*
X145790146Y-37386862D01*
G37*
G36*
X148607763Y-37102864D02*
G01*
X149211482Y-37102864D01*
X149378443Y-37112248D01*
X149510213Y-37140401D01*
X149686950Y-37249884D01*
X149771408Y-37425056D01*
X149793304Y-37662790D01*
X149774536Y-37902088D01*
X149711974Y-38132002D01*
X149380398Y-38078825D01*
X149421063Y-37980290D01*
X149444524Y-37892704D01*
X149455472Y-37805118D01*
X149458600Y-37706583D01*
X149449216Y-37615869D01*
X149411679Y-37547051D01*
X149333477Y-37503258D01*
X149202098Y-37487618D01*
X148607763Y-37487618D01*
X148607763Y-38103849D01*
X148288699Y-38103849D01*
X148288699Y-37487618D01*
X147857024Y-37487618D01*
X147919585Y-37102864D01*
X148288699Y-37102864D01*
X148288699Y-36768160D01*
X148607763Y-36768160D01*
X148607763Y-37102864D01*
G37*
G36*
X145390096Y-46476888D02*
G01*
X145521461Y-46546341D01*
X145629808Y-46640400D01*
X145714739Y-46757875D01*
X145775858Y-46897575D01*
X145812767Y-47058309D01*
X145825071Y-47238888D01*
X145801258Y-47496063D01*
X145742521Y-47711963D01*
X145409146Y-47657988D01*
X145459946Y-47478600D01*
X145485346Y-47254763D01*
X145464311Y-47081725D01*
X145401208Y-46943613D01*
X145301592Y-46853125D01*
X145171021Y-46822963D01*
X145171021Y-47791338D01*
X145104346Y-47796100D01*
X145024971Y-47797688D01*
X144795136Y-47778638D01*
X144605165Y-47721488D01*
X144455058Y-47626238D01*
X144346579Y-47494299D01*
X144281491Y-47327082D01*
X144260476Y-47130938D01*
X144586821Y-47130938D01*
X144613808Y-47264288D01*
X144685246Y-47353188D01*
X144785258Y-47403988D01*
X144901146Y-47419863D01*
X144901146Y-46822963D01*
X144783671Y-46849950D01*
X144682071Y-46907100D01*
X144612221Y-46999175D01*
X144586821Y-47130938D01*
X144260476Y-47130938D01*
X144259796Y-47124588D01*
X144272496Y-46992825D01*
X144310596Y-46864238D01*
X144373699Y-46744381D01*
X144461408Y-46638813D01*
X144573724Y-46549913D01*
X144710646Y-46480062D01*
X144871777Y-46434819D01*
X145056721Y-46419738D01*
X145235314Y-46434025D01*
X145390096Y-46476888D01*
G37*
G36*
X145790146Y-38815613D02*
G01*
X144262971Y-38799738D01*
X145094821Y-39031513D01*
X145094821Y-39317263D01*
X144262971Y-39558563D01*
X145790146Y-39539513D01*
X145790146Y-39898288D01*
X145538924Y-39891144D01*
X145293258Y-39882413D01*
X145051164Y-39871697D01*
X144810658Y-39858600D01*
X144569755Y-39842725D01*
X144326471Y-39823675D01*
X144078821Y-39802641D01*
X143824821Y-39780813D01*
X143824821Y-39456963D01*
X143993096Y-39399813D01*
X144210583Y-39329963D01*
X144451883Y-39250588D01*
X144694771Y-39171213D01*
X144466171Y-39098188D01*
X144221696Y-39021988D01*
X143996271Y-38950550D01*
X143824821Y-38894988D01*
X143824821Y-38571138D01*
X144039927Y-38550103D01*
X144272496Y-38531450D01*
X144517764Y-38515178D01*
X144770971Y-38501288D01*
X145028939Y-38488984D01*
X145288496Y-38477475D01*
X145544083Y-38466759D01*
X145790146Y-38456838D01*
X145790146Y-38815613D01*
G37*
G36*
X143813708Y-29293787D02*
G01*
X143829583Y-29155675D01*
X143853396Y-29030262D01*
X145790146Y-29030262D01*
X145790146Y-29420787D01*
X145066246Y-29420787D01*
X145066246Y-29623987D01*
X145246030Y-29731541D01*
X145423433Y-29831950D01*
X145603217Y-29922834D01*
X145790146Y-30001812D01*
X145790146Y-30411387D01*
X145582183Y-30320900D01*
X145363108Y-30211363D01*
X145153558Y-30093887D01*
X144970996Y-29979587D01*
X144881302Y-30118494D01*
X144758271Y-30211363D01*
X144610633Y-30263750D01*
X144447121Y-30281212D01*
X144292736Y-30268116D01*
X144159783Y-30228825D01*
X143958171Y-30078012D01*
X143889114Y-29970062D01*
X143840696Y-29843062D01*
X143812121Y-29698600D01*
X143802596Y-29538262D01*
X144142321Y-29538262D01*
X144160577Y-29678756D01*
X144215346Y-29789087D01*
X144309008Y-29860525D01*
X144443946Y-29884337D01*
X144664608Y-29795437D01*
X144722949Y-29678756D01*
X144742396Y-29506512D01*
X144742396Y-29420787D01*
X144151846Y-29420787D01*
X144143908Y-29484287D01*
X144142321Y-29538262D01*
X143802596Y-29538262D01*
X143805771Y-29427137D01*
X143813708Y-29293787D01*
G37*
G36*
X148917442Y-28668000D02*
G01*
X148807960Y-28565946D01*
X148723501Y-28400549D01*
X148554585Y-28580413D01*
X148310595Y-28647667D01*
X148129167Y-28619514D01*
X147964942Y-28513160D01*
X147846075Y-28297322D01*
X147812058Y-28139354D01*
X147804111Y-28000155D01*
X148135423Y-28000155D01*
X148143243Y-28103381D01*
X148174524Y-28190968D01*
X148240213Y-28250401D01*
X148351260Y-28272298D01*
X148527997Y-28197224D01*
X148575865Y-28031436D01*
X148911186Y-28031436D01*
X148972184Y-28270734D01*
X149173945Y-28359884D01*
X149313144Y-28328603D01*
X149397602Y-28248837D01*
X149438267Y-28137790D01*
X149449216Y-28009539D01*
X149446088Y-27914133D01*
X149436703Y-27824982D01*
X148911186Y-27824982D01*
X148911186Y-28031436D01*
X148575865Y-28031436D01*
X148592122Y-27975130D01*
X148592122Y-27824982D01*
X148147935Y-27824982D01*
X148138551Y-27909441D01*
X148135423Y-28000155D01*
X147804111Y-28000155D01*
X147800718Y-27940721D01*
X147814795Y-27681091D01*
X147847639Y-27440229D01*
X149727615Y-27440229D01*
X149752248Y-27575518D01*
X149769844Y-27712372D01*
X149780401Y-27847661D01*
X149783920Y-27978258D01*
X149776491Y-28132707D01*
X149754203Y-28276990D01*
X149714320Y-28406805D01*
X149654105Y-28517852D01*
X149466420Y-28678948D01*
X149334650Y-28723523D01*
X149173945Y-28738381D01*
X149042566Y-28720786D01*
X148917442Y-28668000D01*
G37*
G36*
X144301423Y-34826049D02*
G01*
X144274965Y-34649307D01*
X144266146Y-34481737D01*
X144267620Y-34465862D01*
X144583646Y-34465862D01*
X144586821Y-34538887D01*
X144599521Y-34618262D01*
X145317071Y-34618262D01*
X145358346Y-34518250D01*
X145374221Y-34399187D01*
X145277383Y-34189637D01*
X145158717Y-34139631D01*
X144996396Y-34122962D01*
X144767090Y-34161062D01*
X144629507Y-34275362D01*
X144583646Y-34465862D01*
X144267620Y-34465862D01*
X144286254Y-34265132D01*
X144346579Y-34080982D01*
X144447121Y-33929287D01*
X144588584Y-33816399D01*
X144771676Y-33748665D01*
X144996396Y-33726087D01*
X145198537Y-33742844D01*
X145368929Y-33793115D01*
X145507571Y-33876900D01*
X145609876Y-33993140D01*
X145671259Y-34140778D01*
X145691721Y-34319812D01*
X145675846Y-34467450D01*
X145628221Y-34618262D01*
X145688546Y-34618262D01*
X145807608Y-34602387D01*
X145904446Y-34548412D01*
X145969533Y-34443637D01*
X145993346Y-34275362D01*
X145963183Y-34021362D01*
X145898096Y-33827687D01*
X146228296Y-33754662D01*
X146294971Y-34000725D01*
X146316402Y-34132091D01*
X146323546Y-34269012D01*
X146304143Y-34505550D01*
X146245934Y-34694462D01*
X146148921Y-34835750D01*
X146011337Y-34933646D01*
X145831421Y-34992383D01*
X145609171Y-35011962D01*
X144345521Y-35011962D01*
X144301423Y-34826049D01*
G37*
G36*
X148044708Y-38693492D02*
G01*
X148110398Y-38863973D01*
X148044708Y-39036017D01*
X147866408Y-39107963D01*
X147684979Y-39036017D01*
X147619290Y-38863973D01*
X147684979Y-38693492D01*
X147866408Y-38623111D01*
X148044708Y-38693492D01*
G37*
G36*
X144970996Y-30773337D02*
G01*
X145113871Y-30636812D01*
X145332946Y-30586012D01*
X145563133Y-30630462D01*
X145715533Y-30757462D01*
X145799671Y-30955900D01*
X145825071Y-31214662D01*
X145818721Y-31413894D01*
X145799671Y-31592487D01*
X145755221Y-31846487D01*
X144866221Y-31846487D01*
X144613808Y-31814737D01*
X144423308Y-31709962D01*
X144302658Y-31514700D01*
X144270511Y-31376984D01*
X144259796Y-31208312D01*
X144264955Y-31067819D01*
X144280433Y-30932087D01*
X144326471Y-30725712D01*
X144640796Y-30779687D01*
X144602696Y-30946375D01*
X144586821Y-31160687D01*
X144605474Y-31306737D01*
X144661433Y-31401987D01*
X144847171Y-31471837D01*
X144894796Y-31471837D01*
X144875746Y-31345631D01*
X144872904Y-31281337D01*
X145142446Y-31281337D01*
X145147208Y-31379762D01*
X145158321Y-31471837D01*
X145501221Y-31471837D01*
X145509158Y-31367062D01*
X145510746Y-31243237D01*
X145467883Y-31046387D01*
X145323421Y-30970187D01*
X145231346Y-30995587D01*
X145177371Y-31063850D01*
X145150383Y-31163862D01*
X145142446Y-31281337D01*
X144872904Y-31281337D01*
X144869396Y-31201962D01*
X144893208Y-30970187D01*
X144970996Y-30773337D01*
G37*
G36*
X149758896Y-41932618D02*
G01*
X149064462Y-41932618D01*
X149206790Y-42062433D01*
X149388218Y-42201633D01*
X149582159Y-42331448D01*
X149758896Y-42429982D01*
X149758896Y-42871042D01*
X149558699Y-42753739D01*
X149446088Y-42676710D01*
X149333477Y-42592643D01*
X149222821Y-42504274D01*
X149116075Y-42414342D01*
X148936211Y-42245426D01*
X148786063Y-42384625D01*
X148617147Y-42537901D01*
X148445102Y-42686485D01*
X148288699Y-42814736D01*
X148288699Y-42351780D01*
X148427898Y-42264194D01*
X148579610Y-42159404D01*
X148731322Y-42046793D01*
X148870521Y-41932618D01*
X147588009Y-41932618D01*
X147653699Y-41544736D01*
X149758896Y-41544736D01*
X149758896Y-41932618D01*
G37*
G36*
X144970996Y-45060838D02*
G01*
X145113871Y-44924313D01*
X145332946Y-44873513D01*
X145563133Y-44917963D01*
X145715533Y-45044963D01*
X145799671Y-45243400D01*
X145825071Y-45502163D01*
X145818721Y-45701394D01*
X145799671Y-45879988D01*
X145755221Y-46133988D01*
X144866221Y-46133988D01*
X144613808Y-46102238D01*
X144423308Y-45997463D01*
X144302658Y-45802200D01*
X144270511Y-45664484D01*
X144259796Y-45495813D01*
X144264955Y-45355319D01*
X144280433Y-45219588D01*
X144326471Y-45013213D01*
X144640796Y-45067188D01*
X144602696Y-45233875D01*
X144586821Y-45448188D01*
X144605474Y-45594238D01*
X144661433Y-45689488D01*
X144847171Y-45759338D01*
X144894796Y-45759338D01*
X144875746Y-45633131D01*
X144872904Y-45568838D01*
X145142446Y-45568838D01*
X145147208Y-45667263D01*
X145158321Y-45759338D01*
X145501221Y-45759338D01*
X145509158Y-45654563D01*
X145510746Y-45530738D01*
X145467883Y-45333888D01*
X145323421Y-45257688D01*
X145231346Y-45283088D01*
X145177371Y-45351350D01*
X145150383Y-45451363D01*
X145142446Y-45568838D01*
X144872904Y-45568838D01*
X144869396Y-45489463D01*
X144893208Y-45257688D01*
X144970996Y-45060838D01*
G37*
G36*
X149758896Y-29501633D02*
G01*
X148667196Y-29501633D01*
X148637479Y-29661165D01*
X148629659Y-29820697D01*
X148632787Y-29905155D01*
X148643735Y-30008381D01*
X148660940Y-30113172D01*
X148679708Y-30202322D01*
X148323107Y-30271140D01*
X148293391Y-30150709D01*
X148274622Y-30017766D01*
X148263674Y-29894207D01*
X148260546Y-29805056D01*
X148269148Y-29602904D01*
X148294955Y-29428123D01*
X148334838Y-29268982D01*
X148385669Y-29113751D01*
X149758896Y-29113751D01*
X149758896Y-29501633D01*
G37*
G36*
X145203564Y-41710816D02*
G01*
X145351996Y-41747725D01*
X145485346Y-41810828D01*
X145599646Y-41901713D01*
X145693308Y-42021172D01*
X145764746Y-42170000D01*
X145809989Y-42349784D01*
X145825071Y-42562113D01*
X145819911Y-42710544D01*
X145804433Y-42838338D01*
X145752046Y-43038363D01*
X145431371Y-42981213D01*
X145472646Y-42798650D01*
X145485346Y-42606563D01*
X145455977Y-42368041D01*
X145367871Y-42211275D01*
X145228171Y-42124359D01*
X145044021Y-42095388D01*
X144866221Y-42120788D01*
X144724933Y-42203338D01*
X144632858Y-42354150D01*
X144599521Y-42587513D01*
X144616983Y-42785950D01*
X144656671Y-42927238D01*
X144342346Y-43012963D01*
X144278846Y-42793888D01*
X144259796Y-42552588D01*
X144275274Y-42345816D01*
X144321708Y-42170000D01*
X144394733Y-42023553D01*
X144489983Y-41904888D01*
X144605474Y-41813606D01*
X144739221Y-41749313D01*
X144886858Y-41711213D01*
X145044021Y-41698513D01*
X145203564Y-41710816D01*
G37*
G36*
X145390096Y-35364387D02*
G01*
X145521461Y-35433841D01*
X145629808Y-35527900D01*
X145714739Y-35645375D01*
X145775858Y-35785075D01*
X145812767Y-35945809D01*
X145825071Y-36126387D01*
X145801258Y-36383562D01*
X145742521Y-36599462D01*
X145409146Y-36545487D01*
X145459946Y-36366100D01*
X145485346Y-36142262D01*
X145464311Y-35969225D01*
X145401208Y-35831112D01*
X145301592Y-35740625D01*
X145171021Y-35710462D01*
X145171021Y-36678837D01*
X145104346Y-36683600D01*
X145024971Y-36685187D01*
X144795136Y-36666137D01*
X144605165Y-36608987D01*
X144455058Y-36513737D01*
X144346579Y-36381799D01*
X144281491Y-36214582D01*
X144260476Y-36018437D01*
X144586821Y-36018437D01*
X144613808Y-36151787D01*
X144685246Y-36240687D01*
X144785258Y-36291487D01*
X144901146Y-36307362D01*
X144901146Y-35710462D01*
X144783671Y-35737450D01*
X144682071Y-35794600D01*
X144612221Y-35886675D01*
X144586821Y-36018437D01*
X144260476Y-36018437D01*
X144259796Y-36012087D01*
X144272496Y-35880325D01*
X144310596Y-35751737D01*
X144373699Y-35631881D01*
X144461408Y-35526312D01*
X144573724Y-35437412D01*
X144710646Y-35367562D01*
X144871777Y-35322319D01*
X145056721Y-35307237D01*
X145235314Y-35321525D01*
X145390096Y-35364387D01*
G37*
G36*
X149632208Y-43438788D02*
G01*
X149719795Y-43501349D01*
X149774536Y-43590500D01*
X149793304Y-43696854D01*
X149721359Y-43890795D01*
X149511777Y-43975253D01*
X149308452Y-43890795D01*
X149236506Y-43696854D01*
X149255275Y-43590500D01*
X149308452Y-43501349D01*
X149394474Y-43438788D01*
X149511777Y-43415327D01*
X149632208Y-43438788D01*
G37*
G36*
X148607763Y-38738849D02*
G01*
X149148920Y-38738849D01*
X149293594Y-38745106D01*
X149421063Y-38763874D01*
X149622824Y-38849896D01*
X149749511Y-39012556D01*
X149793304Y-39264367D01*
X149772972Y-39456744D01*
X149696334Y-39680401D01*
X149386654Y-39630352D01*
X149444524Y-39461436D01*
X149458600Y-39333184D01*
X149394474Y-39172088D01*
X149198969Y-39123603D01*
X148288699Y-39123603D01*
X148288699Y-38332199D01*
X148607763Y-38332199D01*
X148607763Y-38738849D01*
G37*
%LPC*%
D12*
X149800000Y-32950000D03*
X144020000Y-32950000D03*
D13*
X151230000Y-33480000D03*
X142590000Y-33480000D03*
X151230000Y-29300000D03*
X142590000Y-29300000D03*
D14*
X149450000Y-73750000D03*
D15*
X146910000Y-73750000D03*
D16*
X144370000Y-73750000D03*
D14*
X155800000Y-28030000D03*
D16*
X155800000Y-30570000D03*
X155800000Y-33110000D03*
X155800000Y-35650000D03*
X155800000Y-38190000D03*
X155800000Y-40730000D03*
X155800000Y-43270000D03*
X155800000Y-45810000D03*
X155800000Y-48350000D03*
X155800000Y-50890000D03*
X155800000Y-53430000D03*
X155800000Y-55970000D03*
X155800000Y-58510000D03*
X155800000Y-61050000D03*
X155800000Y-63590000D03*
X155800000Y-66130000D03*
X155800000Y-68670000D03*
X155800000Y-71210000D03*
X155800000Y-73750000D03*
D14*
X138020000Y-28030000D03*
D16*
X138020000Y-30570000D03*
X138020000Y-33110000D03*
X138020000Y-35650000D03*
X138020000Y-38190000D03*
X138020000Y-40730000D03*
X138020000Y-43270000D03*
X138020000Y-45810000D03*
X138020000Y-48350000D03*
X138020000Y-50890000D03*
X138020000Y-53430000D03*
X138020000Y-55970000D03*
X138020000Y-58510000D03*
X138020000Y-61050000D03*
X138020000Y-63590000D03*
X138020000Y-66130000D03*
X138020000Y-68670000D03*
X138020000Y-71210000D03*
X138020000Y-73750000D03*
M02*
