G04 #@! TF.GenerationSoftware,KiCad,Pcbnew,(6.0.4)*
G04 #@! TF.CreationDate,2022-04-05T22:09:32-06:00*
G04 #@! TF.ProjectId,2208 - RP2040 Simple Dev Board,32323038-202d-4205-9250-323034302053,1*
G04 #@! TF.SameCoordinates,Original*
G04 #@! TF.FileFunction,AssemblyDrawing,Top*
%FSLAX46Y46*%
G04 Gerber Fmt 4.6, Leading zero omitted, Abs format (unit mm)*
G04 Created by KiCad (PCBNEW (6.0.4)) date 2022-04-05 22:09:32*
%MOMM*%
%LPD*%
G01*
G04 APERTURE LIST*
%ADD10C,0.150000*%
%ADD11C,0.060000*%
%ADD12C,0.120000*%
%ADD13C,0.100000*%
%ADD14C,0.127000*%
%ADD15C,0.200000*%
G04 APERTURE END LIST*
D10*
X151370952Y-64327142D02*
X151323333Y-64374761D01*
X151180476Y-64422380D01*
X151085238Y-64422380D01*
X150942380Y-64374761D01*
X150847142Y-64279523D01*
X150799523Y-64184285D01*
X150751904Y-63993809D01*
X150751904Y-63850952D01*
X150799523Y-63660476D01*
X150847142Y-63565238D01*
X150942380Y-63470000D01*
X151085238Y-63422380D01*
X151180476Y-63422380D01*
X151323333Y-63470000D01*
X151370952Y-63517619D01*
X151751904Y-63517619D02*
X151799523Y-63470000D01*
X151894761Y-63422380D01*
X152132857Y-63422380D01*
X152228095Y-63470000D01*
X152275714Y-63517619D01*
X152323333Y-63612857D01*
X152323333Y-63708095D01*
X152275714Y-63850952D01*
X151704285Y-64422380D01*
X152323333Y-64422380D01*
X153275714Y-64422380D02*
X152704285Y-64422380D01*
X152990000Y-64422380D02*
X152990000Y-63422380D01*
X152894761Y-63565238D01*
X152799523Y-63660476D01*
X152704285Y-63708095D01*
X153609047Y-63422380D02*
X154228095Y-63422380D01*
X153894761Y-63803333D01*
X154037619Y-63803333D01*
X154132857Y-63850952D01*
X154180476Y-63898571D01*
X154228095Y-63993809D01*
X154228095Y-64231904D01*
X154180476Y-64327142D01*
X154132857Y-64374761D01*
X154037619Y-64422380D01*
X153751904Y-64422380D01*
X153656666Y-64374761D01*
X153609047Y-64327142D01*
X158378571Y-62782380D02*
X157807142Y-62782380D01*
X158092857Y-62782380D02*
X158092857Y-61782380D01*
X157997619Y-61925238D01*
X157902380Y-62020476D01*
X157807142Y-62068095D01*
X158997619Y-61782380D02*
X159092857Y-61782380D01*
X159188095Y-61830000D01*
X159235714Y-61877619D01*
X159283333Y-61972857D01*
X159330952Y-62163333D01*
X159330952Y-62401428D01*
X159283333Y-62591904D01*
X159235714Y-62687142D01*
X159188095Y-62734761D01*
X159092857Y-62782380D01*
X158997619Y-62782380D01*
X158902380Y-62734761D01*
X158854761Y-62687142D01*
X158807142Y-62591904D01*
X158759523Y-62401428D01*
X158759523Y-62163333D01*
X158807142Y-61972857D01*
X158854761Y-61877619D01*
X158902380Y-61830000D01*
X158997619Y-61782380D01*
X160188095Y-62115714D02*
X160188095Y-62782380D01*
X159759523Y-62115714D02*
X159759523Y-62639523D01*
X159807142Y-62734761D01*
X159902380Y-62782380D01*
X160045238Y-62782380D01*
X160140476Y-62734761D01*
X160188095Y-62687142D01*
X160997619Y-62258571D02*
X160664285Y-62258571D01*
X160664285Y-62782380D02*
X160664285Y-61782380D01*
X161140476Y-61782380D01*
X137220952Y-62797142D02*
X137173333Y-62844761D01*
X137030476Y-62892380D01*
X136935238Y-62892380D01*
X136792380Y-62844761D01*
X136697142Y-62749523D01*
X136649523Y-62654285D01*
X136601904Y-62463809D01*
X136601904Y-62320952D01*
X136649523Y-62130476D01*
X136697142Y-62035238D01*
X136792380Y-61940000D01*
X136935238Y-61892380D01*
X137030476Y-61892380D01*
X137173333Y-61940000D01*
X137220952Y-61987619D01*
X137601904Y-61987619D02*
X137649523Y-61940000D01*
X137744761Y-61892380D01*
X137982857Y-61892380D01*
X138078095Y-61940000D01*
X138125714Y-61987619D01*
X138173333Y-62082857D01*
X138173333Y-62178095D01*
X138125714Y-62320952D01*
X137554285Y-62892380D01*
X138173333Y-62892380D01*
X139125714Y-62892380D02*
X138554285Y-62892380D01*
X138840000Y-62892380D02*
X138840000Y-61892380D01*
X138744761Y-62035238D01*
X138649523Y-62130476D01*
X138554285Y-62178095D01*
X140030476Y-61892380D02*
X139554285Y-61892380D01*
X139506666Y-62368571D01*
X139554285Y-62320952D01*
X139649523Y-62273333D01*
X139887619Y-62273333D01*
X139982857Y-62320952D01*
X140030476Y-62368571D01*
X140078095Y-62463809D01*
X140078095Y-62701904D01*
X140030476Y-62797142D01*
X139982857Y-62844761D01*
X139887619Y-62892380D01*
X139649523Y-62892380D01*
X139554285Y-62844761D01*
X139506666Y-62797142D01*
X132788571Y-62852380D02*
X132217142Y-62852380D01*
X132502857Y-62852380D02*
X132502857Y-61852380D01*
X132407619Y-61995238D01*
X132312380Y-62090476D01*
X132217142Y-62138095D01*
X133407619Y-61852380D02*
X133502857Y-61852380D01*
X133598095Y-61900000D01*
X133645714Y-61947619D01*
X133693333Y-62042857D01*
X133740952Y-62233333D01*
X133740952Y-62471428D01*
X133693333Y-62661904D01*
X133645714Y-62757142D01*
X133598095Y-62804761D01*
X133502857Y-62852380D01*
X133407619Y-62852380D01*
X133312380Y-62804761D01*
X133264761Y-62757142D01*
X133217142Y-62661904D01*
X133169523Y-62471428D01*
X133169523Y-62233333D01*
X133217142Y-62042857D01*
X133264761Y-61947619D01*
X133312380Y-61900000D01*
X133407619Y-61852380D01*
X134598095Y-62185714D02*
X134598095Y-62852380D01*
X134169523Y-62185714D02*
X134169523Y-62709523D01*
X134217142Y-62804761D01*
X134312380Y-62852380D01*
X134455238Y-62852380D01*
X134550476Y-62804761D01*
X134598095Y-62757142D01*
X135407619Y-62328571D02*
X135074285Y-62328571D01*
X135074285Y-62852380D02*
X135074285Y-61852380D01*
X135550476Y-61852380D01*
X145810952Y-70427142D02*
X145763333Y-70474761D01*
X145620476Y-70522380D01*
X145525238Y-70522380D01*
X145382380Y-70474761D01*
X145287142Y-70379523D01*
X145239523Y-70284285D01*
X145191904Y-70093809D01*
X145191904Y-69950952D01*
X145239523Y-69760476D01*
X145287142Y-69665238D01*
X145382380Y-69570000D01*
X145525238Y-69522380D01*
X145620476Y-69522380D01*
X145763333Y-69570000D01*
X145810952Y-69617619D01*
X146191904Y-69617619D02*
X146239523Y-69570000D01*
X146334761Y-69522380D01*
X146572857Y-69522380D01*
X146668095Y-69570000D01*
X146715714Y-69617619D01*
X146763333Y-69712857D01*
X146763333Y-69808095D01*
X146715714Y-69950952D01*
X146144285Y-70522380D01*
X146763333Y-70522380D01*
X147382380Y-69522380D02*
X147477619Y-69522380D01*
X147572857Y-69570000D01*
X147620476Y-69617619D01*
X147668095Y-69712857D01*
X147715714Y-69903333D01*
X147715714Y-70141428D01*
X147668095Y-70331904D01*
X147620476Y-70427142D01*
X147572857Y-70474761D01*
X147477619Y-70522380D01*
X147382380Y-70522380D01*
X147287142Y-70474761D01*
X147239523Y-70427142D01*
X147191904Y-70331904D01*
X147144285Y-70141428D01*
X147144285Y-69903333D01*
X147191904Y-69712857D01*
X147239523Y-69617619D01*
X147287142Y-69570000D01*
X147382380Y-69522380D01*
X148572857Y-69522380D02*
X148382380Y-69522380D01*
X148287142Y-69570000D01*
X148239523Y-69617619D01*
X148144285Y-69760476D01*
X148096666Y-69950952D01*
X148096666Y-70331904D01*
X148144285Y-70427142D01*
X148191904Y-70474761D01*
X148287142Y-70522380D01*
X148477619Y-70522380D01*
X148572857Y-70474761D01*
X148620476Y-70427142D01*
X148668095Y-70331904D01*
X148668095Y-70093809D01*
X148620476Y-69998571D01*
X148572857Y-69950952D01*
X148477619Y-69903333D01*
X148287142Y-69903333D01*
X148191904Y-69950952D01*
X148144285Y-69998571D01*
X148096666Y-70093809D01*
X132589523Y-68142380D02*
X133208571Y-68142380D01*
X132875238Y-68523333D01*
X133018095Y-68523333D01*
X133113333Y-68570952D01*
X133160952Y-68618571D01*
X133208571Y-68713809D01*
X133208571Y-68951904D01*
X133160952Y-69047142D01*
X133113333Y-69094761D01*
X133018095Y-69142380D01*
X132732380Y-69142380D01*
X132637142Y-69094761D01*
X132589523Y-69047142D01*
X133827619Y-68142380D02*
X133922857Y-68142380D01*
X134018095Y-68190000D01*
X134065714Y-68237619D01*
X134113333Y-68332857D01*
X134160952Y-68523333D01*
X134160952Y-68761428D01*
X134113333Y-68951904D01*
X134065714Y-69047142D01*
X134018095Y-69094761D01*
X133922857Y-69142380D01*
X133827619Y-69142380D01*
X133732380Y-69094761D01*
X133684761Y-69047142D01*
X133637142Y-68951904D01*
X133589523Y-68761428D01*
X133589523Y-68523333D01*
X133637142Y-68332857D01*
X133684761Y-68237619D01*
X133732380Y-68190000D01*
X133827619Y-68142380D01*
X134589523Y-68475714D02*
X134589523Y-69475714D01*
X134589523Y-68523333D02*
X134684761Y-68475714D01*
X134875238Y-68475714D01*
X134970476Y-68523333D01*
X135018095Y-68570952D01*
X135065714Y-68666190D01*
X135065714Y-68951904D01*
X135018095Y-69047142D01*
X134970476Y-69094761D01*
X134875238Y-69142380D01*
X134684761Y-69142380D01*
X134589523Y-69094761D01*
X135827619Y-68618571D02*
X135494285Y-68618571D01*
X135494285Y-69142380D02*
X135494285Y-68142380D01*
X135970476Y-68142380D01*
X151027142Y-58609047D02*
X151074761Y-58656666D01*
X151122380Y-58799523D01*
X151122380Y-58894761D01*
X151074761Y-59037619D01*
X150979523Y-59132857D01*
X150884285Y-59180476D01*
X150693809Y-59228095D01*
X150550952Y-59228095D01*
X150360476Y-59180476D01*
X150265238Y-59132857D01*
X150170000Y-59037619D01*
X150122380Y-58894761D01*
X150122380Y-58799523D01*
X150170000Y-58656666D01*
X150217619Y-58609047D01*
X150217619Y-58228095D02*
X150170000Y-58180476D01*
X150122380Y-58085238D01*
X150122380Y-57847142D01*
X150170000Y-57751904D01*
X150217619Y-57704285D01*
X150312857Y-57656666D01*
X150408095Y-57656666D01*
X150550952Y-57704285D01*
X151122380Y-58275714D01*
X151122380Y-57656666D01*
X150122380Y-57037619D02*
X150122380Y-56942380D01*
X150170000Y-56847142D01*
X150217619Y-56799523D01*
X150312857Y-56751904D01*
X150503333Y-56704285D01*
X150741428Y-56704285D01*
X150931904Y-56751904D01*
X151027142Y-56799523D01*
X151074761Y-56847142D01*
X151122380Y-56942380D01*
X151122380Y-57037619D01*
X151074761Y-57132857D01*
X151027142Y-57180476D01*
X150931904Y-57228095D01*
X150741428Y-57275714D01*
X150503333Y-57275714D01*
X150312857Y-57228095D01*
X150217619Y-57180476D01*
X150170000Y-57132857D01*
X150122380Y-57037619D01*
X150455714Y-55847142D02*
X151122380Y-55847142D01*
X150074761Y-56085238D02*
X150789047Y-56323333D01*
X150789047Y-55704285D01*
X163342380Y-57251428D02*
X163342380Y-57822857D01*
X163342380Y-57537142D02*
X162342380Y-57537142D01*
X162485238Y-57632380D01*
X162580476Y-57727619D01*
X162628095Y-57822857D01*
X162342380Y-56632380D02*
X162342380Y-56537142D01*
X162390000Y-56441904D01*
X162437619Y-56394285D01*
X162532857Y-56346666D01*
X162723333Y-56299047D01*
X162961428Y-56299047D01*
X163151904Y-56346666D01*
X163247142Y-56394285D01*
X163294761Y-56441904D01*
X163342380Y-56537142D01*
X163342380Y-56632380D01*
X163294761Y-56727619D01*
X163247142Y-56775238D01*
X163151904Y-56822857D01*
X162961428Y-56870476D01*
X162723333Y-56870476D01*
X162532857Y-56822857D01*
X162437619Y-56775238D01*
X162390000Y-56727619D01*
X162342380Y-56632380D01*
X162675714Y-55441904D02*
X163342380Y-55441904D01*
X162675714Y-55870476D02*
X163199523Y-55870476D01*
X163294761Y-55822857D01*
X163342380Y-55727619D01*
X163342380Y-55584761D01*
X163294761Y-55489523D01*
X163247142Y-55441904D01*
X162818571Y-54632380D02*
X162818571Y-54965714D01*
X163342380Y-54965714D02*
X162342380Y-54965714D01*
X162342380Y-54489523D01*
X157956190Y-37404761D02*
X158099047Y-37452380D01*
X158337142Y-37452380D01*
X158432380Y-37404761D01*
X158480000Y-37357142D01*
X158527619Y-37261904D01*
X158527619Y-37166666D01*
X158480000Y-37071428D01*
X158432380Y-37023809D01*
X158337142Y-36976190D01*
X158146666Y-36928571D01*
X158051428Y-36880952D01*
X158003809Y-36833333D01*
X157956190Y-36738095D01*
X157956190Y-36642857D01*
X158003809Y-36547619D01*
X158051428Y-36500000D01*
X158146666Y-36452380D01*
X158384761Y-36452380D01*
X158527619Y-36500000D01*
X158956190Y-37452380D02*
X158956190Y-36452380D01*
X158956190Y-36928571D02*
X159527619Y-36928571D01*
X159527619Y-37452380D02*
X159527619Y-36452380D01*
X160194285Y-36452380D02*
X160384761Y-36452380D01*
X160480000Y-36500000D01*
X160575238Y-36595238D01*
X160622857Y-36785714D01*
X160622857Y-37119047D01*
X160575238Y-37309523D01*
X160480000Y-37404761D01*
X160384761Y-37452380D01*
X160194285Y-37452380D01*
X160099047Y-37404761D01*
X160003809Y-37309523D01*
X159956190Y-37119047D01*
X159956190Y-36785714D01*
X160003809Y-36595238D01*
X160099047Y-36500000D01*
X160194285Y-36452380D01*
X160908571Y-36452380D02*
X161480000Y-36452380D01*
X161194285Y-37452380D02*
X161194285Y-36452380D01*
X161670476Y-36452380D02*
X162241904Y-36452380D01*
X161956190Y-37452380D02*
X161956190Y-36452380D01*
X162575238Y-37452380D02*
X162575238Y-36452380D01*
X163146666Y-37452380D02*
X162718095Y-36880952D01*
X163146666Y-36452380D02*
X162575238Y-37023809D01*
X163765714Y-36976190D02*
X163765714Y-37452380D01*
X163432380Y-36452380D02*
X163765714Y-36976190D01*
X164099047Y-36452380D01*
X151279523Y-35842380D02*
X151279523Y-34842380D01*
X151517619Y-34842380D01*
X151660476Y-34890000D01*
X151755714Y-34985238D01*
X151803333Y-35080476D01*
X151850952Y-35270952D01*
X151850952Y-35413809D01*
X151803333Y-35604285D01*
X151755714Y-35699523D01*
X151660476Y-35794761D01*
X151517619Y-35842380D01*
X151279523Y-35842380D01*
X152803333Y-35842380D02*
X152231904Y-35842380D01*
X152517619Y-35842380D02*
X152517619Y-34842380D01*
X152422380Y-34985238D01*
X152327142Y-35080476D01*
X152231904Y-35128095D01*
X153422380Y-34842380D02*
X153517619Y-34842380D01*
X153612857Y-34890000D01*
X153660476Y-34937619D01*
X153708095Y-35032857D01*
X153755714Y-35223333D01*
X153755714Y-35461428D01*
X153708095Y-35651904D01*
X153660476Y-35747142D01*
X153612857Y-35794761D01*
X153517619Y-35842380D01*
X153422380Y-35842380D01*
X153327142Y-35794761D01*
X153279523Y-35747142D01*
X153231904Y-35651904D01*
X153184285Y-35461428D01*
X153184285Y-35223333D01*
X153231904Y-35032857D01*
X153279523Y-34937619D01*
X153327142Y-34890000D01*
X153422380Y-34842380D01*
X154612857Y-35175714D02*
X154612857Y-35842380D01*
X154374761Y-34794761D02*
X154136666Y-35509047D01*
X154755714Y-35509047D01*
X147557142Y-64899047D02*
X147604761Y-64946666D01*
X147652380Y-65089523D01*
X147652380Y-65184761D01*
X147604761Y-65327619D01*
X147509523Y-65422857D01*
X147414285Y-65470476D01*
X147223809Y-65518095D01*
X147080952Y-65518095D01*
X146890476Y-65470476D01*
X146795238Y-65422857D01*
X146700000Y-65327619D01*
X146652380Y-65184761D01*
X146652380Y-65089523D01*
X146700000Y-64946666D01*
X146747619Y-64899047D01*
X146747619Y-64518095D02*
X146700000Y-64470476D01*
X146652380Y-64375238D01*
X146652380Y-64137142D01*
X146700000Y-64041904D01*
X146747619Y-63994285D01*
X146842857Y-63946666D01*
X146938095Y-63946666D01*
X147080952Y-63994285D01*
X147652380Y-64565714D01*
X147652380Y-63946666D01*
X147652380Y-62994285D02*
X147652380Y-63565714D01*
X147652380Y-63280000D02*
X146652380Y-63280000D01*
X146795238Y-63375238D01*
X146890476Y-63470476D01*
X146938095Y-63565714D01*
X147080952Y-62422857D02*
X147033333Y-62518095D01*
X146985714Y-62565714D01*
X146890476Y-62613333D01*
X146842857Y-62613333D01*
X146747619Y-62565714D01*
X146700000Y-62518095D01*
X146652380Y-62422857D01*
X146652380Y-62232380D01*
X146700000Y-62137142D01*
X146747619Y-62089523D01*
X146842857Y-62041904D01*
X146890476Y-62041904D01*
X146985714Y-62089523D01*
X147033333Y-62137142D01*
X147080952Y-62232380D01*
X147080952Y-62422857D01*
X147128571Y-62518095D01*
X147176190Y-62565714D01*
X147271428Y-62613333D01*
X147461904Y-62613333D01*
X147557142Y-62565714D01*
X147604761Y-62518095D01*
X147652380Y-62422857D01*
X147652380Y-62232380D01*
X147604761Y-62137142D01*
X147557142Y-62089523D01*
X147461904Y-62041904D01*
X147271428Y-62041904D01*
X147176190Y-62089523D01*
X147128571Y-62137142D01*
X147080952Y-62232380D01*
X160022380Y-67021428D02*
X160022380Y-67592857D01*
X160022380Y-67307142D02*
X159022380Y-67307142D01*
X159165238Y-67402380D01*
X159260476Y-67497619D01*
X159308095Y-67592857D01*
X159022380Y-66402380D02*
X159022380Y-66307142D01*
X159070000Y-66211904D01*
X159117619Y-66164285D01*
X159212857Y-66116666D01*
X159403333Y-66069047D01*
X159641428Y-66069047D01*
X159831904Y-66116666D01*
X159927142Y-66164285D01*
X159974761Y-66211904D01*
X160022380Y-66307142D01*
X160022380Y-66402380D01*
X159974761Y-66497619D01*
X159927142Y-66545238D01*
X159831904Y-66592857D01*
X159641428Y-66640476D01*
X159403333Y-66640476D01*
X159212857Y-66592857D01*
X159117619Y-66545238D01*
X159070000Y-66497619D01*
X159022380Y-66402380D01*
X159355714Y-65211904D02*
X160022380Y-65211904D01*
X159355714Y-65640476D02*
X159879523Y-65640476D01*
X159974761Y-65592857D01*
X160022380Y-65497619D01*
X160022380Y-65354761D01*
X159974761Y-65259523D01*
X159927142Y-65211904D01*
X159498571Y-64402380D02*
X159498571Y-64735714D01*
X160022380Y-64735714D02*
X159022380Y-64735714D01*
X159022380Y-64259523D01*
X146700952Y-43227142D02*
X146653333Y-43274761D01*
X146510476Y-43322380D01*
X146415238Y-43322380D01*
X146272380Y-43274761D01*
X146177142Y-43179523D01*
X146129523Y-43084285D01*
X146081904Y-42893809D01*
X146081904Y-42750952D01*
X146129523Y-42560476D01*
X146177142Y-42465238D01*
X146272380Y-42370000D01*
X146415238Y-42322380D01*
X146510476Y-42322380D01*
X146653333Y-42370000D01*
X146700952Y-42417619D01*
X147081904Y-42417619D02*
X147129523Y-42370000D01*
X147224761Y-42322380D01*
X147462857Y-42322380D01*
X147558095Y-42370000D01*
X147605714Y-42417619D01*
X147653333Y-42512857D01*
X147653333Y-42608095D01*
X147605714Y-42750952D01*
X147034285Y-43322380D01*
X147653333Y-43322380D01*
X148272380Y-42322380D02*
X148367619Y-42322380D01*
X148462857Y-42370000D01*
X148510476Y-42417619D01*
X148558095Y-42512857D01*
X148605714Y-42703333D01*
X148605714Y-42941428D01*
X148558095Y-43131904D01*
X148510476Y-43227142D01*
X148462857Y-43274761D01*
X148367619Y-43322380D01*
X148272380Y-43322380D01*
X148177142Y-43274761D01*
X148129523Y-43227142D01*
X148081904Y-43131904D01*
X148034285Y-42941428D01*
X148034285Y-42703333D01*
X148081904Y-42512857D01*
X148129523Y-42417619D01*
X148177142Y-42370000D01*
X148272380Y-42322380D01*
X148939047Y-42322380D02*
X149605714Y-42322380D01*
X149177142Y-43322380D01*
X158398571Y-43242380D02*
X157827142Y-43242380D01*
X158112857Y-43242380D02*
X158112857Y-42242380D01*
X158017619Y-42385238D01*
X157922380Y-42480476D01*
X157827142Y-42528095D01*
X159017619Y-42242380D02*
X159112857Y-42242380D01*
X159208095Y-42290000D01*
X159255714Y-42337619D01*
X159303333Y-42432857D01*
X159350952Y-42623333D01*
X159350952Y-42861428D01*
X159303333Y-43051904D01*
X159255714Y-43147142D01*
X159208095Y-43194761D01*
X159112857Y-43242380D01*
X159017619Y-43242380D01*
X158922380Y-43194761D01*
X158874761Y-43147142D01*
X158827142Y-43051904D01*
X158779523Y-42861428D01*
X158779523Y-42623333D01*
X158827142Y-42432857D01*
X158874761Y-42337619D01*
X158922380Y-42290000D01*
X159017619Y-42242380D01*
X160208095Y-42575714D02*
X160208095Y-43242380D01*
X159779523Y-42575714D02*
X159779523Y-43099523D01*
X159827142Y-43194761D01*
X159922380Y-43242380D01*
X160065238Y-43242380D01*
X160160476Y-43194761D01*
X160208095Y-43147142D01*
X161017619Y-42718571D02*
X160684285Y-42718571D01*
X160684285Y-43242380D02*
X160684285Y-42242380D01*
X161160476Y-42242380D01*
X141660952Y-70407142D02*
X141613333Y-70454761D01*
X141470476Y-70502380D01*
X141375238Y-70502380D01*
X141232380Y-70454761D01*
X141137142Y-70359523D01*
X141089523Y-70264285D01*
X141041904Y-70073809D01*
X141041904Y-69930952D01*
X141089523Y-69740476D01*
X141137142Y-69645238D01*
X141232380Y-69550000D01*
X141375238Y-69502380D01*
X141470476Y-69502380D01*
X141613333Y-69550000D01*
X141660952Y-69597619D01*
X142041904Y-69597619D02*
X142089523Y-69550000D01*
X142184761Y-69502380D01*
X142422857Y-69502380D01*
X142518095Y-69550000D01*
X142565714Y-69597619D01*
X142613333Y-69692857D01*
X142613333Y-69788095D01*
X142565714Y-69930952D01*
X141994285Y-70502380D01*
X142613333Y-70502380D01*
X143232380Y-69502380D02*
X143327619Y-69502380D01*
X143422857Y-69550000D01*
X143470476Y-69597619D01*
X143518095Y-69692857D01*
X143565714Y-69883333D01*
X143565714Y-70121428D01*
X143518095Y-70311904D01*
X143470476Y-70407142D01*
X143422857Y-70454761D01*
X143327619Y-70502380D01*
X143232380Y-70502380D01*
X143137142Y-70454761D01*
X143089523Y-70407142D01*
X143041904Y-70311904D01*
X142994285Y-70121428D01*
X142994285Y-69883333D01*
X143041904Y-69692857D01*
X143089523Y-69597619D01*
X143137142Y-69550000D01*
X143232380Y-69502380D01*
X143899047Y-69502380D02*
X144518095Y-69502380D01*
X144184761Y-69883333D01*
X144327619Y-69883333D01*
X144422857Y-69930952D01*
X144470476Y-69978571D01*
X144518095Y-70073809D01*
X144518095Y-70311904D01*
X144470476Y-70407142D01*
X144422857Y-70454761D01*
X144327619Y-70502380D01*
X144041904Y-70502380D01*
X143946666Y-70454761D01*
X143899047Y-70407142D01*
X128319523Y-68142380D02*
X128938571Y-68142380D01*
X128605238Y-68523333D01*
X128748095Y-68523333D01*
X128843333Y-68570952D01*
X128890952Y-68618571D01*
X128938571Y-68713809D01*
X128938571Y-68951904D01*
X128890952Y-69047142D01*
X128843333Y-69094761D01*
X128748095Y-69142380D01*
X128462380Y-69142380D01*
X128367142Y-69094761D01*
X128319523Y-69047142D01*
X129557619Y-68142380D02*
X129652857Y-68142380D01*
X129748095Y-68190000D01*
X129795714Y-68237619D01*
X129843333Y-68332857D01*
X129890952Y-68523333D01*
X129890952Y-68761428D01*
X129843333Y-68951904D01*
X129795714Y-69047142D01*
X129748095Y-69094761D01*
X129652857Y-69142380D01*
X129557619Y-69142380D01*
X129462380Y-69094761D01*
X129414761Y-69047142D01*
X129367142Y-68951904D01*
X129319523Y-68761428D01*
X129319523Y-68523333D01*
X129367142Y-68332857D01*
X129414761Y-68237619D01*
X129462380Y-68190000D01*
X129557619Y-68142380D01*
X130319523Y-68475714D02*
X130319523Y-69475714D01*
X130319523Y-68523333D02*
X130414761Y-68475714D01*
X130605238Y-68475714D01*
X130700476Y-68523333D01*
X130748095Y-68570952D01*
X130795714Y-68666190D01*
X130795714Y-68951904D01*
X130748095Y-69047142D01*
X130700476Y-69094761D01*
X130605238Y-69142380D01*
X130414761Y-69142380D01*
X130319523Y-69094761D01*
X131557619Y-68618571D02*
X131224285Y-68618571D01*
X131224285Y-69142380D02*
X131224285Y-68142380D01*
X131700476Y-68142380D01*
X146837142Y-58949047D02*
X146884761Y-58996666D01*
X146932380Y-59139523D01*
X146932380Y-59234761D01*
X146884761Y-59377619D01*
X146789523Y-59472857D01*
X146694285Y-59520476D01*
X146503809Y-59568095D01*
X146360952Y-59568095D01*
X146170476Y-59520476D01*
X146075238Y-59472857D01*
X145980000Y-59377619D01*
X145932380Y-59234761D01*
X145932380Y-59139523D01*
X145980000Y-58996666D01*
X146027619Y-58949047D01*
X146027619Y-58568095D02*
X145980000Y-58520476D01*
X145932380Y-58425238D01*
X145932380Y-58187142D01*
X145980000Y-58091904D01*
X146027619Y-58044285D01*
X146122857Y-57996666D01*
X146218095Y-57996666D01*
X146360952Y-58044285D01*
X146932380Y-58615714D01*
X146932380Y-57996666D01*
X145932380Y-57377619D02*
X145932380Y-57282380D01*
X145980000Y-57187142D01*
X146027619Y-57139523D01*
X146122857Y-57091904D01*
X146313333Y-57044285D01*
X146551428Y-57044285D01*
X146741904Y-57091904D01*
X146837142Y-57139523D01*
X146884761Y-57187142D01*
X146932380Y-57282380D01*
X146932380Y-57377619D01*
X146884761Y-57472857D01*
X146837142Y-57520476D01*
X146741904Y-57568095D01*
X146551428Y-57615714D01*
X146313333Y-57615714D01*
X146122857Y-57568095D01*
X146027619Y-57520476D01*
X145980000Y-57472857D01*
X145932380Y-57377619D01*
X146360952Y-56472857D02*
X146313333Y-56568095D01*
X146265714Y-56615714D01*
X146170476Y-56663333D01*
X146122857Y-56663333D01*
X146027619Y-56615714D01*
X145980000Y-56568095D01*
X145932380Y-56472857D01*
X145932380Y-56282380D01*
X145980000Y-56187142D01*
X146027619Y-56139523D01*
X146122857Y-56091904D01*
X146170476Y-56091904D01*
X146265714Y-56139523D01*
X146313333Y-56187142D01*
X146360952Y-56282380D01*
X146360952Y-56472857D01*
X146408571Y-56568095D01*
X146456190Y-56615714D01*
X146551428Y-56663333D01*
X146741904Y-56663333D01*
X146837142Y-56615714D01*
X146884761Y-56568095D01*
X146932380Y-56472857D01*
X146932380Y-56282380D01*
X146884761Y-56187142D01*
X146837142Y-56139523D01*
X146741904Y-56091904D01*
X146551428Y-56091904D01*
X146456190Y-56139523D01*
X146408571Y-56187142D01*
X146360952Y-56282380D01*
X159172380Y-57161428D02*
X159172380Y-57732857D01*
X159172380Y-57447142D02*
X158172380Y-57447142D01*
X158315238Y-57542380D01*
X158410476Y-57637619D01*
X158458095Y-57732857D01*
X158172380Y-56542380D02*
X158172380Y-56447142D01*
X158220000Y-56351904D01*
X158267619Y-56304285D01*
X158362857Y-56256666D01*
X158553333Y-56209047D01*
X158791428Y-56209047D01*
X158981904Y-56256666D01*
X159077142Y-56304285D01*
X159124761Y-56351904D01*
X159172380Y-56447142D01*
X159172380Y-56542380D01*
X159124761Y-56637619D01*
X159077142Y-56685238D01*
X158981904Y-56732857D01*
X158791428Y-56780476D01*
X158553333Y-56780476D01*
X158362857Y-56732857D01*
X158267619Y-56685238D01*
X158220000Y-56637619D01*
X158172380Y-56542380D01*
X158505714Y-55351904D02*
X159172380Y-55351904D01*
X158505714Y-55780476D02*
X159029523Y-55780476D01*
X159124761Y-55732857D01*
X159172380Y-55637619D01*
X159172380Y-55494761D01*
X159124761Y-55399523D01*
X159077142Y-55351904D01*
X158648571Y-54542380D02*
X158648571Y-54875714D01*
X159172380Y-54875714D02*
X158172380Y-54875714D01*
X158172380Y-54399523D01*
X149707142Y-58799047D02*
X149754761Y-58846666D01*
X149802380Y-58989523D01*
X149802380Y-59084761D01*
X149754761Y-59227619D01*
X149659523Y-59322857D01*
X149564285Y-59370476D01*
X149373809Y-59418095D01*
X149230952Y-59418095D01*
X149040476Y-59370476D01*
X148945238Y-59322857D01*
X148850000Y-59227619D01*
X148802380Y-59084761D01*
X148802380Y-58989523D01*
X148850000Y-58846666D01*
X148897619Y-58799047D01*
X148897619Y-58418095D02*
X148850000Y-58370476D01*
X148802380Y-58275238D01*
X148802380Y-58037142D01*
X148850000Y-57941904D01*
X148897619Y-57894285D01*
X148992857Y-57846666D01*
X149088095Y-57846666D01*
X149230952Y-57894285D01*
X149802380Y-58465714D01*
X149802380Y-57846666D01*
X148802380Y-57227619D02*
X148802380Y-57132380D01*
X148850000Y-57037142D01*
X148897619Y-56989523D01*
X148992857Y-56941904D01*
X149183333Y-56894285D01*
X149421428Y-56894285D01*
X149611904Y-56941904D01*
X149707142Y-56989523D01*
X149754761Y-57037142D01*
X149802380Y-57132380D01*
X149802380Y-57227619D01*
X149754761Y-57322857D01*
X149707142Y-57370476D01*
X149611904Y-57418095D01*
X149421428Y-57465714D01*
X149183333Y-57465714D01*
X148992857Y-57418095D01*
X148897619Y-57370476D01*
X148850000Y-57322857D01*
X148802380Y-57227619D01*
X148802380Y-55989523D02*
X148802380Y-56465714D01*
X149278571Y-56513333D01*
X149230952Y-56465714D01*
X149183333Y-56370476D01*
X149183333Y-56132380D01*
X149230952Y-56037142D01*
X149278571Y-55989523D01*
X149373809Y-55941904D01*
X149611904Y-55941904D01*
X149707142Y-55989523D01*
X149754761Y-56037142D01*
X149802380Y-56132380D01*
X149802380Y-56370476D01*
X149754761Y-56465714D01*
X149707142Y-56513333D01*
X161972380Y-57191428D02*
X161972380Y-57762857D01*
X161972380Y-57477142D02*
X160972380Y-57477142D01*
X161115238Y-57572380D01*
X161210476Y-57667619D01*
X161258095Y-57762857D01*
X160972380Y-56572380D02*
X160972380Y-56477142D01*
X161020000Y-56381904D01*
X161067619Y-56334285D01*
X161162857Y-56286666D01*
X161353333Y-56239047D01*
X161591428Y-56239047D01*
X161781904Y-56286666D01*
X161877142Y-56334285D01*
X161924761Y-56381904D01*
X161972380Y-56477142D01*
X161972380Y-56572380D01*
X161924761Y-56667619D01*
X161877142Y-56715238D01*
X161781904Y-56762857D01*
X161591428Y-56810476D01*
X161353333Y-56810476D01*
X161162857Y-56762857D01*
X161067619Y-56715238D01*
X161020000Y-56667619D01*
X160972380Y-56572380D01*
X161305714Y-55381904D02*
X161972380Y-55381904D01*
X161305714Y-55810476D02*
X161829523Y-55810476D01*
X161924761Y-55762857D01*
X161972380Y-55667619D01*
X161972380Y-55524761D01*
X161924761Y-55429523D01*
X161877142Y-55381904D01*
X161448571Y-54572380D02*
X161448571Y-54905714D01*
X161972380Y-54905714D02*
X160972380Y-54905714D01*
X160972380Y-54429523D01*
X152542380Y-71160476D02*
X151542380Y-71160476D01*
X151542380Y-70922380D01*
X151590000Y-70779523D01*
X151685238Y-70684285D01*
X151780476Y-70636666D01*
X151970952Y-70589047D01*
X152113809Y-70589047D01*
X152304285Y-70636666D01*
X152399523Y-70684285D01*
X152494761Y-70779523D01*
X152542380Y-70922380D01*
X152542380Y-71160476D01*
X152542380Y-69636666D02*
X152542380Y-70208095D01*
X152542380Y-69922380D02*
X151542380Y-69922380D01*
X151685238Y-70017619D01*
X151780476Y-70112857D01*
X151828095Y-70208095D01*
X151542380Y-69017619D02*
X151542380Y-68922380D01*
X151590000Y-68827142D01*
X151637619Y-68779523D01*
X151732857Y-68731904D01*
X151923333Y-68684285D01*
X152161428Y-68684285D01*
X152351904Y-68731904D01*
X152447142Y-68779523D01*
X152494761Y-68827142D01*
X152542380Y-68922380D01*
X152542380Y-69017619D01*
X152494761Y-69112857D01*
X152447142Y-69160476D01*
X152351904Y-69208095D01*
X152161428Y-69255714D01*
X151923333Y-69255714D01*
X151732857Y-69208095D01*
X151637619Y-69160476D01*
X151590000Y-69112857D01*
X151542380Y-69017619D01*
X151637619Y-68303333D02*
X151590000Y-68255714D01*
X151542380Y-68160476D01*
X151542380Y-67922380D01*
X151590000Y-67827142D01*
X151637619Y-67779523D01*
X151732857Y-67731904D01*
X151828095Y-67731904D01*
X151970952Y-67779523D01*
X152542380Y-68350952D01*
X152542380Y-67731904D01*
X164382380Y-71085238D02*
X164382380Y-71561428D01*
X163382380Y-71561428D01*
X163858571Y-70751904D02*
X163858571Y-70418571D01*
X164382380Y-70275714D02*
X164382380Y-70751904D01*
X163382380Y-70751904D01*
X163382380Y-70275714D01*
X164382380Y-69847142D02*
X163382380Y-69847142D01*
X163382380Y-69609047D01*
X163430000Y-69466190D01*
X163525238Y-69370952D01*
X163620476Y-69323333D01*
X163810952Y-69275714D01*
X163953809Y-69275714D01*
X164144285Y-69323333D01*
X164239523Y-69370952D01*
X164334761Y-69466190D01*
X164382380Y-69609047D01*
X164382380Y-69847142D01*
X164477619Y-69085238D02*
X164477619Y-68323333D01*
X163858571Y-67751904D02*
X163858571Y-68085238D01*
X164382380Y-68085238D02*
X163382380Y-68085238D01*
X163382380Y-67609047D01*
X164382380Y-67228095D02*
X163715714Y-67228095D01*
X163382380Y-67228095D02*
X163430000Y-67275714D01*
X163477619Y-67228095D01*
X163430000Y-67180476D01*
X163382380Y-67228095D01*
X163477619Y-67228095D01*
X164382380Y-66609047D02*
X164334761Y-66704285D01*
X164239523Y-66751904D01*
X163382380Y-66751904D01*
X164382380Y-66085238D02*
X164334761Y-66180476D01*
X164239523Y-66228095D01*
X163382380Y-66228095D01*
X164334761Y-65323333D02*
X164382380Y-65418571D01*
X164382380Y-65609047D01*
X164334761Y-65704285D01*
X164239523Y-65751904D01*
X163858571Y-65751904D01*
X163763333Y-65704285D01*
X163715714Y-65609047D01*
X163715714Y-65418571D01*
X163763333Y-65323333D01*
X163858571Y-65275714D01*
X163953809Y-65275714D01*
X164049047Y-65751904D01*
X164382380Y-64418571D02*
X163382380Y-64418571D01*
X164334761Y-64418571D02*
X164382380Y-64513809D01*
X164382380Y-64704285D01*
X164334761Y-64799523D01*
X164287142Y-64847142D01*
X164191904Y-64894761D01*
X163906190Y-64894761D01*
X163810952Y-64847142D01*
X163763333Y-64799523D01*
X163715714Y-64704285D01*
X163715714Y-64513809D01*
X163763333Y-64418571D01*
D11*
X151120952Y-69576190D02*
X150720952Y-69576190D01*
X150720952Y-69480952D01*
X150740000Y-69423809D01*
X150778095Y-69385714D01*
X150816190Y-69366666D01*
X150892380Y-69347619D01*
X150949523Y-69347619D01*
X151025714Y-69366666D01*
X151063809Y-69385714D01*
X151101904Y-69423809D01*
X151120952Y-69480952D01*
X151120952Y-69576190D01*
X151120952Y-68966666D02*
X151120952Y-69195238D01*
X151120952Y-69080952D02*
X150720952Y-69080952D01*
X150778095Y-69119047D01*
X150816190Y-69157142D01*
X150835238Y-69195238D01*
X150720952Y-68719047D02*
X150720952Y-68680952D01*
X150740000Y-68642857D01*
X150759047Y-68623809D01*
X150797142Y-68604761D01*
X150873333Y-68585714D01*
X150968571Y-68585714D01*
X151044761Y-68604761D01*
X151082857Y-68623809D01*
X151101904Y-68642857D01*
X151120952Y-68680952D01*
X151120952Y-68719047D01*
X151101904Y-68757142D01*
X151082857Y-68776190D01*
X151044761Y-68795238D01*
X150968571Y-68814285D01*
X150873333Y-68814285D01*
X150797142Y-68795238D01*
X150759047Y-68776190D01*
X150740000Y-68757142D01*
X150720952Y-68719047D01*
X150759047Y-68433333D02*
X150740000Y-68414285D01*
X150720952Y-68376190D01*
X150720952Y-68280952D01*
X150740000Y-68242857D01*
X150759047Y-68223809D01*
X150797142Y-68204761D01*
X150835238Y-68204761D01*
X150892380Y-68223809D01*
X151120952Y-68452380D01*
X151120952Y-68204761D01*
D10*
X158091904Y-39896666D02*
X158568095Y-39896666D01*
X157996666Y-40182380D02*
X158330000Y-39182380D01*
X158663333Y-40182380D01*
X158901428Y-39182380D02*
X159568095Y-39182380D01*
X158901428Y-40182380D01*
X159568095Y-40182380D01*
X160472857Y-40182380D02*
X159901428Y-40182380D01*
X160187142Y-40182380D02*
X160187142Y-39182380D01*
X160091904Y-39325238D01*
X159996666Y-39420476D01*
X159901428Y-39468095D01*
X161425238Y-40182380D02*
X160853809Y-40182380D01*
X161139523Y-40182380D02*
X161139523Y-39182380D01*
X161044285Y-39325238D01*
X160949047Y-39420476D01*
X160853809Y-39468095D01*
X162377619Y-40182380D02*
X161806190Y-40182380D01*
X162091904Y-40182380D02*
X162091904Y-39182380D01*
X161996666Y-39325238D01*
X161901428Y-39420476D01*
X161806190Y-39468095D01*
X162710952Y-39182380D02*
X163377619Y-39182380D01*
X162949047Y-40182380D01*
X164330000Y-40182380D02*
X163996666Y-39706190D01*
X163758571Y-40182380D02*
X163758571Y-39182380D01*
X164139523Y-39182380D01*
X164234761Y-39230000D01*
X164282380Y-39277619D01*
X164330000Y-39372857D01*
X164330000Y-39515714D01*
X164282380Y-39610952D01*
X164234761Y-39658571D01*
X164139523Y-39706190D01*
X163758571Y-39706190D01*
X164758571Y-39801428D02*
X165520476Y-39801428D01*
X165901428Y-39182380D02*
X166520476Y-39182380D01*
X166187142Y-39563333D01*
X166330000Y-39563333D01*
X166425238Y-39610952D01*
X166472857Y-39658571D01*
X166520476Y-39753809D01*
X166520476Y-39991904D01*
X166472857Y-40087142D01*
X166425238Y-40134761D01*
X166330000Y-40182380D01*
X166044285Y-40182380D01*
X165949047Y-40134761D01*
X165901428Y-40087142D01*
X166949047Y-40087142D02*
X166996666Y-40134761D01*
X166949047Y-40182380D01*
X166901428Y-40134761D01*
X166949047Y-40087142D01*
X166949047Y-40182380D01*
X167330000Y-39182380D02*
X167949047Y-39182380D01*
X167615714Y-39563333D01*
X167758571Y-39563333D01*
X167853809Y-39610952D01*
X167901428Y-39658571D01*
X167949047Y-39753809D01*
X167949047Y-39991904D01*
X167901428Y-40087142D01*
X167853809Y-40134761D01*
X167758571Y-40182380D01*
X167472857Y-40182380D01*
X167377619Y-40134761D01*
X167330000Y-40087142D01*
X168234761Y-39182380D02*
X168806190Y-39182380D01*
X168520476Y-40182380D02*
X168520476Y-39182380D01*
X169710952Y-40182380D02*
X169377619Y-39706190D01*
X169139523Y-40182380D02*
X169139523Y-39182380D01*
X169520476Y-39182380D01*
X169615714Y-39230000D01*
X169663333Y-39277619D01*
X169710952Y-39372857D01*
X169710952Y-39515714D01*
X169663333Y-39610952D01*
X169615714Y-39658571D01*
X169520476Y-39706190D01*
X169139523Y-39706190D01*
X170139523Y-39658571D02*
X170472857Y-39658571D01*
X170615714Y-40182380D02*
X170139523Y-40182380D01*
X170139523Y-39182380D01*
X170615714Y-39182380D01*
X171568095Y-40182380D02*
X170996666Y-40182380D01*
X171282380Y-40182380D02*
X171282380Y-39182380D01*
X171187142Y-39325238D01*
X171091904Y-39420476D01*
X170996666Y-39468095D01*
X147795714Y-38752380D02*
X147795714Y-39561904D01*
X147843333Y-39657142D01*
X147890952Y-39704761D01*
X147986190Y-39752380D01*
X148176666Y-39752380D01*
X148271904Y-39704761D01*
X148319523Y-39657142D01*
X148367142Y-39561904D01*
X148367142Y-38752380D01*
X148795714Y-38847619D02*
X148843333Y-38800000D01*
X148938571Y-38752380D01*
X149176666Y-38752380D01*
X149271904Y-38800000D01*
X149319523Y-38847619D01*
X149367142Y-38942857D01*
X149367142Y-39038095D01*
X149319523Y-39180952D01*
X148748095Y-39752380D01*
X149367142Y-39752380D01*
X149986190Y-38752380D02*
X150081428Y-38752380D01*
X150176666Y-38800000D01*
X150224285Y-38847619D01*
X150271904Y-38942857D01*
X150319523Y-39133333D01*
X150319523Y-39371428D01*
X150271904Y-39561904D01*
X150224285Y-39657142D01*
X150176666Y-39704761D01*
X150081428Y-39752380D01*
X149986190Y-39752380D01*
X149890952Y-39704761D01*
X149843333Y-39657142D01*
X149795714Y-39561904D01*
X149748095Y-39371428D01*
X149748095Y-39133333D01*
X149795714Y-38942857D01*
X149843333Y-38847619D01*
X149890952Y-38800000D01*
X149986190Y-38752380D01*
X151271904Y-39752380D02*
X150700476Y-39752380D01*
X150986190Y-39752380D02*
X150986190Y-38752380D01*
X150890952Y-38895238D01*
X150795714Y-38990476D01*
X150700476Y-39038095D01*
X150157142Y-64789047D02*
X150204761Y-64836666D01*
X150252380Y-64979523D01*
X150252380Y-65074761D01*
X150204761Y-65217619D01*
X150109523Y-65312857D01*
X150014285Y-65360476D01*
X149823809Y-65408095D01*
X149680952Y-65408095D01*
X149490476Y-65360476D01*
X149395238Y-65312857D01*
X149300000Y-65217619D01*
X149252380Y-65074761D01*
X149252380Y-64979523D01*
X149300000Y-64836666D01*
X149347619Y-64789047D01*
X149347619Y-64408095D02*
X149300000Y-64360476D01*
X149252380Y-64265238D01*
X149252380Y-64027142D01*
X149300000Y-63931904D01*
X149347619Y-63884285D01*
X149442857Y-63836666D01*
X149538095Y-63836666D01*
X149680952Y-63884285D01*
X150252380Y-64455714D01*
X150252380Y-63836666D01*
X149347619Y-63455714D02*
X149300000Y-63408095D01*
X149252380Y-63312857D01*
X149252380Y-63074761D01*
X149300000Y-62979523D01*
X149347619Y-62931904D01*
X149442857Y-62884285D01*
X149538095Y-62884285D01*
X149680952Y-62931904D01*
X150252380Y-63503333D01*
X150252380Y-62884285D01*
X150252380Y-61931904D02*
X150252380Y-62503333D01*
X150252380Y-62217619D02*
X149252380Y-62217619D01*
X149395238Y-62312857D01*
X149490476Y-62408095D01*
X149538095Y-62503333D01*
X162662380Y-67011428D02*
X162662380Y-67582857D01*
X162662380Y-67297142D02*
X161662380Y-67297142D01*
X161805238Y-67392380D01*
X161900476Y-67487619D01*
X161948095Y-67582857D01*
X161662380Y-66392380D02*
X161662380Y-66297142D01*
X161710000Y-66201904D01*
X161757619Y-66154285D01*
X161852857Y-66106666D01*
X162043333Y-66059047D01*
X162281428Y-66059047D01*
X162471904Y-66106666D01*
X162567142Y-66154285D01*
X162614761Y-66201904D01*
X162662380Y-66297142D01*
X162662380Y-66392380D01*
X162614761Y-66487619D01*
X162567142Y-66535238D01*
X162471904Y-66582857D01*
X162281428Y-66630476D01*
X162043333Y-66630476D01*
X161852857Y-66582857D01*
X161757619Y-66535238D01*
X161710000Y-66487619D01*
X161662380Y-66392380D01*
X161995714Y-65201904D02*
X162662380Y-65201904D01*
X161995714Y-65630476D02*
X162519523Y-65630476D01*
X162614761Y-65582857D01*
X162662380Y-65487619D01*
X162662380Y-65344761D01*
X162614761Y-65249523D01*
X162567142Y-65201904D01*
X162138571Y-64392380D02*
X162138571Y-64725714D01*
X162662380Y-64725714D02*
X161662380Y-64725714D01*
X161662380Y-64249523D01*
X126490952Y-48552380D02*
X126729047Y-49552380D01*
X126919523Y-48838095D01*
X127110000Y-49552380D01*
X127348095Y-48552380D01*
X127681428Y-48647619D02*
X127729047Y-48600000D01*
X127824285Y-48552380D01*
X128062380Y-48552380D01*
X128157619Y-48600000D01*
X128205238Y-48647619D01*
X128252857Y-48742857D01*
X128252857Y-48838095D01*
X128205238Y-48980952D01*
X127633809Y-49552380D01*
X128252857Y-49552380D01*
X129157619Y-48552380D02*
X128681428Y-48552380D01*
X128633809Y-49028571D01*
X128681428Y-48980952D01*
X128776666Y-48933333D01*
X129014761Y-48933333D01*
X129110000Y-48980952D01*
X129157619Y-49028571D01*
X129205238Y-49123809D01*
X129205238Y-49361904D01*
X129157619Y-49457142D01*
X129110000Y-49504761D01*
X129014761Y-49552380D01*
X128776666Y-49552380D01*
X128681428Y-49504761D01*
X128633809Y-49457142D01*
X130300476Y-49647619D02*
X130205238Y-49600000D01*
X130110000Y-49504761D01*
X129967142Y-49361904D01*
X129871904Y-49314285D01*
X129776666Y-49314285D01*
X129824285Y-49552380D02*
X129729047Y-49504761D01*
X129633809Y-49409523D01*
X129586190Y-49219047D01*
X129586190Y-48885714D01*
X129633809Y-48695238D01*
X129729047Y-48600000D01*
X129824285Y-48552380D01*
X130014761Y-48552380D01*
X130110000Y-48600000D01*
X130205238Y-48695238D01*
X130252857Y-48885714D01*
X130252857Y-49219047D01*
X130205238Y-49409523D01*
X130110000Y-49504761D01*
X130014761Y-49552380D01*
X129824285Y-49552380D01*
X131205238Y-49552380D02*
X130633809Y-49552380D01*
X130919523Y-49552380D02*
X130919523Y-48552380D01*
X130824285Y-48695238D01*
X130729047Y-48790476D01*
X130633809Y-48838095D01*
X131586190Y-48647619D02*
X131633809Y-48600000D01*
X131729047Y-48552380D01*
X131967142Y-48552380D01*
X132062380Y-48600000D01*
X132110000Y-48647619D01*
X132157619Y-48742857D01*
X132157619Y-48838095D01*
X132110000Y-48980952D01*
X131538571Y-49552380D01*
X132157619Y-49552380D01*
X132729047Y-48980952D02*
X132633809Y-48933333D01*
X132586190Y-48885714D01*
X132538571Y-48790476D01*
X132538571Y-48742857D01*
X132586190Y-48647619D01*
X132633809Y-48600000D01*
X132729047Y-48552380D01*
X132919523Y-48552380D01*
X133014761Y-48600000D01*
X133062380Y-48647619D01*
X133110000Y-48742857D01*
X133110000Y-48790476D01*
X133062380Y-48885714D01*
X133014761Y-48933333D01*
X132919523Y-48980952D01*
X132729047Y-48980952D01*
X132633809Y-49028571D01*
X132586190Y-49076190D01*
X132538571Y-49171428D01*
X132538571Y-49361904D01*
X132586190Y-49457142D01*
X132633809Y-49504761D01*
X132729047Y-49552380D01*
X132919523Y-49552380D01*
X133014761Y-49504761D01*
X133062380Y-49457142D01*
X133110000Y-49361904D01*
X133110000Y-49171428D01*
X133062380Y-49076190D01*
X133014761Y-49028571D01*
X132919523Y-48980952D01*
X133824285Y-48552380D02*
X133824285Y-49266666D01*
X133776666Y-49409523D01*
X133681428Y-49504761D01*
X133538571Y-49552380D01*
X133443333Y-49552380D01*
X134157619Y-48552380D02*
X134490952Y-49552380D01*
X134824285Y-48552380D01*
X135110000Y-49504761D02*
X135252857Y-49552380D01*
X135490952Y-49552380D01*
X135586190Y-49504761D01*
X135633809Y-49457142D01*
X135681428Y-49361904D01*
X135681428Y-49266666D01*
X135633809Y-49171428D01*
X135586190Y-49123809D01*
X135490952Y-49076190D01*
X135300476Y-49028571D01*
X135205238Y-48980952D01*
X135157619Y-48933333D01*
X135110000Y-48838095D01*
X135110000Y-48742857D01*
X135157619Y-48647619D01*
X135205238Y-48600000D01*
X135300476Y-48552380D01*
X135538571Y-48552380D01*
X135681428Y-48600000D01*
X142862380Y-50814285D02*
X143671904Y-50814285D01*
X143767142Y-50766666D01*
X143814761Y-50719047D01*
X143862380Y-50623809D01*
X143862380Y-50433333D01*
X143814761Y-50338095D01*
X143767142Y-50290476D01*
X143671904Y-50242857D01*
X142862380Y-50242857D01*
X142957619Y-49814285D02*
X142910000Y-49766666D01*
X142862380Y-49671428D01*
X142862380Y-49433333D01*
X142910000Y-49338095D01*
X142957619Y-49290476D01*
X143052857Y-49242857D01*
X143148095Y-49242857D01*
X143290952Y-49290476D01*
X143862380Y-49861904D01*
X143862380Y-49242857D01*
X142862380Y-48623809D02*
X142862380Y-48528571D01*
X142910000Y-48433333D01*
X142957619Y-48385714D01*
X143052857Y-48338095D01*
X143243333Y-48290476D01*
X143481428Y-48290476D01*
X143671904Y-48338095D01*
X143767142Y-48385714D01*
X143814761Y-48433333D01*
X143862380Y-48528571D01*
X143862380Y-48623809D01*
X143814761Y-48719047D01*
X143767142Y-48766666D01*
X143671904Y-48814285D01*
X143481428Y-48861904D01*
X143243333Y-48861904D01*
X143052857Y-48814285D01*
X142957619Y-48766666D01*
X142910000Y-48719047D01*
X142862380Y-48623809D01*
X142862380Y-47385714D02*
X142862380Y-47861904D01*
X143338571Y-47909523D01*
X143290952Y-47861904D01*
X143243333Y-47766666D01*
X143243333Y-47528571D01*
X143290952Y-47433333D01*
X143338571Y-47385714D01*
X143433809Y-47338095D01*
X143671904Y-47338095D01*
X143767142Y-47385714D01*
X143814761Y-47433333D01*
X143862380Y-47528571D01*
X143862380Y-47766666D01*
X143814761Y-47861904D01*
X143767142Y-47909523D01*
X158882380Y-50602380D02*
X158310952Y-50602380D01*
X158596666Y-50602380D02*
X158596666Y-49602380D01*
X158501428Y-49745238D01*
X158406190Y-49840476D01*
X158310952Y-49888095D01*
X159501428Y-49602380D02*
X159596666Y-49602380D01*
X159691904Y-49650000D01*
X159739523Y-49697619D01*
X159787142Y-49792857D01*
X159834761Y-49983333D01*
X159834761Y-50221428D01*
X159787142Y-50411904D01*
X159739523Y-50507142D01*
X159691904Y-50554761D01*
X159596666Y-50602380D01*
X159501428Y-50602380D01*
X159406190Y-50554761D01*
X159358571Y-50507142D01*
X159310952Y-50411904D01*
X159263333Y-50221428D01*
X159263333Y-49983333D01*
X159310952Y-49792857D01*
X159358571Y-49697619D01*
X159406190Y-49650000D01*
X159501428Y-49602380D01*
X160453809Y-49602380D02*
X160549047Y-49602380D01*
X160644285Y-49650000D01*
X160691904Y-49697619D01*
X160739523Y-49792857D01*
X160787142Y-49983333D01*
X160787142Y-50221428D01*
X160739523Y-50411904D01*
X160691904Y-50507142D01*
X160644285Y-50554761D01*
X160549047Y-50602380D01*
X160453809Y-50602380D01*
X160358571Y-50554761D01*
X160310952Y-50507142D01*
X160263333Y-50411904D01*
X160215714Y-50221428D01*
X160215714Y-49983333D01*
X160263333Y-49792857D01*
X160310952Y-49697619D01*
X160358571Y-49650000D01*
X160453809Y-49602380D01*
X161644285Y-49935714D02*
X161644285Y-50602380D01*
X161215714Y-49935714D02*
X161215714Y-50459523D01*
X161263333Y-50554761D01*
X161358571Y-50602380D01*
X161501428Y-50602380D01*
X161596666Y-50554761D01*
X161644285Y-50507142D01*
X162453809Y-50078571D02*
X162120476Y-50078571D01*
X162120476Y-50602380D02*
X162120476Y-49602380D01*
X162596666Y-49602380D01*
D12*
X151625714Y-51175238D02*
X151663809Y-51213333D01*
X151701904Y-51327619D01*
X151701904Y-51403809D01*
X151663809Y-51518095D01*
X151587619Y-51594285D01*
X151511428Y-51632380D01*
X151359047Y-51670476D01*
X151244761Y-51670476D01*
X151092380Y-51632380D01*
X151016190Y-51594285D01*
X150940000Y-51518095D01*
X150901904Y-51403809D01*
X150901904Y-51327619D01*
X150940000Y-51213333D01*
X150978095Y-51175238D01*
X150978095Y-50870476D02*
X150940000Y-50832380D01*
X150901904Y-50756190D01*
X150901904Y-50565714D01*
X150940000Y-50489523D01*
X150978095Y-50451428D01*
X151054285Y-50413333D01*
X151130476Y-50413333D01*
X151244761Y-50451428D01*
X151701904Y-50908571D01*
X151701904Y-50413333D01*
X151701904Y-49651428D02*
X151701904Y-50108571D01*
X151701904Y-49880000D02*
X150901904Y-49880000D01*
X151016190Y-49956190D01*
X151092380Y-50032380D01*
X151130476Y-50108571D01*
X150901904Y-49156190D02*
X150901904Y-49080000D01*
X150940000Y-49003809D01*
X150978095Y-48965714D01*
X151054285Y-48927619D01*
X151206666Y-48889523D01*
X151397142Y-48889523D01*
X151549523Y-48927619D01*
X151625714Y-48965714D01*
X151663809Y-49003809D01*
X151701904Y-49080000D01*
X151701904Y-49156190D01*
X151663809Y-49232380D01*
X151625714Y-49270476D01*
X151549523Y-49308571D01*
X151397142Y-49346666D01*
X151206666Y-49346666D01*
X151054285Y-49308571D01*
X150978095Y-49270476D01*
X150940000Y-49232380D01*
X150901904Y-49156190D01*
D10*
X145444285Y-27182380D02*
X145444285Y-27896666D01*
X145396666Y-28039523D01*
X145301428Y-28134761D01*
X145158571Y-28182380D01*
X145063333Y-28182380D01*
X145872857Y-27277619D02*
X145920476Y-27230000D01*
X146015714Y-27182380D01*
X146253809Y-27182380D01*
X146349047Y-27230000D01*
X146396666Y-27277619D01*
X146444285Y-27372857D01*
X146444285Y-27468095D01*
X146396666Y-27610952D01*
X145825238Y-28182380D01*
X146444285Y-28182380D01*
X147063333Y-27182380D02*
X147158571Y-27182380D01*
X147253809Y-27230000D01*
X147301428Y-27277619D01*
X147349047Y-27372857D01*
X147396666Y-27563333D01*
X147396666Y-27801428D01*
X147349047Y-27991904D01*
X147301428Y-28087142D01*
X147253809Y-28134761D01*
X147158571Y-28182380D01*
X147063333Y-28182380D01*
X146968095Y-28134761D01*
X146920476Y-28087142D01*
X146872857Y-27991904D01*
X146825238Y-27801428D01*
X146825238Y-27563333D01*
X146872857Y-27372857D01*
X146920476Y-27277619D01*
X146968095Y-27230000D01*
X147063333Y-27182380D01*
X148349047Y-28182380D02*
X147777619Y-28182380D01*
X148063333Y-28182380D02*
X148063333Y-27182380D01*
X147968095Y-27325238D01*
X147872857Y-27420476D01*
X147777619Y-27468095D01*
X139830952Y-25192380D02*
X140402380Y-25192380D01*
X140116666Y-26192380D02*
X140116666Y-25192380D01*
X140926190Y-25716190D02*
X140926190Y-26192380D01*
X140592857Y-25192380D02*
X140926190Y-25716190D01*
X141259523Y-25192380D01*
X141592857Y-26192380D02*
X141592857Y-25192380D01*
X141973809Y-25192380D01*
X142069047Y-25240000D01*
X142116666Y-25287619D01*
X142164285Y-25382857D01*
X142164285Y-25525714D01*
X142116666Y-25620952D01*
X142069047Y-25668571D01*
X141973809Y-25716190D01*
X141592857Y-25716190D01*
X142592857Y-25668571D02*
X142926190Y-25668571D01*
X143069047Y-26192380D02*
X142592857Y-26192380D01*
X142592857Y-25192380D01*
X143069047Y-25192380D01*
X143497619Y-25811428D02*
X144259523Y-25811428D01*
X145307142Y-26097142D02*
X145259523Y-26144761D01*
X145116666Y-26192380D01*
X145021428Y-26192380D01*
X144878571Y-26144761D01*
X144783333Y-26049523D01*
X144735714Y-25954285D01*
X144688095Y-25763809D01*
X144688095Y-25620952D01*
X144735714Y-25430476D01*
X144783333Y-25335238D01*
X144878571Y-25240000D01*
X145021428Y-25192380D01*
X145116666Y-25192380D01*
X145259523Y-25240000D01*
X145307142Y-25287619D01*
X145735714Y-25811428D02*
X146497619Y-25811428D01*
X146878571Y-25192380D02*
X147497619Y-25192380D01*
X147164285Y-25573333D01*
X147307142Y-25573333D01*
X147402380Y-25620952D01*
X147450000Y-25668571D01*
X147497619Y-25763809D01*
X147497619Y-26001904D01*
X147450000Y-26097142D01*
X147402380Y-26144761D01*
X147307142Y-26192380D01*
X147021428Y-26192380D01*
X146926190Y-26144761D01*
X146878571Y-26097142D01*
X148450000Y-26192380D02*
X147878571Y-26192380D01*
X148164285Y-26192380D02*
X148164285Y-25192380D01*
X148069047Y-25335238D01*
X147973809Y-25430476D01*
X147878571Y-25478095D01*
X148878571Y-25811428D02*
X149640476Y-25811428D01*
X150116666Y-26192380D02*
X150116666Y-25192380D01*
X150450000Y-25906666D01*
X150783333Y-25192380D01*
X150783333Y-26192380D01*
X151259523Y-25811428D02*
X152021428Y-25811428D01*
X153021428Y-26192380D02*
X152450000Y-26192380D01*
X152735714Y-26192380D02*
X152735714Y-25192380D01*
X152640476Y-25335238D01*
X152545238Y-25430476D01*
X152450000Y-25478095D01*
X153402380Y-25287619D02*
X153450000Y-25240000D01*
X153545238Y-25192380D01*
X153783333Y-25192380D01*
X153878571Y-25240000D01*
X153926190Y-25287619D01*
X153973809Y-25382857D01*
X153973809Y-25478095D01*
X153926190Y-25620952D01*
X153354761Y-26192380D01*
X153973809Y-26192380D01*
X143902380Y-34730476D02*
X142902380Y-34730476D01*
X142902380Y-34492380D01*
X142950000Y-34349523D01*
X143045238Y-34254285D01*
X143140476Y-34206666D01*
X143330952Y-34159047D01*
X143473809Y-34159047D01*
X143664285Y-34206666D01*
X143759523Y-34254285D01*
X143854761Y-34349523D01*
X143902380Y-34492380D01*
X143902380Y-34730476D01*
X142997619Y-33778095D02*
X142950000Y-33730476D01*
X142902380Y-33635238D01*
X142902380Y-33397142D01*
X142950000Y-33301904D01*
X142997619Y-33254285D01*
X143092857Y-33206666D01*
X143188095Y-33206666D01*
X143330952Y-33254285D01*
X143902380Y-33825714D01*
X143902380Y-33206666D01*
X142902380Y-32587619D02*
X142902380Y-32492380D01*
X142950000Y-32397142D01*
X142997619Y-32349523D01*
X143092857Y-32301904D01*
X143283333Y-32254285D01*
X143521428Y-32254285D01*
X143711904Y-32301904D01*
X143807142Y-32349523D01*
X143854761Y-32397142D01*
X143902380Y-32492380D01*
X143902380Y-32587619D01*
X143854761Y-32682857D01*
X143807142Y-32730476D01*
X143711904Y-32778095D01*
X143521428Y-32825714D01*
X143283333Y-32825714D01*
X143092857Y-32778095D01*
X142997619Y-32730476D01*
X142950000Y-32682857D01*
X142902380Y-32587619D01*
X142902380Y-31349523D02*
X142902380Y-31825714D01*
X143378571Y-31873333D01*
X143330952Y-31825714D01*
X143283333Y-31730476D01*
X143283333Y-31492380D01*
X143330952Y-31397142D01*
X143378571Y-31349523D01*
X143473809Y-31301904D01*
X143711904Y-31301904D01*
X143807142Y-31349523D01*
X143854761Y-31397142D01*
X143902380Y-31492380D01*
X143902380Y-31730476D01*
X143854761Y-31825714D01*
X143807142Y-31873333D01*
X143288571Y-24607142D02*
X143288571Y-24273809D01*
X143812380Y-24130952D02*
X143812380Y-24607142D01*
X142812380Y-24607142D01*
X142812380Y-24130952D01*
X143764761Y-23750000D02*
X143812380Y-23607142D01*
X143812380Y-23369047D01*
X143764761Y-23273809D01*
X143717142Y-23226190D01*
X143621904Y-23178571D01*
X143526666Y-23178571D01*
X143431428Y-23226190D01*
X143383809Y-23273809D01*
X143336190Y-23369047D01*
X143288571Y-23559523D01*
X143240952Y-23654761D01*
X143193333Y-23702380D01*
X143098095Y-23750000D01*
X143002857Y-23750000D01*
X142907619Y-23702380D01*
X142860000Y-23654761D01*
X142812380Y-23559523D01*
X142812380Y-23321428D01*
X142860000Y-23178571D01*
X143812380Y-22750000D02*
X142812380Y-22750000D01*
X142812380Y-22511904D01*
X142860000Y-22369047D01*
X142955238Y-22273809D01*
X143050476Y-22226190D01*
X143240952Y-22178571D01*
X143383809Y-22178571D01*
X143574285Y-22226190D01*
X143669523Y-22273809D01*
X143764761Y-22369047D01*
X143812380Y-22511904D01*
X143812380Y-22750000D01*
X143907619Y-21988095D02*
X143907619Y-21226190D01*
X142812380Y-21130952D02*
X142812380Y-20559523D01*
X143812380Y-20845238D02*
X142812380Y-20845238D01*
X142812380Y-20369047D02*
X143812380Y-20035714D01*
X142812380Y-19702380D01*
X143764761Y-19416666D02*
X143812380Y-19273809D01*
X143812380Y-19035714D01*
X143764761Y-18940476D01*
X143717142Y-18892857D01*
X143621904Y-18845238D01*
X143526666Y-18845238D01*
X143431428Y-18892857D01*
X143383809Y-18940476D01*
X143336190Y-19035714D01*
X143288571Y-19226190D01*
X143240952Y-19321428D01*
X143193333Y-19369047D01*
X143098095Y-19416666D01*
X143002857Y-19416666D01*
X142907619Y-19369047D01*
X142860000Y-19321428D01*
X142812380Y-19226190D01*
X142812380Y-18988095D01*
X142860000Y-18845238D01*
X145165714Y-60622380D02*
X145165714Y-61431904D01*
X145213333Y-61527142D01*
X145260952Y-61574761D01*
X145356190Y-61622380D01*
X145546666Y-61622380D01*
X145641904Y-61574761D01*
X145689523Y-61527142D01*
X145737142Y-61431904D01*
X145737142Y-60622380D01*
X146165714Y-60717619D02*
X146213333Y-60670000D01*
X146308571Y-60622380D01*
X146546666Y-60622380D01*
X146641904Y-60670000D01*
X146689523Y-60717619D01*
X146737142Y-60812857D01*
X146737142Y-60908095D01*
X146689523Y-61050952D01*
X146118095Y-61622380D01*
X146737142Y-61622380D01*
X147356190Y-60622380D02*
X147451428Y-60622380D01*
X147546666Y-60670000D01*
X147594285Y-60717619D01*
X147641904Y-60812857D01*
X147689523Y-61003333D01*
X147689523Y-61241428D01*
X147641904Y-61431904D01*
X147594285Y-61527142D01*
X147546666Y-61574761D01*
X147451428Y-61622380D01*
X147356190Y-61622380D01*
X147260952Y-61574761D01*
X147213333Y-61527142D01*
X147165714Y-61431904D01*
X147118095Y-61241428D01*
X147118095Y-61003333D01*
X147165714Y-60812857D01*
X147213333Y-60717619D01*
X147260952Y-60670000D01*
X147356190Y-60622380D01*
X148070476Y-60717619D02*
X148118095Y-60670000D01*
X148213333Y-60622380D01*
X148451428Y-60622380D01*
X148546666Y-60670000D01*
X148594285Y-60717619D01*
X148641904Y-60812857D01*
X148641904Y-60908095D01*
X148594285Y-61050952D01*
X148022857Y-61622380D01*
X148641904Y-61622380D01*
X130174761Y-61122380D02*
X129841428Y-60646190D01*
X129603333Y-61122380D02*
X129603333Y-60122380D01*
X129984285Y-60122380D01*
X130079523Y-60170000D01*
X130127142Y-60217619D01*
X130174761Y-60312857D01*
X130174761Y-60455714D01*
X130127142Y-60550952D01*
X130079523Y-60598571D01*
X129984285Y-60646190D01*
X129603333Y-60646190D01*
X130603333Y-61122380D02*
X130603333Y-60122380D01*
X130984285Y-60122380D01*
X131079523Y-60170000D01*
X131127142Y-60217619D01*
X131174761Y-60312857D01*
X131174761Y-60455714D01*
X131127142Y-60550952D01*
X131079523Y-60598571D01*
X130984285Y-60646190D01*
X130603333Y-60646190D01*
X131555714Y-60217619D02*
X131603333Y-60170000D01*
X131698571Y-60122380D01*
X131936666Y-60122380D01*
X132031904Y-60170000D01*
X132079523Y-60217619D01*
X132127142Y-60312857D01*
X132127142Y-60408095D01*
X132079523Y-60550952D01*
X131508095Y-61122380D01*
X132127142Y-61122380D01*
X132746190Y-60122380D02*
X132841428Y-60122380D01*
X132936666Y-60170000D01*
X132984285Y-60217619D01*
X133031904Y-60312857D01*
X133079523Y-60503333D01*
X133079523Y-60741428D01*
X133031904Y-60931904D01*
X132984285Y-61027142D01*
X132936666Y-61074761D01*
X132841428Y-61122380D01*
X132746190Y-61122380D01*
X132650952Y-61074761D01*
X132603333Y-61027142D01*
X132555714Y-60931904D01*
X132508095Y-60741428D01*
X132508095Y-60503333D01*
X132555714Y-60312857D01*
X132603333Y-60217619D01*
X132650952Y-60170000D01*
X132746190Y-60122380D01*
X133936666Y-60455714D02*
X133936666Y-61122380D01*
X133698571Y-60074761D02*
X133460476Y-60789047D01*
X134079523Y-60789047D01*
X134650952Y-60122380D02*
X134746190Y-60122380D01*
X134841428Y-60170000D01*
X134889047Y-60217619D01*
X134936666Y-60312857D01*
X134984285Y-60503333D01*
X134984285Y-60741428D01*
X134936666Y-60931904D01*
X134889047Y-61027142D01*
X134841428Y-61074761D01*
X134746190Y-61122380D01*
X134650952Y-61122380D01*
X134555714Y-61074761D01*
X134508095Y-61027142D01*
X134460476Y-60931904D01*
X134412857Y-60741428D01*
X134412857Y-60503333D01*
X134460476Y-60312857D01*
X134508095Y-60217619D01*
X134555714Y-60170000D01*
X134650952Y-60122380D01*
X153717142Y-59719047D02*
X153764761Y-59766666D01*
X153812380Y-59909523D01*
X153812380Y-60004761D01*
X153764761Y-60147619D01*
X153669523Y-60242857D01*
X153574285Y-60290476D01*
X153383809Y-60338095D01*
X153240952Y-60338095D01*
X153050476Y-60290476D01*
X152955238Y-60242857D01*
X152860000Y-60147619D01*
X152812380Y-60004761D01*
X152812380Y-59909523D01*
X152860000Y-59766666D01*
X152907619Y-59719047D01*
X152907619Y-59338095D02*
X152860000Y-59290476D01*
X152812380Y-59195238D01*
X152812380Y-58957142D01*
X152860000Y-58861904D01*
X152907619Y-58814285D01*
X153002857Y-58766666D01*
X153098095Y-58766666D01*
X153240952Y-58814285D01*
X153812380Y-59385714D01*
X153812380Y-58766666D01*
X153812380Y-57814285D02*
X153812380Y-58385714D01*
X153812380Y-58100000D02*
X152812380Y-58100000D01*
X152955238Y-58195238D01*
X153050476Y-58290476D01*
X153098095Y-58385714D01*
X152812380Y-56957142D02*
X152812380Y-57147619D01*
X152860000Y-57242857D01*
X152907619Y-57290476D01*
X153050476Y-57385714D01*
X153240952Y-57433333D01*
X153621904Y-57433333D01*
X153717142Y-57385714D01*
X153764761Y-57338095D01*
X153812380Y-57242857D01*
X153812380Y-57052380D01*
X153764761Y-56957142D01*
X153717142Y-56909523D01*
X153621904Y-56861904D01*
X153383809Y-56861904D01*
X153288571Y-56909523D01*
X153240952Y-56957142D01*
X153193333Y-57052380D01*
X153193333Y-57242857D01*
X153240952Y-57338095D01*
X153288571Y-57385714D01*
X153383809Y-57433333D01*
X164722380Y-59041428D02*
X164722380Y-59612857D01*
X164722380Y-59327142D02*
X163722380Y-59327142D01*
X163865238Y-59422380D01*
X163960476Y-59517619D01*
X164008095Y-59612857D01*
X163722380Y-58422380D02*
X163722380Y-58327142D01*
X163770000Y-58231904D01*
X163817619Y-58184285D01*
X163912857Y-58136666D01*
X164103333Y-58089047D01*
X164341428Y-58089047D01*
X164531904Y-58136666D01*
X164627142Y-58184285D01*
X164674761Y-58231904D01*
X164722380Y-58327142D01*
X164722380Y-58422380D01*
X164674761Y-58517619D01*
X164627142Y-58565238D01*
X164531904Y-58612857D01*
X164341428Y-58660476D01*
X164103333Y-58660476D01*
X163912857Y-58612857D01*
X163817619Y-58565238D01*
X163770000Y-58517619D01*
X163722380Y-58422380D01*
X164055714Y-57231904D02*
X164722380Y-57231904D01*
X164055714Y-57660476D02*
X164579523Y-57660476D01*
X164674761Y-57612857D01*
X164722380Y-57517619D01*
X164722380Y-57374761D01*
X164674761Y-57279523D01*
X164627142Y-57231904D01*
X164198571Y-56422380D02*
X164198571Y-56755714D01*
X164722380Y-56755714D02*
X163722380Y-56755714D01*
X163722380Y-56279523D01*
X136482380Y-57370476D02*
X135482380Y-57370476D01*
X135482380Y-57132380D01*
X135530000Y-56989523D01*
X135625238Y-56894285D01*
X135720476Y-56846666D01*
X135910952Y-56799047D01*
X136053809Y-56799047D01*
X136244285Y-56846666D01*
X136339523Y-56894285D01*
X136434761Y-56989523D01*
X136482380Y-57132380D01*
X136482380Y-57370476D01*
X136482380Y-55846666D02*
X136482380Y-56418095D01*
X136482380Y-56132380D02*
X135482380Y-56132380D01*
X135625238Y-56227619D01*
X135720476Y-56322857D01*
X135768095Y-56418095D01*
X135482380Y-55227619D02*
X135482380Y-55132380D01*
X135530000Y-55037142D01*
X135577619Y-54989523D01*
X135672857Y-54941904D01*
X135863333Y-54894285D01*
X136101428Y-54894285D01*
X136291904Y-54941904D01*
X136387142Y-54989523D01*
X136434761Y-55037142D01*
X136482380Y-55132380D01*
X136482380Y-55227619D01*
X136434761Y-55322857D01*
X136387142Y-55370476D01*
X136291904Y-55418095D01*
X136101428Y-55465714D01*
X135863333Y-55465714D01*
X135672857Y-55418095D01*
X135577619Y-55370476D01*
X135530000Y-55322857D01*
X135482380Y-55227619D01*
X136482380Y-53941904D02*
X136482380Y-54513333D01*
X136482380Y-54227619D02*
X135482380Y-54227619D01*
X135625238Y-54322857D01*
X135720476Y-54418095D01*
X135768095Y-54513333D01*
X130082380Y-58225238D02*
X130082380Y-58701428D01*
X129082380Y-58701428D01*
X129558571Y-57891904D02*
X129558571Y-57558571D01*
X130082380Y-57415714D02*
X130082380Y-57891904D01*
X129082380Y-57891904D01*
X129082380Y-57415714D01*
X130082380Y-56987142D02*
X129082380Y-56987142D01*
X129082380Y-56749047D01*
X129130000Y-56606190D01*
X129225238Y-56510952D01*
X129320476Y-56463333D01*
X129510952Y-56415714D01*
X129653809Y-56415714D01*
X129844285Y-56463333D01*
X129939523Y-56510952D01*
X130034761Y-56606190D01*
X130082380Y-56749047D01*
X130082380Y-56987142D01*
X130177619Y-56225238D02*
X130177619Y-55463333D01*
X129558571Y-54891904D02*
X129558571Y-55225238D01*
X130082380Y-55225238D02*
X129082380Y-55225238D01*
X129082380Y-54749047D01*
X130082380Y-54368095D02*
X129415714Y-54368095D01*
X129082380Y-54368095D02*
X129130000Y-54415714D01*
X129177619Y-54368095D01*
X129130000Y-54320476D01*
X129082380Y-54368095D01*
X129177619Y-54368095D01*
X130082380Y-53749047D02*
X130034761Y-53844285D01*
X129939523Y-53891904D01*
X129082380Y-53891904D01*
X130082380Y-53225238D02*
X130034761Y-53320476D01*
X129939523Y-53368095D01*
X129082380Y-53368095D01*
X130034761Y-52463333D02*
X130082380Y-52558571D01*
X130082380Y-52749047D01*
X130034761Y-52844285D01*
X129939523Y-52891904D01*
X129558571Y-52891904D01*
X129463333Y-52844285D01*
X129415714Y-52749047D01*
X129415714Y-52558571D01*
X129463333Y-52463333D01*
X129558571Y-52415714D01*
X129653809Y-52415714D01*
X129749047Y-52891904D01*
X130082380Y-51558571D02*
X129082380Y-51558571D01*
X130034761Y-51558571D02*
X130082380Y-51653809D01*
X130082380Y-51844285D01*
X130034761Y-51939523D01*
X129987142Y-51987142D01*
X129891904Y-52034761D01*
X129606190Y-52034761D01*
X129510952Y-51987142D01*
X129463333Y-51939523D01*
X129415714Y-51844285D01*
X129415714Y-51653809D01*
X129463333Y-51558571D01*
D11*
X141410952Y-56376190D02*
X141010952Y-56376190D01*
X141010952Y-56280952D01*
X141030000Y-56223809D01*
X141068095Y-56185714D01*
X141106190Y-56166666D01*
X141182380Y-56147619D01*
X141239523Y-56147619D01*
X141315714Y-56166666D01*
X141353809Y-56185714D01*
X141391904Y-56223809D01*
X141410952Y-56280952D01*
X141410952Y-56376190D01*
X141410952Y-55766666D02*
X141410952Y-55995238D01*
X141410952Y-55880952D02*
X141010952Y-55880952D01*
X141068095Y-55919047D01*
X141106190Y-55957142D01*
X141125238Y-55995238D01*
X141010952Y-55519047D02*
X141010952Y-55480952D01*
X141030000Y-55442857D01*
X141049047Y-55423809D01*
X141087142Y-55404761D01*
X141163333Y-55385714D01*
X141258571Y-55385714D01*
X141334761Y-55404761D01*
X141372857Y-55423809D01*
X141391904Y-55442857D01*
X141410952Y-55480952D01*
X141410952Y-55519047D01*
X141391904Y-55557142D01*
X141372857Y-55576190D01*
X141334761Y-55595238D01*
X141258571Y-55614285D01*
X141163333Y-55614285D01*
X141087142Y-55595238D01*
X141049047Y-55576190D01*
X141030000Y-55557142D01*
X141010952Y-55519047D01*
X141410952Y-55004761D02*
X141410952Y-55233333D01*
X141410952Y-55119047D02*
X141010952Y-55119047D01*
X141068095Y-55157142D01*
X141106190Y-55195238D01*
X141125238Y-55233333D01*
D10*
X134041904Y-77137142D02*
X133994285Y-77184761D01*
X133851428Y-77232380D01*
X133756190Y-77232380D01*
X133613333Y-77184761D01*
X133518095Y-77089523D01*
X133470476Y-76994285D01*
X133422857Y-76803809D01*
X133422857Y-76660952D01*
X133470476Y-76470476D01*
X133518095Y-76375238D01*
X133613333Y-76280000D01*
X133756190Y-76232380D01*
X133851428Y-76232380D01*
X133994285Y-76280000D01*
X134041904Y-76327619D01*
X134613333Y-77232380D02*
X134518095Y-77184761D01*
X134470476Y-77137142D01*
X134422857Y-77041904D01*
X134422857Y-76756190D01*
X134470476Y-76660952D01*
X134518095Y-76613333D01*
X134613333Y-76565714D01*
X134756190Y-76565714D01*
X134851428Y-76613333D01*
X134899047Y-76660952D01*
X134946666Y-76756190D01*
X134946666Y-77041904D01*
X134899047Y-77137142D01*
X134851428Y-77184761D01*
X134756190Y-77232380D01*
X134613333Y-77232380D01*
X135375238Y-76565714D02*
X135375238Y-77232380D01*
X135375238Y-76660952D02*
X135422857Y-76613333D01*
X135518095Y-76565714D01*
X135660952Y-76565714D01*
X135756190Y-76613333D01*
X135803809Y-76708571D01*
X135803809Y-77232380D01*
X136280000Y-76565714D02*
X136280000Y-77232380D01*
X136280000Y-76660952D02*
X136327619Y-76613333D01*
X136422857Y-76565714D01*
X136565714Y-76565714D01*
X136660952Y-76613333D01*
X136708571Y-76708571D01*
X136708571Y-77232380D01*
X136946666Y-77327619D02*
X137708571Y-77327619D01*
X138137142Y-76232380D02*
X138232380Y-76232380D01*
X138327619Y-76280000D01*
X138375238Y-76327619D01*
X138422857Y-76422857D01*
X138470476Y-76613333D01*
X138470476Y-76851428D01*
X138422857Y-77041904D01*
X138375238Y-77137142D01*
X138327619Y-77184761D01*
X138232380Y-77232380D01*
X138137142Y-77232380D01*
X138041904Y-77184761D01*
X137994285Y-77137142D01*
X137946666Y-77041904D01*
X137899047Y-76851428D01*
X137899047Y-76613333D01*
X137946666Y-76422857D01*
X137994285Y-76327619D01*
X138041904Y-76280000D01*
X138137142Y-76232380D01*
X139422857Y-77232380D02*
X138851428Y-77232380D01*
X139137142Y-77232380D02*
X139137142Y-76232380D01*
X139041904Y-76375238D01*
X138946666Y-76470476D01*
X138851428Y-76518095D01*
X139756190Y-77232380D02*
X140280000Y-76565714D01*
X139756190Y-76565714D02*
X140280000Y-77232380D01*
X140851428Y-76232380D02*
X140946666Y-76232380D01*
X141041904Y-76280000D01*
X141089523Y-76327619D01*
X141137142Y-76422857D01*
X141184761Y-76613333D01*
X141184761Y-76851428D01*
X141137142Y-77041904D01*
X141089523Y-77137142D01*
X141041904Y-77184761D01*
X140946666Y-77232380D01*
X140851428Y-77232380D01*
X140756190Y-77184761D01*
X140708571Y-77137142D01*
X140660952Y-77041904D01*
X140613333Y-76851428D01*
X140613333Y-76613333D01*
X140660952Y-76422857D01*
X140708571Y-76327619D01*
X140756190Y-76280000D01*
X140851428Y-76232380D01*
X141518095Y-76232380D02*
X142137142Y-76232380D01*
X141803809Y-76613333D01*
X141946666Y-76613333D01*
X142041904Y-76660952D01*
X142089523Y-76708571D01*
X142137142Y-76803809D01*
X142137142Y-77041904D01*
X142089523Y-77137142D01*
X142041904Y-77184761D01*
X141946666Y-77232380D01*
X141660952Y-77232380D01*
X141565714Y-77184761D01*
X141518095Y-77137142D01*
X145624285Y-75972380D02*
X145624285Y-76686666D01*
X145576666Y-76829523D01*
X145481428Y-76924761D01*
X145338571Y-76972380D01*
X145243333Y-76972380D01*
X146624285Y-76972380D02*
X146052857Y-76972380D01*
X146338571Y-76972380D02*
X146338571Y-75972380D01*
X146243333Y-76115238D01*
X146148095Y-76210476D01*
X146052857Y-76258095D01*
X147243333Y-75972380D02*
X147338571Y-75972380D01*
X147433809Y-76020000D01*
X147481428Y-76067619D01*
X147529047Y-76162857D01*
X147576666Y-76353333D01*
X147576666Y-76591428D01*
X147529047Y-76781904D01*
X147481428Y-76877142D01*
X147433809Y-76924761D01*
X147338571Y-76972380D01*
X147243333Y-76972380D01*
X147148095Y-76924761D01*
X147100476Y-76877142D01*
X147052857Y-76781904D01*
X147005238Y-76591428D01*
X147005238Y-76353333D01*
X147052857Y-76162857D01*
X147100476Y-76067619D01*
X147148095Y-76020000D01*
X147243333Y-75972380D01*
X147910000Y-75972380D02*
X148529047Y-75972380D01*
X148195714Y-76353333D01*
X148338571Y-76353333D01*
X148433809Y-76400952D01*
X148481428Y-76448571D01*
X148529047Y-76543809D01*
X148529047Y-76781904D01*
X148481428Y-76877142D01*
X148433809Y-76924761D01*
X148338571Y-76972380D01*
X148052857Y-76972380D01*
X147957619Y-76924761D01*
X147910000Y-76877142D01*
X144051428Y-71826190D02*
X144051428Y-72302380D01*
X143718095Y-71302380D02*
X144051428Y-71826190D01*
X144384761Y-71302380D01*
X144670476Y-71397619D02*
X144718095Y-71350000D01*
X144813333Y-71302380D01*
X145051428Y-71302380D01*
X145146666Y-71350000D01*
X145194285Y-71397619D01*
X145241904Y-71492857D01*
X145241904Y-71588095D01*
X145194285Y-71730952D01*
X144622857Y-72302380D01*
X145241904Y-72302380D01*
X145860952Y-71302380D02*
X145956190Y-71302380D01*
X146051428Y-71350000D01*
X146099047Y-71397619D01*
X146146666Y-71492857D01*
X146194285Y-71683333D01*
X146194285Y-71921428D01*
X146146666Y-72111904D01*
X146099047Y-72207142D01*
X146051428Y-72254761D01*
X145956190Y-72302380D01*
X145860952Y-72302380D01*
X145765714Y-72254761D01*
X145718095Y-72207142D01*
X145670476Y-72111904D01*
X145622857Y-71921428D01*
X145622857Y-71683333D01*
X145670476Y-71492857D01*
X145718095Y-71397619D01*
X145765714Y-71350000D01*
X145860952Y-71302380D01*
X147146666Y-72302380D02*
X146575238Y-72302380D01*
X146860952Y-72302380D02*
X146860952Y-71302380D01*
X146765714Y-71445238D01*
X146670476Y-71540476D01*
X146575238Y-71588095D01*
X125717142Y-71247142D02*
X125669523Y-71294761D01*
X125526666Y-71342380D01*
X125431428Y-71342380D01*
X125288571Y-71294761D01*
X125193333Y-71199523D01*
X125145714Y-71104285D01*
X125098095Y-70913809D01*
X125098095Y-70770952D01*
X125145714Y-70580476D01*
X125193333Y-70485238D01*
X125288571Y-70390000D01*
X125431428Y-70342380D01*
X125526666Y-70342380D01*
X125669523Y-70390000D01*
X125717142Y-70437619D01*
X126145714Y-71342380D02*
X126145714Y-70675714D01*
X126145714Y-70866190D02*
X126193333Y-70770952D01*
X126240952Y-70723333D01*
X126336190Y-70675714D01*
X126431428Y-70675714D01*
X126669523Y-70675714D02*
X126907619Y-71342380D01*
X127145714Y-70675714D02*
X126907619Y-71342380D01*
X126812380Y-71580476D01*
X126764761Y-71628095D01*
X126669523Y-71675714D01*
X127479047Y-71294761D02*
X127574285Y-71342380D01*
X127764761Y-71342380D01*
X127860000Y-71294761D01*
X127907619Y-71199523D01*
X127907619Y-71151904D01*
X127860000Y-71056666D01*
X127764761Y-71009047D01*
X127621904Y-71009047D01*
X127526666Y-70961428D01*
X127479047Y-70866190D01*
X127479047Y-70818571D01*
X127526666Y-70723333D01*
X127621904Y-70675714D01*
X127764761Y-70675714D01*
X127860000Y-70723333D01*
X128193333Y-70675714D02*
X128574285Y-70675714D01*
X128336190Y-70342380D02*
X128336190Y-71199523D01*
X128383809Y-71294761D01*
X128479047Y-71342380D01*
X128574285Y-71342380D01*
X129336190Y-71342380D02*
X129336190Y-70818571D01*
X129288571Y-70723333D01*
X129193333Y-70675714D01*
X129002857Y-70675714D01*
X128907619Y-70723333D01*
X129336190Y-71294761D02*
X129240952Y-71342380D01*
X129002857Y-71342380D01*
X128907619Y-71294761D01*
X128860000Y-71199523D01*
X128860000Y-71104285D01*
X128907619Y-71009047D01*
X129002857Y-70961428D01*
X129240952Y-70961428D01*
X129336190Y-70913809D01*
X129955238Y-71342380D02*
X129860000Y-71294761D01*
X129812380Y-71199523D01*
X129812380Y-70342380D01*
X130098095Y-71437619D02*
X130860000Y-71437619D01*
X131621904Y-70390000D02*
X131526666Y-70342380D01*
X131383809Y-70342380D01*
X131240952Y-70390000D01*
X131145714Y-70485238D01*
X131098095Y-70580476D01*
X131050476Y-70770952D01*
X131050476Y-70913809D01*
X131098095Y-71104285D01*
X131145714Y-71199523D01*
X131240952Y-71294761D01*
X131383809Y-71342380D01*
X131479047Y-71342380D01*
X131621904Y-71294761D01*
X131669523Y-71247142D01*
X131669523Y-70913809D01*
X131479047Y-70913809D01*
X132098095Y-71342380D02*
X132098095Y-70342380D01*
X132669523Y-71342380D01*
X132669523Y-70342380D01*
X133145714Y-71342380D02*
X133145714Y-70342380D01*
X133383809Y-70342380D01*
X133526666Y-70390000D01*
X133621904Y-70485238D01*
X133669523Y-70580476D01*
X133717142Y-70770952D01*
X133717142Y-70913809D01*
X133669523Y-71104285D01*
X133621904Y-71199523D01*
X133526666Y-71294761D01*
X133383809Y-71342380D01*
X133145714Y-71342380D01*
X134098095Y-70437619D02*
X134145714Y-70390000D01*
X134240952Y-70342380D01*
X134479047Y-70342380D01*
X134574285Y-70390000D01*
X134621904Y-70437619D01*
X134669523Y-70532857D01*
X134669523Y-70628095D01*
X134621904Y-70770952D01*
X134050476Y-71342380D01*
X134669523Y-71342380D01*
X135526666Y-70675714D02*
X135526666Y-71342380D01*
X135288571Y-70294761D02*
X135050476Y-71009047D01*
X135669523Y-71009047D01*
X149612380Y-34159047D02*
X149136190Y-34492380D01*
X149612380Y-34730476D02*
X148612380Y-34730476D01*
X148612380Y-34349523D01*
X148660000Y-34254285D01*
X148707619Y-34206666D01*
X148802857Y-34159047D01*
X148945714Y-34159047D01*
X149040952Y-34206666D01*
X149088571Y-34254285D01*
X149136190Y-34349523D01*
X149136190Y-34730476D01*
X148707619Y-33778095D02*
X148660000Y-33730476D01*
X148612380Y-33635238D01*
X148612380Y-33397142D01*
X148660000Y-33301904D01*
X148707619Y-33254285D01*
X148802857Y-33206666D01*
X148898095Y-33206666D01*
X149040952Y-33254285D01*
X149612380Y-33825714D01*
X149612380Y-33206666D01*
X149612380Y-32254285D02*
X149612380Y-32825714D01*
X149612380Y-32540000D02*
X148612380Y-32540000D01*
X148755238Y-32635238D01*
X148850476Y-32730476D01*
X148898095Y-32825714D01*
X148707619Y-31873333D02*
X148660000Y-31825714D01*
X148612380Y-31730476D01*
X148612380Y-31492380D01*
X148660000Y-31397142D01*
X148707619Y-31349523D01*
X148802857Y-31301904D01*
X148898095Y-31301904D01*
X149040952Y-31349523D01*
X149612380Y-31920952D01*
X149612380Y-31301904D01*
X148792380Y-24122857D02*
X148792380Y-24599047D01*
X149268571Y-24646666D01*
X149220952Y-24599047D01*
X149173333Y-24503809D01*
X149173333Y-24265714D01*
X149220952Y-24170476D01*
X149268571Y-24122857D01*
X149363809Y-24075238D01*
X149601904Y-24075238D01*
X149697142Y-24122857D01*
X149744761Y-24170476D01*
X149792380Y-24265714D01*
X149792380Y-24503809D01*
X149744761Y-24599047D01*
X149697142Y-24646666D01*
X149792380Y-23646666D02*
X148792380Y-23646666D01*
X149411428Y-23551428D02*
X149792380Y-23265714D01*
X149125714Y-23265714D02*
X149506666Y-23646666D01*
X149792380Y-22313333D02*
X149792380Y-22884761D01*
X149792380Y-22599047D02*
X148792380Y-22599047D01*
X148935238Y-22694285D01*
X149030476Y-22789523D01*
X149078095Y-22884761D01*
X137480952Y-55752380D02*
X137147619Y-55276190D01*
X136909523Y-55752380D02*
X136909523Y-54752380D01*
X137290476Y-54752380D01*
X137385714Y-54800000D01*
X137433333Y-54847619D01*
X137480952Y-54942857D01*
X137480952Y-55085714D01*
X137433333Y-55180952D01*
X137385714Y-55228571D01*
X137290476Y-55276190D01*
X136909523Y-55276190D01*
X137861904Y-54847619D02*
X137909523Y-54800000D01*
X138004761Y-54752380D01*
X138242857Y-54752380D01*
X138338095Y-54800000D01*
X138385714Y-54847619D01*
X138433333Y-54942857D01*
X138433333Y-55038095D01*
X138385714Y-55180952D01*
X137814285Y-55752380D01*
X138433333Y-55752380D01*
X139385714Y-55752380D02*
X138814285Y-55752380D01*
X139100000Y-55752380D02*
X139100000Y-54752380D01*
X139004761Y-54895238D01*
X138909523Y-54990476D01*
X138814285Y-55038095D01*
X139719047Y-54752380D02*
X140338095Y-54752380D01*
X140004761Y-55133333D01*
X140147619Y-55133333D01*
X140242857Y-55180952D01*
X140290476Y-55228571D01*
X140338095Y-55323809D01*
X140338095Y-55561904D01*
X140290476Y-55657142D01*
X140242857Y-55704761D01*
X140147619Y-55752380D01*
X139861904Y-55752380D01*
X139766666Y-55704761D01*
X139719047Y-55657142D01*
X131224761Y-55872380D02*
X130653333Y-55872380D01*
X130939047Y-55872380D02*
X130939047Y-54872380D01*
X130843809Y-55015238D01*
X130748571Y-55110476D01*
X130653333Y-55158095D01*
X131843809Y-54872380D02*
X131939047Y-54872380D01*
X132034285Y-54920000D01*
X132081904Y-54967619D01*
X132129523Y-55062857D01*
X132177142Y-55253333D01*
X132177142Y-55491428D01*
X132129523Y-55681904D01*
X132081904Y-55777142D01*
X132034285Y-55824761D01*
X131939047Y-55872380D01*
X131843809Y-55872380D01*
X131748571Y-55824761D01*
X131700952Y-55777142D01*
X131653333Y-55681904D01*
X131605714Y-55491428D01*
X131605714Y-55253333D01*
X131653333Y-55062857D01*
X131700952Y-54967619D01*
X131748571Y-54920000D01*
X131843809Y-54872380D01*
X132605714Y-55872380D02*
X132605714Y-54872380D01*
X132700952Y-55491428D02*
X132986666Y-55872380D01*
X132986666Y-55205714D02*
X132605714Y-55586666D01*
X145144761Y-42825714D02*
X145192380Y-42682857D01*
X145192380Y-42444761D01*
X145144761Y-42349523D01*
X145097142Y-42301904D01*
X145001904Y-42254285D01*
X144906666Y-42254285D01*
X144811428Y-42301904D01*
X144763809Y-42349523D01*
X144716190Y-42444761D01*
X144668571Y-42635238D01*
X144620952Y-42730476D01*
X144573333Y-42778095D01*
X144478095Y-42825714D01*
X144382857Y-42825714D01*
X144287619Y-42778095D01*
X144240000Y-42730476D01*
X144192380Y-42635238D01*
X144192380Y-42397142D01*
X144240000Y-42254285D01*
X144192380Y-41920952D02*
X145192380Y-41682857D01*
X144478095Y-41492380D01*
X145192380Y-41301904D01*
X144192380Y-41063809D01*
X144287619Y-40730476D02*
X144240000Y-40682857D01*
X144192380Y-40587619D01*
X144192380Y-40349523D01*
X144240000Y-40254285D01*
X144287619Y-40206666D01*
X144382857Y-40159047D01*
X144478095Y-40159047D01*
X144620952Y-40206666D01*
X145192380Y-40778095D01*
X145192380Y-40159047D01*
X144192380Y-39540000D02*
X144192380Y-39444761D01*
X144240000Y-39349523D01*
X144287619Y-39301904D01*
X144382857Y-39254285D01*
X144573333Y-39206666D01*
X144811428Y-39206666D01*
X145001904Y-39254285D01*
X145097142Y-39301904D01*
X145144761Y-39349523D01*
X145192380Y-39444761D01*
X145192380Y-39540000D01*
X145144761Y-39635238D01*
X145097142Y-39682857D01*
X145001904Y-39730476D01*
X144811428Y-39778095D01*
X144573333Y-39778095D01*
X144382857Y-39730476D01*
X144287619Y-39682857D01*
X144240000Y-39635238D01*
X144192380Y-39540000D01*
X144287619Y-38825714D02*
X144240000Y-38778095D01*
X144192380Y-38682857D01*
X144192380Y-38444761D01*
X144240000Y-38349523D01*
X144287619Y-38301904D01*
X144382857Y-38254285D01*
X144478095Y-38254285D01*
X144620952Y-38301904D01*
X145192380Y-38873333D01*
X145192380Y-38254285D01*
X128550476Y-40050000D02*
X129598095Y-40050000D01*
X128788571Y-40332380D02*
X128788571Y-41141904D01*
X128836190Y-41237142D01*
X128883809Y-41284761D01*
X128979047Y-41332380D01*
X129169523Y-41332380D01*
X129264761Y-41284761D01*
X129312380Y-41237142D01*
X129360000Y-41141904D01*
X129360000Y-40332380D01*
X129598095Y-40050000D02*
X130550476Y-40050000D01*
X129788571Y-41284761D02*
X129931428Y-41332380D01*
X130169523Y-41332380D01*
X130264761Y-41284761D01*
X130312380Y-41237142D01*
X130360000Y-41141904D01*
X130360000Y-41046666D01*
X130312380Y-40951428D01*
X130264761Y-40903809D01*
X130169523Y-40856190D01*
X129979047Y-40808571D01*
X129883809Y-40760952D01*
X129836190Y-40713333D01*
X129788571Y-40618095D01*
X129788571Y-40522857D01*
X129836190Y-40427619D01*
X129883809Y-40380000D01*
X129979047Y-40332380D01*
X130217142Y-40332380D01*
X130360000Y-40380000D01*
X130550476Y-40050000D02*
X131550476Y-40050000D01*
X131121904Y-40808571D02*
X131264761Y-40856190D01*
X131312380Y-40903809D01*
X131360000Y-40999047D01*
X131360000Y-41141904D01*
X131312380Y-41237142D01*
X131264761Y-41284761D01*
X131169523Y-41332380D01*
X130788571Y-41332380D01*
X130788571Y-40332380D01*
X131121904Y-40332380D01*
X131217142Y-40380000D01*
X131264761Y-40427619D01*
X131312380Y-40522857D01*
X131312380Y-40618095D01*
X131264761Y-40713333D01*
X131217142Y-40760952D01*
X131121904Y-40808571D01*
X130788571Y-40808571D01*
X131550476Y-40050000D02*
X132312380Y-40050000D01*
X131550476Y-41427619D02*
X132312380Y-41427619D01*
X132312380Y-40050000D02*
X133312380Y-40050000D01*
X132883809Y-40808571D02*
X133026666Y-40856190D01*
X133074285Y-40903809D01*
X133121904Y-40999047D01*
X133121904Y-41141904D01*
X133074285Y-41237142D01*
X133026666Y-41284761D01*
X132931428Y-41332380D01*
X132550476Y-41332380D01*
X132550476Y-40332380D01*
X132883809Y-40332380D01*
X132979047Y-40380000D01*
X133026666Y-40427619D01*
X133074285Y-40522857D01*
X133074285Y-40618095D01*
X133026666Y-40713333D01*
X132979047Y-40760952D01*
X132883809Y-40808571D01*
X132550476Y-40808571D01*
X133312380Y-40050000D02*
X134360000Y-40050000D01*
X133740952Y-40332380D02*
X133931428Y-40332380D01*
X134026666Y-40380000D01*
X134121904Y-40475238D01*
X134169523Y-40665714D01*
X134169523Y-40999047D01*
X134121904Y-41189523D01*
X134026666Y-41284761D01*
X133931428Y-41332380D01*
X133740952Y-41332380D01*
X133645714Y-41284761D01*
X133550476Y-41189523D01*
X133502857Y-40999047D01*
X133502857Y-40665714D01*
X133550476Y-40475238D01*
X133645714Y-40380000D01*
X133740952Y-40332380D01*
X134360000Y-40050000D02*
X135407619Y-40050000D01*
X134788571Y-40332380D02*
X134979047Y-40332380D01*
X135074285Y-40380000D01*
X135169523Y-40475238D01*
X135217142Y-40665714D01*
X135217142Y-40999047D01*
X135169523Y-41189523D01*
X135074285Y-41284761D01*
X134979047Y-41332380D01*
X134788571Y-41332380D01*
X134693333Y-41284761D01*
X134598095Y-41189523D01*
X134550476Y-40999047D01*
X134550476Y-40665714D01*
X134598095Y-40475238D01*
X134693333Y-40380000D01*
X134788571Y-40332380D01*
X135407619Y-40050000D02*
X136169523Y-40050000D01*
X135502857Y-40332380D02*
X136074285Y-40332380D01*
X135788571Y-41332380D02*
X135788571Y-40332380D01*
X148137142Y-59009047D02*
X148184761Y-59056666D01*
X148232380Y-59199523D01*
X148232380Y-59294761D01*
X148184761Y-59437619D01*
X148089523Y-59532857D01*
X147994285Y-59580476D01*
X147803809Y-59628095D01*
X147660952Y-59628095D01*
X147470476Y-59580476D01*
X147375238Y-59532857D01*
X147280000Y-59437619D01*
X147232380Y-59294761D01*
X147232380Y-59199523D01*
X147280000Y-59056666D01*
X147327619Y-59009047D01*
X147327619Y-58628095D02*
X147280000Y-58580476D01*
X147232380Y-58485238D01*
X147232380Y-58247142D01*
X147280000Y-58151904D01*
X147327619Y-58104285D01*
X147422857Y-58056666D01*
X147518095Y-58056666D01*
X147660952Y-58104285D01*
X148232380Y-58675714D01*
X148232380Y-58056666D01*
X148232380Y-57104285D02*
X148232380Y-57675714D01*
X148232380Y-57390000D02*
X147232380Y-57390000D01*
X147375238Y-57485238D01*
X147470476Y-57580476D01*
X147518095Y-57675714D01*
X148232380Y-56628095D02*
X148232380Y-56437619D01*
X148184761Y-56342380D01*
X148137142Y-56294761D01*
X147994285Y-56199523D01*
X147803809Y-56151904D01*
X147422857Y-56151904D01*
X147327619Y-56199523D01*
X147280000Y-56247142D01*
X147232380Y-56342380D01*
X147232380Y-56532857D01*
X147280000Y-56628095D01*
X147327619Y-56675714D01*
X147422857Y-56723333D01*
X147660952Y-56723333D01*
X147756190Y-56675714D01*
X147803809Y-56628095D01*
X147851428Y-56532857D01*
X147851428Y-56342380D01*
X147803809Y-56247142D01*
X147756190Y-56199523D01*
X147660952Y-56151904D01*
X160542380Y-57161428D02*
X160542380Y-57732857D01*
X160542380Y-57447142D02*
X159542380Y-57447142D01*
X159685238Y-57542380D01*
X159780476Y-57637619D01*
X159828095Y-57732857D01*
X159542380Y-56542380D02*
X159542380Y-56447142D01*
X159590000Y-56351904D01*
X159637619Y-56304285D01*
X159732857Y-56256666D01*
X159923333Y-56209047D01*
X160161428Y-56209047D01*
X160351904Y-56256666D01*
X160447142Y-56304285D01*
X160494761Y-56351904D01*
X160542380Y-56447142D01*
X160542380Y-56542380D01*
X160494761Y-56637619D01*
X160447142Y-56685238D01*
X160351904Y-56732857D01*
X160161428Y-56780476D01*
X159923333Y-56780476D01*
X159732857Y-56732857D01*
X159637619Y-56685238D01*
X159590000Y-56637619D01*
X159542380Y-56542380D01*
X159875714Y-55351904D02*
X160542380Y-55351904D01*
X159875714Y-55780476D02*
X160399523Y-55780476D01*
X160494761Y-55732857D01*
X160542380Y-55637619D01*
X160542380Y-55494761D01*
X160494761Y-55399523D01*
X160447142Y-55351904D01*
X160018571Y-54542380D02*
X160018571Y-54875714D01*
X160542380Y-54875714D02*
X159542380Y-54875714D01*
X159542380Y-54399523D01*
X129796190Y-37454761D02*
X129939047Y-37502380D01*
X130177142Y-37502380D01*
X130272380Y-37454761D01*
X130320000Y-37407142D01*
X130367619Y-37311904D01*
X130367619Y-37216666D01*
X130320000Y-37121428D01*
X130272380Y-37073809D01*
X130177142Y-37026190D01*
X129986666Y-36978571D01*
X129891428Y-36930952D01*
X129843809Y-36883333D01*
X129796190Y-36788095D01*
X129796190Y-36692857D01*
X129843809Y-36597619D01*
X129891428Y-36550000D01*
X129986666Y-36502380D01*
X130224761Y-36502380D01*
X130367619Y-36550000D01*
X130796190Y-37502380D02*
X130796190Y-36502380D01*
X130796190Y-36978571D02*
X131367619Y-36978571D01*
X131367619Y-37502380D02*
X131367619Y-36502380D01*
X132034285Y-36502380D02*
X132224761Y-36502380D01*
X132320000Y-36550000D01*
X132415238Y-36645238D01*
X132462857Y-36835714D01*
X132462857Y-37169047D01*
X132415238Y-37359523D01*
X132320000Y-37454761D01*
X132224761Y-37502380D01*
X132034285Y-37502380D01*
X131939047Y-37454761D01*
X131843809Y-37359523D01*
X131796190Y-37169047D01*
X131796190Y-36835714D01*
X131843809Y-36645238D01*
X131939047Y-36550000D01*
X132034285Y-36502380D01*
X132748571Y-36502380D02*
X133320000Y-36502380D01*
X133034285Y-37502380D02*
X133034285Y-36502380D01*
X133510476Y-36502380D02*
X134081904Y-36502380D01*
X133796190Y-37502380D02*
X133796190Y-36502380D01*
X134415238Y-37502380D02*
X134415238Y-36502380D01*
X134986666Y-37502380D02*
X134558095Y-36930952D01*
X134986666Y-36502380D02*
X134415238Y-37073809D01*
X135605714Y-37026190D02*
X135605714Y-37502380D01*
X135272380Y-36502380D02*
X135605714Y-37026190D01*
X135939047Y-36502380D01*
X138979523Y-35762380D02*
X138979523Y-34762380D01*
X139217619Y-34762380D01*
X139360476Y-34810000D01*
X139455714Y-34905238D01*
X139503333Y-35000476D01*
X139550952Y-35190952D01*
X139550952Y-35333809D01*
X139503333Y-35524285D01*
X139455714Y-35619523D01*
X139360476Y-35714761D01*
X139217619Y-35762380D01*
X138979523Y-35762380D01*
X140503333Y-35762380D02*
X139931904Y-35762380D01*
X140217619Y-35762380D02*
X140217619Y-34762380D01*
X140122380Y-34905238D01*
X140027142Y-35000476D01*
X139931904Y-35048095D01*
X141122380Y-34762380D02*
X141217619Y-34762380D01*
X141312857Y-34810000D01*
X141360476Y-34857619D01*
X141408095Y-34952857D01*
X141455714Y-35143333D01*
X141455714Y-35381428D01*
X141408095Y-35571904D01*
X141360476Y-35667142D01*
X141312857Y-35714761D01*
X141217619Y-35762380D01*
X141122380Y-35762380D01*
X141027142Y-35714761D01*
X140979523Y-35667142D01*
X140931904Y-35571904D01*
X140884285Y-35381428D01*
X140884285Y-35143333D01*
X140931904Y-34952857D01*
X140979523Y-34857619D01*
X141027142Y-34810000D01*
X141122380Y-34762380D01*
X141789047Y-34762380D02*
X142408095Y-34762380D01*
X142074761Y-35143333D01*
X142217619Y-35143333D01*
X142312857Y-35190952D01*
X142360476Y-35238571D01*
X142408095Y-35333809D01*
X142408095Y-35571904D01*
X142360476Y-35667142D01*
X142312857Y-35714761D01*
X142217619Y-35762380D01*
X141931904Y-35762380D01*
X141836666Y-35714761D01*
X141789047Y-35667142D01*
X148332380Y-51129047D02*
X147856190Y-51462380D01*
X148332380Y-51700476D02*
X147332380Y-51700476D01*
X147332380Y-51319523D01*
X147380000Y-51224285D01*
X147427619Y-51176666D01*
X147522857Y-51129047D01*
X147665714Y-51129047D01*
X147760952Y-51176666D01*
X147808571Y-51224285D01*
X147856190Y-51319523D01*
X147856190Y-51700476D01*
X147427619Y-50748095D02*
X147380000Y-50700476D01*
X147332380Y-50605238D01*
X147332380Y-50367142D01*
X147380000Y-50271904D01*
X147427619Y-50224285D01*
X147522857Y-50176666D01*
X147618095Y-50176666D01*
X147760952Y-50224285D01*
X148332380Y-50795714D01*
X148332380Y-50176666D01*
X147332380Y-49557619D02*
X147332380Y-49462380D01*
X147380000Y-49367142D01*
X147427619Y-49319523D01*
X147522857Y-49271904D01*
X147713333Y-49224285D01*
X147951428Y-49224285D01*
X148141904Y-49271904D01*
X148237142Y-49319523D01*
X148284761Y-49367142D01*
X148332380Y-49462380D01*
X148332380Y-49557619D01*
X148284761Y-49652857D01*
X148237142Y-49700476D01*
X148141904Y-49748095D01*
X147951428Y-49795714D01*
X147713333Y-49795714D01*
X147522857Y-49748095D01*
X147427619Y-49700476D01*
X147380000Y-49652857D01*
X147332380Y-49557619D01*
X147665714Y-48367142D02*
X148332380Y-48367142D01*
X147284761Y-48605238D02*
X147999047Y-48843333D01*
X147999047Y-48224285D01*
X159857619Y-53531904D02*
X159810000Y-53484285D01*
X159762380Y-53389047D01*
X159762380Y-53150952D01*
X159810000Y-53055714D01*
X159857619Y-53008095D01*
X159952857Y-52960476D01*
X160048095Y-52960476D01*
X160190952Y-53008095D01*
X160762380Y-53579523D01*
X160762380Y-52960476D01*
X159762380Y-52627142D02*
X159762380Y-51960476D01*
X160762380Y-52389047D01*
X145122380Y-34169047D02*
X144646190Y-34502380D01*
X145122380Y-34740476D02*
X144122380Y-34740476D01*
X144122380Y-34359523D01*
X144170000Y-34264285D01*
X144217619Y-34216666D01*
X144312857Y-34169047D01*
X144455714Y-34169047D01*
X144550952Y-34216666D01*
X144598571Y-34264285D01*
X144646190Y-34359523D01*
X144646190Y-34740476D01*
X144217619Y-33788095D02*
X144170000Y-33740476D01*
X144122380Y-33645238D01*
X144122380Y-33407142D01*
X144170000Y-33311904D01*
X144217619Y-33264285D01*
X144312857Y-33216666D01*
X144408095Y-33216666D01*
X144550952Y-33264285D01*
X145122380Y-33835714D01*
X145122380Y-33216666D01*
X145122380Y-32264285D02*
X145122380Y-32835714D01*
X145122380Y-32550000D02*
X144122380Y-32550000D01*
X144265238Y-32645238D01*
X144360476Y-32740476D01*
X144408095Y-32835714D01*
X144455714Y-31407142D02*
X145122380Y-31407142D01*
X144074761Y-31645238D02*
X144789047Y-31883333D01*
X144789047Y-31264285D01*
X144102380Y-24072857D02*
X144102380Y-24549047D01*
X144578571Y-24596666D01*
X144530952Y-24549047D01*
X144483333Y-24453809D01*
X144483333Y-24215714D01*
X144530952Y-24120476D01*
X144578571Y-24072857D01*
X144673809Y-24025238D01*
X144911904Y-24025238D01*
X145007142Y-24072857D01*
X145054761Y-24120476D01*
X145102380Y-24215714D01*
X145102380Y-24453809D01*
X145054761Y-24549047D01*
X145007142Y-24596666D01*
X145102380Y-23596666D02*
X144102380Y-23596666D01*
X144721428Y-23501428D02*
X145102380Y-23215714D01*
X144435714Y-23215714D02*
X144816666Y-23596666D01*
X145102380Y-22263333D02*
X145102380Y-22834761D01*
X145102380Y-22549047D02*
X144102380Y-22549047D01*
X144245238Y-22644285D01*
X144340476Y-22739523D01*
X144388095Y-22834761D01*
X137350952Y-58262380D02*
X137017619Y-57786190D01*
X136779523Y-58262380D02*
X136779523Y-57262380D01*
X137160476Y-57262380D01*
X137255714Y-57310000D01*
X137303333Y-57357619D01*
X137350952Y-57452857D01*
X137350952Y-57595714D01*
X137303333Y-57690952D01*
X137255714Y-57738571D01*
X137160476Y-57786190D01*
X136779523Y-57786190D01*
X138303333Y-58262380D02*
X137731904Y-58262380D01*
X138017619Y-58262380D02*
X138017619Y-57262380D01*
X137922380Y-57405238D01*
X137827142Y-57500476D01*
X137731904Y-57548095D01*
X138922380Y-57262380D02*
X139017619Y-57262380D01*
X139112857Y-57310000D01*
X139160476Y-57357619D01*
X139208095Y-57452857D01*
X139255714Y-57643333D01*
X139255714Y-57881428D01*
X139208095Y-58071904D01*
X139160476Y-58167142D01*
X139112857Y-58214761D01*
X139017619Y-58262380D01*
X138922380Y-58262380D01*
X138827142Y-58214761D01*
X138779523Y-58167142D01*
X138731904Y-58071904D01*
X138684285Y-57881428D01*
X138684285Y-57643333D01*
X138731904Y-57452857D01*
X138779523Y-57357619D01*
X138827142Y-57310000D01*
X138922380Y-57262380D01*
X139636666Y-57357619D02*
X139684285Y-57310000D01*
X139779523Y-57262380D01*
X140017619Y-57262380D01*
X140112857Y-57310000D01*
X140160476Y-57357619D01*
X140208095Y-57452857D01*
X140208095Y-57548095D01*
X140160476Y-57690952D01*
X139589047Y-58262380D01*
X140208095Y-58262380D01*
X131224761Y-58582380D02*
X130653333Y-58582380D01*
X130939047Y-58582380D02*
X130939047Y-57582380D01*
X130843809Y-57725238D01*
X130748571Y-57820476D01*
X130653333Y-57868095D01*
X131843809Y-57582380D02*
X131939047Y-57582380D01*
X132034285Y-57630000D01*
X132081904Y-57677619D01*
X132129523Y-57772857D01*
X132177142Y-57963333D01*
X132177142Y-58201428D01*
X132129523Y-58391904D01*
X132081904Y-58487142D01*
X132034285Y-58534761D01*
X131939047Y-58582380D01*
X131843809Y-58582380D01*
X131748571Y-58534761D01*
X131700952Y-58487142D01*
X131653333Y-58391904D01*
X131605714Y-58201428D01*
X131605714Y-57963333D01*
X131653333Y-57772857D01*
X131700952Y-57677619D01*
X131748571Y-57630000D01*
X131843809Y-57582380D01*
X132605714Y-58582380D02*
X132605714Y-57582380D01*
X132700952Y-58201428D02*
X132986666Y-58582380D01*
X132986666Y-57915714D02*
X132605714Y-58296666D01*
X137500952Y-54412380D02*
X137167619Y-53936190D01*
X136929523Y-54412380D02*
X136929523Y-53412380D01*
X137310476Y-53412380D01*
X137405714Y-53460000D01*
X137453333Y-53507619D01*
X137500952Y-53602857D01*
X137500952Y-53745714D01*
X137453333Y-53840952D01*
X137405714Y-53888571D01*
X137310476Y-53936190D01*
X136929523Y-53936190D01*
X137881904Y-53507619D02*
X137929523Y-53460000D01*
X138024761Y-53412380D01*
X138262857Y-53412380D01*
X138358095Y-53460000D01*
X138405714Y-53507619D01*
X138453333Y-53602857D01*
X138453333Y-53698095D01*
X138405714Y-53840952D01*
X137834285Y-54412380D01*
X138453333Y-54412380D01*
X139405714Y-54412380D02*
X138834285Y-54412380D01*
X139120000Y-54412380D02*
X139120000Y-53412380D01*
X139024761Y-53555238D01*
X138929523Y-53650476D01*
X138834285Y-53698095D01*
X140358095Y-54412380D02*
X139786666Y-54412380D01*
X140072380Y-54412380D02*
X140072380Y-53412380D01*
X139977142Y-53555238D01*
X139881904Y-53650476D01*
X139786666Y-53698095D01*
X132180952Y-54472380D02*
X131609523Y-54472380D01*
X131895238Y-54472380D02*
X131895238Y-53472380D01*
X131800000Y-53615238D01*
X131704761Y-53710476D01*
X131609523Y-53758095D01*
X132609523Y-54472380D02*
X132609523Y-53472380D01*
X132704761Y-54091428D02*
X132990476Y-54472380D01*
X132990476Y-53805714D02*
X132609523Y-54186666D01*
X158442380Y-46142380D02*
X157870952Y-46142380D01*
X158156666Y-46142380D02*
X158156666Y-45142380D01*
X158061428Y-45285238D01*
X157966190Y-45380476D01*
X157870952Y-45428095D01*
X159061428Y-45142380D02*
X159156666Y-45142380D01*
X159251904Y-45190000D01*
X159299523Y-45237619D01*
X159347142Y-45332857D01*
X159394761Y-45523333D01*
X159394761Y-45761428D01*
X159347142Y-45951904D01*
X159299523Y-46047142D01*
X159251904Y-46094761D01*
X159156666Y-46142380D01*
X159061428Y-46142380D01*
X158966190Y-46094761D01*
X158918571Y-46047142D01*
X158870952Y-45951904D01*
X158823333Y-45761428D01*
X158823333Y-45523333D01*
X158870952Y-45332857D01*
X158918571Y-45237619D01*
X158966190Y-45190000D01*
X159061428Y-45142380D01*
X160013809Y-45142380D02*
X160109047Y-45142380D01*
X160204285Y-45190000D01*
X160251904Y-45237619D01*
X160299523Y-45332857D01*
X160347142Y-45523333D01*
X160347142Y-45761428D01*
X160299523Y-45951904D01*
X160251904Y-46047142D01*
X160204285Y-46094761D01*
X160109047Y-46142380D01*
X160013809Y-46142380D01*
X159918571Y-46094761D01*
X159870952Y-46047142D01*
X159823333Y-45951904D01*
X159775714Y-45761428D01*
X159775714Y-45523333D01*
X159823333Y-45332857D01*
X159870952Y-45237619D01*
X159918571Y-45190000D01*
X160013809Y-45142380D01*
X161204285Y-45475714D02*
X161204285Y-46142380D01*
X160775714Y-45475714D02*
X160775714Y-45999523D01*
X160823333Y-46094761D01*
X160918571Y-46142380D01*
X161061428Y-46142380D01*
X161156666Y-46094761D01*
X161204285Y-46047142D01*
X162013809Y-45618571D02*
X161680476Y-45618571D01*
X161680476Y-46142380D02*
X161680476Y-45142380D01*
X162156666Y-45142380D01*
D12*
X151625714Y-46585238D02*
X151663809Y-46623333D01*
X151701904Y-46737619D01*
X151701904Y-46813809D01*
X151663809Y-46928095D01*
X151587619Y-47004285D01*
X151511428Y-47042380D01*
X151359047Y-47080476D01*
X151244761Y-47080476D01*
X151092380Y-47042380D01*
X151016190Y-47004285D01*
X150940000Y-46928095D01*
X150901904Y-46813809D01*
X150901904Y-46737619D01*
X150940000Y-46623333D01*
X150978095Y-46585238D01*
X150978095Y-46280476D02*
X150940000Y-46242380D01*
X150901904Y-46166190D01*
X150901904Y-45975714D01*
X150940000Y-45899523D01*
X150978095Y-45861428D01*
X151054285Y-45823333D01*
X151130476Y-45823333D01*
X151244761Y-45861428D01*
X151701904Y-46318571D01*
X151701904Y-45823333D01*
X150901904Y-45328095D02*
X150901904Y-45251904D01*
X150940000Y-45175714D01*
X150978095Y-45137619D01*
X151054285Y-45099523D01*
X151206666Y-45061428D01*
X151397142Y-45061428D01*
X151549523Y-45099523D01*
X151625714Y-45137619D01*
X151663809Y-45175714D01*
X151701904Y-45251904D01*
X151701904Y-45328095D01*
X151663809Y-45404285D01*
X151625714Y-45442380D01*
X151549523Y-45480476D01*
X151397142Y-45518571D01*
X151206666Y-45518571D01*
X151054285Y-45480476D01*
X150978095Y-45442380D01*
X150940000Y-45404285D01*
X150901904Y-45328095D01*
X151701904Y-44680476D02*
X151701904Y-44528095D01*
X151663809Y-44451904D01*
X151625714Y-44413809D01*
X151511428Y-44337619D01*
X151359047Y-44299523D01*
X151054285Y-44299523D01*
X150978095Y-44337619D01*
X150940000Y-44375714D01*
X150901904Y-44451904D01*
X150901904Y-44604285D01*
X150940000Y-44680476D01*
X150978095Y-44718571D01*
X151054285Y-44756666D01*
X151244761Y-44756666D01*
X151320952Y-44718571D01*
X151359047Y-44680476D01*
X151397142Y-44604285D01*
X151397142Y-44451904D01*
X151359047Y-44375714D01*
X151320952Y-44337619D01*
X151244761Y-44299523D01*
D10*
X151860952Y-43257142D02*
X151813333Y-43304761D01*
X151670476Y-43352380D01*
X151575238Y-43352380D01*
X151432380Y-43304761D01*
X151337142Y-43209523D01*
X151289523Y-43114285D01*
X151241904Y-42923809D01*
X151241904Y-42780952D01*
X151289523Y-42590476D01*
X151337142Y-42495238D01*
X151432380Y-42400000D01*
X151575238Y-42352380D01*
X151670476Y-42352380D01*
X151813333Y-42400000D01*
X151860952Y-42447619D01*
X152241904Y-42447619D02*
X152289523Y-42400000D01*
X152384761Y-42352380D01*
X152622857Y-42352380D01*
X152718095Y-42400000D01*
X152765714Y-42447619D01*
X152813333Y-42542857D01*
X152813333Y-42638095D01*
X152765714Y-42780952D01*
X152194285Y-43352380D01*
X152813333Y-43352380D01*
X153432380Y-42352380D02*
X153527619Y-42352380D01*
X153622857Y-42400000D01*
X153670476Y-42447619D01*
X153718095Y-42542857D01*
X153765714Y-42733333D01*
X153765714Y-42971428D01*
X153718095Y-43161904D01*
X153670476Y-43257142D01*
X153622857Y-43304761D01*
X153527619Y-43352380D01*
X153432380Y-43352380D01*
X153337142Y-43304761D01*
X153289523Y-43257142D01*
X153241904Y-43161904D01*
X153194285Y-42971428D01*
X153194285Y-42733333D01*
X153241904Y-42542857D01*
X153289523Y-42447619D01*
X153337142Y-42400000D01*
X153432380Y-42352380D01*
X154718095Y-43352380D02*
X154146666Y-43352380D01*
X154432380Y-43352380D02*
X154432380Y-42352380D01*
X154337142Y-42495238D01*
X154241904Y-42590476D01*
X154146666Y-42638095D01*
X162938571Y-43192380D02*
X162367142Y-43192380D01*
X162652857Y-43192380D02*
X162652857Y-42192380D01*
X162557619Y-42335238D01*
X162462380Y-42430476D01*
X162367142Y-42478095D01*
X163557619Y-42192380D02*
X163652857Y-42192380D01*
X163748095Y-42240000D01*
X163795714Y-42287619D01*
X163843333Y-42382857D01*
X163890952Y-42573333D01*
X163890952Y-42811428D01*
X163843333Y-43001904D01*
X163795714Y-43097142D01*
X163748095Y-43144761D01*
X163652857Y-43192380D01*
X163557619Y-43192380D01*
X163462380Y-43144761D01*
X163414761Y-43097142D01*
X163367142Y-43001904D01*
X163319523Y-42811428D01*
X163319523Y-42573333D01*
X163367142Y-42382857D01*
X163414761Y-42287619D01*
X163462380Y-42240000D01*
X163557619Y-42192380D01*
X164748095Y-42525714D02*
X164748095Y-43192380D01*
X164319523Y-42525714D02*
X164319523Y-43049523D01*
X164367142Y-43144761D01*
X164462380Y-43192380D01*
X164605238Y-43192380D01*
X164700476Y-43144761D01*
X164748095Y-43097142D01*
X165557619Y-42668571D02*
X165224285Y-42668571D01*
X165224285Y-43192380D02*
X165224285Y-42192380D01*
X165700476Y-42192380D01*
X137480952Y-56917142D02*
X137433333Y-56964761D01*
X137290476Y-57012380D01*
X137195238Y-57012380D01*
X137052380Y-56964761D01*
X136957142Y-56869523D01*
X136909523Y-56774285D01*
X136861904Y-56583809D01*
X136861904Y-56440952D01*
X136909523Y-56250476D01*
X136957142Y-56155238D01*
X137052380Y-56060000D01*
X137195238Y-56012380D01*
X137290476Y-56012380D01*
X137433333Y-56060000D01*
X137480952Y-56107619D01*
X137861904Y-56107619D02*
X137909523Y-56060000D01*
X138004761Y-56012380D01*
X138242857Y-56012380D01*
X138338095Y-56060000D01*
X138385714Y-56107619D01*
X138433333Y-56202857D01*
X138433333Y-56298095D01*
X138385714Y-56440952D01*
X137814285Y-57012380D01*
X138433333Y-57012380D01*
X139385714Y-57012380D02*
X138814285Y-57012380D01*
X139100000Y-57012380D02*
X139100000Y-56012380D01*
X139004761Y-56155238D01*
X138909523Y-56250476D01*
X138814285Y-56298095D01*
X139766666Y-56107619D02*
X139814285Y-56060000D01*
X139909523Y-56012380D01*
X140147619Y-56012380D01*
X140242857Y-56060000D01*
X140290476Y-56107619D01*
X140338095Y-56202857D01*
X140338095Y-56298095D01*
X140290476Y-56440952D01*
X139719047Y-57012380D01*
X140338095Y-57012380D01*
X131228571Y-57212380D02*
X130657142Y-57212380D01*
X130942857Y-57212380D02*
X130942857Y-56212380D01*
X130847619Y-56355238D01*
X130752380Y-56450476D01*
X130657142Y-56498095D01*
X131847619Y-56212380D02*
X131942857Y-56212380D01*
X132038095Y-56260000D01*
X132085714Y-56307619D01*
X132133333Y-56402857D01*
X132180952Y-56593333D01*
X132180952Y-56831428D01*
X132133333Y-57021904D01*
X132085714Y-57117142D01*
X132038095Y-57164761D01*
X131942857Y-57212380D01*
X131847619Y-57212380D01*
X131752380Y-57164761D01*
X131704761Y-57117142D01*
X131657142Y-57021904D01*
X131609523Y-56831428D01*
X131609523Y-56593333D01*
X131657142Y-56402857D01*
X131704761Y-56307619D01*
X131752380Y-56260000D01*
X131847619Y-56212380D01*
X133038095Y-56545714D02*
X133038095Y-57212380D01*
X132609523Y-56545714D02*
X132609523Y-57069523D01*
X132657142Y-57164761D01*
X132752380Y-57212380D01*
X132895238Y-57212380D01*
X132990476Y-57164761D01*
X133038095Y-57117142D01*
X133847619Y-56688571D02*
X133514285Y-56688571D01*
X133514285Y-57212380D02*
X133514285Y-56212380D01*
X133990476Y-56212380D01*
X148382380Y-34720476D02*
X147382380Y-34720476D01*
X147382380Y-34482380D01*
X147430000Y-34339523D01*
X147525238Y-34244285D01*
X147620476Y-34196666D01*
X147810952Y-34149047D01*
X147953809Y-34149047D01*
X148144285Y-34196666D01*
X148239523Y-34244285D01*
X148334761Y-34339523D01*
X148382380Y-34482380D01*
X148382380Y-34720476D01*
X147477619Y-33768095D02*
X147430000Y-33720476D01*
X147382380Y-33625238D01*
X147382380Y-33387142D01*
X147430000Y-33291904D01*
X147477619Y-33244285D01*
X147572857Y-33196666D01*
X147668095Y-33196666D01*
X147810952Y-33244285D01*
X148382380Y-33815714D01*
X148382380Y-33196666D01*
X147382380Y-32577619D02*
X147382380Y-32482380D01*
X147430000Y-32387142D01*
X147477619Y-32339523D01*
X147572857Y-32291904D01*
X147763333Y-32244285D01*
X148001428Y-32244285D01*
X148191904Y-32291904D01*
X148287142Y-32339523D01*
X148334761Y-32387142D01*
X148382380Y-32482380D01*
X148382380Y-32577619D01*
X148334761Y-32672857D01*
X148287142Y-32720476D01*
X148191904Y-32768095D01*
X148001428Y-32815714D01*
X147763333Y-32815714D01*
X147572857Y-32768095D01*
X147477619Y-32720476D01*
X147430000Y-32672857D01*
X147382380Y-32577619D01*
X147477619Y-31863333D02*
X147430000Y-31815714D01*
X147382380Y-31720476D01*
X147382380Y-31482380D01*
X147430000Y-31387142D01*
X147477619Y-31339523D01*
X147572857Y-31291904D01*
X147668095Y-31291904D01*
X147810952Y-31339523D01*
X148382380Y-31910952D01*
X148382380Y-31291904D01*
X147928571Y-24607142D02*
X147928571Y-24273809D01*
X148452380Y-24130952D02*
X148452380Y-24607142D01*
X147452380Y-24607142D01*
X147452380Y-24130952D01*
X148404761Y-23750000D02*
X148452380Y-23607142D01*
X148452380Y-23369047D01*
X148404761Y-23273809D01*
X148357142Y-23226190D01*
X148261904Y-23178571D01*
X148166666Y-23178571D01*
X148071428Y-23226190D01*
X148023809Y-23273809D01*
X147976190Y-23369047D01*
X147928571Y-23559523D01*
X147880952Y-23654761D01*
X147833333Y-23702380D01*
X147738095Y-23750000D01*
X147642857Y-23750000D01*
X147547619Y-23702380D01*
X147500000Y-23654761D01*
X147452380Y-23559523D01*
X147452380Y-23321428D01*
X147500000Y-23178571D01*
X148452380Y-22750000D02*
X147452380Y-22750000D01*
X147452380Y-22511904D01*
X147500000Y-22369047D01*
X147595238Y-22273809D01*
X147690476Y-22226190D01*
X147880952Y-22178571D01*
X148023809Y-22178571D01*
X148214285Y-22226190D01*
X148309523Y-22273809D01*
X148404761Y-22369047D01*
X148452380Y-22511904D01*
X148452380Y-22750000D01*
X148547619Y-21988095D02*
X148547619Y-21226190D01*
X147452380Y-21130952D02*
X147452380Y-20559523D01*
X148452380Y-20845238D02*
X147452380Y-20845238D01*
X147452380Y-20369047D02*
X148452380Y-20035714D01*
X147452380Y-19702380D01*
X148404761Y-19416666D02*
X148452380Y-19273809D01*
X148452380Y-19035714D01*
X148404761Y-18940476D01*
X148357142Y-18892857D01*
X148261904Y-18845238D01*
X148166666Y-18845238D01*
X148071428Y-18892857D01*
X148023809Y-18940476D01*
X147976190Y-19035714D01*
X147928571Y-19226190D01*
X147880952Y-19321428D01*
X147833333Y-19369047D01*
X147738095Y-19416666D01*
X147642857Y-19416666D01*
X147547619Y-19369047D01*
X147500000Y-19321428D01*
X147452380Y-19226190D01*
X147452380Y-18988095D01*
X147500000Y-18845238D01*
X149802380Y-51149047D02*
X149326190Y-51482380D01*
X149802380Y-51720476D02*
X148802380Y-51720476D01*
X148802380Y-51339523D01*
X148850000Y-51244285D01*
X148897619Y-51196666D01*
X148992857Y-51149047D01*
X149135714Y-51149047D01*
X149230952Y-51196666D01*
X149278571Y-51244285D01*
X149326190Y-51339523D01*
X149326190Y-51720476D01*
X148897619Y-50768095D02*
X148850000Y-50720476D01*
X148802380Y-50625238D01*
X148802380Y-50387142D01*
X148850000Y-50291904D01*
X148897619Y-50244285D01*
X148992857Y-50196666D01*
X149088095Y-50196666D01*
X149230952Y-50244285D01*
X149802380Y-50815714D01*
X149802380Y-50196666D01*
X148802380Y-49577619D02*
X148802380Y-49482380D01*
X148850000Y-49387142D01*
X148897619Y-49339523D01*
X148992857Y-49291904D01*
X149183333Y-49244285D01*
X149421428Y-49244285D01*
X149611904Y-49291904D01*
X149707142Y-49339523D01*
X149754761Y-49387142D01*
X149802380Y-49482380D01*
X149802380Y-49577619D01*
X149754761Y-49672857D01*
X149707142Y-49720476D01*
X149611904Y-49768095D01*
X149421428Y-49815714D01*
X149183333Y-49815714D01*
X148992857Y-49768095D01*
X148897619Y-49720476D01*
X148850000Y-49672857D01*
X148802380Y-49577619D01*
X148802380Y-48910952D02*
X148802380Y-48291904D01*
X149183333Y-48625238D01*
X149183333Y-48482380D01*
X149230952Y-48387142D01*
X149278571Y-48339523D01*
X149373809Y-48291904D01*
X149611904Y-48291904D01*
X149707142Y-48339523D01*
X149754761Y-48387142D01*
X149802380Y-48482380D01*
X149802380Y-48768095D01*
X149754761Y-48863333D01*
X149707142Y-48910952D01*
X158267619Y-53471904D02*
X158220000Y-53424285D01*
X158172380Y-53329047D01*
X158172380Y-53090952D01*
X158220000Y-52995714D01*
X158267619Y-52948095D01*
X158362857Y-52900476D01*
X158458095Y-52900476D01*
X158600952Y-52948095D01*
X159172380Y-53519523D01*
X159172380Y-52900476D01*
X158172380Y-52567142D02*
X158172380Y-51900476D01*
X159172380Y-52329047D01*
X150292380Y-71079047D02*
X149816190Y-71412380D01*
X150292380Y-71650476D02*
X149292380Y-71650476D01*
X149292380Y-71269523D01*
X149340000Y-71174285D01*
X149387619Y-71126666D01*
X149482857Y-71079047D01*
X149625714Y-71079047D01*
X149720952Y-71126666D01*
X149768571Y-71174285D01*
X149816190Y-71269523D01*
X149816190Y-71650476D01*
X150292380Y-70126666D02*
X150292380Y-70698095D01*
X150292380Y-70412380D02*
X149292380Y-70412380D01*
X149435238Y-70507619D01*
X149530476Y-70602857D01*
X149578095Y-70698095D01*
X149292380Y-69507619D02*
X149292380Y-69412380D01*
X149340000Y-69317142D01*
X149387619Y-69269523D01*
X149482857Y-69221904D01*
X149673333Y-69174285D01*
X149911428Y-69174285D01*
X150101904Y-69221904D01*
X150197142Y-69269523D01*
X150244761Y-69317142D01*
X150292380Y-69412380D01*
X150292380Y-69507619D01*
X150244761Y-69602857D01*
X150197142Y-69650476D01*
X150101904Y-69698095D01*
X149911428Y-69745714D01*
X149673333Y-69745714D01*
X149482857Y-69698095D01*
X149387619Y-69650476D01*
X149340000Y-69602857D01*
X149292380Y-69507619D01*
X150292380Y-68221904D02*
X150292380Y-68793333D01*
X150292380Y-68507619D02*
X149292380Y-68507619D01*
X149435238Y-68602857D01*
X149530476Y-68698095D01*
X149578095Y-68793333D01*
X162702380Y-70565238D02*
X162702380Y-71136666D01*
X162702380Y-70850952D02*
X161702380Y-70850952D01*
X161845238Y-70946190D01*
X161940476Y-71041428D01*
X161988095Y-71136666D01*
X161702380Y-69946190D02*
X161702380Y-69850952D01*
X161750000Y-69755714D01*
X161797619Y-69708095D01*
X161892857Y-69660476D01*
X162083333Y-69612857D01*
X162321428Y-69612857D01*
X162511904Y-69660476D01*
X162607142Y-69708095D01*
X162654761Y-69755714D01*
X162702380Y-69850952D01*
X162702380Y-69946190D01*
X162654761Y-70041428D01*
X162607142Y-70089047D01*
X162511904Y-70136666D01*
X162321428Y-70184285D01*
X162083333Y-70184285D01*
X161892857Y-70136666D01*
X161797619Y-70089047D01*
X161750000Y-70041428D01*
X161702380Y-69946190D01*
X162702380Y-69184285D02*
X161702380Y-69184285D01*
X162321428Y-69089047D02*
X162702380Y-68803333D01*
X162035714Y-68803333D02*
X162416666Y-69184285D01*
X146312380Y-64939047D02*
X145836190Y-65272380D01*
X146312380Y-65510476D02*
X145312380Y-65510476D01*
X145312380Y-65129523D01*
X145360000Y-65034285D01*
X145407619Y-64986666D01*
X145502857Y-64939047D01*
X145645714Y-64939047D01*
X145740952Y-64986666D01*
X145788571Y-65034285D01*
X145836190Y-65129523D01*
X145836190Y-65510476D01*
X145407619Y-64558095D02*
X145360000Y-64510476D01*
X145312380Y-64415238D01*
X145312380Y-64177142D01*
X145360000Y-64081904D01*
X145407619Y-64034285D01*
X145502857Y-63986666D01*
X145598095Y-63986666D01*
X145740952Y-64034285D01*
X146312380Y-64605714D01*
X146312380Y-63986666D01*
X145312380Y-63367619D02*
X145312380Y-63272380D01*
X145360000Y-63177142D01*
X145407619Y-63129523D01*
X145502857Y-63081904D01*
X145693333Y-63034285D01*
X145931428Y-63034285D01*
X146121904Y-63081904D01*
X146217142Y-63129523D01*
X146264761Y-63177142D01*
X146312380Y-63272380D01*
X146312380Y-63367619D01*
X146264761Y-63462857D01*
X146217142Y-63510476D01*
X146121904Y-63558095D01*
X145931428Y-63605714D01*
X145693333Y-63605714D01*
X145502857Y-63558095D01*
X145407619Y-63510476D01*
X145360000Y-63462857D01*
X145312380Y-63367619D01*
X146312380Y-62081904D02*
X146312380Y-62653333D01*
X146312380Y-62367619D02*
X145312380Y-62367619D01*
X145455238Y-62462857D01*
X145550476Y-62558095D01*
X145598095Y-62653333D01*
X158792380Y-67009047D02*
X158792380Y-67580476D01*
X158792380Y-67294761D02*
X157792380Y-67294761D01*
X157935238Y-67390000D01*
X158030476Y-67485238D01*
X158078095Y-67580476D01*
X158792380Y-66580476D02*
X157792380Y-66580476D01*
X158411428Y-66485238D02*
X158792380Y-66199523D01*
X158125714Y-66199523D02*
X158506666Y-66580476D01*
X148837142Y-64899047D02*
X148884761Y-64946666D01*
X148932380Y-65089523D01*
X148932380Y-65184761D01*
X148884761Y-65327619D01*
X148789523Y-65422857D01*
X148694285Y-65470476D01*
X148503809Y-65518095D01*
X148360952Y-65518095D01*
X148170476Y-65470476D01*
X148075238Y-65422857D01*
X147980000Y-65327619D01*
X147932380Y-65184761D01*
X147932380Y-65089523D01*
X147980000Y-64946666D01*
X148027619Y-64899047D01*
X148027619Y-64518095D02*
X147980000Y-64470476D01*
X147932380Y-64375238D01*
X147932380Y-64137142D01*
X147980000Y-64041904D01*
X148027619Y-63994285D01*
X148122857Y-63946666D01*
X148218095Y-63946666D01*
X148360952Y-63994285D01*
X148932380Y-64565714D01*
X148932380Y-63946666D01*
X147932380Y-63327619D02*
X147932380Y-63232380D01*
X147980000Y-63137142D01*
X148027619Y-63089523D01*
X148122857Y-63041904D01*
X148313333Y-62994285D01*
X148551428Y-62994285D01*
X148741904Y-63041904D01*
X148837142Y-63089523D01*
X148884761Y-63137142D01*
X148932380Y-63232380D01*
X148932380Y-63327619D01*
X148884761Y-63422857D01*
X148837142Y-63470476D01*
X148741904Y-63518095D01*
X148551428Y-63565714D01*
X148313333Y-63565714D01*
X148122857Y-63518095D01*
X148027619Y-63470476D01*
X147980000Y-63422857D01*
X147932380Y-63327619D01*
X148027619Y-62613333D02*
X147980000Y-62565714D01*
X147932380Y-62470476D01*
X147932380Y-62232380D01*
X147980000Y-62137142D01*
X148027619Y-62089523D01*
X148122857Y-62041904D01*
X148218095Y-62041904D01*
X148360952Y-62089523D01*
X148932380Y-62660952D01*
X148932380Y-62041904D01*
X161232380Y-67011428D02*
X161232380Y-67582857D01*
X161232380Y-67297142D02*
X160232380Y-67297142D01*
X160375238Y-67392380D01*
X160470476Y-67487619D01*
X160518095Y-67582857D01*
X160232380Y-66392380D02*
X160232380Y-66297142D01*
X160280000Y-66201904D01*
X160327619Y-66154285D01*
X160422857Y-66106666D01*
X160613333Y-66059047D01*
X160851428Y-66059047D01*
X161041904Y-66106666D01*
X161137142Y-66154285D01*
X161184761Y-66201904D01*
X161232380Y-66297142D01*
X161232380Y-66392380D01*
X161184761Y-66487619D01*
X161137142Y-66535238D01*
X161041904Y-66582857D01*
X160851428Y-66630476D01*
X160613333Y-66630476D01*
X160422857Y-66582857D01*
X160327619Y-66535238D01*
X160280000Y-66487619D01*
X160232380Y-66392380D01*
X160565714Y-65201904D02*
X161232380Y-65201904D01*
X160565714Y-65630476D02*
X161089523Y-65630476D01*
X161184761Y-65582857D01*
X161232380Y-65487619D01*
X161232380Y-65344761D01*
X161184761Y-65249523D01*
X161137142Y-65201904D01*
X160708571Y-64392380D02*
X160708571Y-64725714D01*
X161232380Y-64725714D02*
X160232380Y-64725714D01*
X160232380Y-64249523D01*
X143627142Y-44229047D02*
X143674761Y-44276666D01*
X143722380Y-44419523D01*
X143722380Y-44514761D01*
X143674761Y-44657619D01*
X143579523Y-44752857D01*
X143484285Y-44800476D01*
X143293809Y-44848095D01*
X143150952Y-44848095D01*
X142960476Y-44800476D01*
X142865238Y-44752857D01*
X142770000Y-44657619D01*
X142722380Y-44514761D01*
X142722380Y-44419523D01*
X142770000Y-44276666D01*
X142817619Y-44229047D01*
X142817619Y-43848095D02*
X142770000Y-43800476D01*
X142722380Y-43705238D01*
X142722380Y-43467142D01*
X142770000Y-43371904D01*
X142817619Y-43324285D01*
X142912857Y-43276666D01*
X143008095Y-43276666D01*
X143150952Y-43324285D01*
X143722380Y-43895714D01*
X143722380Y-43276666D01*
X142817619Y-42895714D02*
X142770000Y-42848095D01*
X142722380Y-42752857D01*
X142722380Y-42514761D01*
X142770000Y-42419523D01*
X142817619Y-42371904D01*
X142912857Y-42324285D01*
X143008095Y-42324285D01*
X143150952Y-42371904D01*
X143722380Y-42943333D01*
X143722380Y-42324285D01*
X142817619Y-41943333D02*
X142770000Y-41895714D01*
X142722380Y-41800476D01*
X142722380Y-41562380D01*
X142770000Y-41467142D01*
X142817619Y-41419523D01*
X142912857Y-41371904D01*
X143008095Y-41371904D01*
X143150952Y-41419523D01*
X143722380Y-41990952D01*
X143722380Y-41371904D01*
X133258571Y-43722380D02*
X132687142Y-43722380D01*
X132972857Y-43722380D02*
X132972857Y-42722380D01*
X132877619Y-42865238D01*
X132782380Y-42960476D01*
X132687142Y-43008095D01*
X133877619Y-42722380D02*
X133972857Y-42722380D01*
X134068095Y-42770000D01*
X134115714Y-42817619D01*
X134163333Y-42912857D01*
X134210952Y-43103333D01*
X134210952Y-43341428D01*
X134163333Y-43531904D01*
X134115714Y-43627142D01*
X134068095Y-43674761D01*
X133972857Y-43722380D01*
X133877619Y-43722380D01*
X133782380Y-43674761D01*
X133734761Y-43627142D01*
X133687142Y-43531904D01*
X133639523Y-43341428D01*
X133639523Y-43103333D01*
X133687142Y-42912857D01*
X133734761Y-42817619D01*
X133782380Y-42770000D01*
X133877619Y-42722380D01*
X135068095Y-43055714D02*
X135068095Y-43722380D01*
X134639523Y-43055714D02*
X134639523Y-43579523D01*
X134687142Y-43674761D01*
X134782380Y-43722380D01*
X134925238Y-43722380D01*
X135020476Y-43674761D01*
X135068095Y-43627142D01*
X135877619Y-43198571D02*
X135544285Y-43198571D01*
X135544285Y-43722380D02*
X135544285Y-42722380D01*
X136020476Y-42722380D01*
X146362380Y-34740476D02*
X145362380Y-34740476D01*
X145362380Y-34502380D01*
X145410000Y-34359523D01*
X145505238Y-34264285D01*
X145600476Y-34216666D01*
X145790952Y-34169047D01*
X145933809Y-34169047D01*
X146124285Y-34216666D01*
X146219523Y-34264285D01*
X146314761Y-34359523D01*
X146362380Y-34502380D01*
X146362380Y-34740476D01*
X145457619Y-33788095D02*
X145410000Y-33740476D01*
X145362380Y-33645238D01*
X145362380Y-33407142D01*
X145410000Y-33311904D01*
X145457619Y-33264285D01*
X145552857Y-33216666D01*
X145648095Y-33216666D01*
X145790952Y-33264285D01*
X146362380Y-33835714D01*
X146362380Y-33216666D01*
X145362380Y-32597619D02*
X145362380Y-32502380D01*
X145410000Y-32407142D01*
X145457619Y-32359523D01*
X145552857Y-32311904D01*
X145743333Y-32264285D01*
X145981428Y-32264285D01*
X146171904Y-32311904D01*
X146267142Y-32359523D01*
X146314761Y-32407142D01*
X146362380Y-32502380D01*
X146362380Y-32597619D01*
X146314761Y-32692857D01*
X146267142Y-32740476D01*
X146171904Y-32788095D01*
X145981428Y-32835714D01*
X145743333Y-32835714D01*
X145552857Y-32788095D01*
X145457619Y-32740476D01*
X145410000Y-32692857D01*
X145362380Y-32597619D01*
X146362380Y-31311904D02*
X146362380Y-31883333D01*
X146362380Y-31597619D02*
X145362380Y-31597619D01*
X145505238Y-31692857D01*
X145600476Y-31788095D01*
X145648095Y-31883333D01*
X145868571Y-24567142D02*
X145868571Y-24233809D01*
X146392380Y-24090952D02*
X146392380Y-24567142D01*
X145392380Y-24567142D01*
X145392380Y-24090952D01*
X146344761Y-23710000D02*
X146392380Y-23567142D01*
X146392380Y-23329047D01*
X146344761Y-23233809D01*
X146297142Y-23186190D01*
X146201904Y-23138571D01*
X146106666Y-23138571D01*
X146011428Y-23186190D01*
X145963809Y-23233809D01*
X145916190Y-23329047D01*
X145868571Y-23519523D01*
X145820952Y-23614761D01*
X145773333Y-23662380D01*
X145678095Y-23710000D01*
X145582857Y-23710000D01*
X145487619Y-23662380D01*
X145440000Y-23614761D01*
X145392380Y-23519523D01*
X145392380Y-23281428D01*
X145440000Y-23138571D01*
X146392380Y-22710000D02*
X145392380Y-22710000D01*
X145392380Y-22471904D01*
X145440000Y-22329047D01*
X145535238Y-22233809D01*
X145630476Y-22186190D01*
X145820952Y-22138571D01*
X145963809Y-22138571D01*
X146154285Y-22186190D01*
X146249523Y-22233809D01*
X146344761Y-22329047D01*
X146392380Y-22471904D01*
X146392380Y-22710000D01*
X146487619Y-21948095D02*
X146487619Y-21186190D01*
X145392380Y-21090952D02*
X145392380Y-20519523D01*
X146392380Y-20805238D02*
X145392380Y-20805238D01*
X145392380Y-20329047D02*
X146392380Y-19995714D01*
X145392380Y-19662380D01*
X146344761Y-19376666D02*
X146392380Y-19233809D01*
X146392380Y-18995714D01*
X146344761Y-18900476D01*
X146297142Y-18852857D01*
X146201904Y-18805238D01*
X146106666Y-18805238D01*
X146011428Y-18852857D01*
X145963809Y-18900476D01*
X145916190Y-18995714D01*
X145868571Y-19186190D01*
X145820952Y-19281428D01*
X145773333Y-19329047D01*
X145678095Y-19376666D01*
X145582857Y-19376666D01*
X145487619Y-19329047D01*
X145440000Y-19281428D01*
X145392380Y-19186190D01*
X145392380Y-18948095D01*
X145440000Y-18805238D01*
X150932380Y-34740476D02*
X149932380Y-34740476D01*
X149932380Y-34502380D01*
X149980000Y-34359523D01*
X150075238Y-34264285D01*
X150170476Y-34216666D01*
X150360952Y-34169047D01*
X150503809Y-34169047D01*
X150694285Y-34216666D01*
X150789523Y-34264285D01*
X150884761Y-34359523D01*
X150932380Y-34502380D01*
X150932380Y-34740476D01*
X150027619Y-33788095D02*
X149980000Y-33740476D01*
X149932380Y-33645238D01*
X149932380Y-33407142D01*
X149980000Y-33311904D01*
X150027619Y-33264285D01*
X150122857Y-33216666D01*
X150218095Y-33216666D01*
X150360952Y-33264285D01*
X150932380Y-33835714D01*
X150932380Y-33216666D01*
X149932380Y-32597619D02*
X149932380Y-32502380D01*
X149980000Y-32407142D01*
X150027619Y-32359523D01*
X150122857Y-32311904D01*
X150313333Y-32264285D01*
X150551428Y-32264285D01*
X150741904Y-32311904D01*
X150837142Y-32359523D01*
X150884761Y-32407142D01*
X150932380Y-32502380D01*
X150932380Y-32597619D01*
X150884761Y-32692857D01*
X150837142Y-32740476D01*
X150741904Y-32788095D01*
X150551428Y-32835714D01*
X150313333Y-32835714D01*
X150122857Y-32788095D01*
X150027619Y-32740476D01*
X149980000Y-32692857D01*
X149932380Y-32597619D01*
X149932380Y-31930952D02*
X149932380Y-31311904D01*
X150313333Y-31645238D01*
X150313333Y-31502380D01*
X150360952Y-31407142D01*
X150408571Y-31359523D01*
X150503809Y-31311904D01*
X150741904Y-31311904D01*
X150837142Y-31359523D01*
X150884761Y-31407142D01*
X150932380Y-31502380D01*
X150932380Y-31788095D01*
X150884761Y-31883333D01*
X150837142Y-31930952D01*
X150698571Y-24607142D02*
X150698571Y-24273809D01*
X151222380Y-24130952D02*
X151222380Y-24607142D01*
X150222380Y-24607142D01*
X150222380Y-24130952D01*
X151174761Y-23750000D02*
X151222380Y-23607142D01*
X151222380Y-23369047D01*
X151174761Y-23273809D01*
X151127142Y-23226190D01*
X151031904Y-23178571D01*
X150936666Y-23178571D01*
X150841428Y-23226190D01*
X150793809Y-23273809D01*
X150746190Y-23369047D01*
X150698571Y-23559523D01*
X150650952Y-23654761D01*
X150603333Y-23702380D01*
X150508095Y-23750000D01*
X150412857Y-23750000D01*
X150317619Y-23702380D01*
X150270000Y-23654761D01*
X150222380Y-23559523D01*
X150222380Y-23321428D01*
X150270000Y-23178571D01*
X151222380Y-22750000D02*
X150222380Y-22750000D01*
X150222380Y-22511904D01*
X150270000Y-22369047D01*
X150365238Y-22273809D01*
X150460476Y-22226190D01*
X150650952Y-22178571D01*
X150793809Y-22178571D01*
X150984285Y-22226190D01*
X151079523Y-22273809D01*
X151174761Y-22369047D01*
X151222380Y-22511904D01*
X151222380Y-22750000D01*
X151317619Y-21988095D02*
X151317619Y-21226190D01*
X150222380Y-21130952D02*
X150222380Y-20559523D01*
X151222380Y-20845238D02*
X150222380Y-20845238D01*
X150222380Y-20369047D02*
X151222380Y-20035714D01*
X150222380Y-19702380D01*
X151174761Y-19416666D02*
X151222380Y-19273809D01*
X151222380Y-19035714D01*
X151174761Y-18940476D01*
X151127142Y-18892857D01*
X151031904Y-18845238D01*
X150936666Y-18845238D01*
X150841428Y-18892857D01*
X150793809Y-18940476D01*
X150746190Y-19035714D01*
X150698571Y-19226190D01*
X150650952Y-19321428D01*
X150603333Y-19369047D01*
X150508095Y-19416666D01*
X150412857Y-19416666D01*
X150317619Y-19369047D01*
X150270000Y-19321428D01*
X150222380Y-19226190D01*
X150222380Y-18988095D01*
X150270000Y-18845238D01*
D12*
X150760000Y-63150000D02*
X150760000Y-61450000D01*
X150760000Y-61450000D02*
X153360000Y-61450000D01*
X153360000Y-63150000D02*
X150760000Y-63150000D01*
X153360000Y-61450000D02*
X153360000Y-63150000D01*
X143050000Y-61460000D02*
X143050000Y-63160000D01*
X143050000Y-63160000D02*
X140450000Y-63160000D01*
X140450000Y-61460000D02*
X143050000Y-61460000D01*
X140450000Y-63160000D02*
X140450000Y-61460000D01*
X145370000Y-69260000D02*
X145370000Y-67560000D01*
X147970000Y-67560000D02*
X147970000Y-69260000D01*
X145370000Y-67560000D02*
X147970000Y-67560000D01*
X147970000Y-69260000D02*
X145370000Y-69260000D01*
X149530000Y-57450000D02*
X149530000Y-54850000D01*
X151230000Y-57450000D02*
X149530000Y-57450000D01*
X149530000Y-54850000D02*
X151230000Y-54850000D01*
X151230000Y-54850000D02*
X151230000Y-57450000D01*
D13*
X152970000Y-37330000D02*
X152370000Y-36930000D01*
X151970000Y-36930000D02*
X152370000Y-36930000D01*
X154120000Y-37830000D02*
X151320000Y-37830000D01*
X152370000Y-36930000D02*
X152970000Y-36530000D01*
X154120000Y-36030000D02*
X154120000Y-37830000D01*
X152370000Y-36930000D02*
X152370000Y-36380000D01*
X152370000Y-36930000D02*
X152370000Y-37480000D01*
X151320000Y-37830000D02*
X151320000Y-36030000D01*
X152970000Y-36530000D02*
X152970000Y-37330000D01*
X151320000Y-36030000D02*
X154120000Y-36030000D01*
X152970000Y-36930000D02*
X153470000Y-36930000D01*
D12*
X147960000Y-65710000D02*
X147960000Y-68310000D01*
X147960000Y-68310000D02*
X146260000Y-68310000D01*
X146260000Y-65710000D02*
X147960000Y-65710000D01*
X146260000Y-68310000D02*
X146260000Y-65710000D01*
X147860000Y-41960000D02*
X150460000Y-41960000D01*
X150460000Y-41960000D02*
X150460000Y-43660000D01*
X150460000Y-43660000D02*
X147860000Y-43660000D01*
X147860000Y-43660000D02*
X147860000Y-41960000D01*
X143520000Y-67560000D02*
X146120000Y-67560000D01*
X146120000Y-69260000D02*
X143520000Y-69260000D01*
X146120000Y-67560000D02*
X146120000Y-69260000D01*
X143520000Y-69260000D02*
X143520000Y-67560000D01*
X145790000Y-54350000D02*
X147490000Y-54350000D01*
X147490000Y-56950000D02*
X145790000Y-56950000D01*
X145790000Y-56950000D02*
X145790000Y-54350000D01*
X147490000Y-54350000D02*
X147490000Y-56950000D01*
X148580000Y-57450000D02*
X148580000Y-54850000D01*
X150280000Y-57450000D02*
X148580000Y-57450000D01*
X150280000Y-54850000D02*
X150280000Y-57450000D01*
X148580000Y-54850000D02*
X150280000Y-54850000D01*
D13*
X151340000Y-68100000D02*
X150540000Y-68100000D01*
X151340000Y-69700000D02*
X151340000Y-68100000D01*
X150540000Y-68100000D02*
X150540000Y-69400000D01*
X150840000Y-69700000D02*
X151340000Y-69700000D01*
X150540000Y-69400000D02*
X150840000Y-69700000D01*
X151760000Y-38250000D02*
X151760000Y-40750000D01*
X151760000Y-40750000D02*
X148260000Y-40750000D01*
X147260000Y-39750000D02*
X147260000Y-38250000D01*
X148260000Y-40750000D02*
X147260000Y-39750000D01*
X147260000Y-38250000D02*
X151760000Y-38250000D01*
D12*
X148880000Y-65710000D02*
X150580000Y-65710000D01*
X148880000Y-68310000D02*
X148880000Y-65710000D01*
X150580000Y-68310000D02*
X148880000Y-68310000D01*
X150580000Y-65710000D02*
X150580000Y-68310000D01*
D13*
X146025000Y-46485000D02*
X146025000Y-51715000D01*
X146025000Y-51715000D02*
X141795000Y-51715000D01*
X140795000Y-50715000D02*
X140795000Y-46485000D01*
X141795000Y-51715000D02*
X140795000Y-50715000D01*
X140795000Y-46485000D02*
X146025000Y-46485000D01*
X152140000Y-51880000D02*
X150540000Y-51880000D01*
X152140000Y-48680000D02*
X152140000Y-51880000D01*
X150540000Y-48680000D02*
X152140000Y-48680000D01*
X150540000Y-51880000D02*
X150540000Y-48680000D01*
D14*
X151380000Y-34000000D02*
X151380000Y-26700000D01*
X142440000Y-26700000D02*
X142440000Y-34000000D01*
X151380000Y-26700000D02*
X142440000Y-26700000D01*
X142440000Y-34000000D02*
X151380000Y-34000000D01*
D15*
X150410000Y-35700000D02*
G75*
G03*
X150410000Y-35700000I-100000J0D01*
G01*
D12*
X143210000Y-35120000D02*
X144910000Y-35120000D01*
X143210000Y-37720000D02*
X143210000Y-35120000D01*
X144910000Y-35120000D02*
X144910000Y-37720000D01*
X144910000Y-37720000D02*
X143210000Y-37720000D01*
D14*
X150410000Y-57800000D02*
X143410000Y-57800000D01*
X150410000Y-64800000D02*
X143410000Y-64800000D01*
X150410000Y-64800000D02*
X150410000Y-57800000D01*
X143410000Y-64800000D02*
X143410000Y-57800000D01*
D15*
X142535000Y-58700000D02*
G75*
G03*
X142535000Y-58700000I-100000J0D01*
G01*
D12*
X150770000Y-56700000D02*
X152470000Y-56700000D01*
X150770000Y-59300000D02*
X150770000Y-56700000D01*
X152470000Y-56700000D02*
X152470000Y-59300000D01*
X152470000Y-59300000D02*
X150770000Y-59300000D01*
D13*
X141630000Y-56500000D02*
X141630000Y-55200000D01*
X140830000Y-54900000D02*
X140830000Y-56500000D01*
X141630000Y-55200000D02*
X141330000Y-54900000D01*
X140830000Y-56500000D02*
X141630000Y-56500000D01*
X141330000Y-54900000D02*
X140830000Y-54900000D01*
X143100000Y-75250000D02*
X150085000Y-75250000D01*
X150720000Y-75885000D02*
X150720000Y-77790000D01*
X149770000Y-83790000D02*
X149130000Y-83790000D01*
X144690000Y-83790000D02*
X144050000Y-83790000D01*
X149770000Y-73430000D02*
X149130000Y-73430000D01*
X144690000Y-73430000D02*
X144690000Y-75250000D01*
X143100000Y-77790000D02*
X143100000Y-75250000D01*
X149770000Y-77790000D02*
X149770000Y-83790000D01*
X147230000Y-77790000D02*
X147230000Y-83790000D01*
X146590000Y-77790000D02*
X146590000Y-83790000D01*
X146590000Y-73430000D02*
X146590000Y-75250000D01*
X147230000Y-73430000D02*
X146590000Y-73430000D01*
X149770000Y-73430000D02*
X149770000Y-75250000D01*
X144690000Y-77790000D02*
X144690000Y-83790000D01*
X149130000Y-73430000D02*
X149130000Y-75250000D01*
X144050000Y-73430000D02*
X144050000Y-75250000D01*
X150085000Y-75250000D02*
X150720000Y-75885000D01*
X147230000Y-83790000D02*
X146590000Y-83790000D01*
X149130000Y-77790000D02*
X149130000Y-83790000D01*
X144050000Y-77790000D02*
X144050000Y-83790000D01*
X147230000Y-73430000D02*
X147230000Y-75250000D01*
X150720000Y-77790000D02*
X143100000Y-77790000D01*
X144690000Y-73430000D02*
X144050000Y-73430000D01*
D12*
X149560000Y-37720000D02*
X147860000Y-37720000D01*
X147860000Y-37720000D02*
X147860000Y-35120000D01*
X149560000Y-35120000D02*
X149560000Y-37720000D01*
X147860000Y-35120000D02*
X149560000Y-35120000D01*
X141710000Y-54775000D02*
X144310000Y-54775000D01*
X144310000Y-54775000D02*
X144310000Y-56475000D01*
X141710000Y-56475000D02*
X141710000Y-54775000D01*
X144310000Y-56475000D02*
X141710000Y-56475000D01*
X148440000Y-56950000D02*
X146740000Y-56950000D01*
X148440000Y-54350000D02*
X148440000Y-56950000D01*
X146740000Y-56950000D02*
X146740000Y-54350000D01*
X146740000Y-54350000D02*
X148440000Y-54350000D01*
D13*
X140770000Y-36920000D02*
X140270000Y-36920000D01*
X141370000Y-36920000D02*
X140770000Y-37320000D01*
X139620000Y-36020000D02*
X142420000Y-36020000D01*
X142420000Y-36020000D02*
X142420000Y-37820000D01*
X141770000Y-36920000D02*
X141370000Y-36920000D01*
X140770000Y-36520000D02*
X141370000Y-36920000D01*
X139620000Y-37820000D02*
X139620000Y-36020000D01*
X140770000Y-37320000D02*
X140770000Y-36520000D01*
X142420000Y-37820000D02*
X139620000Y-37820000D01*
X141370000Y-36920000D02*
X141370000Y-37470000D01*
X141370000Y-36920000D02*
X141370000Y-36370000D01*
D12*
X147200000Y-54540000D02*
X147200000Y-51940000D01*
X147200000Y-51940000D02*
X148900000Y-51940000D01*
X148900000Y-54540000D02*
X147200000Y-54540000D01*
X148900000Y-51940000D02*
X148900000Y-54540000D01*
X144155000Y-37720000D02*
X144155000Y-35120000D01*
X145855000Y-37720000D02*
X144155000Y-37720000D01*
X145855000Y-35120000D02*
X145855000Y-37720000D01*
X144155000Y-35120000D02*
X145855000Y-35120000D01*
X143060000Y-58640000D02*
X140460000Y-58640000D01*
X140460000Y-56940000D02*
X143060000Y-56940000D01*
X143060000Y-56940000D02*
X143060000Y-58640000D01*
X140460000Y-58640000D02*
X140460000Y-56940000D01*
X144310000Y-55525000D02*
X141710000Y-55525000D01*
X141710000Y-53825000D02*
X144310000Y-53825000D01*
X144310000Y-53825000D02*
X144310000Y-55525000D01*
X141710000Y-55525000D02*
X141710000Y-53825000D01*
D13*
X152140000Y-44090000D02*
X152140000Y-47290000D01*
X152140000Y-47290000D02*
X150540000Y-47290000D01*
X150540000Y-47290000D02*
X150540000Y-44090000D01*
X150540000Y-44090000D02*
X152140000Y-44090000D01*
D12*
X150410000Y-43660000D02*
X150410000Y-41960000D01*
X153010000Y-41960000D02*
X153010000Y-43660000D01*
X150410000Y-41960000D02*
X153010000Y-41960000D01*
X153010000Y-43660000D02*
X150410000Y-43660000D01*
X141710000Y-57440000D02*
X141710000Y-55740000D01*
X141710000Y-55740000D02*
X144310000Y-55740000D01*
X144310000Y-55740000D02*
X144310000Y-57440000D01*
X144310000Y-57440000D02*
X141710000Y-57440000D01*
X146910000Y-35120000D02*
X148610000Y-35120000D01*
X146910000Y-37720000D02*
X146910000Y-35120000D01*
X148610000Y-35120000D02*
X148610000Y-37720000D01*
X148610000Y-37720000D02*
X146910000Y-37720000D01*
X148150000Y-54540000D02*
X148150000Y-51940000D01*
X148150000Y-51940000D02*
X149850000Y-51940000D01*
X149850000Y-54540000D02*
X148150000Y-54540000D01*
X149850000Y-51940000D02*
X149850000Y-54540000D01*
X150580000Y-68040000D02*
X150580000Y-70640000D01*
X148880000Y-68040000D02*
X150580000Y-68040000D01*
X148880000Y-70640000D02*
X148880000Y-68040000D01*
X150580000Y-70640000D02*
X148880000Y-70640000D01*
X145310000Y-68310000D02*
X145310000Y-65710000D01*
X147010000Y-65710000D02*
X147010000Y-68310000D01*
X145310000Y-65710000D02*
X147010000Y-65710000D01*
X147010000Y-68310000D02*
X145310000Y-68310000D01*
X148910000Y-68310000D02*
X147210000Y-68310000D01*
X148910000Y-65710000D02*
X148910000Y-68310000D01*
X147210000Y-65710000D02*
X148910000Y-65710000D01*
X147210000Y-68310000D02*
X147210000Y-65710000D01*
X142400000Y-44560000D02*
X140700000Y-44560000D01*
X142400000Y-41960000D02*
X142400000Y-44560000D01*
X140700000Y-44560000D02*
X140700000Y-41960000D01*
X140700000Y-41960000D02*
X142400000Y-41960000D01*
X145110000Y-35120000D02*
X146810000Y-35120000D01*
X146810000Y-37720000D02*
X145110000Y-37720000D01*
X145110000Y-37720000D02*
X145110000Y-35120000D01*
X146810000Y-35120000D02*
X146810000Y-37720000D01*
X148810000Y-35120000D02*
X150510000Y-35120000D01*
X150510000Y-35120000D02*
X150510000Y-37720000D01*
X150510000Y-37720000D02*
X148810000Y-37720000D01*
X148810000Y-37720000D02*
X148810000Y-35120000D01*
M02*
