M48
; DRILL file {KiCad (6.0.4)} date Tue May 17 22:22:31 2022
; FORMAT={-:-/ absolute / metric / decimal}
; #@! TF.CreationDate,2022-05-17T22:22:31-06:00
; #@! TF.GenerationSoftware,Kicad,Pcbnew,(6.0.4)
; #@! TF.FileFunction,Plated,1,4,PTH
FMAT,2
METRIC
; #@! TA.AperFunction,Plated,PTH,ViaDrill
T1C0.200
; #@! TA.AperFunction,Plated,PTH,ViaDrill
T2C0.300
; #@! TA.AperFunction,Plated,PTH,ComponentDrill
T3C0.650
; #@! TA.AperFunction,Plated,PTH,ComponentDrill
T4C1.000
%
G90
G05
T1
X138.02Y-29.3
X138.02Y-31.84
X138.02Y-34.38
X138.02Y-36.92
X138.02Y-39.46
X138.02Y-42.0
X138.02Y-44.54
X138.02Y-47.08
X138.02Y-49.62
X138.02Y-52.16
X138.02Y-54.7
X138.02Y-57.24
X138.02Y-59.78
X138.02Y-62.32
X138.02Y-64.86
X138.02Y-67.4
X138.02Y-69.94
X138.02Y-72.48
X141.4Y-62.89
X141.42Y-56.4
X141.55Y-41.98
X142.12Y-62.89
X142.13Y-42.96
X142.13Y-43.68
X142.33Y-70.74
X143.03Y-50.18
X143.32Y-70.29
X143.75Y-50.17
X143.76Y-68.41
X144.09Y-37.58
X144.82Y-60.69
X144.83Y-59.96
X144.83Y-61.43
X144.83Y-62.15
X144.83Y-62.88
X144.85Y-37.58
X145.31Y-51.53
X145.34Y-59.21
X145.56Y-59.95
X145.56Y-60.657
X145.56Y-61.365
X145.56Y-62.072
X145.56Y-62.78
X145.61Y-37.58
X145.883Y-63.84
X146.042Y-59.018
X146.63Y-63.81
X146.64Y-54.62
X147.27Y-58.54
X147.4Y-71.06
X147.52Y-63.55
X147.6Y-54.62
X147.94Y-58.81
X148.06Y-68.02
X148.06Y-69.01
X148.23Y-63.7
X148.26Y-59.95
X148.26Y-60.682
X148.26Y-61.415
X148.26Y-62.147
X148.26Y-62.88
X148.665Y-42.555
X148.715Y-58.614
X148.98Y-59.94
X148.98Y-60.68
X148.98Y-61.41
X148.98Y-62.9
X148.99Y-62.16
X149.42Y-55.15
X149.44Y-58.74
X149.98Y-65.59
X150.18Y-67.79
X150.37Y-55.15
X150.63Y-65.9
X150.922Y-66.561
X151.65Y-62.86
X151.85Y-57.0
X152.38Y-62.86
X155.8Y-29.3
X155.8Y-31.84
X155.8Y-34.38
X155.8Y-36.92
X155.8Y-39.46
X155.8Y-42.0
X155.8Y-44.54
X155.8Y-47.08
X155.8Y-49.62
X155.8Y-52.16
X155.8Y-54.7
X155.8Y-57.24
X155.8Y-59.78
X155.8Y-62.32
X155.8Y-64.86
X155.8Y-67.4
X155.8Y-69.94
X155.8Y-72.48
T2
X141.63Y-37.91
X141.89Y-36.93
X142.19Y-35.19
X143.19Y-35.19
X148.06Y-39.62
X148.07Y-38.53
X149.01Y-38.53
X149.02Y-39.66
X150.678Y-35.192
X151.34Y-46.23
X151.35Y-49.69
X151.6Y-35.21
X151.86Y-36.89
X152.06Y-37.7
X152.22Y-42.1
X154.99Y-34.55
T4
X138.02Y-28.03
X138.02Y-30.57
X138.02Y-33.11
X138.02Y-35.65
X138.02Y-38.19
X138.02Y-40.73
X138.02Y-43.27
X138.02Y-45.81
X138.02Y-48.35
X138.02Y-50.89
X138.02Y-53.43
X138.02Y-55.97
X138.02Y-58.51
X138.02Y-61.05
X138.02Y-63.59
X138.02Y-66.13
X138.02Y-68.67
X138.02Y-71.21
X138.02Y-73.75
X144.37Y-73.75
X146.91Y-73.75
X149.45Y-73.75
X155.8Y-28.03
X155.8Y-30.57
X155.8Y-33.11
X155.8Y-35.65
X155.8Y-38.19
X155.8Y-40.73
X155.8Y-43.27
X155.8Y-45.81
X155.8Y-48.35
X155.8Y-50.89
X155.8Y-53.43
X155.8Y-55.97
X155.8Y-58.51
X155.8Y-61.05
X155.8Y-63.59
X155.8Y-66.13
X155.8Y-68.67
X155.8Y-71.21
X155.8Y-73.75
T3
X142.59Y-29.6G85X142.59Y-29.0
G05
X142.59Y-34.03G85X142.59Y-32.93
G05
X151.23Y-29.6G85X151.23Y-29.0
G05
X151.23Y-34.03G85X151.23Y-32.93
G05
T0
M30
