%FSLAX45Y45*%
G04 Gerber Fmt 4.5, Leading zero omitted, Abs format (unit mm)*
G04 Created by KiCad (PCBNEW (6.0.4)) date 2022-05-18 15:57:31*
%MOMM*%
%LPD*%
G01*
G04 APERTURE LIST*
%TA.AperFunction,Profile*%
%ADD10C,0.100000*%
%TD*%
%ADD11C,0.200000*%
%ADD12C,0.020000*%
%ADD13C,0.030000*%
%ADD14C,0.065000*%
%ADD15C,0.100000*%
G04 APERTURE END LIST*
D10*
X13802000Y-2676000D02*
G75*
G03*
X13675000Y-2803000I0J-127000D01*
G01*
X15707000Y-2803000D02*
G75*
G03*
X15580000Y-2676000I-127000J0D01*
G01*
X13675000Y-2803000D02*
X13675000Y-7375000D01*
X15707000Y-7375000D02*
X15707000Y-2803000D01*
X15580000Y-2676000D02*
X13802000Y-2676000D01*
X15580000Y-7502000D02*
G75*
G03*
X15707000Y-7375000I0J127000D01*
G01*
X13675000Y-7375000D02*
G75*
G03*
X13802000Y-7502000I127000J0D01*
G01*
X13802000Y-7502000D02*
X15580000Y-7502000D01*
D11*
D12*
X13792000Y-2920000D02*
X13812000Y-2940000D01*
X13812000Y-2920000D02*
X13792000Y-2940000D01*
X13792000Y-3174000D02*
X13812000Y-3194000D01*
X13812000Y-3174000D02*
X13792000Y-3194000D01*
X13792000Y-3428000D02*
X13812000Y-3448000D01*
X13812000Y-3428000D02*
X13792000Y-3448000D01*
X13792000Y-3682000D02*
X13812000Y-3702000D01*
X13812000Y-3682000D02*
X13792000Y-3702000D01*
X13792000Y-3936000D02*
X13812000Y-3956000D01*
X13812000Y-3936000D02*
X13792000Y-3956000D01*
X13792000Y-4190000D02*
X13812000Y-4210000D01*
X13812000Y-4190000D02*
X13792000Y-4210000D01*
X13792000Y-4444000D02*
X13812000Y-4464000D01*
X13812000Y-4444000D02*
X13792000Y-4464000D01*
X13792000Y-4698000D02*
X13812000Y-4718000D01*
X13812000Y-4698000D02*
X13792000Y-4718000D01*
X13792000Y-4952000D02*
X13812000Y-4972000D01*
X13812000Y-4952000D02*
X13792000Y-4972000D01*
X13792000Y-5206000D02*
X13812000Y-5226000D01*
X13812000Y-5206000D02*
X13792000Y-5226000D01*
X13792000Y-5460000D02*
X13812000Y-5480000D01*
X13812000Y-5460000D02*
X13792000Y-5480000D01*
X13792000Y-5714000D02*
X13812000Y-5734000D01*
X13812000Y-5714000D02*
X13792000Y-5734000D01*
X13792000Y-5968000D02*
X13812000Y-5988000D01*
X13812000Y-5968000D02*
X13792000Y-5988000D01*
X13792000Y-6222000D02*
X13812000Y-6242000D01*
X13812000Y-6222000D02*
X13792000Y-6242000D01*
X13792000Y-6476000D02*
X13812000Y-6496000D01*
X13812000Y-6476000D02*
X13792000Y-6496000D01*
X13792000Y-6730000D02*
X13812000Y-6750000D01*
X13812000Y-6730000D02*
X13792000Y-6750000D01*
X13792000Y-6984000D02*
X13812000Y-7004000D01*
X13812000Y-6984000D02*
X13792000Y-7004000D01*
X13792000Y-7238000D02*
X13812000Y-7258000D01*
X13812000Y-7238000D02*
X13792000Y-7258000D01*
X14130000Y-6279000D02*
X14150000Y-6299000D01*
X14150000Y-6279000D02*
X14130000Y-6299000D01*
X14132000Y-5630000D02*
X14152000Y-5650000D01*
X14152000Y-5630000D02*
X14132000Y-5650000D01*
X14145000Y-4188000D02*
X14165000Y-4208000D01*
X14165000Y-4188000D02*
X14145000Y-4208000D01*
X14202000Y-6279000D02*
X14222000Y-6299000D01*
X14222000Y-6279000D02*
X14202000Y-6299000D01*
X14203000Y-4286000D02*
X14223000Y-4306000D01*
X14223000Y-4286000D02*
X14203000Y-4306000D01*
X14203000Y-4358000D02*
X14223000Y-4378000D01*
X14223000Y-4358000D02*
X14203000Y-4378000D01*
X14223000Y-7064000D02*
X14243000Y-7084000D01*
X14243000Y-7064000D02*
X14223000Y-7084000D01*
X14293000Y-5008000D02*
X14313000Y-5028000D01*
X14313000Y-5008000D02*
X14293000Y-5028000D01*
X14322000Y-7019000D02*
X14342000Y-7039000D01*
X14342000Y-7019000D02*
X14322000Y-7039000D01*
X14365000Y-5007000D02*
X14385000Y-5027000D01*
X14385000Y-5007000D02*
X14365000Y-5027000D01*
X14366000Y-6831000D02*
X14386000Y-6851000D01*
X14386000Y-6831000D02*
X14366000Y-6851000D01*
X14399000Y-3748000D02*
X14419000Y-3768000D01*
X14419000Y-3748000D02*
X14399000Y-3768000D01*
X14472000Y-6059000D02*
X14492000Y-6079000D01*
X14492000Y-6059000D02*
X14472000Y-6079000D01*
X14473000Y-5986000D02*
X14493000Y-6006000D01*
X14493000Y-5986000D02*
X14473000Y-6006000D01*
X14473000Y-6133000D02*
X14493000Y-6153000D01*
X14493000Y-6133000D02*
X14473000Y-6153000D01*
X14473000Y-6205000D02*
X14493000Y-6225000D01*
X14493000Y-6205000D02*
X14473000Y-6225000D01*
X14473000Y-6278000D02*
X14493000Y-6298000D01*
X14493000Y-6278000D02*
X14473000Y-6298000D01*
X14475000Y-3748000D02*
X14495000Y-3768000D01*
X14495000Y-3748000D02*
X14475000Y-3768000D01*
X14521000Y-5143000D02*
X14541000Y-5163000D01*
X14541000Y-5143000D02*
X14521000Y-5163000D01*
X14524000Y-5911000D02*
X14544000Y-5931000D01*
X14544000Y-5911000D02*
X14524000Y-5931000D01*
X14546000Y-5985000D02*
X14566000Y-6005000D01*
X14566000Y-5985000D02*
X14546000Y-6005000D01*
X14546000Y-6055750D02*
X14566000Y-6075750D01*
X14566000Y-6055750D02*
X14546000Y-6075750D01*
X14546000Y-6126500D02*
X14566000Y-6146500D01*
X14566000Y-6126500D02*
X14546000Y-6146500D01*
X14546000Y-6197250D02*
X14566000Y-6217250D01*
X14566000Y-6197250D02*
X14546000Y-6217250D01*
X14546000Y-6268000D02*
X14566000Y-6288000D01*
X14566000Y-6268000D02*
X14546000Y-6288000D01*
X14551000Y-3748000D02*
X14571000Y-3768000D01*
X14571000Y-3748000D02*
X14551000Y-3768000D01*
X14578309Y-6374010D02*
X14598309Y-6394010D01*
X14598309Y-6374010D02*
X14578309Y-6394010D01*
X14594240Y-5891792D02*
X14614240Y-5911792D01*
X14614240Y-5891792D02*
X14594240Y-5911792D01*
X14653000Y-6371000D02*
X14673000Y-6391000D01*
X14673000Y-6371000D02*
X14653000Y-6391000D01*
X14654000Y-5452000D02*
X14674000Y-5472000D01*
X14674000Y-5452000D02*
X14654000Y-5472000D01*
X14717000Y-5844000D02*
X14737000Y-5864000D01*
X14737000Y-5844000D02*
X14717000Y-5864000D01*
X14730000Y-7096000D02*
X14750000Y-7116000D01*
X14750000Y-7096000D02*
X14730000Y-7116000D01*
X14742000Y-6345000D02*
X14762000Y-6365000D01*
X14762000Y-6345000D02*
X14742000Y-6365000D01*
X14750000Y-5452000D02*
X14770000Y-5472000D01*
X14770000Y-5452000D02*
X14750000Y-5472000D01*
X14784000Y-5871000D02*
X14804000Y-5891000D01*
X14804000Y-5871000D02*
X14784000Y-5891000D01*
X14796000Y-6792000D02*
X14816000Y-6812000D01*
X14816000Y-6792000D02*
X14796000Y-6812000D01*
X14796000Y-6891000D02*
X14816000Y-6911000D01*
X14816000Y-6891000D02*
X14796000Y-6911000D01*
X14813000Y-6360000D02*
X14833000Y-6380000D01*
X14833000Y-6360000D02*
X14813000Y-6380000D01*
X14816000Y-5985000D02*
X14836000Y-6005000D01*
X14836000Y-5985000D02*
X14816000Y-6005000D01*
X14816000Y-6058250D02*
X14836000Y-6078250D01*
X14836000Y-6058250D02*
X14816000Y-6078250D01*
X14816000Y-6131500D02*
X14836000Y-6151500D01*
X14836000Y-6131500D02*
X14816000Y-6151500D01*
X14816000Y-6204750D02*
X14836000Y-6224750D01*
X14836000Y-6204750D02*
X14816000Y-6224750D01*
X14816000Y-6278000D02*
X14836000Y-6298000D01*
X14836000Y-6278000D02*
X14816000Y-6298000D01*
X14856500Y-4245500D02*
X14876500Y-4265500D01*
X14876500Y-4245500D02*
X14856500Y-4265500D01*
X14861502Y-5851358D02*
X14881502Y-5871358D01*
X14881502Y-5851358D02*
X14861502Y-5871358D01*
X14888000Y-5984000D02*
X14908000Y-6004000D01*
X14908000Y-5984000D02*
X14888000Y-6004000D01*
X14888000Y-6058000D02*
X14908000Y-6078000D01*
X14908000Y-6058000D02*
X14888000Y-6078000D01*
X14888000Y-6131000D02*
X14908000Y-6151000D01*
X14908000Y-6131000D02*
X14888000Y-6151000D01*
X14888000Y-6280000D02*
X14908000Y-6300000D01*
X14908000Y-6280000D02*
X14888000Y-6300000D01*
X14889000Y-6206000D02*
X14909000Y-6226000D01*
X14909000Y-6206000D02*
X14889000Y-6226000D01*
X14932000Y-5505000D02*
X14952000Y-5525000D01*
X14952000Y-5505000D02*
X14932000Y-5525000D01*
X14934000Y-5864000D02*
X14954000Y-5884000D01*
X14954000Y-5864000D02*
X14934000Y-5884000D01*
X14988000Y-6549000D02*
X15008000Y-6569000D01*
X15008000Y-6549000D02*
X14988000Y-6569000D01*
X15008000Y-6769000D02*
X15028000Y-6789000D01*
X15028000Y-6769000D02*
X15008000Y-6789000D01*
X15027000Y-5505000D02*
X15047000Y-5525000D01*
X15047000Y-5505000D02*
X15027000Y-5525000D01*
X15053000Y-6580000D02*
X15073000Y-6600000D01*
X15073000Y-6580000D02*
X15053000Y-6600000D01*
X15082188Y-6646075D02*
X15102188Y-6666075D01*
X15102188Y-6646075D02*
X15082188Y-6666075D01*
X15155000Y-6276000D02*
X15175000Y-6296000D01*
X15175000Y-6276000D02*
X15155000Y-6296000D01*
X15175000Y-5690000D02*
X15195000Y-5710000D01*
X15195000Y-5690000D02*
X15175000Y-5710000D01*
X15228000Y-6276000D02*
X15248000Y-6296000D01*
X15248000Y-6276000D02*
X15228000Y-6296000D01*
X15570000Y-2920000D02*
X15590000Y-2940000D01*
X15590000Y-2920000D02*
X15570000Y-2940000D01*
X15570000Y-3174000D02*
X15590000Y-3194000D01*
X15590000Y-3174000D02*
X15570000Y-3194000D01*
X15570000Y-3428000D02*
X15590000Y-3448000D01*
X15590000Y-3428000D02*
X15570000Y-3448000D01*
X15570000Y-3682000D02*
X15590000Y-3702000D01*
X15590000Y-3682000D02*
X15570000Y-3702000D01*
X15570000Y-3936000D02*
X15590000Y-3956000D01*
X15590000Y-3936000D02*
X15570000Y-3956000D01*
X15570000Y-4190000D02*
X15590000Y-4210000D01*
X15590000Y-4190000D02*
X15570000Y-4210000D01*
X15570000Y-4444000D02*
X15590000Y-4464000D01*
X15590000Y-4444000D02*
X15570000Y-4464000D01*
X15570000Y-4698000D02*
X15590000Y-4718000D01*
X15590000Y-4698000D02*
X15570000Y-4718000D01*
X15570000Y-4952000D02*
X15590000Y-4972000D01*
X15590000Y-4952000D02*
X15570000Y-4972000D01*
X15570000Y-5206000D02*
X15590000Y-5226000D01*
X15590000Y-5206000D02*
X15570000Y-5226000D01*
X15570000Y-5460000D02*
X15590000Y-5480000D01*
X15590000Y-5460000D02*
X15570000Y-5480000D01*
X15570000Y-5714000D02*
X15590000Y-5734000D01*
X15590000Y-5714000D02*
X15570000Y-5734000D01*
X15570000Y-5968000D02*
X15590000Y-5988000D01*
X15590000Y-5968000D02*
X15570000Y-5988000D01*
X15570000Y-6222000D02*
X15590000Y-6242000D01*
X15590000Y-6222000D02*
X15570000Y-6242000D01*
X15570000Y-6476000D02*
X15590000Y-6496000D01*
X15590000Y-6476000D02*
X15570000Y-6496000D01*
X15570000Y-6730000D02*
X15590000Y-6750000D01*
X15590000Y-6730000D02*
X15570000Y-6750000D01*
X15570000Y-6984000D02*
X15590000Y-7004000D01*
X15590000Y-6984000D02*
X15570000Y-7004000D01*
X15570000Y-7238000D02*
X15590000Y-7258000D01*
X15590000Y-7238000D02*
X15570000Y-7258000D01*
D13*
X14178000Y-3791000D02*
G75*
G03*
X14178000Y-3791000I-15000J0D01*
G01*
X14204000Y-3693000D02*
G75*
G03*
X14204000Y-3693000I-15000J0D01*
G01*
X14234000Y-3519000D02*
G75*
G03*
X14234000Y-3519000I-15000J0D01*
G01*
X14334000Y-3519000D02*
G75*
G03*
X14334000Y-3519000I-15000J0D01*
G01*
X14821000Y-3962000D02*
G75*
G03*
X14821000Y-3962000I-15000J0D01*
G01*
X14822000Y-3853000D02*
G75*
G03*
X14822000Y-3853000I-15000J0D01*
G01*
X14916000Y-3853000D02*
G75*
G03*
X14916000Y-3853000I-15000J0D01*
G01*
X14917000Y-3966000D02*
G75*
G03*
X14917000Y-3966000I-15000J0D01*
G01*
X15082826Y-3519224D02*
G75*
G03*
X15082826Y-3519224I-15000J0D01*
G01*
X15149000Y-4623000D02*
G75*
G03*
X15149000Y-4623000I-15000J0D01*
G01*
X15150000Y-4969000D02*
G75*
G03*
X15150000Y-4969000I-15000J0D01*
G01*
X15175000Y-3521000D02*
G75*
G03*
X15175000Y-3521000I-15000J0D01*
G01*
X15201000Y-3689000D02*
G75*
G03*
X15201000Y-3689000I-15000J0D01*
G01*
X15221000Y-3770000D02*
G75*
G03*
X15221000Y-3770000I-15000J0D01*
G01*
X15237000Y-4210000D02*
G75*
G03*
X15237000Y-4210000I-15000J0D01*
G01*
X15514000Y-3455000D02*
G75*
G03*
X15514000Y-3455000I-15000J0D01*
G01*
D14*
X14259000Y-2897500D02*
X14259000Y-2962500D01*
X14226500Y-2930000D02*
X14291500Y-2930000D01*
D11*
X14281500Y-2960000D02*
X14281500Y-2900000D01*
X14236500Y-2960000D02*
X14236500Y-2900000D01*
X14281500Y-2900000D02*
G75*
G03*
X14236500Y-2900000I-22500J0D01*
G01*
X14236500Y-2960000D02*
G75*
G03*
X14281500Y-2960000I22500J0D01*
G01*
D14*
X14259000Y-3315500D02*
X14259000Y-3380500D01*
X14226500Y-3348000D02*
X14291500Y-3348000D01*
D11*
X14281500Y-3403000D02*
X14281500Y-3293000D01*
X14236500Y-3403000D02*
X14236500Y-3293000D01*
X14281500Y-3293000D02*
G75*
G03*
X14236500Y-3293000I-22500J0D01*
G01*
X14236500Y-3403000D02*
G75*
G03*
X14281500Y-3403000I22500J0D01*
G01*
D14*
X15123000Y-2897500D02*
X15123000Y-2962500D01*
X15090500Y-2930000D02*
X15155500Y-2930000D01*
D11*
X15145500Y-2960000D02*
X15145500Y-2900000D01*
X15100500Y-2960000D02*
X15100500Y-2900000D01*
X15145500Y-2900000D02*
G75*
G03*
X15100500Y-2900000I-22500J0D01*
G01*
X15100500Y-2960000D02*
G75*
G03*
X15145500Y-2960000I22500J0D01*
G01*
D14*
X15123000Y-3315500D02*
X15123000Y-3380500D01*
X15090500Y-3348000D02*
X15155500Y-3348000D01*
D11*
X15145500Y-3403000D02*
X15145500Y-3293000D01*
X15100500Y-3403000D02*
X15100500Y-3293000D01*
X15145500Y-3293000D02*
G75*
G03*
X15100500Y-3293000I-22500J0D01*
G01*
X15100500Y-3403000D02*
G75*
G03*
X15145500Y-3403000I22500J0D01*
G01*
D15*
X13837356Y-2838356D02*
X13837356Y-2767644D01*
X13766644Y-2767644D01*
X13766644Y-2838356D01*
X13837356Y-2838356D01*
X13837356Y-3092356D02*
X13837356Y-3021644D01*
X13766644Y-3021644D01*
X13766644Y-3092356D01*
X13837356Y-3092356D01*
X13837356Y-3346356D02*
X13837356Y-3275644D01*
X13766644Y-3275644D01*
X13766644Y-3346356D01*
X13837356Y-3346356D01*
X13837356Y-3600356D02*
X13837356Y-3529644D01*
X13766644Y-3529644D01*
X13766644Y-3600356D01*
X13837356Y-3600356D01*
X13837356Y-3854356D02*
X13837356Y-3783644D01*
X13766644Y-3783644D01*
X13766644Y-3854356D01*
X13837356Y-3854356D01*
X13837356Y-4108356D02*
X13837356Y-4037644D01*
X13766644Y-4037644D01*
X13766644Y-4108356D01*
X13837356Y-4108356D01*
X13837356Y-4362356D02*
X13837356Y-4291644D01*
X13766644Y-4291644D01*
X13766644Y-4362356D01*
X13837356Y-4362356D01*
X13837356Y-4616356D02*
X13837356Y-4545644D01*
X13766644Y-4545644D01*
X13766644Y-4616356D01*
X13837356Y-4616356D01*
X13837356Y-4870356D02*
X13837356Y-4799644D01*
X13766644Y-4799644D01*
X13766644Y-4870356D01*
X13837356Y-4870356D01*
X13837356Y-5124356D02*
X13837356Y-5053644D01*
X13766644Y-5053644D01*
X13766644Y-5124356D01*
X13837356Y-5124356D01*
X13837356Y-5378356D02*
X13837356Y-5307644D01*
X13766644Y-5307644D01*
X13766644Y-5378356D01*
X13837356Y-5378356D01*
X13837356Y-5632356D02*
X13837356Y-5561644D01*
X13766644Y-5561644D01*
X13766644Y-5632356D01*
X13837356Y-5632356D01*
X13837356Y-5886356D02*
X13837356Y-5815644D01*
X13766644Y-5815644D01*
X13766644Y-5886356D01*
X13837356Y-5886356D01*
X13837356Y-6140356D02*
X13837356Y-6069644D01*
X13766644Y-6069644D01*
X13766644Y-6140356D01*
X13837356Y-6140356D01*
X13837356Y-6394356D02*
X13837356Y-6323644D01*
X13766644Y-6323644D01*
X13766644Y-6394356D01*
X13837356Y-6394356D01*
X13837356Y-6648356D02*
X13837356Y-6577644D01*
X13766644Y-6577644D01*
X13766644Y-6648356D01*
X13837356Y-6648356D01*
X13837356Y-6902356D02*
X13837356Y-6831644D01*
X13766644Y-6831644D01*
X13766644Y-6902356D01*
X13837356Y-6902356D01*
X13837356Y-7156356D02*
X13837356Y-7085644D01*
X13766644Y-7085644D01*
X13766644Y-7156356D01*
X13837356Y-7156356D01*
X13837356Y-7410356D02*
X13837356Y-7339644D01*
X13766644Y-7339644D01*
X13766644Y-7410356D01*
X13837356Y-7410356D01*
X14472356Y-7410356D02*
X14472356Y-7339644D01*
X14401644Y-7339644D01*
X14401644Y-7410356D01*
X14472356Y-7410356D01*
X14726356Y-7410356D02*
X14726356Y-7339644D01*
X14655644Y-7339644D01*
X14655644Y-7410356D01*
X14726356Y-7410356D01*
X14980356Y-7410356D02*
X14980356Y-7339644D01*
X14909644Y-7339644D01*
X14909644Y-7410356D01*
X14980356Y-7410356D01*
X15615356Y-2838356D02*
X15615356Y-2767644D01*
X15544644Y-2767644D01*
X15544644Y-2838356D01*
X15615356Y-2838356D01*
X15615356Y-3092356D02*
X15615356Y-3021644D01*
X15544644Y-3021644D01*
X15544644Y-3092356D01*
X15615356Y-3092356D01*
X15615356Y-3346356D02*
X15615356Y-3275644D01*
X15544644Y-3275644D01*
X15544644Y-3346356D01*
X15615356Y-3346356D01*
X15615356Y-3600356D02*
X15615356Y-3529644D01*
X15544644Y-3529644D01*
X15544644Y-3600356D01*
X15615356Y-3600356D01*
X15615356Y-3854356D02*
X15615356Y-3783644D01*
X15544644Y-3783644D01*
X15544644Y-3854356D01*
X15615356Y-3854356D01*
X15615356Y-4108356D02*
X15615356Y-4037644D01*
X15544644Y-4037644D01*
X15544644Y-4108356D01*
X15615356Y-4108356D01*
X15615356Y-4362356D02*
X15615356Y-4291644D01*
X15544644Y-4291644D01*
X15544644Y-4362356D01*
X15615356Y-4362356D01*
X15615356Y-4616356D02*
X15615356Y-4545644D01*
X15544644Y-4545644D01*
X15544644Y-4616356D01*
X15615356Y-4616356D01*
X15615356Y-4870356D02*
X15615356Y-4799644D01*
X15544644Y-4799644D01*
X15544644Y-4870356D01*
X15615356Y-4870356D01*
X15615356Y-5124356D02*
X15615356Y-5053644D01*
X15544644Y-5053644D01*
X15544644Y-5124356D01*
X15615356Y-5124356D01*
X15615356Y-5378356D02*
X15615356Y-5307644D01*
X15544644Y-5307644D01*
X15544644Y-5378356D01*
X15615356Y-5378356D01*
X15615356Y-5632356D02*
X15615356Y-5561644D01*
X15544644Y-5561644D01*
X15544644Y-5632356D01*
X15615356Y-5632356D01*
X15615356Y-5886356D02*
X15615356Y-5815644D01*
X15544644Y-5815644D01*
X15544644Y-5886356D01*
X15615356Y-5886356D01*
X15615356Y-6140356D02*
X15615356Y-6069644D01*
X15544644Y-6069644D01*
X15544644Y-6140356D01*
X15615356Y-6140356D01*
X15615356Y-6394356D02*
X15615356Y-6323644D01*
X15544644Y-6323644D01*
X15544644Y-6394356D01*
X15615356Y-6394356D01*
X15615356Y-6648356D02*
X15615356Y-6577644D01*
X15544644Y-6577644D01*
X15544644Y-6648356D01*
X15615356Y-6648356D01*
X15615356Y-6902356D02*
X15615356Y-6831644D01*
X15544644Y-6831644D01*
X15544644Y-6902356D01*
X15615356Y-6902356D01*
X15615356Y-7156356D02*
X15615356Y-7085644D01*
X15544644Y-7085644D01*
X15544644Y-7156356D01*
X15615356Y-7156356D01*
X15615356Y-7410356D02*
X15615356Y-7339644D01*
X15544644Y-7339644D01*
X15544644Y-7410356D01*
X15615356Y-7410356D01*
D11*
X13927619Y-7817476D02*
X13927619Y-7617476D01*
X13975238Y-7617476D01*
X14003809Y-7627000D01*
X14022857Y-7646048D01*
X14032381Y-7665095D01*
X14041905Y-7703190D01*
X14041905Y-7731762D01*
X14032381Y-7769857D01*
X14022857Y-7788905D01*
X14003809Y-7807952D01*
X13975238Y-7817476D01*
X13927619Y-7817476D01*
X14127619Y-7817476D02*
X14127619Y-7684143D01*
X14127619Y-7722238D02*
X14137143Y-7703190D01*
X14146667Y-7693667D01*
X14165714Y-7684143D01*
X14184762Y-7684143D01*
X14251428Y-7817476D02*
X14251428Y-7684143D01*
X14251428Y-7617476D02*
X14241905Y-7627000D01*
X14251428Y-7636524D01*
X14260952Y-7627000D01*
X14251428Y-7617476D01*
X14251428Y-7636524D01*
X14375238Y-7817476D02*
X14356190Y-7807952D01*
X14346667Y-7788905D01*
X14346667Y-7617476D01*
X14480000Y-7817476D02*
X14460952Y-7807952D01*
X14451428Y-7788905D01*
X14451428Y-7617476D01*
X14708571Y-7817476D02*
X14708571Y-7617476D01*
X14775238Y-7760333D01*
X14841905Y-7617476D01*
X14841905Y-7817476D01*
X15022857Y-7817476D02*
X15022857Y-7712714D01*
X15013333Y-7693667D01*
X14994286Y-7684143D01*
X14956190Y-7684143D01*
X14937143Y-7693667D01*
X15022857Y-7807952D02*
X15003809Y-7817476D01*
X14956190Y-7817476D01*
X14937143Y-7807952D01*
X14927619Y-7788905D01*
X14927619Y-7769857D01*
X14937143Y-7750809D01*
X14956190Y-7741286D01*
X15003809Y-7741286D01*
X15022857Y-7731762D01*
X15118095Y-7684143D02*
X15118095Y-7884143D01*
X15118095Y-7693667D02*
X15137143Y-7684143D01*
X15175238Y-7684143D01*
X15194286Y-7693667D01*
X15203809Y-7703190D01*
X15213333Y-7722238D01*
X15213333Y-7779381D01*
X15203809Y-7798428D01*
X15194286Y-7807952D01*
X15175238Y-7817476D01*
X15137143Y-7817476D01*
X15118095Y-7807952D01*
X15299048Y-7798428D02*
X15308571Y-7807952D01*
X15299048Y-7817476D01*
X15289524Y-7807952D01*
X15299048Y-7798428D01*
X15299048Y-7817476D01*
X15299048Y-7693667D02*
X15308571Y-7703190D01*
X15299048Y-7712714D01*
X15289524Y-7703190D01*
X15299048Y-7693667D01*
X15299048Y-7712714D01*
D12*
X13650000Y-8137000D02*
X13670000Y-8157000D01*
X13670000Y-8137000D02*
X13650000Y-8157000D01*
D11*
X13965714Y-8037476D02*
X13984762Y-8037476D01*
X14003809Y-8047000D01*
X14013333Y-8056524D01*
X14022857Y-8075571D01*
X14032381Y-8113667D01*
X14032381Y-8161286D01*
X14022857Y-8199381D01*
X14013333Y-8218428D01*
X14003809Y-8227952D01*
X13984762Y-8237476D01*
X13965714Y-8237476D01*
X13946667Y-8227952D01*
X13937143Y-8218428D01*
X13927619Y-8199381D01*
X13918095Y-8161286D01*
X13918095Y-8113667D01*
X13927619Y-8075571D01*
X13937143Y-8056524D01*
X13946667Y-8047000D01*
X13965714Y-8037476D01*
X14118095Y-8218428D02*
X14127619Y-8227952D01*
X14118095Y-8237476D01*
X14108571Y-8227952D01*
X14118095Y-8218428D01*
X14118095Y-8237476D01*
X14203809Y-8056524D02*
X14213333Y-8047000D01*
X14232381Y-8037476D01*
X14280000Y-8037476D01*
X14299048Y-8047000D01*
X14308571Y-8056524D01*
X14318095Y-8075571D01*
X14318095Y-8094619D01*
X14308571Y-8123190D01*
X14194286Y-8237476D01*
X14318095Y-8237476D01*
X14441905Y-8037476D02*
X14460952Y-8037476D01*
X14480000Y-8047000D01*
X14489524Y-8056524D01*
X14499048Y-8075571D01*
X14508571Y-8113667D01*
X14508571Y-8161286D01*
X14499048Y-8199381D01*
X14489524Y-8218428D01*
X14480000Y-8227952D01*
X14460952Y-8237476D01*
X14441905Y-8237476D01*
X14422857Y-8227952D01*
X14413333Y-8218428D01*
X14403809Y-8199381D01*
X14394286Y-8161286D01*
X14394286Y-8113667D01*
X14403809Y-8075571D01*
X14413333Y-8056524D01*
X14422857Y-8047000D01*
X14441905Y-8037476D01*
X14632381Y-8037476D02*
X14651428Y-8037476D01*
X14670476Y-8047000D01*
X14680000Y-8056524D01*
X14689524Y-8075571D01*
X14699048Y-8113667D01*
X14699048Y-8161286D01*
X14689524Y-8199381D01*
X14680000Y-8218428D01*
X14670476Y-8227952D01*
X14651428Y-8237476D01*
X14632381Y-8237476D01*
X14613333Y-8227952D01*
X14603809Y-8218428D01*
X14594286Y-8199381D01*
X14584762Y-8161286D01*
X14584762Y-8113667D01*
X14594286Y-8075571D01*
X14603809Y-8056524D01*
X14613333Y-8047000D01*
X14632381Y-8037476D01*
X14784762Y-8237476D02*
X14784762Y-8104143D01*
X14784762Y-8123190D02*
X14794286Y-8113667D01*
X14813333Y-8104143D01*
X14841905Y-8104143D01*
X14860952Y-8113667D01*
X14870476Y-8132714D01*
X14870476Y-8237476D01*
X14870476Y-8132714D02*
X14880000Y-8113667D01*
X14899048Y-8104143D01*
X14927619Y-8104143D01*
X14946667Y-8113667D01*
X14956190Y-8132714D01*
X14956190Y-8237476D01*
X15051428Y-8237476D02*
X15051428Y-8104143D01*
X15051428Y-8123190D02*
X15060952Y-8113667D01*
X15080000Y-8104143D01*
X15108571Y-8104143D01*
X15127619Y-8113667D01*
X15137143Y-8132714D01*
X15137143Y-8237476D01*
X15137143Y-8132714D02*
X15146667Y-8113667D01*
X15165714Y-8104143D01*
X15194286Y-8104143D01*
X15213333Y-8113667D01*
X15222857Y-8132714D01*
X15222857Y-8237476D01*
X15613333Y-8027952D02*
X15441905Y-8285095D01*
X15870476Y-8037476D02*
X15889524Y-8037476D01*
X15908571Y-8047000D01*
X15918095Y-8056524D01*
X15927619Y-8075571D01*
X15937143Y-8113667D01*
X15937143Y-8161286D01*
X15927619Y-8199381D01*
X15918095Y-8218428D01*
X15908571Y-8227952D01*
X15889524Y-8237476D01*
X15870476Y-8237476D01*
X15851428Y-8227952D01*
X15841905Y-8218428D01*
X15832381Y-8199381D01*
X15822857Y-8161286D01*
X15822857Y-8113667D01*
X15832381Y-8075571D01*
X15841905Y-8056524D01*
X15851428Y-8047000D01*
X15870476Y-8037476D01*
X16022857Y-8218428D02*
X16032381Y-8227952D01*
X16022857Y-8237476D01*
X16013333Y-8227952D01*
X16022857Y-8218428D01*
X16022857Y-8237476D01*
X16156190Y-8037476D02*
X16175238Y-8037476D01*
X16194286Y-8047000D01*
X16203809Y-8056524D01*
X16213333Y-8075571D01*
X16222857Y-8113667D01*
X16222857Y-8161286D01*
X16213333Y-8199381D01*
X16203809Y-8218428D01*
X16194286Y-8227952D01*
X16175238Y-8237476D01*
X16156190Y-8237476D01*
X16137143Y-8227952D01*
X16127619Y-8218428D01*
X16118095Y-8199381D01*
X16108571Y-8161286D01*
X16108571Y-8113667D01*
X16118095Y-8075571D01*
X16127619Y-8056524D01*
X16137143Y-8047000D01*
X16156190Y-8037476D01*
X16346667Y-8037476D02*
X16365714Y-8037476D01*
X16384762Y-8047000D01*
X16394286Y-8056524D01*
X16403809Y-8075571D01*
X16413333Y-8113667D01*
X16413333Y-8161286D01*
X16403809Y-8199381D01*
X16394286Y-8218428D01*
X16384762Y-8227952D01*
X16365714Y-8237476D01*
X16346667Y-8237476D01*
X16327619Y-8227952D01*
X16318095Y-8218428D01*
X16308571Y-8199381D01*
X16299048Y-8161286D01*
X16299048Y-8113667D01*
X16308571Y-8075571D01*
X16318095Y-8056524D01*
X16327619Y-8047000D01*
X16346667Y-8037476D01*
X16480000Y-8037476D02*
X16613333Y-8037476D01*
X16527619Y-8237476D01*
X16699048Y-8237476D02*
X16737143Y-8237476D01*
X16756190Y-8227952D01*
X16765714Y-8218428D01*
X16784762Y-8189857D01*
X16794286Y-8151762D01*
X16794286Y-8075571D01*
X16784762Y-8056524D01*
X16775238Y-8047000D01*
X16756190Y-8037476D01*
X16718095Y-8037476D01*
X16699048Y-8047000D01*
X16689524Y-8056524D01*
X16680000Y-8075571D01*
X16680000Y-8123190D01*
X16689524Y-8142238D01*
X16699048Y-8151762D01*
X16718095Y-8161286D01*
X16756190Y-8161286D01*
X16775238Y-8151762D01*
X16784762Y-8142238D01*
X16794286Y-8123190D01*
X16870476Y-8037476D02*
X16870476Y-8075571D01*
X16946667Y-8037476D02*
X16946667Y-8075571D01*
X17241905Y-8313667D02*
X17232381Y-8304143D01*
X17213333Y-8275571D01*
X17203810Y-8256524D01*
X17194286Y-8227952D01*
X17184762Y-8180333D01*
X17184762Y-8142238D01*
X17194286Y-8094619D01*
X17203810Y-8066048D01*
X17213333Y-8047000D01*
X17232381Y-8018428D01*
X17241905Y-8008905D01*
X17327619Y-8237476D02*
X17365714Y-8237476D01*
X17384762Y-8227952D01*
X17394286Y-8218428D01*
X17413333Y-8189857D01*
X17422857Y-8151762D01*
X17422857Y-8075571D01*
X17413333Y-8056524D01*
X17403810Y-8047000D01*
X17384762Y-8037476D01*
X17346667Y-8037476D01*
X17327619Y-8047000D01*
X17318095Y-8056524D01*
X17308571Y-8075571D01*
X17308571Y-8123190D01*
X17318095Y-8142238D01*
X17327619Y-8151762D01*
X17346667Y-8161286D01*
X17384762Y-8161286D01*
X17403810Y-8151762D01*
X17413333Y-8142238D01*
X17422857Y-8123190D01*
X17594286Y-8037476D02*
X17556190Y-8037476D01*
X17537143Y-8047000D01*
X17527619Y-8056524D01*
X17508571Y-8085095D01*
X17499048Y-8123190D01*
X17499048Y-8199381D01*
X17508571Y-8218428D01*
X17518095Y-8227952D01*
X17537143Y-8237476D01*
X17575238Y-8237476D01*
X17594286Y-8227952D01*
X17603810Y-8218428D01*
X17613333Y-8199381D01*
X17613333Y-8151762D01*
X17603810Y-8132714D01*
X17594286Y-8123190D01*
X17575238Y-8113667D01*
X17537143Y-8113667D01*
X17518095Y-8123190D01*
X17508571Y-8132714D01*
X17499048Y-8151762D01*
X17851429Y-8237476D02*
X17851429Y-8037476D01*
X17937143Y-8237476D02*
X17937143Y-8132714D01*
X17927619Y-8113667D01*
X17908571Y-8104143D01*
X17880000Y-8104143D01*
X17860952Y-8113667D01*
X17851429Y-8123190D01*
X18060952Y-8237476D02*
X18041905Y-8227952D01*
X18032381Y-8218428D01*
X18022857Y-8199381D01*
X18022857Y-8142238D01*
X18032381Y-8123190D01*
X18041905Y-8113667D01*
X18060952Y-8104143D01*
X18089524Y-8104143D01*
X18108571Y-8113667D01*
X18118095Y-8123190D01*
X18127619Y-8142238D01*
X18127619Y-8199381D01*
X18118095Y-8218428D01*
X18108571Y-8227952D01*
X18089524Y-8237476D01*
X18060952Y-8237476D01*
X18241905Y-8237476D02*
X18222857Y-8227952D01*
X18213333Y-8208905D01*
X18213333Y-8037476D01*
X18394286Y-8227952D02*
X18375238Y-8237476D01*
X18337143Y-8237476D01*
X18318095Y-8227952D01*
X18308571Y-8208905D01*
X18308571Y-8132714D01*
X18318095Y-8113667D01*
X18337143Y-8104143D01*
X18375238Y-8104143D01*
X18394286Y-8113667D01*
X18403810Y-8132714D01*
X18403810Y-8151762D01*
X18308571Y-8170809D01*
X18480000Y-8227952D02*
X18499048Y-8237476D01*
X18537143Y-8237476D01*
X18556190Y-8227952D01*
X18565714Y-8208905D01*
X18565714Y-8199381D01*
X18556190Y-8180333D01*
X18537143Y-8170809D01*
X18508571Y-8170809D01*
X18489524Y-8161286D01*
X18480000Y-8142238D01*
X18480000Y-8132714D01*
X18489524Y-8113667D01*
X18508571Y-8104143D01*
X18537143Y-8104143D01*
X18556190Y-8113667D01*
X18632381Y-8313667D02*
X18641905Y-8304143D01*
X18660952Y-8275571D01*
X18670476Y-8256524D01*
X18680000Y-8227952D01*
X18689524Y-8180333D01*
X18689524Y-8142238D01*
X18680000Y-8094619D01*
X18670476Y-8066048D01*
X18660952Y-8047000D01*
X18641905Y-8018428D01*
X18632381Y-8008905D01*
D13*
X13670000Y-8411000D02*
G75*
G03*
X13670000Y-8411000I-15000J0D01*
G01*
D11*
X13965714Y-8301476D02*
X13984762Y-8301476D01*
X14003809Y-8311000D01*
X14013333Y-8320524D01*
X14022857Y-8339571D01*
X14032381Y-8377667D01*
X14032381Y-8425286D01*
X14022857Y-8463381D01*
X14013333Y-8482429D01*
X14003809Y-8491952D01*
X13984762Y-8501476D01*
X13965714Y-8501476D01*
X13946667Y-8491952D01*
X13937143Y-8482429D01*
X13927619Y-8463381D01*
X13918095Y-8425286D01*
X13918095Y-8377667D01*
X13927619Y-8339571D01*
X13937143Y-8320524D01*
X13946667Y-8311000D01*
X13965714Y-8301476D01*
X14118095Y-8482429D02*
X14127619Y-8491952D01*
X14118095Y-8501476D01*
X14108571Y-8491952D01*
X14118095Y-8482429D01*
X14118095Y-8501476D01*
X14194286Y-8301476D02*
X14318095Y-8301476D01*
X14251428Y-8377667D01*
X14280000Y-8377667D01*
X14299048Y-8387190D01*
X14308571Y-8396714D01*
X14318095Y-8415762D01*
X14318095Y-8463381D01*
X14308571Y-8482429D01*
X14299048Y-8491952D01*
X14280000Y-8501476D01*
X14222857Y-8501476D01*
X14203809Y-8491952D01*
X14194286Y-8482429D01*
X14441905Y-8301476D02*
X14460952Y-8301476D01*
X14480000Y-8311000D01*
X14489524Y-8320524D01*
X14499048Y-8339571D01*
X14508571Y-8377667D01*
X14508571Y-8425286D01*
X14499048Y-8463381D01*
X14489524Y-8482429D01*
X14480000Y-8491952D01*
X14460952Y-8501476D01*
X14441905Y-8501476D01*
X14422857Y-8491952D01*
X14413333Y-8482429D01*
X14403809Y-8463381D01*
X14394286Y-8425286D01*
X14394286Y-8377667D01*
X14403809Y-8339571D01*
X14413333Y-8320524D01*
X14422857Y-8311000D01*
X14441905Y-8301476D01*
X14632381Y-8301476D02*
X14651428Y-8301476D01*
X14670476Y-8311000D01*
X14680000Y-8320524D01*
X14689524Y-8339571D01*
X14699048Y-8377667D01*
X14699048Y-8425286D01*
X14689524Y-8463381D01*
X14680000Y-8482429D01*
X14670476Y-8491952D01*
X14651428Y-8501476D01*
X14632381Y-8501476D01*
X14613333Y-8491952D01*
X14603809Y-8482429D01*
X14594286Y-8463381D01*
X14584762Y-8425286D01*
X14584762Y-8377667D01*
X14594286Y-8339571D01*
X14603809Y-8320524D01*
X14613333Y-8311000D01*
X14632381Y-8301476D01*
X14784762Y-8501476D02*
X14784762Y-8368143D01*
X14784762Y-8387190D02*
X14794286Y-8377667D01*
X14813333Y-8368143D01*
X14841905Y-8368143D01*
X14860952Y-8377667D01*
X14870476Y-8396714D01*
X14870476Y-8501476D01*
X14870476Y-8396714D02*
X14880000Y-8377667D01*
X14899048Y-8368143D01*
X14927619Y-8368143D01*
X14946667Y-8377667D01*
X14956190Y-8396714D01*
X14956190Y-8501476D01*
X15051428Y-8501476D02*
X15051428Y-8368143D01*
X15051428Y-8387190D02*
X15060952Y-8377667D01*
X15080000Y-8368143D01*
X15108571Y-8368143D01*
X15127619Y-8377667D01*
X15137143Y-8396714D01*
X15137143Y-8501476D01*
X15137143Y-8396714D02*
X15146667Y-8377667D01*
X15165714Y-8368143D01*
X15194286Y-8368143D01*
X15213333Y-8377667D01*
X15222857Y-8396714D01*
X15222857Y-8501476D01*
X15613333Y-8291952D02*
X15441905Y-8549095D01*
X15870476Y-8301476D02*
X15889524Y-8301476D01*
X15908571Y-8311000D01*
X15918095Y-8320524D01*
X15927619Y-8339571D01*
X15937143Y-8377667D01*
X15937143Y-8425286D01*
X15927619Y-8463381D01*
X15918095Y-8482429D01*
X15908571Y-8491952D01*
X15889524Y-8501476D01*
X15870476Y-8501476D01*
X15851428Y-8491952D01*
X15841905Y-8482429D01*
X15832381Y-8463381D01*
X15822857Y-8425286D01*
X15822857Y-8377667D01*
X15832381Y-8339571D01*
X15841905Y-8320524D01*
X15851428Y-8311000D01*
X15870476Y-8301476D01*
X16022857Y-8482429D02*
X16032381Y-8491952D01*
X16022857Y-8501476D01*
X16013333Y-8491952D01*
X16022857Y-8482429D01*
X16022857Y-8501476D01*
X16156190Y-8301476D02*
X16175238Y-8301476D01*
X16194286Y-8311000D01*
X16203809Y-8320524D01*
X16213333Y-8339571D01*
X16222857Y-8377667D01*
X16222857Y-8425286D01*
X16213333Y-8463381D01*
X16203809Y-8482429D01*
X16194286Y-8491952D01*
X16175238Y-8501476D01*
X16156190Y-8501476D01*
X16137143Y-8491952D01*
X16127619Y-8482429D01*
X16118095Y-8463381D01*
X16108571Y-8425286D01*
X16108571Y-8377667D01*
X16118095Y-8339571D01*
X16127619Y-8320524D01*
X16137143Y-8311000D01*
X16156190Y-8301476D01*
X16413333Y-8501476D02*
X16299048Y-8501476D01*
X16356190Y-8501476D02*
X16356190Y-8301476D01*
X16337143Y-8330048D01*
X16318095Y-8349095D01*
X16299048Y-8358619D01*
X16603809Y-8501476D02*
X16489524Y-8501476D01*
X16546667Y-8501476D02*
X16546667Y-8301476D01*
X16527619Y-8330048D01*
X16508571Y-8349095D01*
X16489524Y-8358619D01*
X16718095Y-8387190D02*
X16699048Y-8377667D01*
X16689524Y-8368143D01*
X16680000Y-8349095D01*
X16680000Y-8339571D01*
X16689524Y-8320524D01*
X16699048Y-8311000D01*
X16718095Y-8301476D01*
X16756190Y-8301476D01*
X16775238Y-8311000D01*
X16784762Y-8320524D01*
X16794286Y-8339571D01*
X16794286Y-8349095D01*
X16784762Y-8368143D01*
X16775238Y-8377667D01*
X16756190Y-8387190D01*
X16718095Y-8387190D01*
X16699048Y-8396714D01*
X16689524Y-8406238D01*
X16680000Y-8425286D01*
X16680000Y-8463381D01*
X16689524Y-8482429D01*
X16699048Y-8491952D01*
X16718095Y-8501476D01*
X16756190Y-8501476D01*
X16775238Y-8491952D01*
X16784762Y-8482429D01*
X16794286Y-8463381D01*
X16794286Y-8425286D01*
X16784762Y-8406238D01*
X16775238Y-8396714D01*
X16756190Y-8387190D01*
X16870476Y-8301476D02*
X16870476Y-8339571D01*
X16946667Y-8301476D02*
X16946667Y-8339571D01*
X17241905Y-8577667D02*
X17232381Y-8568143D01*
X17213333Y-8539571D01*
X17203810Y-8520524D01*
X17194286Y-8491952D01*
X17184762Y-8444333D01*
X17184762Y-8406238D01*
X17194286Y-8358619D01*
X17203810Y-8330048D01*
X17213333Y-8311000D01*
X17232381Y-8282428D01*
X17241905Y-8272905D01*
X17422857Y-8501476D02*
X17308571Y-8501476D01*
X17365714Y-8501476D02*
X17365714Y-8301476D01*
X17346667Y-8330048D01*
X17327619Y-8349095D01*
X17308571Y-8358619D01*
X17594286Y-8301476D02*
X17556190Y-8301476D01*
X17537143Y-8311000D01*
X17527619Y-8320524D01*
X17508571Y-8349095D01*
X17499048Y-8387190D01*
X17499048Y-8463381D01*
X17508571Y-8482429D01*
X17518095Y-8491952D01*
X17537143Y-8501476D01*
X17575238Y-8501476D01*
X17594286Y-8491952D01*
X17603810Y-8482429D01*
X17613333Y-8463381D01*
X17613333Y-8415762D01*
X17603810Y-8396714D01*
X17594286Y-8387190D01*
X17575238Y-8377667D01*
X17537143Y-8377667D01*
X17518095Y-8387190D01*
X17508571Y-8396714D01*
X17499048Y-8415762D01*
X17851429Y-8501476D02*
X17851429Y-8301476D01*
X17937143Y-8501476D02*
X17937143Y-8396714D01*
X17927619Y-8377667D01*
X17908571Y-8368143D01*
X17880000Y-8368143D01*
X17860952Y-8377667D01*
X17851429Y-8387190D01*
X18060952Y-8501476D02*
X18041905Y-8491952D01*
X18032381Y-8482429D01*
X18022857Y-8463381D01*
X18022857Y-8406238D01*
X18032381Y-8387190D01*
X18041905Y-8377667D01*
X18060952Y-8368143D01*
X18089524Y-8368143D01*
X18108571Y-8377667D01*
X18118095Y-8387190D01*
X18127619Y-8406238D01*
X18127619Y-8463381D01*
X18118095Y-8482429D01*
X18108571Y-8491952D01*
X18089524Y-8501476D01*
X18060952Y-8501476D01*
X18241905Y-8501476D02*
X18222857Y-8491952D01*
X18213333Y-8472905D01*
X18213333Y-8301476D01*
X18394286Y-8491952D02*
X18375238Y-8501476D01*
X18337143Y-8501476D01*
X18318095Y-8491952D01*
X18308571Y-8472905D01*
X18308571Y-8396714D01*
X18318095Y-8377667D01*
X18337143Y-8368143D01*
X18375238Y-8368143D01*
X18394286Y-8377667D01*
X18403810Y-8396714D01*
X18403810Y-8415762D01*
X18308571Y-8434810D01*
X18480000Y-8491952D02*
X18499048Y-8501476D01*
X18537143Y-8501476D01*
X18556190Y-8491952D01*
X18565714Y-8472905D01*
X18565714Y-8463381D01*
X18556190Y-8444333D01*
X18537143Y-8434810D01*
X18508571Y-8434810D01*
X18489524Y-8425286D01*
X18480000Y-8406238D01*
X18480000Y-8396714D01*
X18489524Y-8377667D01*
X18508571Y-8368143D01*
X18537143Y-8368143D01*
X18556190Y-8377667D01*
X18632381Y-8577667D02*
X18641905Y-8568143D01*
X18660952Y-8539571D01*
X18670476Y-8520524D01*
X18680000Y-8491952D01*
X18689524Y-8444333D01*
X18689524Y-8406238D01*
X18680000Y-8358619D01*
X18670476Y-8330048D01*
X18660952Y-8311000D01*
X18641905Y-8282428D01*
X18632381Y-8272905D01*
D14*
X13637500Y-8642500D02*
X13637500Y-8707500D01*
X13605000Y-8675000D02*
X13670000Y-8675000D01*
D11*
X13965714Y-8565476D02*
X13984762Y-8565476D01*
X14003809Y-8575000D01*
X14013333Y-8584524D01*
X14022857Y-8603571D01*
X14032381Y-8641667D01*
X14032381Y-8689286D01*
X14022857Y-8727381D01*
X14013333Y-8746429D01*
X14003809Y-8755952D01*
X13984762Y-8765476D01*
X13965714Y-8765476D01*
X13946667Y-8755952D01*
X13937143Y-8746429D01*
X13927619Y-8727381D01*
X13918095Y-8689286D01*
X13918095Y-8641667D01*
X13927619Y-8603571D01*
X13937143Y-8584524D01*
X13946667Y-8575000D01*
X13965714Y-8565476D01*
X14118095Y-8746429D02*
X14127619Y-8755952D01*
X14118095Y-8765476D01*
X14108571Y-8755952D01*
X14118095Y-8746429D01*
X14118095Y-8765476D01*
X14299048Y-8565476D02*
X14260952Y-8565476D01*
X14241905Y-8575000D01*
X14232381Y-8584524D01*
X14213333Y-8613095D01*
X14203809Y-8651190D01*
X14203809Y-8727381D01*
X14213333Y-8746429D01*
X14222857Y-8755952D01*
X14241905Y-8765476D01*
X14280000Y-8765476D01*
X14299048Y-8755952D01*
X14308571Y-8746429D01*
X14318095Y-8727381D01*
X14318095Y-8679762D01*
X14308571Y-8660714D01*
X14299048Y-8651190D01*
X14280000Y-8641667D01*
X14241905Y-8641667D01*
X14222857Y-8651190D01*
X14213333Y-8660714D01*
X14203809Y-8679762D01*
X14499048Y-8565476D02*
X14403809Y-8565476D01*
X14394286Y-8660714D01*
X14403809Y-8651190D01*
X14422857Y-8641667D01*
X14470476Y-8641667D01*
X14489524Y-8651190D01*
X14499048Y-8660714D01*
X14508571Y-8679762D01*
X14508571Y-8727381D01*
X14499048Y-8746429D01*
X14489524Y-8755952D01*
X14470476Y-8765476D01*
X14422857Y-8765476D01*
X14403809Y-8755952D01*
X14394286Y-8746429D01*
X14632381Y-8565476D02*
X14651428Y-8565476D01*
X14670476Y-8575000D01*
X14680000Y-8584524D01*
X14689524Y-8603571D01*
X14699048Y-8641667D01*
X14699048Y-8689286D01*
X14689524Y-8727381D01*
X14680000Y-8746429D01*
X14670476Y-8755952D01*
X14651428Y-8765476D01*
X14632381Y-8765476D01*
X14613333Y-8755952D01*
X14603809Y-8746429D01*
X14594286Y-8727381D01*
X14584762Y-8689286D01*
X14584762Y-8641667D01*
X14594286Y-8603571D01*
X14603809Y-8584524D01*
X14613333Y-8575000D01*
X14632381Y-8565476D01*
X14784762Y-8765476D02*
X14784762Y-8632143D01*
X14784762Y-8651190D02*
X14794286Y-8641667D01*
X14813333Y-8632143D01*
X14841905Y-8632143D01*
X14860952Y-8641667D01*
X14870476Y-8660714D01*
X14870476Y-8765476D01*
X14870476Y-8660714D02*
X14880000Y-8641667D01*
X14899048Y-8632143D01*
X14927619Y-8632143D01*
X14946667Y-8641667D01*
X14956190Y-8660714D01*
X14956190Y-8765476D01*
X15051428Y-8765476D02*
X15051428Y-8632143D01*
X15051428Y-8651190D02*
X15060952Y-8641667D01*
X15080000Y-8632143D01*
X15108571Y-8632143D01*
X15127619Y-8641667D01*
X15137143Y-8660714D01*
X15137143Y-8765476D01*
X15137143Y-8660714D02*
X15146667Y-8641667D01*
X15165714Y-8632143D01*
X15194286Y-8632143D01*
X15213333Y-8641667D01*
X15222857Y-8660714D01*
X15222857Y-8765476D01*
X15613333Y-8555952D02*
X15441905Y-8813095D01*
X15870476Y-8565476D02*
X15889524Y-8565476D01*
X15908571Y-8575000D01*
X15918095Y-8584524D01*
X15927619Y-8603571D01*
X15937143Y-8641667D01*
X15937143Y-8689286D01*
X15927619Y-8727381D01*
X15918095Y-8746429D01*
X15908571Y-8755952D01*
X15889524Y-8765476D01*
X15870476Y-8765476D01*
X15851428Y-8755952D01*
X15841905Y-8746429D01*
X15832381Y-8727381D01*
X15822857Y-8689286D01*
X15822857Y-8641667D01*
X15832381Y-8603571D01*
X15841905Y-8584524D01*
X15851428Y-8575000D01*
X15870476Y-8565476D01*
X16022857Y-8746429D02*
X16032381Y-8755952D01*
X16022857Y-8765476D01*
X16013333Y-8755952D01*
X16022857Y-8746429D01*
X16022857Y-8765476D01*
X16156190Y-8565476D02*
X16175238Y-8565476D01*
X16194286Y-8575000D01*
X16203809Y-8584524D01*
X16213333Y-8603571D01*
X16222857Y-8641667D01*
X16222857Y-8689286D01*
X16213333Y-8727381D01*
X16203809Y-8746429D01*
X16194286Y-8755952D01*
X16175238Y-8765476D01*
X16156190Y-8765476D01*
X16137143Y-8755952D01*
X16127619Y-8746429D01*
X16118095Y-8727381D01*
X16108571Y-8689286D01*
X16108571Y-8641667D01*
X16118095Y-8603571D01*
X16127619Y-8584524D01*
X16137143Y-8575000D01*
X16156190Y-8565476D01*
X16299048Y-8584524D02*
X16308571Y-8575000D01*
X16327619Y-8565476D01*
X16375238Y-8565476D01*
X16394286Y-8575000D01*
X16403809Y-8584524D01*
X16413333Y-8603571D01*
X16413333Y-8622619D01*
X16403809Y-8651190D01*
X16289524Y-8765476D01*
X16413333Y-8765476D01*
X16594286Y-8565476D02*
X16499048Y-8565476D01*
X16489524Y-8660714D01*
X16499048Y-8651190D01*
X16518095Y-8641667D01*
X16565714Y-8641667D01*
X16584762Y-8651190D01*
X16594286Y-8660714D01*
X16603809Y-8679762D01*
X16603809Y-8727381D01*
X16594286Y-8746429D01*
X16584762Y-8755952D01*
X16565714Y-8765476D01*
X16518095Y-8765476D01*
X16499048Y-8755952D01*
X16489524Y-8746429D01*
X16775238Y-8565476D02*
X16737143Y-8565476D01*
X16718095Y-8575000D01*
X16708571Y-8584524D01*
X16689524Y-8613095D01*
X16680000Y-8651190D01*
X16680000Y-8727381D01*
X16689524Y-8746429D01*
X16699048Y-8755952D01*
X16718095Y-8765476D01*
X16756190Y-8765476D01*
X16775238Y-8755952D01*
X16784762Y-8746429D01*
X16794286Y-8727381D01*
X16794286Y-8679762D01*
X16784762Y-8660714D01*
X16775238Y-8651190D01*
X16756190Y-8641667D01*
X16718095Y-8641667D01*
X16699048Y-8651190D01*
X16689524Y-8660714D01*
X16680000Y-8679762D01*
X16870476Y-8565476D02*
X16870476Y-8603571D01*
X16946667Y-8565476D02*
X16946667Y-8603571D01*
X17241905Y-8841667D02*
X17232381Y-8832143D01*
X17213333Y-8803571D01*
X17203810Y-8784524D01*
X17194286Y-8755952D01*
X17184762Y-8708333D01*
X17184762Y-8670238D01*
X17194286Y-8622619D01*
X17203810Y-8594048D01*
X17213333Y-8575000D01*
X17232381Y-8546429D01*
X17241905Y-8536905D01*
X17356190Y-8565476D02*
X17375238Y-8565476D01*
X17394286Y-8575000D01*
X17403810Y-8584524D01*
X17413333Y-8603571D01*
X17422857Y-8641667D01*
X17422857Y-8689286D01*
X17413333Y-8727381D01*
X17403810Y-8746429D01*
X17394286Y-8755952D01*
X17375238Y-8765476D01*
X17356190Y-8765476D01*
X17337143Y-8755952D01*
X17327619Y-8746429D01*
X17318095Y-8727381D01*
X17308571Y-8689286D01*
X17308571Y-8641667D01*
X17318095Y-8603571D01*
X17327619Y-8584524D01*
X17337143Y-8575000D01*
X17356190Y-8565476D01*
X17660952Y-8765476D02*
X17660952Y-8565476D01*
X17746667Y-8765476D02*
X17746667Y-8660714D01*
X17737143Y-8641667D01*
X17718095Y-8632143D01*
X17689524Y-8632143D01*
X17670476Y-8641667D01*
X17660952Y-8651190D01*
X17870476Y-8765476D02*
X17851429Y-8755952D01*
X17841905Y-8746429D01*
X17832381Y-8727381D01*
X17832381Y-8670238D01*
X17841905Y-8651190D01*
X17851429Y-8641667D01*
X17870476Y-8632143D01*
X17899048Y-8632143D01*
X17918095Y-8641667D01*
X17927619Y-8651190D01*
X17937143Y-8670238D01*
X17937143Y-8727381D01*
X17927619Y-8746429D01*
X17918095Y-8755952D01*
X17899048Y-8765476D01*
X17870476Y-8765476D01*
X18051429Y-8765476D02*
X18032381Y-8755952D01*
X18022857Y-8736905D01*
X18022857Y-8565476D01*
X18203810Y-8755952D02*
X18184762Y-8765476D01*
X18146667Y-8765476D01*
X18127619Y-8755952D01*
X18118095Y-8736905D01*
X18118095Y-8660714D01*
X18127619Y-8641667D01*
X18146667Y-8632143D01*
X18184762Y-8632143D01*
X18203810Y-8641667D01*
X18213333Y-8660714D01*
X18213333Y-8679762D01*
X18118095Y-8698810D01*
X18289524Y-8755952D02*
X18308571Y-8765476D01*
X18346667Y-8765476D01*
X18365714Y-8755952D01*
X18375238Y-8736905D01*
X18375238Y-8727381D01*
X18365714Y-8708333D01*
X18346667Y-8698810D01*
X18318095Y-8698810D01*
X18299048Y-8689286D01*
X18289524Y-8670238D01*
X18289524Y-8660714D01*
X18299048Y-8641667D01*
X18318095Y-8632143D01*
X18346667Y-8632143D01*
X18365714Y-8641667D01*
X18613333Y-8689286D02*
X18765714Y-8689286D01*
X18689524Y-8765476D02*
X18689524Y-8613095D01*
X19099048Y-8632143D02*
X19099048Y-8765476D01*
X19051429Y-8555952D02*
X19003810Y-8698810D01*
X19127619Y-8698810D01*
X19346667Y-8755952D02*
X19365714Y-8765476D01*
X19403810Y-8765476D01*
X19422857Y-8755952D01*
X19432381Y-8736905D01*
X19432381Y-8727381D01*
X19422857Y-8708333D01*
X19403810Y-8698810D01*
X19375238Y-8698810D01*
X19356190Y-8689286D01*
X19346667Y-8670238D01*
X19346667Y-8660714D01*
X19356190Y-8641667D01*
X19375238Y-8632143D01*
X19403810Y-8632143D01*
X19422857Y-8641667D01*
X19546667Y-8765476D02*
X19527619Y-8755952D01*
X19518095Y-8736905D01*
X19518095Y-8565476D01*
X19651429Y-8765476D02*
X19632381Y-8755952D01*
X19622857Y-8746429D01*
X19613333Y-8727381D01*
X19613333Y-8670238D01*
X19622857Y-8651190D01*
X19632381Y-8641667D01*
X19651429Y-8632143D01*
X19680000Y-8632143D01*
X19699048Y-8641667D01*
X19708571Y-8651190D01*
X19718095Y-8670238D01*
X19718095Y-8727381D01*
X19708571Y-8746429D01*
X19699048Y-8755952D01*
X19680000Y-8765476D01*
X19651429Y-8765476D01*
X19775238Y-8632143D02*
X19851429Y-8632143D01*
X19803810Y-8565476D02*
X19803810Y-8736905D01*
X19813333Y-8755952D01*
X19832381Y-8765476D01*
X19851429Y-8765476D01*
X19908571Y-8755952D02*
X19927619Y-8765476D01*
X19965714Y-8765476D01*
X19984762Y-8755952D01*
X19994286Y-8736905D01*
X19994286Y-8727381D01*
X19984762Y-8708333D01*
X19965714Y-8698810D01*
X19937143Y-8698810D01*
X19918095Y-8689286D01*
X19908571Y-8670238D01*
X19908571Y-8660714D01*
X19918095Y-8641667D01*
X19937143Y-8632143D01*
X19965714Y-8632143D01*
X19984762Y-8641667D01*
X20060952Y-8841667D02*
X20070476Y-8832143D01*
X20089524Y-8803571D01*
X20099048Y-8784524D01*
X20108571Y-8755952D01*
X20118095Y-8708333D01*
X20118095Y-8670238D01*
X20108571Y-8622619D01*
X20099048Y-8594048D01*
X20089524Y-8575000D01*
X20070476Y-8546429D01*
X20060952Y-8536905D01*
D15*
X13655356Y-8974356D02*
X13655356Y-8903644D01*
X13584644Y-8903644D01*
X13584644Y-8974356D01*
X13655356Y-8974356D01*
D11*
X14032381Y-9029476D02*
X13918095Y-9029476D01*
X13975238Y-9029476D02*
X13975238Y-8829476D01*
X13956190Y-8858048D01*
X13937143Y-8877095D01*
X13918095Y-8886619D01*
X14118095Y-9010429D02*
X14127619Y-9019952D01*
X14118095Y-9029476D01*
X14108571Y-9019952D01*
X14118095Y-9010429D01*
X14118095Y-9029476D01*
X14251428Y-8829476D02*
X14270476Y-8829476D01*
X14289524Y-8839000D01*
X14299048Y-8848524D01*
X14308571Y-8867571D01*
X14318095Y-8905667D01*
X14318095Y-8953286D01*
X14308571Y-8991381D01*
X14299048Y-9010429D01*
X14289524Y-9019952D01*
X14270476Y-9029476D01*
X14251428Y-9029476D01*
X14232381Y-9019952D01*
X14222857Y-9010429D01*
X14213333Y-8991381D01*
X14203809Y-8953286D01*
X14203809Y-8905667D01*
X14213333Y-8867571D01*
X14222857Y-8848524D01*
X14232381Y-8839000D01*
X14251428Y-8829476D01*
X14441905Y-8829476D02*
X14460952Y-8829476D01*
X14480000Y-8839000D01*
X14489524Y-8848524D01*
X14499048Y-8867571D01*
X14508571Y-8905667D01*
X14508571Y-8953286D01*
X14499048Y-8991381D01*
X14489524Y-9010429D01*
X14480000Y-9019952D01*
X14460952Y-9029476D01*
X14441905Y-9029476D01*
X14422857Y-9019952D01*
X14413333Y-9010429D01*
X14403809Y-8991381D01*
X14394286Y-8953286D01*
X14394286Y-8905667D01*
X14403809Y-8867571D01*
X14413333Y-8848524D01*
X14422857Y-8839000D01*
X14441905Y-8829476D01*
X14632381Y-8829476D02*
X14651428Y-8829476D01*
X14670476Y-8839000D01*
X14680000Y-8848524D01*
X14689524Y-8867571D01*
X14699048Y-8905667D01*
X14699048Y-8953286D01*
X14689524Y-8991381D01*
X14680000Y-9010429D01*
X14670476Y-9019952D01*
X14651428Y-9029476D01*
X14632381Y-9029476D01*
X14613333Y-9019952D01*
X14603809Y-9010429D01*
X14594286Y-8991381D01*
X14584762Y-8953286D01*
X14584762Y-8905667D01*
X14594286Y-8867571D01*
X14603809Y-8848524D01*
X14613333Y-8839000D01*
X14632381Y-8829476D01*
X14784762Y-9029476D02*
X14784762Y-8896143D01*
X14784762Y-8915190D02*
X14794286Y-8905667D01*
X14813333Y-8896143D01*
X14841905Y-8896143D01*
X14860952Y-8905667D01*
X14870476Y-8924714D01*
X14870476Y-9029476D01*
X14870476Y-8924714D02*
X14880000Y-8905667D01*
X14899048Y-8896143D01*
X14927619Y-8896143D01*
X14946667Y-8905667D01*
X14956190Y-8924714D01*
X14956190Y-9029476D01*
X15051428Y-9029476D02*
X15051428Y-8896143D01*
X15051428Y-8915190D02*
X15060952Y-8905667D01*
X15080000Y-8896143D01*
X15108571Y-8896143D01*
X15127619Y-8905667D01*
X15137143Y-8924714D01*
X15137143Y-9029476D01*
X15137143Y-8924714D02*
X15146667Y-8905667D01*
X15165714Y-8896143D01*
X15194286Y-8896143D01*
X15213333Y-8905667D01*
X15222857Y-8924714D01*
X15222857Y-9029476D01*
X15613333Y-8819952D02*
X15441905Y-9077095D01*
X15870476Y-8829476D02*
X15889524Y-8829476D01*
X15908571Y-8839000D01*
X15918095Y-8848524D01*
X15927619Y-8867571D01*
X15937143Y-8905667D01*
X15937143Y-8953286D01*
X15927619Y-8991381D01*
X15918095Y-9010429D01*
X15908571Y-9019952D01*
X15889524Y-9029476D01*
X15870476Y-9029476D01*
X15851428Y-9019952D01*
X15841905Y-9010429D01*
X15832381Y-8991381D01*
X15822857Y-8953286D01*
X15822857Y-8905667D01*
X15832381Y-8867571D01*
X15841905Y-8848524D01*
X15851428Y-8839000D01*
X15870476Y-8829476D01*
X16022857Y-9010429D02*
X16032381Y-9019952D01*
X16022857Y-9029476D01*
X16013333Y-9019952D01*
X16022857Y-9010429D01*
X16022857Y-9029476D01*
X16156190Y-8829476D02*
X16175238Y-8829476D01*
X16194286Y-8839000D01*
X16203809Y-8848524D01*
X16213333Y-8867571D01*
X16222857Y-8905667D01*
X16222857Y-8953286D01*
X16213333Y-8991381D01*
X16203809Y-9010429D01*
X16194286Y-9019952D01*
X16175238Y-9029476D01*
X16156190Y-9029476D01*
X16137143Y-9019952D01*
X16127619Y-9010429D01*
X16118095Y-8991381D01*
X16108571Y-8953286D01*
X16108571Y-8905667D01*
X16118095Y-8867571D01*
X16127619Y-8848524D01*
X16137143Y-8839000D01*
X16156190Y-8829476D01*
X16289524Y-8829476D02*
X16413333Y-8829476D01*
X16346667Y-8905667D01*
X16375238Y-8905667D01*
X16394286Y-8915190D01*
X16403809Y-8924714D01*
X16413333Y-8943762D01*
X16413333Y-8991381D01*
X16403809Y-9010429D01*
X16394286Y-9019952D01*
X16375238Y-9029476D01*
X16318095Y-9029476D01*
X16299048Y-9019952D01*
X16289524Y-9010429D01*
X16508571Y-9029476D02*
X16546667Y-9029476D01*
X16565714Y-9019952D01*
X16575238Y-9010429D01*
X16594286Y-8981857D01*
X16603809Y-8943762D01*
X16603809Y-8867571D01*
X16594286Y-8848524D01*
X16584762Y-8839000D01*
X16565714Y-8829476D01*
X16527619Y-8829476D01*
X16508571Y-8839000D01*
X16499048Y-8848524D01*
X16489524Y-8867571D01*
X16489524Y-8915190D01*
X16499048Y-8934238D01*
X16508571Y-8943762D01*
X16527619Y-8953286D01*
X16565714Y-8953286D01*
X16584762Y-8943762D01*
X16594286Y-8934238D01*
X16603809Y-8915190D01*
X16775238Y-8896143D02*
X16775238Y-9029476D01*
X16727619Y-8819952D02*
X16680000Y-8962810D01*
X16803810Y-8962810D01*
X16870476Y-8829476D02*
X16870476Y-8867571D01*
X16946667Y-8829476D02*
X16946667Y-8867571D01*
X17241905Y-9105667D02*
X17232381Y-9096143D01*
X17213333Y-9067571D01*
X17203810Y-9048524D01*
X17194286Y-9019952D01*
X17184762Y-8972333D01*
X17184762Y-8934238D01*
X17194286Y-8886619D01*
X17203810Y-8858048D01*
X17213333Y-8839000D01*
X17232381Y-8810429D01*
X17241905Y-8800905D01*
X17403810Y-8896143D02*
X17403810Y-9029476D01*
X17356190Y-8819952D02*
X17308571Y-8962810D01*
X17432381Y-8962810D01*
X17613333Y-9029476D02*
X17499048Y-9029476D01*
X17556190Y-9029476D02*
X17556190Y-8829476D01*
X17537143Y-8858048D01*
X17518095Y-8877095D01*
X17499048Y-8886619D01*
X17851429Y-9029476D02*
X17851429Y-8829476D01*
X17937143Y-9029476D02*
X17937143Y-8924714D01*
X17927619Y-8905667D01*
X17908571Y-8896143D01*
X17880000Y-8896143D01*
X17860952Y-8905667D01*
X17851429Y-8915190D01*
X18060952Y-9029476D02*
X18041905Y-9019952D01*
X18032381Y-9010429D01*
X18022857Y-8991381D01*
X18022857Y-8934238D01*
X18032381Y-8915190D01*
X18041905Y-8905667D01*
X18060952Y-8896143D01*
X18089524Y-8896143D01*
X18108571Y-8905667D01*
X18118095Y-8915190D01*
X18127619Y-8934238D01*
X18127619Y-8991381D01*
X18118095Y-9010429D01*
X18108571Y-9019952D01*
X18089524Y-9029476D01*
X18060952Y-9029476D01*
X18241905Y-9029476D02*
X18222857Y-9019952D01*
X18213333Y-9000905D01*
X18213333Y-8829476D01*
X18394286Y-9019952D02*
X18375238Y-9029476D01*
X18337143Y-9029476D01*
X18318095Y-9019952D01*
X18308571Y-9000905D01*
X18308571Y-8924714D01*
X18318095Y-8905667D01*
X18337143Y-8896143D01*
X18375238Y-8896143D01*
X18394286Y-8905667D01*
X18403810Y-8924714D01*
X18403810Y-8943762D01*
X18308571Y-8962810D01*
X18480000Y-9019952D02*
X18499048Y-9029476D01*
X18537143Y-9029476D01*
X18556190Y-9019952D01*
X18565714Y-9000905D01*
X18565714Y-8991381D01*
X18556190Y-8972333D01*
X18537143Y-8962810D01*
X18508571Y-8962810D01*
X18489524Y-8953286D01*
X18480000Y-8934238D01*
X18480000Y-8924714D01*
X18489524Y-8905667D01*
X18508571Y-8896143D01*
X18537143Y-8896143D01*
X18556190Y-8905667D01*
X18632381Y-9105667D02*
X18641905Y-9096143D01*
X18660952Y-9067571D01*
X18670476Y-9048524D01*
X18680000Y-9019952D01*
X18689524Y-8972333D01*
X18689524Y-8934238D01*
X18680000Y-8886619D01*
X18670476Y-8858048D01*
X18660952Y-8839000D01*
X18641905Y-8810429D01*
X18632381Y-8800905D01*
M02*
