G04 #@! TF.GenerationSoftware,KiCad,Pcbnew,(6.0.4)*
G04 #@! TF.CreationDate,2022-05-18T15:56:59-06:00*
G04 #@! TF.ProjectId,RP2040 Dev Board,52503230-3430-4204-9465-7620426f6172,4*
G04 #@! TF.SameCoordinates,Original*
G04 #@! TF.FileFunction,AssemblyDrawing,Top*
%FSLAX46Y46*%
G04 Gerber Fmt 4.6, Leading zero omitted, Abs format (unit mm)*
G04 Created by KiCad (PCBNEW (6.0.4)) date 2022-05-18 15:56:59*
%MOMM*%
%LPD*%
G01*
G04 APERTURE LIST*
%ADD10C,0.150000*%
%ADD11C,0.080000*%
%ADD12C,0.120000*%
%ADD13C,0.100000*%
%ADD14C,0.127000*%
%ADD15C,0.200000*%
G04 APERTURE END LIST*
D10*
X169210000Y-49292142D02*
X169162380Y-49339761D01*
X169019523Y-49387380D01*
X168924285Y-49387380D01*
X168781428Y-49339761D01*
X168686190Y-49244523D01*
X168638571Y-49149285D01*
X168590952Y-48958809D01*
X168590952Y-48815952D01*
X168638571Y-48625476D01*
X168686190Y-48530238D01*
X168781428Y-48435000D01*
X168924285Y-48387380D01*
X169019523Y-48387380D01*
X169162380Y-48435000D01*
X169210000Y-48482619D01*
X169781428Y-49387380D02*
X169686190Y-49339761D01*
X169638571Y-49292142D01*
X169590952Y-49196904D01*
X169590952Y-48911190D01*
X169638571Y-48815952D01*
X169686190Y-48768333D01*
X169781428Y-48720714D01*
X169924285Y-48720714D01*
X170019523Y-48768333D01*
X170067142Y-48815952D01*
X170114761Y-48911190D01*
X170114761Y-49196904D01*
X170067142Y-49292142D01*
X170019523Y-49339761D01*
X169924285Y-49387380D01*
X169781428Y-49387380D01*
X170543333Y-48720714D02*
X170543333Y-49387380D01*
X170543333Y-48815952D02*
X170590952Y-48768333D01*
X170686190Y-48720714D01*
X170829047Y-48720714D01*
X170924285Y-48768333D01*
X170971904Y-48863571D01*
X170971904Y-49387380D01*
X171305238Y-48720714D02*
X171686190Y-48720714D01*
X171448095Y-48387380D02*
X171448095Y-49244523D01*
X171495714Y-49339761D01*
X171590952Y-49387380D01*
X171686190Y-49387380D01*
X172019523Y-49387380D02*
X172019523Y-48720714D01*
X172019523Y-48911190D02*
X172067142Y-48815952D01*
X172114761Y-48768333D01*
X172210000Y-48720714D01*
X172305238Y-48720714D01*
X172781428Y-49387380D02*
X172686190Y-49339761D01*
X172638571Y-49292142D01*
X172590952Y-49196904D01*
X172590952Y-48911190D01*
X172638571Y-48815952D01*
X172686190Y-48768333D01*
X172781428Y-48720714D01*
X172924285Y-48720714D01*
X173019523Y-48768333D01*
X173067142Y-48815952D01*
X173114761Y-48911190D01*
X173114761Y-49196904D01*
X173067142Y-49292142D01*
X173019523Y-49339761D01*
X172924285Y-49387380D01*
X172781428Y-49387380D01*
X173686190Y-49387380D02*
X173590952Y-49339761D01*
X173543333Y-49244523D01*
X173543333Y-48387380D01*
X174210000Y-49387380D02*
X174114761Y-49339761D01*
X174067142Y-49244523D01*
X174067142Y-48387380D01*
X174971904Y-49339761D02*
X174876666Y-49387380D01*
X174686190Y-49387380D01*
X174590952Y-49339761D01*
X174543333Y-49244523D01*
X174543333Y-48863571D01*
X174590952Y-48768333D01*
X174686190Y-48720714D01*
X174876666Y-48720714D01*
X174971904Y-48768333D01*
X175019523Y-48863571D01*
X175019523Y-48958809D01*
X174543333Y-49054047D01*
X175876666Y-49387380D02*
X175876666Y-48387380D01*
X175876666Y-49339761D02*
X175781428Y-49387380D01*
X175590952Y-49387380D01*
X175495714Y-49339761D01*
X175448095Y-49292142D01*
X175400476Y-49196904D01*
X175400476Y-48911190D01*
X175448095Y-48815952D01*
X175495714Y-48768333D01*
X175590952Y-48720714D01*
X175781428Y-48720714D01*
X175876666Y-48768333D01*
X177114761Y-49387380D02*
X177114761Y-48720714D01*
X177114761Y-48387380D02*
X177067142Y-48435000D01*
X177114761Y-48482619D01*
X177162380Y-48435000D01*
X177114761Y-48387380D01*
X177114761Y-48482619D01*
X177590952Y-49387380D02*
X177590952Y-48720714D01*
X177590952Y-48815952D02*
X177638571Y-48768333D01*
X177733809Y-48720714D01*
X177876666Y-48720714D01*
X177971904Y-48768333D01*
X178019523Y-48863571D01*
X178019523Y-49387380D01*
X178019523Y-48863571D02*
X178067142Y-48768333D01*
X178162380Y-48720714D01*
X178305238Y-48720714D01*
X178400476Y-48768333D01*
X178448095Y-48863571D01*
X178448095Y-49387380D01*
X178924285Y-48720714D02*
X178924285Y-49720714D01*
X178924285Y-48768333D02*
X179019523Y-48720714D01*
X179210000Y-48720714D01*
X179305238Y-48768333D01*
X179352857Y-48815952D01*
X179400476Y-48911190D01*
X179400476Y-49196904D01*
X179352857Y-49292142D01*
X179305238Y-49339761D01*
X179210000Y-49387380D01*
X179019523Y-49387380D01*
X178924285Y-49339761D01*
X180210000Y-49339761D02*
X180114761Y-49387380D01*
X179924285Y-49387380D01*
X179829047Y-49339761D01*
X179781428Y-49244523D01*
X179781428Y-48863571D01*
X179829047Y-48768333D01*
X179924285Y-48720714D01*
X180114761Y-48720714D01*
X180210000Y-48768333D01*
X180257619Y-48863571D01*
X180257619Y-48958809D01*
X179781428Y-49054047D01*
X181114761Y-49387380D02*
X181114761Y-48387380D01*
X181114761Y-49339761D02*
X181019523Y-49387380D01*
X180829047Y-49387380D01*
X180733809Y-49339761D01*
X180686190Y-49292142D01*
X180638571Y-49196904D01*
X180638571Y-48911190D01*
X180686190Y-48815952D01*
X180733809Y-48768333D01*
X180829047Y-48720714D01*
X181019523Y-48720714D01*
X181114761Y-48768333D01*
X182019523Y-49387380D02*
X182019523Y-48863571D01*
X181971904Y-48768333D01*
X181876666Y-48720714D01*
X181686190Y-48720714D01*
X181590952Y-48768333D01*
X182019523Y-49339761D02*
X181924285Y-49387380D01*
X181686190Y-49387380D01*
X181590952Y-49339761D01*
X181543333Y-49244523D01*
X181543333Y-49149285D01*
X181590952Y-49054047D01*
X181686190Y-49006428D01*
X181924285Y-49006428D01*
X182019523Y-48958809D01*
X182495714Y-48720714D02*
X182495714Y-49387380D01*
X182495714Y-48815952D02*
X182543333Y-48768333D01*
X182638571Y-48720714D01*
X182781428Y-48720714D01*
X182876666Y-48768333D01*
X182924285Y-48863571D01*
X182924285Y-49387380D01*
X183829047Y-49339761D02*
X183733809Y-49387380D01*
X183543333Y-49387380D01*
X183448095Y-49339761D01*
X183400476Y-49292142D01*
X183352857Y-49196904D01*
X183352857Y-48911190D01*
X183400476Y-48815952D01*
X183448095Y-48768333D01*
X183543333Y-48720714D01*
X183733809Y-48720714D01*
X183829047Y-48768333D01*
X184638571Y-49339761D02*
X184543333Y-49387380D01*
X184352857Y-49387380D01*
X184257619Y-49339761D01*
X184210000Y-49244523D01*
X184210000Y-48863571D01*
X184257619Y-48768333D01*
X184352857Y-48720714D01*
X184543333Y-48720714D01*
X184638571Y-48768333D01*
X184686190Y-48863571D01*
X184686190Y-48958809D01*
X184210000Y-49054047D01*
X185876666Y-48387380D02*
X185876666Y-49196904D01*
X185924285Y-49292142D01*
X185971904Y-49339761D01*
X186067142Y-49387380D01*
X186257619Y-49387380D01*
X186352857Y-49339761D01*
X186400476Y-49292142D01*
X186448095Y-49196904D01*
X186448095Y-48387380D01*
X186876666Y-49339761D02*
X187019523Y-49387380D01*
X187257619Y-49387380D01*
X187352857Y-49339761D01*
X187400476Y-49292142D01*
X187448095Y-49196904D01*
X187448095Y-49101666D01*
X187400476Y-49006428D01*
X187352857Y-48958809D01*
X187257619Y-48911190D01*
X187067142Y-48863571D01*
X186971904Y-48815952D01*
X186924285Y-48768333D01*
X186876666Y-48673095D01*
X186876666Y-48577857D01*
X186924285Y-48482619D01*
X186971904Y-48435000D01*
X187067142Y-48387380D01*
X187305238Y-48387380D01*
X187448095Y-48435000D01*
X188210000Y-48863571D02*
X188352857Y-48911190D01*
X188400476Y-48958809D01*
X188448095Y-49054047D01*
X188448095Y-49196904D01*
X188400476Y-49292142D01*
X188352857Y-49339761D01*
X188257619Y-49387380D01*
X187876666Y-49387380D01*
X187876666Y-48387380D01*
X188210000Y-48387380D01*
X188305238Y-48435000D01*
X188352857Y-48482619D01*
X188400476Y-48577857D01*
X188400476Y-48673095D01*
X188352857Y-48768333D01*
X188305238Y-48815952D01*
X188210000Y-48863571D01*
X187876666Y-48863571D01*
X189495714Y-48720714D02*
X189876666Y-48720714D01*
X189638571Y-48387380D02*
X189638571Y-49244523D01*
X189686190Y-49339761D01*
X189781428Y-49387380D01*
X189876666Y-49387380D01*
X190210000Y-49387380D02*
X190210000Y-48720714D01*
X190210000Y-48911190D02*
X190257619Y-48815952D01*
X190305238Y-48768333D01*
X190400476Y-48720714D01*
X190495714Y-48720714D01*
X191257619Y-49387380D02*
X191257619Y-48863571D01*
X191210000Y-48768333D01*
X191114761Y-48720714D01*
X190924285Y-48720714D01*
X190829047Y-48768333D01*
X191257619Y-49339761D02*
X191162380Y-49387380D01*
X190924285Y-49387380D01*
X190829047Y-49339761D01*
X190781428Y-49244523D01*
X190781428Y-49149285D01*
X190829047Y-49054047D01*
X190924285Y-49006428D01*
X191162380Y-49006428D01*
X191257619Y-48958809D01*
X192162380Y-49339761D02*
X192067142Y-49387380D01*
X191876666Y-49387380D01*
X191781428Y-49339761D01*
X191733809Y-49292142D01*
X191686190Y-49196904D01*
X191686190Y-48911190D01*
X191733809Y-48815952D01*
X191781428Y-48768333D01*
X191876666Y-48720714D01*
X192067142Y-48720714D01*
X192162380Y-48768333D01*
X192971904Y-49339761D02*
X192876666Y-49387380D01*
X192686190Y-49387380D01*
X192590952Y-49339761D01*
X192543333Y-49244523D01*
X192543333Y-48863571D01*
X192590952Y-48768333D01*
X192686190Y-48720714D01*
X192876666Y-48720714D01*
X192971904Y-48768333D01*
X193019523Y-48863571D01*
X193019523Y-48958809D01*
X192543333Y-49054047D01*
X193400476Y-49339761D02*
X193495714Y-49387380D01*
X193686190Y-49387380D01*
X193781428Y-49339761D01*
X193829047Y-49244523D01*
X193829047Y-49196904D01*
X193781428Y-49101666D01*
X193686190Y-49054047D01*
X193543333Y-49054047D01*
X193448095Y-49006428D01*
X193400476Y-48911190D01*
X193400476Y-48863571D01*
X193448095Y-48768333D01*
X193543333Y-48720714D01*
X193686190Y-48720714D01*
X193781428Y-48768333D01*
X170067142Y-50997380D02*
X170067142Y-49997380D01*
X170067142Y-50949761D02*
X169971904Y-50997380D01*
X169781428Y-50997380D01*
X169686190Y-50949761D01*
X169638571Y-50902142D01*
X169590952Y-50806904D01*
X169590952Y-50521190D01*
X169638571Y-50425952D01*
X169686190Y-50378333D01*
X169781428Y-50330714D01*
X169971904Y-50330714D01*
X170067142Y-50378333D01*
X170924285Y-50949761D02*
X170829047Y-50997380D01*
X170638571Y-50997380D01*
X170543333Y-50949761D01*
X170495714Y-50854523D01*
X170495714Y-50473571D01*
X170543333Y-50378333D01*
X170638571Y-50330714D01*
X170829047Y-50330714D01*
X170924285Y-50378333D01*
X170971904Y-50473571D01*
X170971904Y-50568809D01*
X170495714Y-50664047D01*
X171352857Y-50949761D02*
X171448095Y-50997380D01*
X171638571Y-50997380D01*
X171733809Y-50949761D01*
X171781428Y-50854523D01*
X171781428Y-50806904D01*
X171733809Y-50711666D01*
X171638571Y-50664047D01*
X171495714Y-50664047D01*
X171400476Y-50616428D01*
X171352857Y-50521190D01*
X171352857Y-50473571D01*
X171400476Y-50378333D01*
X171495714Y-50330714D01*
X171638571Y-50330714D01*
X171733809Y-50378333D01*
X172210000Y-50997380D02*
X172210000Y-50330714D01*
X172210000Y-49997380D02*
X172162380Y-50045000D01*
X172210000Y-50092619D01*
X172257619Y-50045000D01*
X172210000Y-49997380D01*
X172210000Y-50092619D01*
X173114761Y-50330714D02*
X173114761Y-51140238D01*
X173067142Y-51235476D01*
X173019523Y-51283095D01*
X172924285Y-51330714D01*
X172781428Y-51330714D01*
X172686190Y-51283095D01*
X173114761Y-50949761D02*
X173019523Y-50997380D01*
X172829047Y-50997380D01*
X172733809Y-50949761D01*
X172686190Y-50902142D01*
X172638571Y-50806904D01*
X172638571Y-50521190D01*
X172686190Y-50425952D01*
X172733809Y-50378333D01*
X172829047Y-50330714D01*
X173019523Y-50330714D01*
X173114761Y-50378333D01*
X173590952Y-50330714D02*
X173590952Y-50997380D01*
X173590952Y-50425952D02*
X173638571Y-50378333D01*
X173733809Y-50330714D01*
X173876666Y-50330714D01*
X173971904Y-50378333D01*
X174019523Y-50473571D01*
X174019523Y-50997380D01*
X174876666Y-50949761D02*
X174781428Y-50997380D01*
X174590952Y-50997380D01*
X174495714Y-50949761D01*
X174448095Y-50854523D01*
X174448095Y-50473571D01*
X174495714Y-50378333D01*
X174590952Y-50330714D01*
X174781428Y-50330714D01*
X174876666Y-50378333D01*
X174924285Y-50473571D01*
X174924285Y-50568809D01*
X174448095Y-50664047D01*
X175781428Y-50997380D02*
X175781428Y-49997380D01*
X175781428Y-50949761D02*
X175686190Y-50997380D01*
X175495714Y-50997380D01*
X175400476Y-50949761D01*
X175352857Y-50902142D01*
X175305238Y-50806904D01*
X175305238Y-50521190D01*
X175352857Y-50425952D01*
X175400476Y-50378333D01*
X175495714Y-50330714D01*
X175686190Y-50330714D01*
X175781428Y-50378333D01*
X176876666Y-50330714D02*
X177257619Y-50330714D01*
X177019523Y-50997380D02*
X177019523Y-50140238D01*
X177067142Y-50045000D01*
X177162380Y-49997380D01*
X177257619Y-49997380D01*
X177733809Y-50997380D02*
X177638571Y-50949761D01*
X177590952Y-50902142D01*
X177543333Y-50806904D01*
X177543333Y-50521190D01*
X177590952Y-50425952D01*
X177638571Y-50378333D01*
X177733809Y-50330714D01*
X177876666Y-50330714D01*
X177971904Y-50378333D01*
X178019523Y-50425952D01*
X178067142Y-50521190D01*
X178067142Y-50806904D01*
X178019523Y-50902142D01*
X177971904Y-50949761D01*
X177876666Y-50997380D01*
X177733809Y-50997380D01*
X178495714Y-50997380D02*
X178495714Y-50330714D01*
X178495714Y-50521190D02*
X178543333Y-50425952D01*
X178590952Y-50378333D01*
X178686190Y-50330714D01*
X178781428Y-50330714D01*
X180162380Y-49997380D02*
X180162380Y-50711666D01*
X180114761Y-50854523D01*
X180019523Y-50949761D01*
X179876666Y-50997380D01*
X179781428Y-50997380D01*
X181114761Y-50997380D02*
X180638571Y-50997380D01*
X180638571Y-49997380D01*
X182019523Y-50902142D02*
X181971904Y-50949761D01*
X181829047Y-50997380D01*
X181733809Y-50997380D01*
X181590952Y-50949761D01*
X181495714Y-50854523D01*
X181448095Y-50759285D01*
X181400476Y-50568809D01*
X181400476Y-50425952D01*
X181448095Y-50235476D01*
X181495714Y-50140238D01*
X181590952Y-50045000D01*
X181733809Y-49997380D01*
X181829047Y-49997380D01*
X181971904Y-50045000D01*
X182019523Y-50092619D01*
X182352857Y-49997380D02*
X183019523Y-49997380D01*
X182590952Y-50997380D01*
X183829047Y-49997380D02*
X183638571Y-49997380D01*
X183543333Y-50045000D01*
X183495714Y-50092619D01*
X183400476Y-50235476D01*
X183352857Y-50425952D01*
X183352857Y-50806904D01*
X183400476Y-50902142D01*
X183448095Y-50949761D01*
X183543333Y-50997380D01*
X183733809Y-50997380D01*
X183829047Y-50949761D01*
X183876666Y-50902142D01*
X183924285Y-50806904D01*
X183924285Y-50568809D01*
X183876666Y-50473571D01*
X183829047Y-50425952D01*
X183733809Y-50378333D01*
X183543333Y-50378333D01*
X183448095Y-50425952D01*
X183400476Y-50473571D01*
X183352857Y-50568809D01*
X184305238Y-50092619D02*
X184352857Y-50045000D01*
X184448095Y-49997380D01*
X184686190Y-49997380D01*
X184781428Y-50045000D01*
X184829047Y-50092619D01*
X184876666Y-50187857D01*
X184876666Y-50283095D01*
X184829047Y-50425952D01*
X184257619Y-50997380D01*
X184876666Y-50997380D01*
X185448095Y-50425952D02*
X185352857Y-50378333D01*
X185305238Y-50330714D01*
X185257619Y-50235476D01*
X185257619Y-50187857D01*
X185305238Y-50092619D01*
X185352857Y-50045000D01*
X185448095Y-49997380D01*
X185638571Y-49997380D01*
X185733809Y-50045000D01*
X185781428Y-50092619D01*
X185829047Y-50187857D01*
X185829047Y-50235476D01*
X185781428Y-50330714D01*
X185733809Y-50378333D01*
X185638571Y-50425952D01*
X185448095Y-50425952D01*
X185352857Y-50473571D01*
X185305238Y-50521190D01*
X185257619Y-50616428D01*
X185257619Y-50806904D01*
X185305238Y-50902142D01*
X185352857Y-50949761D01*
X185448095Y-50997380D01*
X185638571Y-50997380D01*
X185733809Y-50949761D01*
X185781428Y-50902142D01*
X185829047Y-50806904D01*
X185829047Y-50616428D01*
X185781428Y-50521190D01*
X185733809Y-50473571D01*
X185638571Y-50425952D01*
X187019523Y-50997380D02*
X187019523Y-49997380D01*
X187400476Y-49997380D01*
X187495714Y-50045000D01*
X187543333Y-50092619D01*
X187590952Y-50187857D01*
X187590952Y-50330714D01*
X187543333Y-50425952D01*
X187495714Y-50473571D01*
X187400476Y-50521190D01*
X187019523Y-50521190D01*
X188019523Y-50997380D02*
X188019523Y-50330714D01*
X188019523Y-50521190D02*
X188067142Y-50425952D01*
X188114761Y-50378333D01*
X188210000Y-50330714D01*
X188305238Y-50330714D01*
X189019523Y-50949761D02*
X188924285Y-50997380D01*
X188733809Y-50997380D01*
X188638571Y-50949761D01*
X188590952Y-50854523D01*
X188590952Y-50473571D01*
X188638571Y-50378333D01*
X188733809Y-50330714D01*
X188924285Y-50330714D01*
X189019523Y-50378333D01*
X189067142Y-50473571D01*
X189067142Y-50568809D01*
X188590952Y-50664047D01*
X189495714Y-50330714D02*
X189495714Y-51330714D01*
X189495714Y-50378333D02*
X189590952Y-50330714D01*
X189781428Y-50330714D01*
X189876666Y-50378333D01*
X189924285Y-50425952D01*
X189971904Y-50521190D01*
X189971904Y-50806904D01*
X189924285Y-50902142D01*
X189876666Y-50949761D01*
X189781428Y-50997380D01*
X189590952Y-50997380D01*
X189495714Y-50949761D01*
X190400476Y-50997380D02*
X190400476Y-50330714D01*
X190400476Y-50521190D02*
X190448095Y-50425952D01*
X190495714Y-50378333D01*
X190590952Y-50330714D01*
X190686190Y-50330714D01*
X191400476Y-50949761D02*
X191305238Y-50997380D01*
X191114761Y-50997380D01*
X191019523Y-50949761D01*
X190971904Y-50854523D01*
X190971904Y-50473571D01*
X191019523Y-50378333D01*
X191114761Y-50330714D01*
X191305238Y-50330714D01*
X191400476Y-50378333D01*
X191448095Y-50473571D01*
X191448095Y-50568809D01*
X190971904Y-50664047D01*
X192305238Y-50330714D02*
X192305238Y-51140238D01*
X192257619Y-51235476D01*
X192210000Y-51283095D01*
X192114761Y-51330714D01*
X191971904Y-51330714D01*
X191876666Y-51283095D01*
X192305238Y-50949761D02*
X192210000Y-50997380D01*
X192019523Y-50997380D01*
X191924285Y-50949761D01*
X191876666Y-50902142D01*
X191829047Y-50806904D01*
X191829047Y-50521190D01*
X191876666Y-50425952D01*
X191924285Y-50378333D01*
X192019523Y-50330714D01*
X192210000Y-50330714D01*
X192305238Y-50378333D01*
X192781428Y-50902142D02*
X192829047Y-50949761D01*
X192781428Y-50997380D01*
X192733809Y-50949761D01*
X192781428Y-50902142D01*
X192781428Y-50997380D01*
X151290952Y-62667142D02*
X151243333Y-62714761D01*
X151100476Y-62762380D01*
X151005238Y-62762380D01*
X150862380Y-62714761D01*
X150767142Y-62619523D01*
X150719523Y-62524285D01*
X150671904Y-62333809D01*
X150671904Y-62190952D01*
X150719523Y-62000476D01*
X150767142Y-61905238D01*
X150862380Y-61810000D01*
X151005238Y-61762380D01*
X151100476Y-61762380D01*
X151243333Y-61810000D01*
X151290952Y-61857619D01*
X151671904Y-61857619D02*
X151719523Y-61810000D01*
X151814761Y-61762380D01*
X152052857Y-61762380D01*
X152148095Y-61810000D01*
X152195714Y-61857619D01*
X152243333Y-61952857D01*
X152243333Y-62048095D01*
X152195714Y-62190952D01*
X151624285Y-62762380D01*
X152243333Y-62762380D01*
X153195714Y-62762380D02*
X152624285Y-62762380D01*
X152910000Y-62762380D02*
X152910000Y-61762380D01*
X152814761Y-61905238D01*
X152719523Y-62000476D01*
X152624285Y-62048095D01*
X153529047Y-61762380D02*
X154148095Y-61762380D01*
X153814761Y-62143333D01*
X153957619Y-62143333D01*
X154052857Y-62190952D01*
X154100476Y-62238571D01*
X154148095Y-62333809D01*
X154148095Y-62571904D01*
X154100476Y-62667142D01*
X154052857Y-62714761D01*
X153957619Y-62762380D01*
X153671904Y-62762380D01*
X153576666Y-62714761D01*
X153529047Y-62667142D01*
X140030952Y-62677142D02*
X139983333Y-62724761D01*
X139840476Y-62772380D01*
X139745238Y-62772380D01*
X139602380Y-62724761D01*
X139507142Y-62629523D01*
X139459523Y-62534285D01*
X139411904Y-62343809D01*
X139411904Y-62200952D01*
X139459523Y-62010476D01*
X139507142Y-61915238D01*
X139602380Y-61820000D01*
X139745238Y-61772380D01*
X139840476Y-61772380D01*
X139983333Y-61820000D01*
X140030952Y-61867619D01*
X140411904Y-61867619D02*
X140459523Y-61820000D01*
X140554761Y-61772380D01*
X140792857Y-61772380D01*
X140888095Y-61820000D01*
X140935714Y-61867619D01*
X140983333Y-61962857D01*
X140983333Y-62058095D01*
X140935714Y-62200952D01*
X140364285Y-62772380D01*
X140983333Y-62772380D01*
X141935714Y-62772380D02*
X141364285Y-62772380D01*
X141650000Y-62772380D02*
X141650000Y-61772380D01*
X141554761Y-61915238D01*
X141459523Y-62010476D01*
X141364285Y-62058095D01*
X142840476Y-61772380D02*
X142364285Y-61772380D01*
X142316666Y-62248571D01*
X142364285Y-62200952D01*
X142459523Y-62153333D01*
X142697619Y-62153333D01*
X142792857Y-62200952D01*
X142840476Y-62248571D01*
X142888095Y-62343809D01*
X142888095Y-62581904D01*
X142840476Y-62677142D01*
X142792857Y-62724761D01*
X142697619Y-62772380D01*
X142459523Y-62772380D01*
X142364285Y-62724761D01*
X142316666Y-62677142D01*
X145780952Y-70377142D02*
X145733333Y-70424761D01*
X145590476Y-70472380D01*
X145495238Y-70472380D01*
X145352380Y-70424761D01*
X145257142Y-70329523D01*
X145209523Y-70234285D01*
X145161904Y-70043809D01*
X145161904Y-69900952D01*
X145209523Y-69710476D01*
X145257142Y-69615238D01*
X145352380Y-69520000D01*
X145495238Y-69472380D01*
X145590476Y-69472380D01*
X145733333Y-69520000D01*
X145780952Y-69567619D01*
X146161904Y-69567619D02*
X146209523Y-69520000D01*
X146304761Y-69472380D01*
X146542857Y-69472380D01*
X146638095Y-69520000D01*
X146685714Y-69567619D01*
X146733333Y-69662857D01*
X146733333Y-69758095D01*
X146685714Y-69900952D01*
X146114285Y-70472380D01*
X146733333Y-70472380D01*
X147352380Y-69472380D02*
X147447619Y-69472380D01*
X147542857Y-69520000D01*
X147590476Y-69567619D01*
X147638095Y-69662857D01*
X147685714Y-69853333D01*
X147685714Y-70091428D01*
X147638095Y-70281904D01*
X147590476Y-70377142D01*
X147542857Y-70424761D01*
X147447619Y-70472380D01*
X147352380Y-70472380D01*
X147257142Y-70424761D01*
X147209523Y-70377142D01*
X147161904Y-70281904D01*
X147114285Y-70091428D01*
X147114285Y-69853333D01*
X147161904Y-69662857D01*
X147209523Y-69567619D01*
X147257142Y-69520000D01*
X147352380Y-69472380D01*
X148542857Y-69472380D02*
X148352380Y-69472380D01*
X148257142Y-69520000D01*
X148209523Y-69567619D01*
X148114285Y-69710476D01*
X148066666Y-69900952D01*
X148066666Y-70281904D01*
X148114285Y-70377142D01*
X148161904Y-70424761D01*
X148257142Y-70472380D01*
X148447619Y-70472380D01*
X148542857Y-70424761D01*
X148590476Y-70377142D01*
X148638095Y-70281904D01*
X148638095Y-70043809D01*
X148590476Y-69948571D01*
X148542857Y-69900952D01*
X148447619Y-69853333D01*
X148257142Y-69853333D01*
X148161904Y-69900952D01*
X148114285Y-69948571D01*
X148066666Y-70043809D01*
X151027142Y-58609047D02*
X151074761Y-58656666D01*
X151122380Y-58799523D01*
X151122380Y-58894761D01*
X151074761Y-59037619D01*
X150979523Y-59132857D01*
X150884285Y-59180476D01*
X150693809Y-59228095D01*
X150550952Y-59228095D01*
X150360476Y-59180476D01*
X150265238Y-59132857D01*
X150170000Y-59037619D01*
X150122380Y-58894761D01*
X150122380Y-58799523D01*
X150170000Y-58656666D01*
X150217619Y-58609047D01*
X150217619Y-58228095D02*
X150170000Y-58180476D01*
X150122380Y-58085238D01*
X150122380Y-57847142D01*
X150170000Y-57751904D01*
X150217619Y-57704285D01*
X150312857Y-57656666D01*
X150408095Y-57656666D01*
X150550952Y-57704285D01*
X151122380Y-58275714D01*
X151122380Y-57656666D01*
X150122380Y-57037619D02*
X150122380Y-56942380D01*
X150170000Y-56847142D01*
X150217619Y-56799523D01*
X150312857Y-56751904D01*
X150503333Y-56704285D01*
X150741428Y-56704285D01*
X150931904Y-56751904D01*
X151027142Y-56799523D01*
X151074761Y-56847142D01*
X151122380Y-56942380D01*
X151122380Y-57037619D01*
X151074761Y-57132857D01*
X151027142Y-57180476D01*
X150931904Y-57228095D01*
X150741428Y-57275714D01*
X150503333Y-57275714D01*
X150312857Y-57228095D01*
X150217619Y-57180476D01*
X150170000Y-57132857D01*
X150122380Y-57037619D01*
X150455714Y-55847142D02*
X151122380Y-55847142D01*
X150074761Y-56085238D02*
X150789047Y-56323333D01*
X150789047Y-55704285D01*
X151279523Y-35842380D02*
X151279523Y-34842380D01*
X151517619Y-34842380D01*
X151660476Y-34890000D01*
X151755714Y-34985238D01*
X151803333Y-35080476D01*
X151850952Y-35270952D01*
X151850952Y-35413809D01*
X151803333Y-35604285D01*
X151755714Y-35699523D01*
X151660476Y-35794761D01*
X151517619Y-35842380D01*
X151279523Y-35842380D01*
X152803333Y-35842380D02*
X152231904Y-35842380D01*
X152517619Y-35842380D02*
X152517619Y-34842380D01*
X152422380Y-34985238D01*
X152327142Y-35080476D01*
X152231904Y-35128095D01*
X153422380Y-34842380D02*
X153517619Y-34842380D01*
X153612857Y-34890000D01*
X153660476Y-34937619D01*
X153708095Y-35032857D01*
X153755714Y-35223333D01*
X153755714Y-35461428D01*
X153708095Y-35651904D01*
X153660476Y-35747142D01*
X153612857Y-35794761D01*
X153517619Y-35842380D01*
X153422380Y-35842380D01*
X153327142Y-35794761D01*
X153279523Y-35747142D01*
X153231904Y-35651904D01*
X153184285Y-35461428D01*
X153184285Y-35223333D01*
X153231904Y-35032857D01*
X153279523Y-34937619D01*
X153327142Y-34890000D01*
X153422380Y-34842380D01*
X154612857Y-35175714D02*
X154612857Y-35842380D01*
X154374761Y-34794761D02*
X154136666Y-35509047D01*
X154755714Y-35509047D01*
X147557142Y-64899047D02*
X147604761Y-64946666D01*
X147652380Y-65089523D01*
X147652380Y-65184761D01*
X147604761Y-65327619D01*
X147509523Y-65422857D01*
X147414285Y-65470476D01*
X147223809Y-65518095D01*
X147080952Y-65518095D01*
X146890476Y-65470476D01*
X146795238Y-65422857D01*
X146700000Y-65327619D01*
X146652380Y-65184761D01*
X146652380Y-65089523D01*
X146700000Y-64946666D01*
X146747619Y-64899047D01*
X146747619Y-64518095D02*
X146700000Y-64470476D01*
X146652380Y-64375238D01*
X146652380Y-64137142D01*
X146700000Y-64041904D01*
X146747619Y-63994285D01*
X146842857Y-63946666D01*
X146938095Y-63946666D01*
X147080952Y-63994285D01*
X147652380Y-64565714D01*
X147652380Y-63946666D01*
X147652380Y-62994285D02*
X147652380Y-63565714D01*
X147652380Y-63280000D02*
X146652380Y-63280000D01*
X146795238Y-63375238D01*
X146890476Y-63470476D01*
X146938095Y-63565714D01*
X147080952Y-62422857D02*
X147033333Y-62518095D01*
X146985714Y-62565714D01*
X146890476Y-62613333D01*
X146842857Y-62613333D01*
X146747619Y-62565714D01*
X146700000Y-62518095D01*
X146652380Y-62422857D01*
X146652380Y-62232380D01*
X146700000Y-62137142D01*
X146747619Y-62089523D01*
X146842857Y-62041904D01*
X146890476Y-62041904D01*
X146985714Y-62089523D01*
X147033333Y-62137142D01*
X147080952Y-62232380D01*
X147080952Y-62422857D01*
X147128571Y-62518095D01*
X147176190Y-62565714D01*
X147271428Y-62613333D01*
X147461904Y-62613333D01*
X147557142Y-62565714D01*
X147604761Y-62518095D01*
X147652380Y-62422857D01*
X147652380Y-62232380D01*
X147604761Y-62137142D01*
X147557142Y-62089523D01*
X147461904Y-62041904D01*
X147271428Y-62041904D01*
X147176190Y-62089523D01*
X147128571Y-62137142D01*
X147080952Y-62232380D01*
X147250952Y-43227142D02*
X147203333Y-43274761D01*
X147060476Y-43322380D01*
X146965238Y-43322380D01*
X146822380Y-43274761D01*
X146727142Y-43179523D01*
X146679523Y-43084285D01*
X146631904Y-42893809D01*
X146631904Y-42750952D01*
X146679523Y-42560476D01*
X146727142Y-42465238D01*
X146822380Y-42370000D01*
X146965238Y-42322380D01*
X147060476Y-42322380D01*
X147203333Y-42370000D01*
X147250952Y-42417619D01*
X147631904Y-42417619D02*
X147679523Y-42370000D01*
X147774761Y-42322380D01*
X148012857Y-42322380D01*
X148108095Y-42370000D01*
X148155714Y-42417619D01*
X148203333Y-42512857D01*
X148203333Y-42608095D01*
X148155714Y-42750952D01*
X147584285Y-43322380D01*
X148203333Y-43322380D01*
X148822380Y-42322380D02*
X148917619Y-42322380D01*
X149012857Y-42370000D01*
X149060476Y-42417619D01*
X149108095Y-42512857D01*
X149155714Y-42703333D01*
X149155714Y-42941428D01*
X149108095Y-43131904D01*
X149060476Y-43227142D01*
X149012857Y-43274761D01*
X148917619Y-43322380D01*
X148822380Y-43322380D01*
X148727142Y-43274761D01*
X148679523Y-43227142D01*
X148631904Y-43131904D01*
X148584285Y-42941428D01*
X148584285Y-42703333D01*
X148631904Y-42512857D01*
X148679523Y-42417619D01*
X148727142Y-42370000D01*
X148822380Y-42322380D01*
X149489047Y-42322380D02*
X150155714Y-42322380D01*
X149727142Y-43322380D01*
X142400952Y-68927142D02*
X142353333Y-68974761D01*
X142210476Y-69022380D01*
X142115238Y-69022380D01*
X141972380Y-68974761D01*
X141877142Y-68879523D01*
X141829523Y-68784285D01*
X141781904Y-68593809D01*
X141781904Y-68450952D01*
X141829523Y-68260476D01*
X141877142Y-68165238D01*
X141972380Y-68070000D01*
X142115238Y-68022380D01*
X142210476Y-68022380D01*
X142353333Y-68070000D01*
X142400952Y-68117619D01*
X142781904Y-68117619D02*
X142829523Y-68070000D01*
X142924761Y-68022380D01*
X143162857Y-68022380D01*
X143258095Y-68070000D01*
X143305714Y-68117619D01*
X143353333Y-68212857D01*
X143353333Y-68308095D01*
X143305714Y-68450952D01*
X142734285Y-69022380D01*
X143353333Y-69022380D01*
X143972380Y-68022380D02*
X144067619Y-68022380D01*
X144162857Y-68070000D01*
X144210476Y-68117619D01*
X144258095Y-68212857D01*
X144305714Y-68403333D01*
X144305714Y-68641428D01*
X144258095Y-68831904D01*
X144210476Y-68927142D01*
X144162857Y-68974761D01*
X144067619Y-69022380D01*
X143972380Y-69022380D01*
X143877142Y-68974761D01*
X143829523Y-68927142D01*
X143781904Y-68831904D01*
X143734285Y-68641428D01*
X143734285Y-68403333D01*
X143781904Y-68212857D01*
X143829523Y-68117619D01*
X143877142Y-68070000D01*
X143972380Y-68022380D01*
X144639047Y-68022380D02*
X145258095Y-68022380D01*
X144924761Y-68403333D01*
X145067619Y-68403333D01*
X145162857Y-68450952D01*
X145210476Y-68498571D01*
X145258095Y-68593809D01*
X145258095Y-68831904D01*
X145210476Y-68927142D01*
X145162857Y-68974761D01*
X145067619Y-69022380D01*
X144781904Y-69022380D01*
X144686666Y-68974761D01*
X144639047Y-68927142D01*
X146837142Y-58949047D02*
X146884761Y-58996666D01*
X146932380Y-59139523D01*
X146932380Y-59234761D01*
X146884761Y-59377619D01*
X146789523Y-59472857D01*
X146694285Y-59520476D01*
X146503809Y-59568095D01*
X146360952Y-59568095D01*
X146170476Y-59520476D01*
X146075238Y-59472857D01*
X145980000Y-59377619D01*
X145932380Y-59234761D01*
X145932380Y-59139523D01*
X145980000Y-58996666D01*
X146027619Y-58949047D01*
X146027619Y-58568095D02*
X145980000Y-58520476D01*
X145932380Y-58425238D01*
X145932380Y-58187142D01*
X145980000Y-58091904D01*
X146027619Y-58044285D01*
X146122857Y-57996666D01*
X146218095Y-57996666D01*
X146360952Y-58044285D01*
X146932380Y-58615714D01*
X146932380Y-57996666D01*
X145932380Y-57377619D02*
X145932380Y-57282380D01*
X145980000Y-57187142D01*
X146027619Y-57139523D01*
X146122857Y-57091904D01*
X146313333Y-57044285D01*
X146551428Y-57044285D01*
X146741904Y-57091904D01*
X146837142Y-57139523D01*
X146884761Y-57187142D01*
X146932380Y-57282380D01*
X146932380Y-57377619D01*
X146884761Y-57472857D01*
X146837142Y-57520476D01*
X146741904Y-57568095D01*
X146551428Y-57615714D01*
X146313333Y-57615714D01*
X146122857Y-57568095D01*
X146027619Y-57520476D01*
X145980000Y-57472857D01*
X145932380Y-57377619D01*
X146360952Y-56472857D02*
X146313333Y-56568095D01*
X146265714Y-56615714D01*
X146170476Y-56663333D01*
X146122857Y-56663333D01*
X146027619Y-56615714D01*
X145980000Y-56568095D01*
X145932380Y-56472857D01*
X145932380Y-56282380D01*
X145980000Y-56187142D01*
X146027619Y-56139523D01*
X146122857Y-56091904D01*
X146170476Y-56091904D01*
X146265714Y-56139523D01*
X146313333Y-56187142D01*
X146360952Y-56282380D01*
X146360952Y-56472857D01*
X146408571Y-56568095D01*
X146456190Y-56615714D01*
X146551428Y-56663333D01*
X146741904Y-56663333D01*
X146837142Y-56615714D01*
X146884761Y-56568095D01*
X146932380Y-56472857D01*
X146932380Y-56282380D01*
X146884761Y-56187142D01*
X146837142Y-56139523D01*
X146741904Y-56091904D01*
X146551428Y-56091904D01*
X146456190Y-56139523D01*
X146408571Y-56187142D01*
X146360952Y-56282380D01*
X149707142Y-58799047D02*
X149754761Y-58846666D01*
X149802380Y-58989523D01*
X149802380Y-59084761D01*
X149754761Y-59227619D01*
X149659523Y-59322857D01*
X149564285Y-59370476D01*
X149373809Y-59418095D01*
X149230952Y-59418095D01*
X149040476Y-59370476D01*
X148945238Y-59322857D01*
X148850000Y-59227619D01*
X148802380Y-59084761D01*
X148802380Y-58989523D01*
X148850000Y-58846666D01*
X148897619Y-58799047D01*
X148897619Y-58418095D02*
X148850000Y-58370476D01*
X148802380Y-58275238D01*
X148802380Y-58037142D01*
X148850000Y-57941904D01*
X148897619Y-57894285D01*
X148992857Y-57846666D01*
X149088095Y-57846666D01*
X149230952Y-57894285D01*
X149802380Y-58465714D01*
X149802380Y-57846666D01*
X148802380Y-57227619D02*
X148802380Y-57132380D01*
X148850000Y-57037142D01*
X148897619Y-56989523D01*
X148992857Y-56941904D01*
X149183333Y-56894285D01*
X149421428Y-56894285D01*
X149611904Y-56941904D01*
X149707142Y-56989523D01*
X149754761Y-57037142D01*
X149802380Y-57132380D01*
X149802380Y-57227619D01*
X149754761Y-57322857D01*
X149707142Y-57370476D01*
X149611904Y-57418095D01*
X149421428Y-57465714D01*
X149183333Y-57465714D01*
X148992857Y-57418095D01*
X148897619Y-57370476D01*
X148850000Y-57322857D01*
X148802380Y-57227619D01*
X148802380Y-55989523D02*
X148802380Y-56465714D01*
X149278571Y-56513333D01*
X149230952Y-56465714D01*
X149183333Y-56370476D01*
X149183333Y-56132380D01*
X149230952Y-56037142D01*
X149278571Y-55989523D01*
X149373809Y-55941904D01*
X149611904Y-55941904D01*
X149707142Y-55989523D01*
X149754761Y-56037142D01*
X149802380Y-56132380D01*
X149802380Y-56370476D01*
X149754761Y-56465714D01*
X149707142Y-56513333D01*
D11*
X151776190Y-71365238D02*
X151276190Y-71365238D01*
X151276190Y-71246190D01*
X151300000Y-71174761D01*
X151347619Y-71127142D01*
X151395238Y-71103333D01*
X151490476Y-71079523D01*
X151561904Y-71079523D01*
X151657142Y-71103333D01*
X151704761Y-71127142D01*
X151752380Y-71174761D01*
X151776190Y-71246190D01*
X151776190Y-71365238D01*
X151776190Y-70603333D02*
X151776190Y-70889047D01*
X151776190Y-70746190D02*
X151276190Y-70746190D01*
X151347619Y-70793809D01*
X151395238Y-70841428D01*
X151419047Y-70889047D01*
X151276190Y-70293809D02*
X151276190Y-70246190D01*
X151300000Y-70198571D01*
X151323809Y-70174761D01*
X151371428Y-70150952D01*
X151466666Y-70127142D01*
X151585714Y-70127142D01*
X151680952Y-70150952D01*
X151728571Y-70174761D01*
X151752380Y-70198571D01*
X151776190Y-70246190D01*
X151776190Y-70293809D01*
X151752380Y-70341428D01*
X151728571Y-70365238D01*
X151680952Y-70389047D01*
X151585714Y-70412857D01*
X151466666Y-70412857D01*
X151371428Y-70389047D01*
X151323809Y-70365238D01*
X151300000Y-70341428D01*
X151276190Y-70293809D01*
X151323809Y-69936666D02*
X151300000Y-69912857D01*
X151276190Y-69865238D01*
X151276190Y-69746190D01*
X151300000Y-69698571D01*
X151323809Y-69674761D01*
X151371428Y-69650952D01*
X151419047Y-69650952D01*
X151490476Y-69674761D01*
X151776190Y-69960476D01*
X151776190Y-69650952D01*
D10*
X147795714Y-38752380D02*
X147795714Y-39561904D01*
X147843333Y-39657142D01*
X147890952Y-39704761D01*
X147986190Y-39752380D01*
X148176666Y-39752380D01*
X148271904Y-39704761D01*
X148319523Y-39657142D01*
X148367142Y-39561904D01*
X148367142Y-38752380D01*
X148795714Y-38847619D02*
X148843333Y-38800000D01*
X148938571Y-38752380D01*
X149176666Y-38752380D01*
X149271904Y-38800000D01*
X149319523Y-38847619D01*
X149367142Y-38942857D01*
X149367142Y-39038095D01*
X149319523Y-39180952D01*
X148748095Y-39752380D01*
X149367142Y-39752380D01*
X149986190Y-38752380D02*
X150081428Y-38752380D01*
X150176666Y-38800000D01*
X150224285Y-38847619D01*
X150271904Y-38942857D01*
X150319523Y-39133333D01*
X150319523Y-39371428D01*
X150271904Y-39561904D01*
X150224285Y-39657142D01*
X150176666Y-39704761D01*
X150081428Y-39752380D01*
X149986190Y-39752380D01*
X149890952Y-39704761D01*
X149843333Y-39657142D01*
X149795714Y-39561904D01*
X149748095Y-39371428D01*
X149748095Y-39133333D01*
X149795714Y-38942857D01*
X149843333Y-38847619D01*
X149890952Y-38800000D01*
X149986190Y-38752380D01*
X151271904Y-39752380D02*
X150700476Y-39752380D01*
X150986190Y-39752380D02*
X150986190Y-38752380D01*
X150890952Y-38895238D01*
X150795714Y-38990476D01*
X150700476Y-39038095D01*
X153133824Y-66998748D02*
X153201167Y-66998748D01*
X153335854Y-67066091D01*
X153403198Y-67133435D01*
X153470541Y-67268122D01*
X153470541Y-67402809D01*
X153436870Y-67503824D01*
X153335854Y-67672183D01*
X153234839Y-67773198D01*
X153066480Y-67874213D01*
X152965465Y-67907885D01*
X152830778Y-67907885D01*
X152696091Y-67840541D01*
X152628748Y-67773198D01*
X152561404Y-67638511D01*
X152561404Y-67571167D01*
X152292030Y-67301793D02*
X152224687Y-67301793D01*
X152123671Y-67268122D01*
X151955312Y-67099763D01*
X151921641Y-66998748D01*
X151921641Y-66931404D01*
X151955312Y-66830389D01*
X152022656Y-66763045D01*
X152157343Y-66695702D01*
X152965465Y-66695702D01*
X152527732Y-66257969D01*
X151618595Y-66628358D02*
X151551251Y-66628358D01*
X151450236Y-66594687D01*
X151281877Y-66426328D01*
X151248206Y-66325312D01*
X151248206Y-66257969D01*
X151281877Y-66156954D01*
X151349221Y-66089610D01*
X151483908Y-66022267D01*
X152292030Y-66022267D01*
X151854297Y-65584534D01*
X151180862Y-64911099D02*
X151584923Y-65315160D01*
X151382893Y-65113129D02*
X150675786Y-65820236D01*
X150844145Y-65786564D01*
X150978832Y-65786564D01*
X151079847Y-65820236D01*
X142862380Y-50814285D02*
X143671904Y-50814285D01*
X143767142Y-50766666D01*
X143814761Y-50719047D01*
X143862380Y-50623809D01*
X143862380Y-50433333D01*
X143814761Y-50338095D01*
X143767142Y-50290476D01*
X143671904Y-50242857D01*
X142862380Y-50242857D01*
X142957619Y-49814285D02*
X142910000Y-49766666D01*
X142862380Y-49671428D01*
X142862380Y-49433333D01*
X142910000Y-49338095D01*
X142957619Y-49290476D01*
X143052857Y-49242857D01*
X143148095Y-49242857D01*
X143290952Y-49290476D01*
X143862380Y-49861904D01*
X143862380Y-49242857D01*
X142862380Y-48623809D02*
X142862380Y-48528571D01*
X142910000Y-48433333D01*
X142957619Y-48385714D01*
X143052857Y-48338095D01*
X143243333Y-48290476D01*
X143481428Y-48290476D01*
X143671904Y-48338095D01*
X143767142Y-48385714D01*
X143814761Y-48433333D01*
X143862380Y-48528571D01*
X143862380Y-48623809D01*
X143814761Y-48719047D01*
X143767142Y-48766666D01*
X143671904Y-48814285D01*
X143481428Y-48861904D01*
X143243333Y-48861904D01*
X143052857Y-48814285D01*
X142957619Y-48766666D01*
X142910000Y-48719047D01*
X142862380Y-48623809D01*
X142862380Y-47385714D02*
X142862380Y-47861904D01*
X143338571Y-47909523D01*
X143290952Y-47861904D01*
X143243333Y-47766666D01*
X143243333Y-47528571D01*
X143290952Y-47433333D01*
X143338571Y-47385714D01*
X143433809Y-47338095D01*
X143671904Y-47338095D01*
X143767142Y-47385714D01*
X143814761Y-47433333D01*
X143862380Y-47528571D01*
X143862380Y-47766666D01*
X143814761Y-47861904D01*
X143767142Y-47909523D01*
D12*
X151625714Y-51175238D02*
X151663809Y-51213333D01*
X151701904Y-51327619D01*
X151701904Y-51403809D01*
X151663809Y-51518095D01*
X151587619Y-51594285D01*
X151511428Y-51632380D01*
X151359047Y-51670476D01*
X151244761Y-51670476D01*
X151092380Y-51632380D01*
X151016190Y-51594285D01*
X150940000Y-51518095D01*
X150901904Y-51403809D01*
X150901904Y-51327619D01*
X150940000Y-51213333D01*
X150978095Y-51175238D01*
X150978095Y-50870476D02*
X150940000Y-50832380D01*
X150901904Y-50756190D01*
X150901904Y-50565714D01*
X150940000Y-50489523D01*
X150978095Y-50451428D01*
X151054285Y-50413333D01*
X151130476Y-50413333D01*
X151244761Y-50451428D01*
X151701904Y-50908571D01*
X151701904Y-50413333D01*
X151701904Y-49651428D02*
X151701904Y-50108571D01*
X151701904Y-49880000D02*
X150901904Y-49880000D01*
X151016190Y-49956190D01*
X151092380Y-50032380D01*
X151130476Y-50108571D01*
X150901904Y-49156190D02*
X150901904Y-49080000D01*
X150940000Y-49003809D01*
X150978095Y-48965714D01*
X151054285Y-48927619D01*
X151206666Y-48889523D01*
X151397142Y-48889523D01*
X151549523Y-48927619D01*
X151625714Y-48965714D01*
X151663809Y-49003809D01*
X151701904Y-49080000D01*
X151701904Y-49156190D01*
X151663809Y-49232380D01*
X151625714Y-49270476D01*
X151549523Y-49308571D01*
X151397142Y-49346666D01*
X151206666Y-49346666D01*
X151054285Y-49308571D01*
X150978095Y-49270476D01*
X150940000Y-49232380D01*
X150901904Y-49156190D01*
D10*
X145444285Y-27182380D02*
X145444285Y-27896666D01*
X145396666Y-28039523D01*
X145301428Y-28134761D01*
X145158571Y-28182380D01*
X145063333Y-28182380D01*
X145872857Y-27277619D02*
X145920476Y-27230000D01*
X146015714Y-27182380D01*
X146253809Y-27182380D01*
X146349047Y-27230000D01*
X146396666Y-27277619D01*
X146444285Y-27372857D01*
X146444285Y-27468095D01*
X146396666Y-27610952D01*
X145825238Y-28182380D01*
X146444285Y-28182380D01*
X147063333Y-27182380D02*
X147158571Y-27182380D01*
X147253809Y-27230000D01*
X147301428Y-27277619D01*
X147349047Y-27372857D01*
X147396666Y-27563333D01*
X147396666Y-27801428D01*
X147349047Y-27991904D01*
X147301428Y-28087142D01*
X147253809Y-28134761D01*
X147158571Y-28182380D01*
X147063333Y-28182380D01*
X146968095Y-28134761D01*
X146920476Y-28087142D01*
X146872857Y-27991904D01*
X146825238Y-27801428D01*
X146825238Y-27563333D01*
X146872857Y-27372857D01*
X146920476Y-27277619D01*
X146968095Y-27230000D01*
X147063333Y-27182380D01*
X148349047Y-28182380D02*
X147777619Y-28182380D01*
X148063333Y-28182380D02*
X148063333Y-27182380D01*
X147968095Y-27325238D01*
X147872857Y-27420476D01*
X147777619Y-27468095D01*
X143902380Y-34730476D02*
X142902380Y-34730476D01*
X142902380Y-34492380D01*
X142950000Y-34349523D01*
X143045238Y-34254285D01*
X143140476Y-34206666D01*
X143330952Y-34159047D01*
X143473809Y-34159047D01*
X143664285Y-34206666D01*
X143759523Y-34254285D01*
X143854761Y-34349523D01*
X143902380Y-34492380D01*
X143902380Y-34730476D01*
X142997619Y-33778095D02*
X142950000Y-33730476D01*
X142902380Y-33635238D01*
X142902380Y-33397142D01*
X142950000Y-33301904D01*
X142997619Y-33254285D01*
X143092857Y-33206666D01*
X143188095Y-33206666D01*
X143330952Y-33254285D01*
X143902380Y-33825714D01*
X143902380Y-33206666D01*
X142902380Y-32587619D02*
X142902380Y-32492380D01*
X142950000Y-32397142D01*
X142997619Y-32349523D01*
X143092857Y-32301904D01*
X143283333Y-32254285D01*
X143521428Y-32254285D01*
X143711904Y-32301904D01*
X143807142Y-32349523D01*
X143854761Y-32397142D01*
X143902380Y-32492380D01*
X143902380Y-32587619D01*
X143854761Y-32682857D01*
X143807142Y-32730476D01*
X143711904Y-32778095D01*
X143521428Y-32825714D01*
X143283333Y-32825714D01*
X143092857Y-32778095D01*
X142997619Y-32730476D01*
X142950000Y-32682857D01*
X142902380Y-32587619D01*
X142902380Y-31349523D02*
X142902380Y-31825714D01*
X143378571Y-31873333D01*
X143330952Y-31825714D01*
X143283333Y-31730476D01*
X143283333Y-31492380D01*
X143330952Y-31397142D01*
X143378571Y-31349523D01*
X143473809Y-31301904D01*
X143711904Y-31301904D01*
X143807142Y-31349523D01*
X143854761Y-31397142D01*
X143902380Y-31492380D01*
X143902380Y-31730476D01*
X143854761Y-31825714D01*
X143807142Y-31873333D01*
X145165714Y-60622380D02*
X145165714Y-61431904D01*
X145213333Y-61527142D01*
X145260952Y-61574761D01*
X145356190Y-61622380D01*
X145546666Y-61622380D01*
X145641904Y-61574761D01*
X145689523Y-61527142D01*
X145737142Y-61431904D01*
X145737142Y-60622380D01*
X146165714Y-60717619D02*
X146213333Y-60670000D01*
X146308571Y-60622380D01*
X146546666Y-60622380D01*
X146641904Y-60670000D01*
X146689523Y-60717619D01*
X146737142Y-60812857D01*
X146737142Y-60908095D01*
X146689523Y-61050952D01*
X146118095Y-61622380D01*
X146737142Y-61622380D01*
X147356190Y-60622380D02*
X147451428Y-60622380D01*
X147546666Y-60670000D01*
X147594285Y-60717619D01*
X147641904Y-60812857D01*
X147689523Y-61003333D01*
X147689523Y-61241428D01*
X147641904Y-61431904D01*
X147594285Y-61527142D01*
X147546666Y-61574761D01*
X147451428Y-61622380D01*
X147356190Y-61622380D01*
X147260952Y-61574761D01*
X147213333Y-61527142D01*
X147165714Y-61431904D01*
X147118095Y-61241428D01*
X147118095Y-61003333D01*
X147165714Y-60812857D01*
X147213333Y-60717619D01*
X147260952Y-60670000D01*
X147356190Y-60622380D01*
X148070476Y-60717619D02*
X148118095Y-60670000D01*
X148213333Y-60622380D01*
X148451428Y-60622380D01*
X148546666Y-60670000D01*
X148594285Y-60717619D01*
X148641904Y-60812857D01*
X148641904Y-60908095D01*
X148594285Y-61050952D01*
X148022857Y-61622380D01*
X148641904Y-61622380D01*
X153687142Y-58799047D02*
X153734761Y-58846666D01*
X153782380Y-58989523D01*
X153782380Y-59084761D01*
X153734761Y-59227619D01*
X153639523Y-59322857D01*
X153544285Y-59370476D01*
X153353809Y-59418095D01*
X153210952Y-59418095D01*
X153020476Y-59370476D01*
X152925238Y-59322857D01*
X152830000Y-59227619D01*
X152782380Y-59084761D01*
X152782380Y-58989523D01*
X152830000Y-58846666D01*
X152877619Y-58799047D01*
X152877619Y-58418095D02*
X152830000Y-58370476D01*
X152782380Y-58275238D01*
X152782380Y-58037142D01*
X152830000Y-57941904D01*
X152877619Y-57894285D01*
X152972857Y-57846666D01*
X153068095Y-57846666D01*
X153210952Y-57894285D01*
X153782380Y-58465714D01*
X153782380Y-57846666D01*
X153782380Y-56894285D02*
X153782380Y-57465714D01*
X153782380Y-57180000D02*
X152782380Y-57180000D01*
X152925238Y-57275238D01*
X153020476Y-57370476D01*
X153068095Y-57465714D01*
X152782380Y-56037142D02*
X152782380Y-56227619D01*
X152830000Y-56322857D01*
X152877619Y-56370476D01*
X153020476Y-56465714D01*
X153210952Y-56513333D01*
X153591904Y-56513333D01*
X153687142Y-56465714D01*
X153734761Y-56418095D01*
X153782380Y-56322857D01*
X153782380Y-56132380D01*
X153734761Y-56037142D01*
X153687142Y-55989523D01*
X153591904Y-55941904D01*
X153353809Y-55941904D01*
X153258571Y-55989523D01*
X153210952Y-56037142D01*
X153163333Y-56132380D01*
X153163333Y-56322857D01*
X153210952Y-56418095D01*
X153258571Y-56465714D01*
X153353809Y-56513333D01*
D11*
X142546190Y-71365238D02*
X142046190Y-71365238D01*
X142046190Y-71246190D01*
X142070000Y-71174761D01*
X142117619Y-71127142D01*
X142165238Y-71103333D01*
X142260476Y-71079523D01*
X142331904Y-71079523D01*
X142427142Y-71103333D01*
X142474761Y-71127142D01*
X142522380Y-71174761D01*
X142546190Y-71246190D01*
X142546190Y-71365238D01*
X142546190Y-70603333D02*
X142546190Y-70889047D01*
X142546190Y-70746190D02*
X142046190Y-70746190D01*
X142117619Y-70793809D01*
X142165238Y-70841428D01*
X142189047Y-70889047D01*
X142046190Y-70293809D02*
X142046190Y-70246190D01*
X142070000Y-70198571D01*
X142093809Y-70174761D01*
X142141428Y-70150952D01*
X142236666Y-70127142D01*
X142355714Y-70127142D01*
X142450952Y-70150952D01*
X142498571Y-70174761D01*
X142522380Y-70198571D01*
X142546190Y-70246190D01*
X142546190Y-70293809D01*
X142522380Y-70341428D01*
X142498571Y-70365238D01*
X142450952Y-70389047D01*
X142355714Y-70412857D01*
X142236666Y-70412857D01*
X142141428Y-70389047D01*
X142093809Y-70365238D01*
X142070000Y-70341428D01*
X142046190Y-70293809D01*
X142546190Y-69650952D02*
X142546190Y-69936666D01*
X142546190Y-69793809D02*
X142046190Y-69793809D01*
X142117619Y-69841428D01*
X142165238Y-69889047D01*
X142189047Y-69936666D01*
D10*
X145624285Y-75972380D02*
X145624285Y-76686666D01*
X145576666Y-76829523D01*
X145481428Y-76924761D01*
X145338571Y-76972380D01*
X145243333Y-76972380D01*
X146624285Y-76972380D02*
X146052857Y-76972380D01*
X146338571Y-76972380D02*
X146338571Y-75972380D01*
X146243333Y-76115238D01*
X146148095Y-76210476D01*
X146052857Y-76258095D01*
X147243333Y-75972380D02*
X147338571Y-75972380D01*
X147433809Y-76020000D01*
X147481428Y-76067619D01*
X147529047Y-76162857D01*
X147576666Y-76353333D01*
X147576666Y-76591428D01*
X147529047Y-76781904D01*
X147481428Y-76877142D01*
X147433809Y-76924761D01*
X147338571Y-76972380D01*
X147243333Y-76972380D01*
X147148095Y-76924761D01*
X147100476Y-76877142D01*
X147052857Y-76781904D01*
X147005238Y-76591428D01*
X147005238Y-76353333D01*
X147052857Y-76162857D01*
X147100476Y-76067619D01*
X147148095Y-76020000D01*
X147243333Y-75972380D01*
X147910000Y-75972380D02*
X148529047Y-75972380D01*
X148195714Y-76353333D01*
X148338571Y-76353333D01*
X148433809Y-76400952D01*
X148481428Y-76448571D01*
X148529047Y-76543809D01*
X148529047Y-76781904D01*
X148481428Y-76877142D01*
X148433809Y-76924761D01*
X148338571Y-76972380D01*
X148052857Y-76972380D01*
X147957619Y-76924761D01*
X147910000Y-76877142D01*
X149612380Y-34159047D02*
X149136190Y-34492380D01*
X149612380Y-34730476D02*
X148612380Y-34730476D01*
X148612380Y-34349523D01*
X148660000Y-34254285D01*
X148707619Y-34206666D01*
X148802857Y-34159047D01*
X148945714Y-34159047D01*
X149040952Y-34206666D01*
X149088571Y-34254285D01*
X149136190Y-34349523D01*
X149136190Y-34730476D01*
X148707619Y-33778095D02*
X148660000Y-33730476D01*
X148612380Y-33635238D01*
X148612380Y-33397142D01*
X148660000Y-33301904D01*
X148707619Y-33254285D01*
X148802857Y-33206666D01*
X148898095Y-33206666D01*
X149040952Y-33254285D01*
X149612380Y-33825714D01*
X149612380Y-33206666D01*
X149612380Y-32254285D02*
X149612380Y-32825714D01*
X149612380Y-32540000D02*
X148612380Y-32540000D01*
X148755238Y-32635238D01*
X148850476Y-32730476D01*
X148898095Y-32825714D01*
X148707619Y-31873333D02*
X148660000Y-31825714D01*
X148612380Y-31730476D01*
X148612380Y-31492380D01*
X148660000Y-31397142D01*
X148707619Y-31349523D01*
X148802857Y-31301904D01*
X148898095Y-31301904D01*
X149040952Y-31349523D01*
X149612380Y-31920952D01*
X149612380Y-31301904D01*
X142852380Y-55269047D02*
X142376190Y-55602380D01*
X142852380Y-55840476D02*
X141852380Y-55840476D01*
X141852380Y-55459523D01*
X141900000Y-55364285D01*
X141947619Y-55316666D01*
X142042857Y-55269047D01*
X142185714Y-55269047D01*
X142280952Y-55316666D01*
X142328571Y-55364285D01*
X142376190Y-55459523D01*
X142376190Y-55840476D01*
X141947619Y-54888095D02*
X141900000Y-54840476D01*
X141852380Y-54745238D01*
X141852380Y-54507142D01*
X141900000Y-54411904D01*
X141947619Y-54364285D01*
X142042857Y-54316666D01*
X142138095Y-54316666D01*
X142280952Y-54364285D01*
X142852380Y-54935714D01*
X142852380Y-54316666D01*
X142852380Y-53364285D02*
X142852380Y-53935714D01*
X142852380Y-53650000D02*
X141852380Y-53650000D01*
X141995238Y-53745238D01*
X142090476Y-53840476D01*
X142138095Y-53935714D01*
X141852380Y-53030952D02*
X141852380Y-52411904D01*
X142233333Y-52745238D01*
X142233333Y-52602380D01*
X142280952Y-52507142D01*
X142328571Y-52459523D01*
X142423809Y-52411904D01*
X142661904Y-52411904D01*
X142757142Y-52459523D01*
X142804761Y-52507142D01*
X142852380Y-52602380D01*
X142852380Y-52888095D01*
X142804761Y-52983333D01*
X142757142Y-53030952D01*
X145144761Y-42825714D02*
X145192380Y-42682857D01*
X145192380Y-42444761D01*
X145144761Y-42349523D01*
X145097142Y-42301904D01*
X145001904Y-42254285D01*
X144906666Y-42254285D01*
X144811428Y-42301904D01*
X144763809Y-42349523D01*
X144716190Y-42444761D01*
X144668571Y-42635238D01*
X144620952Y-42730476D01*
X144573333Y-42778095D01*
X144478095Y-42825714D01*
X144382857Y-42825714D01*
X144287619Y-42778095D01*
X144240000Y-42730476D01*
X144192380Y-42635238D01*
X144192380Y-42397142D01*
X144240000Y-42254285D01*
X144192380Y-41920952D02*
X145192380Y-41682857D01*
X144478095Y-41492380D01*
X145192380Y-41301904D01*
X144192380Y-41063809D01*
X144287619Y-40730476D02*
X144240000Y-40682857D01*
X144192380Y-40587619D01*
X144192380Y-40349523D01*
X144240000Y-40254285D01*
X144287619Y-40206666D01*
X144382857Y-40159047D01*
X144478095Y-40159047D01*
X144620952Y-40206666D01*
X145192380Y-40778095D01*
X145192380Y-40159047D01*
X144192380Y-39540000D02*
X144192380Y-39444761D01*
X144240000Y-39349523D01*
X144287619Y-39301904D01*
X144382857Y-39254285D01*
X144573333Y-39206666D01*
X144811428Y-39206666D01*
X145001904Y-39254285D01*
X145097142Y-39301904D01*
X145144761Y-39349523D01*
X145192380Y-39444761D01*
X145192380Y-39540000D01*
X145144761Y-39635238D01*
X145097142Y-39682857D01*
X145001904Y-39730476D01*
X144811428Y-39778095D01*
X144573333Y-39778095D01*
X144382857Y-39730476D01*
X144287619Y-39682857D01*
X144240000Y-39635238D01*
X144192380Y-39540000D01*
X144287619Y-38825714D02*
X144240000Y-38778095D01*
X144192380Y-38682857D01*
X144192380Y-38444761D01*
X144240000Y-38349523D01*
X144287619Y-38301904D01*
X144382857Y-38254285D01*
X144478095Y-38254285D01*
X144620952Y-38301904D01*
X145192380Y-38873333D01*
X145192380Y-38254285D01*
X148137142Y-59009047D02*
X148184761Y-59056666D01*
X148232380Y-59199523D01*
X148232380Y-59294761D01*
X148184761Y-59437619D01*
X148089523Y-59532857D01*
X147994285Y-59580476D01*
X147803809Y-59628095D01*
X147660952Y-59628095D01*
X147470476Y-59580476D01*
X147375238Y-59532857D01*
X147280000Y-59437619D01*
X147232380Y-59294761D01*
X147232380Y-59199523D01*
X147280000Y-59056666D01*
X147327619Y-59009047D01*
X147327619Y-58628095D02*
X147280000Y-58580476D01*
X147232380Y-58485238D01*
X147232380Y-58247142D01*
X147280000Y-58151904D01*
X147327619Y-58104285D01*
X147422857Y-58056666D01*
X147518095Y-58056666D01*
X147660952Y-58104285D01*
X148232380Y-58675714D01*
X148232380Y-58056666D01*
X148232380Y-57104285D02*
X148232380Y-57675714D01*
X148232380Y-57390000D02*
X147232380Y-57390000D01*
X147375238Y-57485238D01*
X147470476Y-57580476D01*
X147518095Y-57675714D01*
X148232380Y-56628095D02*
X148232380Y-56437619D01*
X148184761Y-56342380D01*
X148137142Y-56294761D01*
X147994285Y-56199523D01*
X147803809Y-56151904D01*
X147422857Y-56151904D01*
X147327619Y-56199523D01*
X147280000Y-56247142D01*
X147232380Y-56342380D01*
X147232380Y-56532857D01*
X147280000Y-56628095D01*
X147327619Y-56675714D01*
X147422857Y-56723333D01*
X147660952Y-56723333D01*
X147756190Y-56675714D01*
X147803809Y-56628095D01*
X147851428Y-56532857D01*
X147851428Y-56342380D01*
X147803809Y-56247142D01*
X147756190Y-56199523D01*
X147660952Y-56151904D01*
X138979523Y-35762380D02*
X138979523Y-34762380D01*
X139217619Y-34762380D01*
X139360476Y-34810000D01*
X139455714Y-34905238D01*
X139503333Y-35000476D01*
X139550952Y-35190952D01*
X139550952Y-35333809D01*
X139503333Y-35524285D01*
X139455714Y-35619523D01*
X139360476Y-35714761D01*
X139217619Y-35762380D01*
X138979523Y-35762380D01*
X140503333Y-35762380D02*
X139931904Y-35762380D01*
X140217619Y-35762380D02*
X140217619Y-34762380D01*
X140122380Y-34905238D01*
X140027142Y-35000476D01*
X139931904Y-35048095D01*
X141122380Y-34762380D02*
X141217619Y-34762380D01*
X141312857Y-34810000D01*
X141360476Y-34857619D01*
X141408095Y-34952857D01*
X141455714Y-35143333D01*
X141455714Y-35381428D01*
X141408095Y-35571904D01*
X141360476Y-35667142D01*
X141312857Y-35714761D01*
X141217619Y-35762380D01*
X141122380Y-35762380D01*
X141027142Y-35714761D01*
X140979523Y-35667142D01*
X140931904Y-35571904D01*
X140884285Y-35381428D01*
X140884285Y-35143333D01*
X140931904Y-34952857D01*
X140979523Y-34857619D01*
X141027142Y-34810000D01*
X141122380Y-34762380D01*
X141789047Y-34762380D02*
X142408095Y-34762380D01*
X142074761Y-35143333D01*
X142217619Y-35143333D01*
X142312857Y-35190952D01*
X142360476Y-35238571D01*
X142408095Y-35333809D01*
X142408095Y-35571904D01*
X142360476Y-35667142D01*
X142312857Y-35714761D01*
X142217619Y-35762380D01*
X141931904Y-35762380D01*
X141836666Y-35714761D01*
X141789047Y-35667142D01*
X148332380Y-51129047D02*
X147856190Y-51462380D01*
X148332380Y-51700476D02*
X147332380Y-51700476D01*
X147332380Y-51319523D01*
X147380000Y-51224285D01*
X147427619Y-51176666D01*
X147522857Y-51129047D01*
X147665714Y-51129047D01*
X147760952Y-51176666D01*
X147808571Y-51224285D01*
X147856190Y-51319523D01*
X147856190Y-51700476D01*
X147427619Y-50748095D02*
X147380000Y-50700476D01*
X147332380Y-50605238D01*
X147332380Y-50367142D01*
X147380000Y-50271904D01*
X147427619Y-50224285D01*
X147522857Y-50176666D01*
X147618095Y-50176666D01*
X147760952Y-50224285D01*
X148332380Y-50795714D01*
X148332380Y-50176666D01*
X147332380Y-49557619D02*
X147332380Y-49462380D01*
X147380000Y-49367142D01*
X147427619Y-49319523D01*
X147522857Y-49271904D01*
X147713333Y-49224285D01*
X147951428Y-49224285D01*
X148141904Y-49271904D01*
X148237142Y-49319523D01*
X148284761Y-49367142D01*
X148332380Y-49462380D01*
X148332380Y-49557619D01*
X148284761Y-49652857D01*
X148237142Y-49700476D01*
X148141904Y-49748095D01*
X147951428Y-49795714D01*
X147713333Y-49795714D01*
X147522857Y-49748095D01*
X147427619Y-49700476D01*
X147380000Y-49652857D01*
X147332380Y-49557619D01*
X147665714Y-48367142D02*
X148332380Y-48367142D01*
X147284761Y-48605238D02*
X147999047Y-48843333D01*
X147999047Y-48224285D01*
X145122380Y-34169047D02*
X144646190Y-34502380D01*
X145122380Y-34740476D02*
X144122380Y-34740476D01*
X144122380Y-34359523D01*
X144170000Y-34264285D01*
X144217619Y-34216666D01*
X144312857Y-34169047D01*
X144455714Y-34169047D01*
X144550952Y-34216666D01*
X144598571Y-34264285D01*
X144646190Y-34359523D01*
X144646190Y-34740476D01*
X144217619Y-33788095D02*
X144170000Y-33740476D01*
X144122380Y-33645238D01*
X144122380Y-33407142D01*
X144170000Y-33311904D01*
X144217619Y-33264285D01*
X144312857Y-33216666D01*
X144408095Y-33216666D01*
X144550952Y-33264285D01*
X145122380Y-33835714D01*
X145122380Y-33216666D01*
X145122380Y-32264285D02*
X145122380Y-32835714D01*
X145122380Y-32550000D02*
X144122380Y-32550000D01*
X144265238Y-32645238D01*
X144360476Y-32740476D01*
X144408095Y-32835714D01*
X144455714Y-31407142D02*
X145122380Y-31407142D01*
X144074761Y-31645238D02*
X144789047Y-31883333D01*
X144789047Y-31264285D01*
X139578595Y-71841167D02*
X139006175Y-71740152D01*
X139174534Y-72245228D02*
X138467427Y-71538122D01*
X138736801Y-71268748D01*
X138837816Y-71235076D01*
X138905160Y-71235076D01*
X139006175Y-71268748D01*
X139107190Y-71369763D01*
X139140862Y-71470778D01*
X139140862Y-71538122D01*
X139107190Y-71639137D01*
X138837816Y-71908511D01*
X140252030Y-71167732D02*
X139847969Y-71571793D01*
X140050000Y-71369763D02*
X139342893Y-70662656D01*
X139376564Y-70831015D01*
X139376564Y-70965702D01*
X139342893Y-71066717D01*
X139982656Y-70022893D02*
X140050000Y-69955549D01*
X140151015Y-69921877D01*
X140218358Y-69921877D01*
X140319374Y-69955549D01*
X140487732Y-70056564D01*
X140656091Y-70224923D01*
X140757106Y-70393282D01*
X140790778Y-70494297D01*
X140790778Y-70561641D01*
X140757106Y-70662656D01*
X140689763Y-70730000D01*
X140588748Y-70763671D01*
X140521404Y-70763671D01*
X140420389Y-70730000D01*
X140252030Y-70628984D01*
X140083671Y-70460625D01*
X139982656Y-70292267D01*
X139948984Y-70191251D01*
X139948984Y-70123908D01*
X139982656Y-70022893D01*
X140555076Y-69585160D02*
X140555076Y-69517816D01*
X140588748Y-69416801D01*
X140757106Y-69248442D01*
X140858122Y-69214771D01*
X140925465Y-69214771D01*
X141026480Y-69248442D01*
X141093824Y-69315786D01*
X141161167Y-69450473D01*
X141161167Y-70258595D01*
X141598900Y-69820862D01*
X142052380Y-41309047D02*
X141576190Y-41642380D01*
X142052380Y-41880476D02*
X141052380Y-41880476D01*
X141052380Y-41499523D01*
X141100000Y-41404285D01*
X141147619Y-41356666D01*
X141242857Y-41309047D01*
X141385714Y-41309047D01*
X141480952Y-41356666D01*
X141528571Y-41404285D01*
X141576190Y-41499523D01*
X141576190Y-41880476D01*
X141147619Y-40928095D02*
X141100000Y-40880476D01*
X141052380Y-40785238D01*
X141052380Y-40547142D01*
X141100000Y-40451904D01*
X141147619Y-40404285D01*
X141242857Y-40356666D01*
X141338095Y-40356666D01*
X141480952Y-40404285D01*
X142052380Y-40975714D01*
X142052380Y-40356666D01*
X142052380Y-39404285D02*
X142052380Y-39975714D01*
X142052380Y-39690000D02*
X141052380Y-39690000D01*
X141195238Y-39785238D01*
X141290476Y-39880476D01*
X141338095Y-39975714D01*
X142052380Y-38451904D02*
X142052380Y-39023333D01*
X142052380Y-38737619D02*
X141052380Y-38737619D01*
X141195238Y-38832857D01*
X141290476Y-38928095D01*
X141338095Y-39023333D01*
D12*
X151625714Y-46585238D02*
X151663809Y-46623333D01*
X151701904Y-46737619D01*
X151701904Y-46813809D01*
X151663809Y-46928095D01*
X151587619Y-47004285D01*
X151511428Y-47042380D01*
X151359047Y-47080476D01*
X151244761Y-47080476D01*
X151092380Y-47042380D01*
X151016190Y-47004285D01*
X150940000Y-46928095D01*
X150901904Y-46813809D01*
X150901904Y-46737619D01*
X150940000Y-46623333D01*
X150978095Y-46585238D01*
X150978095Y-46280476D02*
X150940000Y-46242380D01*
X150901904Y-46166190D01*
X150901904Y-45975714D01*
X150940000Y-45899523D01*
X150978095Y-45861428D01*
X151054285Y-45823333D01*
X151130476Y-45823333D01*
X151244761Y-45861428D01*
X151701904Y-46318571D01*
X151701904Y-45823333D01*
X150901904Y-45328095D02*
X150901904Y-45251904D01*
X150940000Y-45175714D01*
X150978095Y-45137619D01*
X151054285Y-45099523D01*
X151206666Y-45061428D01*
X151397142Y-45061428D01*
X151549523Y-45099523D01*
X151625714Y-45137619D01*
X151663809Y-45175714D01*
X151701904Y-45251904D01*
X151701904Y-45328095D01*
X151663809Y-45404285D01*
X151625714Y-45442380D01*
X151549523Y-45480476D01*
X151397142Y-45518571D01*
X151206666Y-45518571D01*
X151054285Y-45480476D01*
X150978095Y-45442380D01*
X150940000Y-45404285D01*
X150901904Y-45328095D01*
X151701904Y-44680476D02*
X151701904Y-44528095D01*
X151663809Y-44451904D01*
X151625714Y-44413809D01*
X151511428Y-44337619D01*
X151359047Y-44299523D01*
X151054285Y-44299523D01*
X150978095Y-44337619D01*
X150940000Y-44375714D01*
X150901904Y-44451904D01*
X150901904Y-44604285D01*
X150940000Y-44680476D01*
X150978095Y-44718571D01*
X151054285Y-44756666D01*
X151244761Y-44756666D01*
X151320952Y-44718571D01*
X151359047Y-44680476D01*
X151397142Y-44604285D01*
X151397142Y-44451904D01*
X151359047Y-44375714D01*
X151320952Y-44337619D01*
X151244761Y-44299523D01*
D10*
X151860952Y-43257142D02*
X151813333Y-43304761D01*
X151670476Y-43352380D01*
X151575238Y-43352380D01*
X151432380Y-43304761D01*
X151337142Y-43209523D01*
X151289523Y-43114285D01*
X151241904Y-42923809D01*
X151241904Y-42780952D01*
X151289523Y-42590476D01*
X151337142Y-42495238D01*
X151432380Y-42400000D01*
X151575238Y-42352380D01*
X151670476Y-42352380D01*
X151813333Y-42400000D01*
X151860952Y-42447619D01*
X152241904Y-42447619D02*
X152289523Y-42400000D01*
X152384761Y-42352380D01*
X152622857Y-42352380D01*
X152718095Y-42400000D01*
X152765714Y-42447619D01*
X152813333Y-42542857D01*
X152813333Y-42638095D01*
X152765714Y-42780952D01*
X152194285Y-43352380D01*
X152813333Y-43352380D01*
X153432380Y-42352380D02*
X153527619Y-42352380D01*
X153622857Y-42400000D01*
X153670476Y-42447619D01*
X153718095Y-42542857D01*
X153765714Y-42733333D01*
X153765714Y-42971428D01*
X153718095Y-43161904D01*
X153670476Y-43257142D01*
X153622857Y-43304761D01*
X153527619Y-43352380D01*
X153432380Y-43352380D01*
X153337142Y-43304761D01*
X153289523Y-43257142D01*
X153241904Y-43161904D01*
X153194285Y-42971428D01*
X153194285Y-42733333D01*
X153241904Y-42542857D01*
X153289523Y-42447619D01*
X153337142Y-42400000D01*
X153432380Y-42352380D01*
X154718095Y-43352380D02*
X154146666Y-43352380D01*
X154432380Y-43352380D02*
X154432380Y-42352380D01*
X154337142Y-42495238D01*
X154241904Y-42590476D01*
X154146666Y-42638095D01*
X142863824Y-57388748D02*
X142931167Y-57388748D01*
X143065854Y-57456091D01*
X143133198Y-57523435D01*
X143200541Y-57658122D01*
X143200541Y-57792809D01*
X143166870Y-57893824D01*
X143065854Y-58062183D01*
X142964839Y-58163198D01*
X142796480Y-58264213D01*
X142695465Y-58297885D01*
X142560778Y-58297885D01*
X142426091Y-58230541D01*
X142358748Y-58163198D01*
X142291404Y-58028511D01*
X142291404Y-57961167D01*
X142022030Y-57691793D02*
X141954687Y-57691793D01*
X141853671Y-57658122D01*
X141685312Y-57489763D01*
X141651641Y-57388748D01*
X141651641Y-57321404D01*
X141685312Y-57220389D01*
X141752656Y-57153045D01*
X141887343Y-57085702D01*
X142695465Y-57085702D01*
X142257732Y-56647969D01*
X141584297Y-55974534D02*
X141988358Y-56378595D01*
X141786328Y-56176564D02*
X141079221Y-56883671D01*
X141247580Y-56849999D01*
X141382267Y-56850000D01*
X141483282Y-56883671D01*
X140675160Y-56344923D02*
X140607816Y-56344923D01*
X140506801Y-56311251D01*
X140338442Y-56142893D01*
X140304771Y-56041877D01*
X140304771Y-55974534D01*
X140338442Y-55873519D01*
X140405786Y-55806175D01*
X140540473Y-55738832D01*
X141348595Y-55738832D01*
X140910862Y-55301099D01*
X148382380Y-34720476D02*
X147382380Y-34720476D01*
X147382380Y-34482380D01*
X147430000Y-34339523D01*
X147525238Y-34244285D01*
X147620476Y-34196666D01*
X147810952Y-34149047D01*
X147953809Y-34149047D01*
X148144285Y-34196666D01*
X148239523Y-34244285D01*
X148334761Y-34339523D01*
X148382380Y-34482380D01*
X148382380Y-34720476D01*
X147477619Y-33768095D02*
X147430000Y-33720476D01*
X147382380Y-33625238D01*
X147382380Y-33387142D01*
X147430000Y-33291904D01*
X147477619Y-33244285D01*
X147572857Y-33196666D01*
X147668095Y-33196666D01*
X147810952Y-33244285D01*
X148382380Y-33815714D01*
X148382380Y-33196666D01*
X147382380Y-32577619D02*
X147382380Y-32482380D01*
X147430000Y-32387142D01*
X147477619Y-32339523D01*
X147572857Y-32291904D01*
X147763333Y-32244285D01*
X148001428Y-32244285D01*
X148191904Y-32291904D01*
X148287142Y-32339523D01*
X148334761Y-32387142D01*
X148382380Y-32482380D01*
X148382380Y-32577619D01*
X148334761Y-32672857D01*
X148287142Y-32720476D01*
X148191904Y-32768095D01*
X148001428Y-32815714D01*
X147763333Y-32815714D01*
X147572857Y-32768095D01*
X147477619Y-32720476D01*
X147430000Y-32672857D01*
X147382380Y-32577619D01*
X147477619Y-31863333D02*
X147430000Y-31815714D01*
X147382380Y-31720476D01*
X147382380Y-31482380D01*
X147430000Y-31387142D01*
X147477619Y-31339523D01*
X147572857Y-31291904D01*
X147668095Y-31291904D01*
X147810952Y-31339523D01*
X148382380Y-31910952D01*
X148382380Y-31291904D01*
X149802380Y-51149047D02*
X149326190Y-51482380D01*
X149802380Y-51720476D02*
X148802380Y-51720476D01*
X148802380Y-51339523D01*
X148850000Y-51244285D01*
X148897619Y-51196666D01*
X148992857Y-51149047D01*
X149135714Y-51149047D01*
X149230952Y-51196666D01*
X149278571Y-51244285D01*
X149326190Y-51339523D01*
X149326190Y-51720476D01*
X148897619Y-50768095D02*
X148850000Y-50720476D01*
X148802380Y-50625238D01*
X148802380Y-50387142D01*
X148850000Y-50291904D01*
X148897619Y-50244285D01*
X148992857Y-50196666D01*
X149088095Y-50196666D01*
X149230952Y-50244285D01*
X149802380Y-50815714D01*
X149802380Y-50196666D01*
X148802380Y-49577619D02*
X148802380Y-49482380D01*
X148850000Y-49387142D01*
X148897619Y-49339523D01*
X148992857Y-49291904D01*
X149183333Y-49244285D01*
X149421428Y-49244285D01*
X149611904Y-49291904D01*
X149707142Y-49339523D01*
X149754761Y-49387142D01*
X149802380Y-49482380D01*
X149802380Y-49577619D01*
X149754761Y-49672857D01*
X149707142Y-49720476D01*
X149611904Y-49768095D01*
X149421428Y-49815714D01*
X149183333Y-49815714D01*
X148992857Y-49768095D01*
X148897619Y-49720476D01*
X148850000Y-49672857D01*
X148802380Y-49577619D01*
X148802380Y-48910952D02*
X148802380Y-48291904D01*
X149183333Y-48625238D01*
X149183333Y-48482380D01*
X149230952Y-48387142D01*
X149278571Y-48339523D01*
X149373809Y-48291904D01*
X149611904Y-48291904D01*
X149707142Y-48339523D01*
X149754761Y-48387142D01*
X149802380Y-48482380D01*
X149802380Y-48768095D01*
X149754761Y-48863333D01*
X149707142Y-48910952D01*
X150422380Y-71079047D02*
X149946190Y-71412380D01*
X150422380Y-71650476D02*
X149422380Y-71650476D01*
X149422380Y-71269523D01*
X149470000Y-71174285D01*
X149517619Y-71126666D01*
X149612857Y-71079047D01*
X149755714Y-71079047D01*
X149850952Y-71126666D01*
X149898571Y-71174285D01*
X149946190Y-71269523D01*
X149946190Y-71650476D01*
X150422380Y-70126666D02*
X150422380Y-70698095D01*
X150422380Y-70412380D02*
X149422380Y-70412380D01*
X149565238Y-70507619D01*
X149660476Y-70602857D01*
X149708095Y-70698095D01*
X149422380Y-69507619D02*
X149422380Y-69412380D01*
X149470000Y-69317142D01*
X149517619Y-69269523D01*
X149612857Y-69221904D01*
X149803333Y-69174285D01*
X150041428Y-69174285D01*
X150231904Y-69221904D01*
X150327142Y-69269523D01*
X150374761Y-69317142D01*
X150422380Y-69412380D01*
X150422380Y-69507619D01*
X150374761Y-69602857D01*
X150327142Y-69650476D01*
X150231904Y-69698095D01*
X150041428Y-69745714D01*
X149803333Y-69745714D01*
X149612857Y-69698095D01*
X149517619Y-69650476D01*
X149470000Y-69602857D01*
X149422380Y-69507619D01*
X150422380Y-68221904D02*
X150422380Y-68793333D01*
X150422380Y-68507619D02*
X149422380Y-68507619D01*
X149565238Y-68602857D01*
X149660476Y-68698095D01*
X149708095Y-68793333D01*
X146312380Y-64939047D02*
X145836190Y-65272380D01*
X146312380Y-65510476D02*
X145312380Y-65510476D01*
X145312380Y-65129523D01*
X145360000Y-65034285D01*
X145407619Y-64986666D01*
X145502857Y-64939047D01*
X145645714Y-64939047D01*
X145740952Y-64986666D01*
X145788571Y-65034285D01*
X145836190Y-65129523D01*
X145836190Y-65510476D01*
X145407619Y-64558095D02*
X145360000Y-64510476D01*
X145312380Y-64415238D01*
X145312380Y-64177142D01*
X145360000Y-64081904D01*
X145407619Y-64034285D01*
X145502857Y-63986666D01*
X145598095Y-63986666D01*
X145740952Y-64034285D01*
X146312380Y-64605714D01*
X146312380Y-63986666D01*
X145312380Y-63367619D02*
X145312380Y-63272380D01*
X145360000Y-63177142D01*
X145407619Y-63129523D01*
X145502857Y-63081904D01*
X145693333Y-63034285D01*
X145931428Y-63034285D01*
X146121904Y-63081904D01*
X146217142Y-63129523D01*
X146264761Y-63177142D01*
X146312380Y-63272380D01*
X146312380Y-63367619D01*
X146264761Y-63462857D01*
X146217142Y-63510476D01*
X146121904Y-63558095D01*
X145931428Y-63605714D01*
X145693333Y-63605714D01*
X145502857Y-63558095D01*
X145407619Y-63510476D01*
X145360000Y-63462857D01*
X145312380Y-63367619D01*
X146312380Y-62081904D02*
X146312380Y-62653333D01*
X146312380Y-62367619D02*
X145312380Y-62367619D01*
X145455238Y-62462857D01*
X145550476Y-62558095D01*
X145598095Y-62653333D01*
X148837142Y-64899047D02*
X148884761Y-64946666D01*
X148932380Y-65089523D01*
X148932380Y-65184761D01*
X148884761Y-65327619D01*
X148789523Y-65422857D01*
X148694285Y-65470476D01*
X148503809Y-65518095D01*
X148360952Y-65518095D01*
X148170476Y-65470476D01*
X148075238Y-65422857D01*
X147980000Y-65327619D01*
X147932380Y-65184761D01*
X147932380Y-65089523D01*
X147980000Y-64946666D01*
X148027619Y-64899047D01*
X148027619Y-64518095D02*
X147980000Y-64470476D01*
X147932380Y-64375238D01*
X147932380Y-64137142D01*
X147980000Y-64041904D01*
X148027619Y-63994285D01*
X148122857Y-63946666D01*
X148218095Y-63946666D01*
X148360952Y-63994285D01*
X148932380Y-64565714D01*
X148932380Y-63946666D01*
X147932380Y-63327619D02*
X147932380Y-63232380D01*
X147980000Y-63137142D01*
X148027619Y-63089523D01*
X148122857Y-63041904D01*
X148313333Y-62994285D01*
X148551428Y-62994285D01*
X148741904Y-63041904D01*
X148837142Y-63089523D01*
X148884761Y-63137142D01*
X148932380Y-63232380D01*
X148932380Y-63327619D01*
X148884761Y-63422857D01*
X148837142Y-63470476D01*
X148741904Y-63518095D01*
X148551428Y-63565714D01*
X148313333Y-63565714D01*
X148122857Y-63518095D01*
X148027619Y-63470476D01*
X147980000Y-63422857D01*
X147932380Y-63327619D01*
X148027619Y-62613333D02*
X147980000Y-62565714D01*
X147932380Y-62470476D01*
X147932380Y-62232380D01*
X147980000Y-62137142D01*
X148027619Y-62089523D01*
X148122857Y-62041904D01*
X148218095Y-62041904D01*
X148360952Y-62089523D01*
X148932380Y-62660952D01*
X148932380Y-62041904D01*
X143627142Y-44229047D02*
X143674761Y-44276666D01*
X143722380Y-44419523D01*
X143722380Y-44514761D01*
X143674761Y-44657619D01*
X143579523Y-44752857D01*
X143484285Y-44800476D01*
X143293809Y-44848095D01*
X143150952Y-44848095D01*
X142960476Y-44800476D01*
X142865238Y-44752857D01*
X142770000Y-44657619D01*
X142722380Y-44514761D01*
X142722380Y-44419523D01*
X142770000Y-44276666D01*
X142817619Y-44229047D01*
X142817619Y-43848095D02*
X142770000Y-43800476D01*
X142722380Y-43705238D01*
X142722380Y-43467142D01*
X142770000Y-43371904D01*
X142817619Y-43324285D01*
X142912857Y-43276666D01*
X143008095Y-43276666D01*
X143150952Y-43324285D01*
X143722380Y-43895714D01*
X143722380Y-43276666D01*
X142817619Y-42895714D02*
X142770000Y-42848095D01*
X142722380Y-42752857D01*
X142722380Y-42514761D01*
X142770000Y-42419523D01*
X142817619Y-42371904D01*
X142912857Y-42324285D01*
X143008095Y-42324285D01*
X143150952Y-42371904D01*
X143722380Y-42943333D01*
X143722380Y-42324285D01*
X142817619Y-41943333D02*
X142770000Y-41895714D01*
X142722380Y-41800476D01*
X142722380Y-41562380D01*
X142770000Y-41467142D01*
X142817619Y-41419523D01*
X142912857Y-41371904D01*
X143008095Y-41371904D01*
X143150952Y-41419523D01*
X143722380Y-41990952D01*
X143722380Y-41371904D01*
X146362380Y-34740476D02*
X145362380Y-34740476D01*
X145362380Y-34502380D01*
X145410000Y-34359523D01*
X145505238Y-34264285D01*
X145600476Y-34216666D01*
X145790952Y-34169047D01*
X145933809Y-34169047D01*
X146124285Y-34216666D01*
X146219523Y-34264285D01*
X146314761Y-34359523D01*
X146362380Y-34502380D01*
X146362380Y-34740476D01*
X145457619Y-33788095D02*
X145410000Y-33740476D01*
X145362380Y-33645238D01*
X145362380Y-33407142D01*
X145410000Y-33311904D01*
X145457619Y-33264285D01*
X145552857Y-33216666D01*
X145648095Y-33216666D01*
X145790952Y-33264285D01*
X146362380Y-33835714D01*
X146362380Y-33216666D01*
X145362380Y-32597619D02*
X145362380Y-32502380D01*
X145410000Y-32407142D01*
X145457619Y-32359523D01*
X145552857Y-32311904D01*
X145743333Y-32264285D01*
X145981428Y-32264285D01*
X146171904Y-32311904D01*
X146267142Y-32359523D01*
X146314761Y-32407142D01*
X146362380Y-32502380D01*
X146362380Y-32597619D01*
X146314761Y-32692857D01*
X146267142Y-32740476D01*
X146171904Y-32788095D01*
X145981428Y-32835714D01*
X145743333Y-32835714D01*
X145552857Y-32788095D01*
X145457619Y-32740476D01*
X145410000Y-32692857D01*
X145362380Y-32597619D01*
X146362380Y-31311904D02*
X146362380Y-31883333D01*
X146362380Y-31597619D02*
X145362380Y-31597619D01*
X145505238Y-31692857D01*
X145600476Y-31788095D01*
X145648095Y-31883333D01*
X150932380Y-34740476D02*
X149932380Y-34740476D01*
X149932380Y-34502380D01*
X149980000Y-34359523D01*
X150075238Y-34264285D01*
X150170476Y-34216666D01*
X150360952Y-34169047D01*
X150503809Y-34169047D01*
X150694285Y-34216666D01*
X150789523Y-34264285D01*
X150884761Y-34359523D01*
X150932380Y-34502380D01*
X150932380Y-34740476D01*
X150027619Y-33788095D02*
X149980000Y-33740476D01*
X149932380Y-33645238D01*
X149932380Y-33407142D01*
X149980000Y-33311904D01*
X150027619Y-33264285D01*
X150122857Y-33216666D01*
X150218095Y-33216666D01*
X150360952Y-33264285D01*
X150932380Y-33835714D01*
X150932380Y-33216666D01*
X149932380Y-32597619D02*
X149932380Y-32502380D01*
X149980000Y-32407142D01*
X150027619Y-32359523D01*
X150122857Y-32311904D01*
X150313333Y-32264285D01*
X150551428Y-32264285D01*
X150741904Y-32311904D01*
X150837142Y-32359523D01*
X150884761Y-32407142D01*
X150932380Y-32502380D01*
X150932380Y-32597619D01*
X150884761Y-32692857D01*
X150837142Y-32740476D01*
X150741904Y-32788095D01*
X150551428Y-32835714D01*
X150313333Y-32835714D01*
X150122857Y-32788095D01*
X150027619Y-32740476D01*
X149980000Y-32692857D01*
X149932380Y-32597619D01*
X149932380Y-31930952D02*
X149932380Y-31311904D01*
X150313333Y-31645238D01*
X150313333Y-31502380D01*
X150360952Y-31407142D01*
X150408571Y-31359523D01*
X150503809Y-31311904D01*
X150741904Y-31311904D01*
X150837142Y-31359523D01*
X150884761Y-31407142D01*
X150932380Y-31502380D01*
X150932380Y-31788095D01*
X150884761Y-31883333D01*
X150837142Y-31930952D01*
D12*
X150760000Y-63150000D02*
X150760000Y-61450000D01*
X150760000Y-61450000D02*
X153360000Y-61450000D01*
X153360000Y-63150000D02*
X150760000Y-63150000D01*
X153360000Y-61450000D02*
X153360000Y-63150000D01*
X143050000Y-61460000D02*
X143050000Y-63160000D01*
X143050000Y-63160000D02*
X140450000Y-63160000D01*
X140450000Y-61460000D02*
X143050000Y-61460000D01*
X140450000Y-63160000D02*
X140450000Y-61460000D01*
X145370000Y-69260000D02*
X145370000Y-67560000D01*
X147970000Y-67560000D02*
X147970000Y-69260000D01*
X145370000Y-67560000D02*
X147970000Y-67560000D01*
X147970000Y-69260000D02*
X145370000Y-69260000D01*
X149530000Y-57450000D02*
X149530000Y-54850000D01*
X151230000Y-57450000D02*
X149530000Y-57450000D01*
X149530000Y-54850000D02*
X151230000Y-54850000D01*
X151230000Y-54850000D02*
X151230000Y-57450000D01*
D13*
X152970000Y-37330000D02*
X152370000Y-36930000D01*
X151970000Y-36930000D02*
X152370000Y-36930000D01*
X154120000Y-37830000D02*
X151320000Y-37830000D01*
X152370000Y-36930000D02*
X152970000Y-36530000D01*
X154120000Y-36030000D02*
X154120000Y-37830000D01*
X152370000Y-36930000D02*
X152370000Y-36380000D01*
X152370000Y-36930000D02*
X152370000Y-37480000D01*
X151320000Y-37830000D02*
X151320000Y-36030000D01*
X152970000Y-36530000D02*
X152970000Y-37330000D01*
X151320000Y-36030000D02*
X154120000Y-36030000D01*
X152970000Y-36930000D02*
X153470000Y-36930000D01*
D12*
X147960000Y-65710000D02*
X147960000Y-68310000D01*
X147960000Y-68310000D02*
X146260000Y-68310000D01*
X146260000Y-65710000D02*
X147960000Y-65710000D01*
X146260000Y-68310000D02*
X146260000Y-65710000D01*
X148410000Y-41960000D02*
X151010000Y-41960000D01*
X151010000Y-41960000D02*
X151010000Y-43660000D01*
X151010000Y-43660000D02*
X148410000Y-43660000D01*
X148410000Y-43660000D02*
X148410000Y-41960000D01*
X143520000Y-67560000D02*
X146120000Y-67560000D01*
X146120000Y-69260000D02*
X143520000Y-69260000D01*
X146120000Y-67560000D02*
X146120000Y-69260000D01*
X143520000Y-69260000D02*
X143520000Y-67560000D01*
X145790000Y-54350000D02*
X147490000Y-54350000D01*
X147490000Y-56950000D02*
X145790000Y-56950000D01*
X145790000Y-56950000D02*
X145790000Y-54350000D01*
X147490000Y-54350000D02*
X147490000Y-56950000D01*
X148580000Y-57450000D02*
X148580000Y-54850000D01*
X150280000Y-57450000D02*
X148580000Y-57450000D01*
X150280000Y-54850000D02*
X150280000Y-57450000D01*
X148580000Y-54850000D02*
X150280000Y-54850000D01*
D13*
X152150000Y-69520000D02*
X150950000Y-69520000D01*
X150950000Y-71220000D02*
X151250000Y-71520000D01*
X152150000Y-71520000D02*
X152150000Y-69520000D01*
X151250000Y-71520000D02*
X152150000Y-71520000D01*
X150950000Y-69520000D02*
X150950000Y-71220000D01*
X151760000Y-38250000D02*
X151760000Y-40750000D01*
X151760000Y-40750000D02*
X148260000Y-40750000D01*
X147260000Y-39750000D02*
X147260000Y-38250000D01*
X148260000Y-40750000D02*
X147260000Y-39750000D01*
X147260000Y-38250000D02*
X151760000Y-38250000D01*
D12*
X148749720Y-66691802D02*
X149951802Y-65489720D01*
X150588198Y-68530280D02*
X148749720Y-66691802D01*
X151790280Y-67328198D02*
X150588198Y-68530280D01*
X149951802Y-65489720D02*
X151790280Y-67328198D01*
D13*
X146025000Y-46485000D02*
X146025000Y-51715000D01*
X146025000Y-51715000D02*
X141795000Y-51715000D01*
X140795000Y-50715000D02*
X140795000Y-46485000D01*
X141795000Y-51715000D02*
X140795000Y-50715000D01*
X140795000Y-46485000D02*
X146025000Y-46485000D01*
X152140000Y-51880000D02*
X150540000Y-51880000D01*
X152140000Y-48680000D02*
X152140000Y-51880000D01*
X150540000Y-48680000D02*
X152140000Y-48680000D01*
X150540000Y-51880000D02*
X150540000Y-48680000D01*
D14*
X151380000Y-34000000D02*
X151380000Y-26700000D01*
X142440000Y-26700000D02*
X142440000Y-34000000D01*
X151380000Y-26700000D02*
X142440000Y-26700000D01*
X142440000Y-34000000D02*
X151380000Y-34000000D01*
D15*
X150410000Y-35700000D02*
G75*
G03*
X150410000Y-35700000I-100000J0D01*
G01*
D12*
X143210000Y-35120000D02*
X144910000Y-35120000D01*
X143210000Y-37720000D02*
X143210000Y-35120000D01*
X144910000Y-35120000D02*
X144910000Y-37720000D01*
X144910000Y-37720000D02*
X143210000Y-37720000D01*
D14*
X150410000Y-57800000D02*
X143410000Y-57800000D01*
X150410000Y-64800000D02*
X143410000Y-64800000D01*
X150410000Y-64800000D02*
X150410000Y-57800000D01*
X143410000Y-64800000D02*
X143410000Y-57800000D01*
D15*
X142535000Y-58700000D02*
G75*
G03*
X142535000Y-58700000I-100000J0D01*
G01*
D12*
X150770000Y-56700000D02*
X152470000Y-56700000D01*
X150770000Y-59300000D02*
X150770000Y-56700000D01*
X152470000Y-56700000D02*
X152470000Y-59300000D01*
X152470000Y-59300000D02*
X150770000Y-59300000D01*
D13*
X142920000Y-71520000D02*
X142920000Y-69520000D01*
X141720000Y-69520000D02*
X141720000Y-71220000D01*
X142920000Y-69520000D02*
X141720000Y-69520000D01*
X141720000Y-71220000D02*
X142020000Y-71520000D01*
X142020000Y-71520000D02*
X142920000Y-71520000D01*
X143100000Y-75250000D02*
X150085000Y-75250000D01*
X150720000Y-75885000D02*
X150720000Y-77790000D01*
X149770000Y-83790000D02*
X149130000Y-83790000D01*
X144690000Y-83790000D02*
X144050000Y-83790000D01*
X149770000Y-73430000D02*
X149130000Y-73430000D01*
X144690000Y-73430000D02*
X144690000Y-75250000D01*
X143100000Y-77790000D02*
X143100000Y-75250000D01*
X149770000Y-77790000D02*
X149770000Y-83790000D01*
X147230000Y-77790000D02*
X147230000Y-83790000D01*
X146590000Y-77790000D02*
X146590000Y-83790000D01*
X146590000Y-73430000D02*
X146590000Y-75250000D01*
X147230000Y-73430000D02*
X146590000Y-73430000D01*
X149770000Y-73430000D02*
X149770000Y-75250000D01*
X144690000Y-77790000D02*
X144690000Y-83790000D01*
X149130000Y-73430000D02*
X149130000Y-75250000D01*
X144050000Y-73430000D02*
X144050000Y-75250000D01*
X150085000Y-75250000D02*
X150720000Y-75885000D01*
X147230000Y-83790000D02*
X146590000Y-83790000D01*
X149130000Y-77790000D02*
X149130000Y-83790000D01*
X144050000Y-77790000D02*
X144050000Y-83790000D01*
X147230000Y-73430000D02*
X147230000Y-75250000D01*
X150720000Y-77790000D02*
X143100000Y-77790000D01*
X144690000Y-73430000D02*
X144050000Y-73430000D01*
D14*
X143720000Y-69270000D02*
X146920000Y-69270000D01*
X143720000Y-71770000D02*
X143720000Y-69270000D01*
X146920000Y-69270000D02*
X146920000Y-71770000D01*
X146920000Y-71770000D02*
X143720000Y-71770000D01*
D15*
X144320000Y-72570000D02*
G75*
G03*
X144320000Y-72570000I-100000J0D01*
G01*
D12*
X149560000Y-37720000D02*
X147860000Y-37720000D01*
X147860000Y-37720000D02*
X147860000Y-35120000D01*
X149560000Y-35120000D02*
X149560000Y-37720000D01*
X147860000Y-35120000D02*
X149560000Y-35120000D01*
X141500000Y-56640000D02*
X141500000Y-54040000D01*
X141500000Y-54040000D02*
X143200000Y-54040000D01*
X143200000Y-56640000D02*
X141500000Y-56640000D01*
X143200000Y-54040000D02*
X143200000Y-56640000D01*
X148440000Y-56950000D02*
X146740000Y-56950000D01*
X148440000Y-54350000D02*
X148440000Y-56950000D01*
X146740000Y-56950000D02*
X146740000Y-54350000D01*
X146740000Y-54350000D02*
X148440000Y-54350000D01*
D13*
X140770000Y-36920000D02*
X140270000Y-36920000D01*
X141370000Y-36920000D02*
X140770000Y-37320000D01*
X139620000Y-36020000D02*
X142420000Y-36020000D01*
X142420000Y-36020000D02*
X142420000Y-37820000D01*
X141770000Y-36920000D02*
X141370000Y-36920000D01*
X140770000Y-36520000D02*
X141370000Y-36920000D01*
X139620000Y-37820000D02*
X139620000Y-36020000D01*
X140770000Y-37320000D02*
X140770000Y-36520000D01*
X142420000Y-37820000D02*
X139620000Y-37820000D01*
X141370000Y-36920000D02*
X141370000Y-37470000D01*
X141370000Y-36920000D02*
X141370000Y-36370000D01*
D12*
X147200000Y-54540000D02*
X147200000Y-51940000D01*
X147200000Y-51940000D02*
X148900000Y-51940000D01*
X148900000Y-54540000D02*
X147200000Y-54540000D01*
X148900000Y-51940000D02*
X148900000Y-54540000D01*
X144155000Y-37720000D02*
X144155000Y-35120000D01*
X145855000Y-37720000D02*
X144155000Y-37720000D01*
X145855000Y-35120000D02*
X145855000Y-37720000D01*
X144155000Y-35120000D02*
X145855000Y-35120000D01*
X145820280Y-66651802D02*
X143981802Y-68490280D01*
X142779720Y-67288198D02*
X144618198Y-65449720D01*
X144618198Y-65449720D02*
X145820280Y-66651802D01*
X143981802Y-68490280D02*
X142779720Y-67288198D01*
X140700000Y-42000000D02*
X140700000Y-39400000D01*
X142400000Y-39400000D02*
X142400000Y-42000000D01*
X142400000Y-42000000D02*
X140700000Y-42000000D01*
X140700000Y-39400000D02*
X142400000Y-39400000D01*
D13*
X152140000Y-44090000D02*
X152140000Y-47290000D01*
X152140000Y-47290000D02*
X150540000Y-47290000D01*
X150540000Y-47290000D02*
X150540000Y-44090000D01*
X150540000Y-44090000D02*
X152140000Y-44090000D01*
D12*
X150410000Y-43660000D02*
X150410000Y-41960000D01*
X153010000Y-41960000D02*
X153010000Y-43660000D01*
X150410000Y-41960000D02*
X153010000Y-41960000D01*
X153010000Y-43660000D02*
X150410000Y-43660000D01*
X143620280Y-57438198D02*
X142418198Y-58640280D01*
X142418198Y-58640280D02*
X140579720Y-56801802D01*
X140579720Y-56801802D02*
X141781802Y-55599720D01*
X141781802Y-55599720D02*
X143620280Y-57438198D01*
X146910000Y-35120000D02*
X148610000Y-35120000D01*
X146910000Y-37720000D02*
X146910000Y-35120000D01*
X148610000Y-35120000D02*
X148610000Y-37720000D01*
X148610000Y-37720000D02*
X146910000Y-37720000D01*
X149850000Y-51940000D02*
X149850000Y-54540000D01*
X149850000Y-54540000D02*
X148150000Y-54540000D01*
X148150000Y-51940000D02*
X149850000Y-51940000D01*
X148150000Y-54540000D02*
X148150000Y-51940000D01*
X150845000Y-67555000D02*
X150845000Y-70155000D01*
X149145000Y-67555000D02*
X150845000Y-67555000D01*
X149145000Y-70155000D02*
X149145000Y-67555000D01*
X150845000Y-70155000D02*
X149145000Y-70155000D01*
X147010000Y-68310000D02*
X145310000Y-68310000D01*
X145310000Y-65710000D02*
X147010000Y-65710000D01*
X147010000Y-65710000D02*
X147010000Y-68310000D01*
X145310000Y-68310000D02*
X145310000Y-65710000D01*
X148910000Y-68310000D02*
X147210000Y-68310000D01*
X148910000Y-65710000D02*
X148910000Y-68310000D01*
X147210000Y-65710000D02*
X148910000Y-65710000D01*
X147210000Y-68310000D02*
X147210000Y-65710000D01*
X142400000Y-44560000D02*
X140700000Y-44560000D01*
X142400000Y-41960000D02*
X142400000Y-44560000D01*
X140700000Y-44560000D02*
X140700000Y-41960000D01*
X140700000Y-41960000D02*
X142400000Y-41960000D01*
X145110000Y-35120000D02*
X146810000Y-35120000D01*
X146810000Y-37720000D02*
X145110000Y-37720000D01*
X145110000Y-37720000D02*
X145110000Y-35120000D01*
X146810000Y-35120000D02*
X146810000Y-37720000D01*
X148810000Y-35120000D02*
X150510000Y-35120000D01*
X150510000Y-35120000D02*
X150510000Y-37720000D01*
X150510000Y-37720000D02*
X148810000Y-37720000D01*
X148810000Y-37720000D02*
X148810000Y-35120000D01*
M02*
