G04 #@! TF.GenerationSoftware,KiCad,Pcbnew,(6.0.4)*
G04 #@! TF.CreationDate,2022-04-05T22:09:30-06:00*
G04 #@! TF.ProjectId,2208 - RP2040 Simple Dev Board,32323038-202d-4205-9250-323034302053,1*
G04 #@! TF.SameCoordinates,Original*
G04 #@! TF.FileFunction,Copper,L1,Top*
G04 #@! TF.FilePolarity,Positive*
%FSLAX46Y46*%
G04 Gerber Fmt 4.6, Leading zero omitted, Abs format (unit mm)*
G04 Created by KiCad (PCBNEW (6.0.4)) date 2022-04-05 22:09:30*
%MOMM*%
%LPD*%
G01*
G04 APERTURE LIST*
G04 Aperture macros list*
%AMRoundRect*
0 Rectangle with rounded corners*
0 $1 Rounding radius*
0 $2 $3 $4 $5 $6 $7 $8 $9 X,Y pos of 4 corners*
0 Add a 4 corners polygon primitive as box body*
4,1,4,$2,$3,$4,$5,$6,$7,$8,$9,$2,$3,0*
0 Add four circle primitives for the rounded corners*
1,1,$1+$1,$2,$3*
1,1,$1+$1,$4,$5*
1,1,$1+$1,$6,$7*
1,1,$1+$1,$8,$9*
0 Add four rect primitives between the rounded corners*
20,1,$1+$1,$2,$3,$4,$5,0*
20,1,$1+$1,$4,$5,$6,$7,0*
20,1,$1+$1,$6,$7,$8,$9,0*
20,1,$1+$1,$8,$9,$2,$3,0*%
%AMFreePoly0*
4,1,9,3.862500,-0.866500,0.737500,-0.866500,0.737500,-0.450000,-0.737500,-0.450000,-0.737500,0.450000,0.737500,0.450000,0.737500,0.866500,3.862500,0.866500,3.862500,-0.866500,3.862500,-0.866500,$1*%
%AMFreePoly1*
4,1,5,0.700000,-0.600000,-0.700000,-0.600000,-0.700000,0.600000,0.700000,0.600000,0.700000,-0.600000,0.700000,-0.600000,$1*%
G04 Aperture macros list end*
G04 #@! TA.AperFunction,SMDPad,CuDef*
%ADD10R,0.600000X0.700000*%
G04 #@! TD*
G04 #@! TA.AperFunction,SMDPad,CuDef*
%ADD11R,0.700000X0.600000*%
G04 #@! TD*
G04 #@! TA.AperFunction,SMDPad,CuDef*
%ADD12R,0.900000X1.200000*%
G04 #@! TD*
G04 #@! TA.AperFunction,SMDPad,CuDef*
%ADD13RoundRect,0.218750X0.256250X-0.218750X0.256250X0.218750X-0.256250X0.218750X-0.256250X-0.218750X0*%
G04 #@! TD*
G04 #@! TA.AperFunction,SMDPad,CuDef*
%ADD14R,0.900000X1.300000*%
G04 #@! TD*
G04 #@! TA.AperFunction,SMDPad,CuDef*
%ADD15FreePoly0,90.000000*%
G04 #@! TD*
G04 #@! TA.AperFunction,SMDPad,CuDef*
%ADD16RoundRect,0.150000X0.150000X-0.650000X0.150000X0.650000X-0.150000X0.650000X-0.150000X-0.650000X0*%
G04 #@! TD*
G04 #@! TA.AperFunction,SMDPad,CuDef*
%ADD17RoundRect,0.250000X0.650000X-0.325000X0.650000X0.325000X-0.650000X0.325000X-0.650000X-0.325000X0*%
G04 #@! TD*
G04 #@! TA.AperFunction,SMDPad,CuDef*
%ADD18R,0.600000X1.450000*%
G04 #@! TD*
G04 #@! TA.AperFunction,SMDPad,CuDef*
%ADD19R,0.300000X1.450000*%
G04 #@! TD*
G04 #@! TA.AperFunction,ComponentPad*
%ADD20O,1.050000X2.100000*%
G04 #@! TD*
G04 #@! TA.AperFunction,SMDPad,CuDef*
%ADD21RoundRect,0.006000X-0.414000X-0.094000X0.414000X-0.094000X0.414000X0.094000X-0.414000X0.094000X0*%
G04 #@! TD*
G04 #@! TA.AperFunction,SMDPad,CuDef*
%ADD22RoundRect,0.020000X-0.080000X-0.400000X0.080000X-0.400000X0.080000X0.400000X-0.080000X0.400000X0*%
G04 #@! TD*
G04 #@! TA.AperFunction,SMDPad,CuDef*
%ADD23R,3.100000X3.100000*%
G04 #@! TD*
G04 #@! TA.AperFunction,SMDPad,CuDef*
%ADD24RoundRect,0.218750X-0.256250X0.218750X-0.256250X-0.218750X0.256250X-0.218750X0.256250X0.218750X0*%
G04 #@! TD*
G04 #@! TA.AperFunction,ComponentPad*
%ADD25C,1.700000*%
G04 #@! TD*
G04 #@! TA.AperFunction,ComponentPad*
%ADD26R,1.700000X1.700000*%
G04 #@! TD*
G04 #@! TA.AperFunction,ComponentPad*
%ADD27O,1.700000X1.700000*%
G04 #@! TD*
G04 #@! TA.AperFunction,SMDPad,CuDef*
%ADD28R,1.400000X1.200000*%
G04 #@! TD*
G04 #@! TA.AperFunction,SMDPad,CuDef*
%ADD29FreePoly1,0.000000*%
G04 #@! TD*
G04 #@! TA.AperFunction,SMDPad,CuDef*
%ADD30R,1.600000X1.050000*%
G04 #@! TD*
G04 #@! TA.AperFunction,SMDPad,CuDef*
%ADD31RoundRect,0.250000X-0.650000X0.325000X-0.650000X-0.325000X0.650000X-0.325000X0.650000X0.325000X0*%
G04 #@! TD*
G04 #@! TA.AperFunction,ViaPad*
%ADD32C,0.460000*%
G04 #@! TD*
G04 #@! TA.AperFunction,ViaPad*
%ADD33C,0.700000*%
G04 #@! TD*
G04 #@! TA.AperFunction,Conductor*
%ADD34C,0.200000*%
G04 #@! TD*
G04 #@! TA.AperFunction,Conductor*
%ADD35C,0.300000*%
G04 #@! TD*
G04 #@! TA.AperFunction,Conductor*
%ADD36C,0.500000*%
G04 #@! TD*
G04 #@! TA.AperFunction,Conductor*
%ADD37C,0.261112*%
G04 #@! TD*
G04 #@! TA.AperFunction,Conductor*
%ADD38C,0.261000*%
G04 #@! TD*
G04 APERTURE END LIST*
D10*
X151560000Y-62300000D03*
X152560000Y-62300000D03*
X142250000Y-62310000D03*
X141250000Y-62310000D03*
X146170000Y-68410000D03*
X147170000Y-68410000D03*
D11*
X150380000Y-56650000D03*
X150380000Y-55650000D03*
D12*
X151070000Y-36930000D03*
X154370000Y-36930000D03*
D11*
X147110000Y-66510000D03*
X147110000Y-67510000D03*
D10*
X149660000Y-42810000D03*
X148660000Y-42810000D03*
X145320000Y-68410000D03*
X144320000Y-68410000D03*
D11*
X146640000Y-56150000D03*
X146640000Y-55150000D03*
X149430000Y-56650000D03*
X149430000Y-55650000D03*
D13*
X150940000Y-68112500D03*
X150940000Y-69687500D03*
D14*
X148010000Y-41450000D03*
D15*
X149510000Y-41362500D03*
D14*
X151010000Y-41450000D03*
D11*
X149730000Y-66510000D03*
X149730000Y-67510000D03*
D16*
X141505000Y-52700000D03*
X142775000Y-52700000D03*
X144045000Y-52700000D03*
X145315000Y-52700000D03*
X145315000Y-45500000D03*
X144045000Y-45500000D03*
X142775000Y-45500000D03*
X141505000Y-45500000D03*
D17*
X151340000Y-51755000D03*
X151340000Y-48805000D03*
D18*
X150160000Y-34395000D03*
X149360000Y-34395000D03*
D19*
X148160000Y-34395000D03*
X147160000Y-34395000D03*
X146660000Y-34395000D03*
X145660000Y-34395000D03*
D18*
X143660000Y-34395000D03*
X144460000Y-34395000D03*
D19*
X145160000Y-34395000D03*
X146160000Y-34395000D03*
X147660000Y-34395000D03*
X148660000Y-34395000D03*
D20*
X151230000Y-33480000D03*
X142590000Y-33480000D03*
X151230000Y-29300000D03*
X142590000Y-29300000D03*
D11*
X144060000Y-36920000D03*
X144060000Y-35920000D03*
D21*
X143475000Y-58700000D03*
X143475000Y-59100000D03*
X143475000Y-59500000D03*
X143475000Y-59900000D03*
X143475000Y-60300000D03*
X143475000Y-60700000D03*
X143475000Y-61100000D03*
X143475000Y-61500000D03*
X143475000Y-61900000D03*
X143475000Y-62300000D03*
X143475000Y-62700000D03*
X143475000Y-63100000D03*
X143475000Y-63500000D03*
X143475000Y-63900000D03*
D22*
X144310000Y-64735000D03*
X144710000Y-64735000D03*
X145110000Y-64735000D03*
X145510000Y-64735000D03*
X145910000Y-64735000D03*
X146310000Y-64735000D03*
X146710000Y-64735000D03*
X147110000Y-64735000D03*
X147510000Y-64735000D03*
X147910000Y-64735000D03*
X148310000Y-64735000D03*
X148710000Y-64735000D03*
X149110000Y-64735000D03*
X149510000Y-64735000D03*
D21*
X150345000Y-63900000D03*
X150345000Y-63500000D03*
X150345000Y-63100000D03*
X150345000Y-62700000D03*
X150345000Y-62300000D03*
X150345000Y-61900000D03*
X150345000Y-61500000D03*
X150345000Y-61100000D03*
X150345000Y-60700000D03*
X150345000Y-60300000D03*
X150345000Y-59900000D03*
X150345000Y-59500000D03*
X150345000Y-59100000D03*
X150345000Y-58700000D03*
D22*
X149510000Y-57865000D03*
X149110000Y-57865000D03*
X148710000Y-57865000D03*
X148310000Y-57865000D03*
X147910000Y-57865000D03*
X147510000Y-57865000D03*
X147110000Y-57865000D03*
X146710000Y-57865000D03*
X146310000Y-57865000D03*
X145910000Y-57865000D03*
X145510000Y-57865000D03*
X145110000Y-57865000D03*
X144710000Y-57865000D03*
X144310000Y-57865000D03*
D23*
X146910000Y-61300000D03*
D11*
X151620000Y-58500000D03*
X151620000Y-57500000D03*
D24*
X141230000Y-54912500D03*
X141230000Y-56487500D03*
D25*
X149450000Y-73750000D03*
D26*
X146910000Y-73750000D03*
D27*
X144370000Y-73750000D03*
D28*
X144370000Y-71310000D03*
X146570000Y-71310000D03*
X146570000Y-69610000D03*
D29*
X144370000Y-69610000D03*
D11*
X148710000Y-36920000D03*
X148710000Y-35920000D03*
D10*
X143510000Y-55625000D03*
X142510000Y-55625000D03*
D30*
X144760000Y-38475000D03*
X144760000Y-42925000D03*
D11*
X147590000Y-56150000D03*
X147590000Y-55150000D03*
D12*
X142670000Y-36920000D03*
X139370000Y-36920000D03*
D11*
X148050000Y-53740000D03*
X148050000Y-52740000D03*
X145005000Y-35920000D03*
X145005000Y-36920000D03*
D10*
X141260000Y-57790000D03*
X142260000Y-57790000D03*
X142510000Y-54675000D03*
X143510000Y-54675000D03*
D31*
X151340000Y-44215000D03*
X151340000Y-47165000D03*
D10*
X151210000Y-42810000D03*
X152210000Y-42810000D03*
X142510000Y-56590000D03*
X143510000Y-56590000D03*
D11*
X147760000Y-36920000D03*
X147760000Y-35920000D03*
X149000000Y-52740000D03*
X149000000Y-53740000D03*
X149730000Y-68840000D03*
X149730000Y-69840000D03*
X146160000Y-66510000D03*
X146160000Y-67510000D03*
X148060000Y-66510000D03*
X148060000Y-67510000D03*
X141550000Y-43760000D03*
X141550000Y-42760000D03*
X145960000Y-36920000D03*
X145960000Y-35920000D03*
X149660000Y-36920000D03*
X149660000Y-35920000D03*
D25*
X155800000Y-28030000D03*
D27*
X155800000Y-30570000D03*
X155800000Y-33110000D03*
X155800000Y-35650000D03*
X155800000Y-38190000D03*
X155800000Y-40730000D03*
X155800000Y-43270000D03*
X155800000Y-45810000D03*
X155800000Y-48350000D03*
X155800000Y-50890000D03*
X155800000Y-53430000D03*
X155800000Y-55970000D03*
X155800000Y-58510000D03*
X155800000Y-61050000D03*
X155800000Y-63590000D03*
X155800000Y-66130000D03*
X155800000Y-68670000D03*
X155800000Y-71210000D03*
X155800000Y-73750000D03*
D25*
X138020000Y-28030000D03*
D27*
X138020000Y-30570000D03*
X138020000Y-33110000D03*
X138020000Y-35650000D03*
X138020000Y-38190000D03*
X138020000Y-40730000D03*
X138020000Y-43270000D03*
X138020000Y-45810000D03*
X138020000Y-48350000D03*
X138020000Y-50890000D03*
X138020000Y-53430000D03*
X138020000Y-55970000D03*
X138020000Y-58510000D03*
X138020000Y-61050000D03*
X138020000Y-63590000D03*
X138020000Y-66130000D03*
X138020000Y-68670000D03*
X138020000Y-71210000D03*
X138020000Y-73750000D03*
D32*
X138020000Y-69940000D03*
X155800000Y-42000000D03*
X144090000Y-37580000D03*
X145560000Y-62780000D03*
X143060000Y-69290000D03*
X155800000Y-54700000D03*
X155800000Y-47080000D03*
X138020000Y-34380000D03*
X138020000Y-31840000D03*
X147490000Y-70780000D03*
X155800000Y-72480000D03*
D33*
X148060000Y-39620000D03*
D32*
X155800000Y-34380000D03*
X146640000Y-54620000D03*
X138020000Y-36920000D03*
X155800000Y-67400000D03*
X148060000Y-69010000D03*
X141400000Y-62920000D03*
X145310000Y-51530000D03*
X148260000Y-59950000D03*
X145560000Y-62072500D03*
X138020000Y-54700000D03*
D33*
X142205818Y-35149310D03*
D32*
X149420000Y-55150000D03*
X148260000Y-62147500D03*
X155800000Y-36920000D03*
X155800000Y-44540000D03*
X152380000Y-62860000D03*
D33*
X141630000Y-37910000D03*
D32*
X138020000Y-72480000D03*
X155800000Y-69940000D03*
X155800000Y-59780000D03*
X148260000Y-62880000D03*
X138020000Y-52160000D03*
X148060000Y-68020000D03*
X149730000Y-68180000D03*
X155800000Y-64860000D03*
X142390000Y-69940000D03*
X138020000Y-39460000D03*
X138020000Y-49620000D03*
D33*
X151370000Y-50080000D03*
D32*
X144850000Y-37580000D03*
X155800000Y-49620000D03*
X155800000Y-57240000D03*
X141230000Y-55570000D03*
X138020000Y-64860000D03*
X138020000Y-29300000D03*
X145560000Y-59950000D03*
X138020000Y-44540000D03*
X148260000Y-60682500D03*
X151850000Y-57000000D03*
X138020000Y-67400000D03*
D33*
X151340000Y-45790000D03*
X146500000Y-63690000D03*
X151888210Y-35992475D03*
D32*
X155800000Y-62320000D03*
X148260000Y-61415000D03*
X138020000Y-47080000D03*
D33*
X153170000Y-42000000D03*
D32*
X138020000Y-57240000D03*
X138020000Y-42000000D03*
X145610000Y-37580000D03*
X150630000Y-65900000D03*
X155800000Y-39460000D03*
X143020000Y-42770000D03*
X155800000Y-31840000D03*
X138020000Y-62320000D03*
X145560000Y-61365000D03*
X147600000Y-54620000D03*
X152110000Y-70290000D03*
D33*
X146620500Y-59299500D03*
D32*
X145560000Y-60657500D03*
X138020000Y-59780000D03*
X155800000Y-29300000D03*
X155800000Y-52160000D03*
X143510000Y-57150000D03*
X150370000Y-55150000D03*
X144830000Y-59960000D03*
X144820000Y-60690000D03*
X144830000Y-61430000D03*
X144830000Y-62150000D03*
X144830000Y-62880000D03*
X149980000Y-65590000D03*
X148980000Y-62900000D03*
X148990000Y-62160000D03*
X148980000Y-61410000D03*
X148980000Y-60680000D03*
X148980000Y-59940000D03*
D33*
X149050000Y-39620000D03*
X147320000Y-63760000D03*
D32*
X143060000Y-43480000D03*
X142110000Y-62910000D03*
X152120000Y-69620000D03*
X151670000Y-62850000D03*
D33*
X147320000Y-58700000D03*
X152020000Y-36910000D03*
X141620000Y-36900000D03*
X154990000Y-34550000D03*
D34*
X146640000Y-54620000D02*
X146640000Y-55150000D01*
D35*
X152810000Y-42000000D02*
X153170000Y-42000000D01*
D34*
X141230000Y-54912500D02*
X141230000Y-55570000D01*
X150380000Y-55160000D02*
X150370000Y-55150000D01*
X151620000Y-57500000D02*
X151620000Y-57230000D01*
D36*
X151340000Y-48805000D02*
X151340000Y-50050000D01*
D35*
X152210000Y-42600000D02*
X152580000Y-42230000D01*
D36*
X143210690Y-35149310D02*
X142205818Y-35149310D01*
D34*
X148060000Y-67510000D02*
X148060000Y-68020000D01*
X143010000Y-42760000D02*
X141550000Y-42760000D01*
D35*
X146910000Y-63280000D02*
X146500000Y-63690000D01*
D36*
X143250000Y-35110000D02*
X143210690Y-35149310D01*
D34*
X141250000Y-62770000D02*
X141400000Y-62920000D01*
X149730000Y-68180000D02*
X149730000Y-67510000D01*
X145910000Y-64280000D02*
X146500000Y-63690000D01*
X141250000Y-62310000D02*
X141250000Y-62770000D01*
X149430000Y-55160000D02*
X149420000Y-55150000D01*
X149730000Y-68840000D02*
X149730000Y-68180000D01*
X145910000Y-64735000D02*
X145910000Y-64280000D01*
D36*
X151340000Y-50050000D02*
X151370000Y-50080000D01*
D34*
X143020000Y-42770000D02*
X143010000Y-42760000D01*
D36*
X150635735Y-34740000D02*
X151888210Y-35992475D01*
X151340000Y-47165000D02*
X151340000Y-45790000D01*
D34*
X148060000Y-69010000D02*
X147460000Y-68410000D01*
D35*
X148010000Y-41790000D02*
X148010000Y-41450000D01*
X146910000Y-61300000D02*
X146910000Y-63280000D01*
D34*
X152560000Y-62680000D02*
X152380000Y-62860000D01*
X147600000Y-54620000D02*
X147590000Y-54630000D01*
X145315000Y-52700000D02*
X145315000Y-51535000D01*
D35*
X152210000Y-42810000D02*
X152210000Y-42600000D01*
X152580000Y-42230000D02*
X152810000Y-42000000D01*
D36*
X150160000Y-34395000D02*
X150505000Y-34740000D01*
D34*
X147460000Y-68410000D02*
X147170000Y-68410000D01*
D35*
X148660000Y-42440000D02*
X148010000Y-41790000D01*
D34*
X146960000Y-71310000D02*
X147490000Y-70780000D01*
D35*
X146910000Y-61300000D02*
X146910000Y-59589000D01*
X148660000Y-42810000D02*
X148660000Y-42440000D01*
D34*
X152560000Y-62300000D02*
X152560000Y-62680000D01*
X151620000Y-57230000D02*
X151850000Y-57000000D01*
X143510000Y-56590000D02*
X143510000Y-57150000D01*
X147590000Y-54630000D02*
X147590000Y-55150000D01*
X149430000Y-55650000D02*
X149430000Y-55160000D01*
D35*
X146910000Y-59589000D02*
X146620500Y-59299500D01*
D36*
X150505000Y-34740000D02*
X150635735Y-34740000D01*
X143660000Y-34700000D02*
X143250000Y-35110000D01*
D34*
X145315000Y-51535000D02*
X145310000Y-51530000D01*
X146570000Y-71310000D02*
X146960000Y-71310000D01*
X150380000Y-55650000D02*
X150380000Y-55160000D01*
D36*
X143660000Y-34395000D02*
X143660000Y-34700000D01*
D34*
X146710000Y-57865000D02*
X146710000Y-56220000D01*
X147510000Y-64735000D02*
X147510000Y-65470000D01*
X148710000Y-57865000D02*
X148710000Y-57370000D01*
X147510000Y-65470000D02*
X148060000Y-66020000D01*
X148060000Y-66020000D02*
X148060000Y-66510000D01*
X148710000Y-57370000D02*
X149430000Y-56650000D01*
X146710000Y-56220000D02*
X146640000Y-56150000D01*
X144480000Y-71310000D02*
X145410000Y-70380000D01*
X145320000Y-66360000D02*
X145320000Y-68410000D01*
X144370000Y-71310000D02*
X144480000Y-71310000D01*
X145410000Y-70380000D02*
X145410000Y-68500000D01*
X146310000Y-65370000D02*
X145320000Y-66360000D01*
X146310000Y-64735000D02*
X146310000Y-65370000D01*
X145410000Y-68500000D02*
X145320000Y-68410000D01*
X146160000Y-67510000D02*
X146160000Y-68400000D01*
X146170000Y-69210000D02*
X146170000Y-68410000D01*
X146160000Y-68400000D02*
X146170000Y-68410000D01*
X146570000Y-69610000D02*
X146170000Y-69210000D01*
D37*
X148310000Y-57188320D02*
X148310000Y-57800686D01*
X149000000Y-53740000D02*
X149000000Y-53790000D01*
X148757156Y-56741164D02*
X148310000Y-57188320D01*
X148757156Y-54032844D02*
X148757156Y-56741164D01*
X149000000Y-53790000D02*
X148757156Y-54032844D01*
X148050000Y-53790000D02*
X148292844Y-54032844D01*
X148292844Y-56548836D02*
X147910000Y-56931680D01*
X148050000Y-53740000D02*
X148050000Y-53790000D01*
X147910000Y-56931680D02*
X147910000Y-57865000D01*
X148292844Y-54032844D02*
X148292844Y-56548836D01*
D35*
X148160000Y-35160000D02*
X148710000Y-35710000D01*
X148160000Y-34395000D02*
X148160000Y-35160000D01*
X148710000Y-35710000D02*
X148710000Y-35920000D01*
D38*
X146160000Y-33409000D02*
X146289000Y-33280000D01*
D37*
X146331681Y-35920000D02*
X145960000Y-35920000D01*
D38*
X146160000Y-34395000D02*
X146160000Y-35720000D01*
D37*
X148292844Y-52497156D02*
X148292844Y-44321164D01*
X146647844Y-42676164D02*
X146647844Y-36236163D01*
X148050000Y-52740000D02*
X148292844Y-52497156D01*
D38*
X146289000Y-33280000D02*
X147000000Y-33280000D01*
D37*
X146647844Y-36236163D02*
X146331681Y-35920000D01*
D38*
X147000000Y-33280000D02*
X147160000Y-33440000D01*
X146160000Y-34395000D02*
X146160000Y-33409000D01*
X146160000Y-35720000D02*
X145960000Y-35920000D01*
X147160000Y-33440000D02*
X147160000Y-34395000D01*
D37*
X148292844Y-44321164D02*
X146647844Y-42676164D01*
X149000000Y-52740000D02*
X148757156Y-52497156D01*
X146660000Y-35591681D02*
X146660000Y-34395000D01*
X148757156Y-52497156D02*
X148757156Y-44128836D01*
D38*
X147760000Y-35610000D02*
X147660000Y-35510000D01*
D37*
X147112156Y-42483836D02*
X147112156Y-36043837D01*
X148757156Y-44128836D02*
X147112156Y-42483836D01*
D38*
X146660000Y-35431000D02*
X146660000Y-34395000D01*
X147660000Y-35510000D02*
X147660000Y-34395000D01*
X147760000Y-35920000D02*
X147760000Y-35610000D01*
D37*
X147112156Y-36043837D02*
X146660000Y-35591681D01*
D38*
X147760000Y-35920000D02*
X147149000Y-35920000D01*
D35*
X145160000Y-35765000D02*
X145005000Y-35920000D01*
X145160000Y-34395000D02*
X145160000Y-35765000D01*
D34*
X146160000Y-66150000D02*
X146160000Y-66510000D01*
X146710000Y-64735000D02*
X146710000Y-65600000D01*
X146710000Y-65600000D02*
X146160000Y-66150000D01*
X140720000Y-53680000D02*
X140720000Y-42050000D01*
X142510000Y-54675000D02*
X142385000Y-54675000D01*
X141090000Y-41680000D02*
X143515000Y-41680000D01*
X142385000Y-54675000D02*
X141710000Y-54000000D01*
X143515000Y-41680000D02*
X144760000Y-42925000D01*
X141040000Y-54000000D02*
X140720000Y-53680000D01*
X140720000Y-42050000D02*
X141090000Y-41680000D01*
X141710000Y-54000000D02*
X141040000Y-54000000D01*
X144030000Y-57310000D02*
X144030000Y-55940000D01*
X143510000Y-55625000D02*
X143510000Y-54675000D01*
X141505000Y-53115000D02*
X141505000Y-52700000D01*
X143510000Y-54370000D02*
X143040000Y-53900000D01*
X143715000Y-55625000D02*
X143510000Y-55625000D01*
X142290000Y-53900000D02*
X141505000Y-53115000D01*
X143510000Y-54675000D02*
X143510000Y-54370000D01*
X143040000Y-53900000D02*
X142290000Y-53900000D01*
X144310000Y-57865000D02*
X144310000Y-57590000D01*
X144310000Y-57590000D02*
X144030000Y-57310000D01*
X144030000Y-55940000D02*
X143715000Y-55625000D01*
X143475000Y-59500000D02*
X144370000Y-59500000D01*
X144370000Y-59500000D02*
X144830000Y-59960000D01*
X143475000Y-59900000D02*
X142300000Y-59900000D01*
X140280000Y-57880000D02*
X140280000Y-42990000D01*
X140280000Y-42990000D02*
X138020000Y-40730000D01*
X142300000Y-59900000D02*
X140280000Y-57880000D01*
X144430000Y-60300000D02*
X144820000Y-60690000D01*
X143475000Y-60300000D02*
X144430000Y-60300000D01*
X142040000Y-60700000D02*
X139710000Y-58370000D01*
X139710000Y-47500000D02*
X138020000Y-45810000D01*
X139710000Y-58370000D02*
X139710000Y-47500000D01*
X143475000Y-60700000D02*
X142040000Y-60700000D01*
X143475000Y-61100000D02*
X144500000Y-61100000D01*
X144500000Y-61100000D02*
X144830000Y-61430000D01*
X139160000Y-52030000D02*
X138020000Y-50890000D01*
X143475000Y-61500000D02*
X141800000Y-61500000D01*
X141800000Y-61500000D02*
X139160000Y-58860000D01*
X139160000Y-58860000D02*
X139160000Y-52030000D01*
X144580000Y-61900000D02*
X144830000Y-62150000D01*
X143475000Y-61900000D02*
X144580000Y-61900000D01*
X144650000Y-62700000D02*
X144830000Y-62880000D01*
X143475000Y-62700000D02*
X144650000Y-62700000D01*
X139500000Y-60230000D02*
X138020000Y-58750000D01*
X142180000Y-63640000D02*
X141040000Y-63640000D01*
X138020000Y-58750000D02*
X138020000Y-58510000D01*
X142720000Y-63100000D02*
X142180000Y-63640000D01*
X139500000Y-62100000D02*
X139500000Y-60230000D01*
X141040000Y-63640000D02*
X139500000Y-62100000D01*
X143475000Y-63100000D02*
X142720000Y-63100000D01*
X143076351Y-63500000D02*
X142426351Y-64150000D01*
X142426351Y-64150000D02*
X140525000Y-64150000D01*
X138020000Y-61645000D02*
X138020000Y-61050000D01*
X143475000Y-63500000D02*
X143076351Y-63500000D01*
X140525000Y-64150000D02*
X138020000Y-61645000D01*
X142710000Y-64950000D02*
X139380000Y-64950000D01*
X143475000Y-63900000D02*
X143475000Y-64185000D01*
X143475000Y-64185000D02*
X142710000Y-64950000D01*
X139380000Y-64950000D02*
X138020000Y-63590000D01*
X143130000Y-66130000D02*
X138020000Y-66130000D01*
X144310000Y-64950000D02*
X143130000Y-66130000D01*
X144310000Y-64735000D02*
X144310000Y-64950000D01*
X142860000Y-67260000D02*
X141510000Y-67260000D01*
X144710000Y-65410000D02*
X142860000Y-67260000D01*
X140100000Y-68670000D02*
X138020000Y-68670000D01*
X141510000Y-67260000D02*
X140100000Y-68670000D01*
X144710000Y-64735000D02*
X144710000Y-65410000D01*
X145110000Y-65850000D02*
X139750000Y-71210000D01*
X139750000Y-71210000D02*
X138020000Y-71210000D01*
X145110000Y-64735000D02*
X145110000Y-65850000D01*
X147910000Y-65370000D02*
X148670000Y-66130000D01*
X145260000Y-72420000D02*
X144370000Y-73310000D01*
X147560000Y-72420000D02*
X145260000Y-72420000D01*
X148670000Y-71310000D02*
X147560000Y-72420000D01*
X144370000Y-73310000D02*
X144370000Y-73750000D01*
X147910000Y-64735000D02*
X147910000Y-65370000D01*
X148670000Y-66130000D02*
X148670000Y-71310000D01*
X149140000Y-66120000D02*
X149140000Y-73440000D01*
X149140000Y-73440000D02*
X149450000Y-73750000D01*
X148310000Y-65290000D02*
X149140000Y-66120000D01*
X148310000Y-64735000D02*
X148310000Y-65290000D01*
X149110000Y-64735000D02*
X149110000Y-65170000D01*
X149460000Y-65520000D02*
X149530000Y-65590000D01*
X149530000Y-65590000D02*
X149980000Y-65590000D01*
X149110000Y-65170000D02*
X149460000Y-65520000D01*
X149510000Y-64735000D02*
X150335000Y-64735000D01*
X150335000Y-64735000D02*
X154270000Y-68670000D01*
X154270000Y-68670000D02*
X155800000Y-68670000D01*
X150770000Y-63900000D02*
X153000000Y-66130000D01*
X150345000Y-63900000D02*
X150770000Y-63900000D01*
X153000000Y-66130000D02*
X155800000Y-66130000D01*
X151090000Y-63500000D02*
X151400000Y-63810000D01*
X151400000Y-63810000D02*
X155580000Y-63810000D01*
X155580000Y-63810000D02*
X155800000Y-63590000D01*
X150345000Y-63500000D02*
X151090000Y-63500000D01*
X151460000Y-63380000D02*
X152780000Y-63380000D01*
X152780000Y-63380000D02*
X155110000Y-61050000D01*
X150345000Y-63100000D02*
X151180000Y-63100000D01*
X151180000Y-63100000D02*
X151460000Y-63380000D01*
X155110000Y-61050000D02*
X155800000Y-61050000D01*
X149180000Y-62700000D02*
X148980000Y-62900000D01*
X150345000Y-62700000D02*
X149180000Y-62700000D01*
X149250000Y-61900000D02*
X148990000Y-62160000D01*
X150345000Y-61900000D02*
X149250000Y-61900000D01*
X150345000Y-61500000D02*
X153240000Y-61500000D01*
X154680000Y-60060000D02*
X154680000Y-54550000D01*
X154680000Y-54550000D02*
X155800000Y-53430000D01*
X153240000Y-61500000D02*
X154680000Y-60060000D01*
X150345000Y-61100000D02*
X149290000Y-61100000D01*
X149290000Y-61100000D02*
X148980000Y-61410000D01*
X152900000Y-60700000D02*
X154000000Y-59600000D01*
X154000000Y-50160000D02*
X155800000Y-48360000D01*
X150345000Y-60700000D02*
X152900000Y-60700000D01*
X155800000Y-48360000D02*
X155800000Y-48350000D01*
X154000000Y-59600000D02*
X154000000Y-50160000D01*
X149360000Y-60300000D02*
X148980000Y-60680000D01*
X150345000Y-60300000D02*
X149360000Y-60300000D01*
X153270000Y-45800000D02*
X155800000Y-43270000D01*
X150345000Y-59900000D02*
X152780000Y-59900000D01*
X152780000Y-59900000D02*
X153270000Y-59410000D01*
X153270000Y-59410000D02*
X153270000Y-45800000D01*
X149420000Y-59500000D02*
X150345000Y-59500000D01*
X148980000Y-59940000D02*
X149420000Y-59500000D01*
X152590000Y-58760000D02*
X152590000Y-44800000D01*
X152590000Y-44800000D02*
X153900000Y-43490000D01*
X152250000Y-59100000D02*
X152590000Y-58760000D01*
X153900000Y-40090000D02*
X155800000Y-38190000D01*
X150345000Y-59100000D02*
X152250000Y-59100000D01*
X153900000Y-43490000D02*
X153900000Y-40090000D01*
X146700000Y-44590000D02*
X145930000Y-43820000D01*
X142775000Y-44875000D02*
X142775000Y-45500000D01*
X146310000Y-56760000D02*
X145990000Y-56440000D01*
X143830000Y-43820000D02*
X142775000Y-44875000D01*
X146310000Y-57865000D02*
X146310000Y-56760000D01*
X145990000Y-56440000D02*
X145990000Y-54460000D01*
X145930000Y-43820000D02*
X143830000Y-43820000D01*
X145990000Y-54460000D02*
X146700000Y-53750000D01*
X146700000Y-53750000D02*
X146700000Y-44590000D01*
X144045000Y-44805000D02*
X144045000Y-45500000D01*
X146010000Y-44700000D02*
X145710000Y-44400000D01*
X145580000Y-54060000D02*
X146010000Y-53630000D01*
X144450000Y-44400000D02*
X144045000Y-44805000D01*
X145910000Y-56890000D02*
X145580000Y-56560000D01*
X145910000Y-57865000D02*
X145910000Y-56890000D01*
X146010000Y-53630000D02*
X146010000Y-44700000D01*
X145580000Y-56560000D02*
X145580000Y-54060000D01*
X145710000Y-44400000D02*
X144450000Y-44400000D01*
X145315000Y-47055000D02*
X145315000Y-45500000D01*
X145150000Y-54140000D02*
X144680000Y-53670000D01*
X145150000Y-56770000D02*
X145150000Y-54140000D01*
X144680000Y-47690000D02*
X145315000Y-47055000D01*
X145510000Y-57865000D02*
X145510000Y-57130000D01*
X144680000Y-53670000D02*
X144680000Y-47690000D01*
X145510000Y-57130000D02*
X145150000Y-56770000D01*
X144045000Y-53595000D02*
X144045000Y-52700000D01*
X144750000Y-54300000D02*
X144045000Y-53595000D01*
X145110000Y-57865000D02*
X145110000Y-57270000D01*
X145110000Y-57270000D02*
X144750000Y-56910000D01*
X144750000Y-56910000D02*
X144750000Y-54300000D01*
X144400000Y-57100000D02*
X144400000Y-54572989D01*
X144710000Y-57410000D02*
X144400000Y-57100000D01*
X144400000Y-54572989D02*
X142775000Y-52947989D01*
X144710000Y-57865000D02*
X144710000Y-57410000D01*
X142775000Y-52947989D02*
X142775000Y-52700000D01*
X147310000Y-56990000D02*
X147310000Y-57020000D01*
D36*
X155330000Y-27560000D02*
X155800000Y-28030000D01*
D34*
X149730000Y-66286414D02*
X149730000Y-66510000D01*
X143475000Y-57865000D02*
X142510000Y-56900000D01*
X151740000Y-68420000D02*
X152120000Y-68800000D01*
D35*
X150345000Y-58700000D02*
X151420000Y-58700000D01*
D34*
X142250000Y-62770000D02*
X142110000Y-62910000D01*
X142510000Y-56900000D02*
X142510000Y-56590000D01*
D35*
X149200000Y-58700000D02*
X149670000Y-58700000D01*
X149510000Y-57865000D02*
X149510000Y-58540000D01*
D34*
X151560000Y-62300000D02*
X151560000Y-62740000D01*
D35*
X147110000Y-57865000D02*
X147110000Y-58660000D01*
D34*
X147110000Y-57190000D02*
X147110000Y-57865000D01*
D36*
X138530000Y-28030000D02*
X139000000Y-27560000D01*
X150380000Y-56650000D02*
X150380000Y-57609022D01*
D34*
X141830000Y-43480000D02*
X141550000Y-43760000D01*
X142250000Y-62310000D02*
X142250000Y-62770000D01*
X141550000Y-43760000D02*
X141550000Y-45455000D01*
X151560000Y-62740000D02*
X151670000Y-62850000D01*
X148710000Y-64735000D02*
X148710000Y-64220000D01*
D35*
X147510000Y-57865000D02*
X147510000Y-58650000D01*
D36*
X138020000Y-28030000D02*
X138530000Y-28030000D01*
D35*
X151420000Y-58700000D02*
X151620000Y-58500000D01*
D36*
X151340000Y-56180000D02*
X151340000Y-51755000D01*
X150380000Y-56650000D02*
X150870000Y-56650000D01*
D34*
X147310000Y-57020000D02*
X147510000Y-57220000D01*
X147310000Y-56990000D02*
X147110000Y-57190000D01*
X141550000Y-45455000D02*
X141505000Y-45500000D01*
D35*
X149510000Y-58540000D02*
X149670000Y-58700000D01*
D34*
X148250000Y-63760000D02*
X147320000Y-63760000D01*
D35*
X143475000Y-58700000D02*
X147070000Y-58700000D01*
D36*
X150870000Y-56650000D02*
X151340000Y-56180000D01*
X149660000Y-42810000D02*
X149660000Y-41512500D01*
D34*
X147110000Y-64735000D02*
X147110000Y-63970000D01*
X148710000Y-65266414D02*
X149730000Y-66286414D01*
D36*
X150380000Y-57609022D02*
X151270978Y-58500000D01*
D34*
X147510000Y-57220000D02*
X147510000Y-57865000D01*
D36*
X151340000Y-51755000D02*
X151340000Y-51470000D01*
D34*
X147310000Y-56740000D02*
X147310000Y-56990000D01*
X143060000Y-43480000D02*
X141830000Y-43480000D01*
D36*
X139000000Y-27560000D02*
X155330000Y-27560000D01*
D34*
X147590000Y-56460000D02*
X147310000Y-56740000D01*
X150345000Y-62300000D02*
X151560000Y-62300000D01*
D35*
X147510000Y-58650000D02*
X147560000Y-58700000D01*
X147110000Y-58660000D02*
X147070000Y-58700000D01*
D36*
X149660000Y-41512500D02*
X149510000Y-41362500D01*
D35*
X149670000Y-58700000D02*
X150345000Y-58700000D01*
D36*
X151340000Y-51470000D02*
X150010000Y-50140000D01*
D35*
X147560000Y-58700000D02*
X149200000Y-58700000D01*
D34*
X147110000Y-66510000D02*
X147110000Y-64735000D01*
X143475000Y-57865000D02*
X143475000Y-58700000D01*
D36*
X150010000Y-43160000D02*
X149660000Y-42810000D01*
D34*
X147110000Y-63970000D02*
X147320000Y-63760000D01*
X147590000Y-56150000D02*
X147590000Y-56460000D01*
X148710000Y-64220000D02*
X148250000Y-63760000D01*
D36*
X150010000Y-50140000D02*
X150010000Y-43160000D01*
D35*
X149110000Y-57865000D02*
X149110000Y-58610000D01*
X149110000Y-58610000D02*
X149200000Y-58700000D01*
D34*
X148710000Y-64735000D02*
X148710000Y-65266414D01*
X143475000Y-62300000D02*
X142260000Y-62300000D01*
D35*
X147070000Y-58700000D02*
X147320000Y-58700000D01*
D34*
X151432500Y-68112500D02*
X151740000Y-68420000D01*
D36*
X151270978Y-58500000D02*
X151620000Y-58500000D01*
D34*
X152120000Y-68800000D02*
X152120000Y-69620000D01*
X150940000Y-68112500D02*
X151432500Y-68112500D01*
X142510000Y-56590000D02*
X142510000Y-55625000D01*
D35*
X147320000Y-58700000D02*
X147560000Y-58700000D01*
D34*
X142260000Y-58660000D02*
X142260000Y-57790000D01*
X142700000Y-59100000D02*
X142260000Y-58660000D01*
X143475000Y-59100000D02*
X142700000Y-59100000D01*
X141260000Y-57790000D02*
X141260000Y-56517500D01*
X141260000Y-56517500D02*
X141230000Y-56487500D01*
D36*
X151210000Y-42810000D02*
X151210000Y-42460000D01*
X151010000Y-36990000D02*
X151070000Y-36930000D01*
X151010000Y-42260000D02*
X151010000Y-41450000D01*
X151090000Y-36910000D02*
X151070000Y-36930000D01*
X141640000Y-36920000D02*
X141620000Y-36900000D01*
X151010000Y-41450000D02*
X151010000Y-36990000D01*
X151210000Y-42460000D02*
X151010000Y-42260000D01*
X151210000Y-43520000D02*
X151210000Y-42810000D01*
X151340000Y-43650000D02*
X151210000Y-43520000D01*
X151340000Y-44215000D02*
X151340000Y-43650000D01*
X142670000Y-36920000D02*
X141640000Y-36920000D01*
X152020000Y-36910000D02*
X151090000Y-36910000D01*
X138020000Y-30570000D02*
X138170000Y-30720000D01*
X155650000Y-30720000D02*
X155800000Y-30570000D01*
X138170000Y-30720000D02*
X155650000Y-30720000D01*
X154370000Y-35170000D02*
X154370000Y-36930000D01*
X154990000Y-34550000D02*
X154370000Y-35170000D01*
X144060000Y-35700000D02*
X144460000Y-35300000D01*
X149360000Y-33660000D02*
X148980000Y-33280000D01*
X144740000Y-32040000D02*
X142965042Y-32040000D01*
X149300000Y-32040000D02*
X144740000Y-32040000D01*
X149660000Y-35530000D02*
X149360000Y-35230000D01*
X144819521Y-33281174D02*
X144819521Y-32119521D01*
X144460000Y-35300000D02*
X144460000Y-34395000D01*
D35*
X144819521Y-32119521D02*
X144740000Y-32040000D01*
X144460000Y-34395000D02*
X144460000Y-33640695D01*
D36*
X150854958Y-32040000D02*
X149300000Y-32040000D01*
X138020000Y-33110000D02*
X138980000Y-33110000D01*
X150859478Y-32035480D02*
X150854958Y-32040000D01*
X149660000Y-35920000D02*
X149660000Y-35530000D01*
X148980000Y-33280000D02*
X148980000Y-32360000D01*
X139094520Y-32035480D02*
X138020000Y-33110000D01*
X155800000Y-33110000D02*
X154725480Y-32035480D01*
D35*
X148980000Y-32360000D02*
X149300000Y-32040000D01*
D36*
X144060000Y-35920000D02*
X144060000Y-35700000D01*
X142965042Y-32040000D02*
X142960522Y-32035480D01*
D35*
X149360000Y-34395000D02*
X149360000Y-33660000D01*
D36*
X154725480Y-32035480D02*
X150859478Y-32035480D01*
X138980000Y-33110000D02*
X139370000Y-33500000D01*
X144460000Y-33640695D02*
X144819521Y-33281174D01*
X142960522Y-32035480D02*
X139094520Y-32035480D01*
X139370000Y-33500000D02*
X139370000Y-36920000D01*
X149360000Y-35230000D02*
X149360000Y-34395000D01*
D34*
X149730000Y-69840000D02*
X150787500Y-69840000D01*
X150787500Y-69840000D02*
X150940000Y-69687500D01*
G04 #@! TA.AperFunction,Conductor*
G36*
X144048433Y-68005931D02*
G01*
X144107000Y-68050350D01*
X144620000Y-68760000D01*
X145005191Y-68973995D01*
X145055025Y-69024562D01*
X145070000Y-69084139D01*
X145070000Y-70084000D01*
X145049998Y-70152121D01*
X144996342Y-70198614D01*
X144944000Y-70210000D01*
X143430000Y-70210000D01*
X143429868Y-70210001D01*
X143429755Y-70210001D01*
X142149884Y-70217806D01*
X142086680Y-70218191D01*
X142018439Y-70198604D01*
X141971620Y-70145233D01*
X141961087Y-70075022D01*
X141994711Y-70005254D01*
X142809151Y-69150891D01*
X142810891Y-69149102D01*
X143915426Y-68035439D01*
X143977597Y-68001158D01*
X144048433Y-68005931D01*
G37*
G04 #@! TD.AperFunction*
G04 #@! TA.AperFunction,Conductor*
G36*
X146295648Y-36634352D02*
G01*
X146310000Y-36669000D01*
X146310000Y-37199315D01*
X146295177Y-37234428D01*
X145567107Y-37943082D01*
X145567107Y-37943083D01*
X145560000Y-37950000D01*
X145560000Y-38951000D01*
X145545648Y-38985648D01*
X145511000Y-39000000D01*
X144009000Y-39000000D01*
X143974352Y-38985648D01*
X143960000Y-38951000D01*
X143960000Y-37950000D01*
X143712643Y-37227717D01*
X143710000Y-37211842D01*
X143710000Y-36669000D01*
X143724352Y-36634352D01*
X143759000Y-36620000D01*
X146261000Y-36620000D01*
X146295648Y-36634352D01*
G37*
G04 #@! TD.AperFunction*
G04 #@! TA.AperFunction,Conductor*
G36*
X148361297Y-67209705D02*
G01*
X148395858Y-67224266D01*
X148410000Y-67258704D01*
X148410000Y-69321000D01*
X148395648Y-69355648D01*
X148361000Y-69370000D01*
X147619000Y-69370000D01*
X147584352Y-69355648D01*
X147570000Y-69321000D01*
X147570000Y-68770000D01*
X147560439Y-68769861D01*
X147560438Y-68769861D01*
X146926949Y-68760680D01*
X146892512Y-68745827D01*
X146878678Y-68713065D01*
X146860127Y-68054499D01*
X146860127Y-68054498D01*
X146860000Y-68050000D01*
X146763769Y-67819045D01*
X146760000Y-67800200D01*
X146760000Y-67249298D01*
X146774352Y-67214650D01*
X146809297Y-67200299D01*
X148361297Y-67209705D01*
G37*
G04 #@! TD.AperFunction*
G04 #@! TA.AperFunction,Conductor*
G36*
X150005648Y-36634352D02*
G01*
X150020000Y-36669000D01*
X150020000Y-37171000D01*
X150005648Y-37205648D01*
X149971000Y-37220000D01*
X148460000Y-37220000D01*
X148460000Y-42051541D01*
X148445648Y-42086189D01*
X148411544Y-42100538D01*
X148050644Y-42104548D01*
X147609543Y-42109450D01*
X147574739Y-42095484D01*
X147560000Y-42060453D01*
X147560000Y-36669000D01*
X147574352Y-36634352D01*
X147609000Y-36620000D01*
X149971000Y-36620000D01*
X150005648Y-36634352D01*
G37*
G04 #@! TD.AperFunction*
M02*
