G04 #@! TF.GenerationSoftware,KiCad,Pcbnew,(6.0.4)*
G04 #@! TF.CreationDate,2022-04-05T22:09:32-06:00*
G04 #@! TF.ProjectId,2208 - RP2040 Simple Dev Board,32323038-202d-4205-9250-323034302053,1*
G04 #@! TF.SameCoordinates,Original*
G04 #@! TF.FileFunction,Soldermask,Top*
G04 #@! TF.FilePolarity,Negative*
%FSLAX46Y46*%
G04 Gerber Fmt 4.6, Leading zero omitted, Abs format (unit mm)*
G04 Created by KiCad (PCBNEW (6.0.4)) date 2022-04-05 22:09:32*
%MOMM*%
%LPD*%
G01*
G04 APERTURE LIST*
G04 Aperture macros list*
%AMRoundRect*
0 Rectangle with rounded corners*
0 $1 Rounding radius*
0 $2 $3 $4 $5 $6 $7 $8 $9 X,Y pos of 4 corners*
0 Add a 4 corners polygon primitive as box body*
4,1,4,$2,$3,$4,$5,$6,$7,$8,$9,$2,$3,0*
0 Add four circle primitives for the rounded corners*
1,1,$1+$1,$2,$3*
1,1,$1+$1,$4,$5*
1,1,$1+$1,$6,$7*
1,1,$1+$1,$8,$9*
0 Add four rect primitives between the rounded corners*
20,1,$1+$1,$2,$3,$4,$5,0*
20,1,$1+$1,$4,$5,$6,$7,0*
20,1,$1+$1,$6,$7,$8,$9,0*
20,1,$1+$1,$8,$9,$2,$3,0*%
%AMFreePoly0*
4,1,9,3.862500,-0.866500,0.737500,-0.866500,0.737500,-0.450000,-0.737500,-0.450000,-0.737500,0.450000,0.737500,0.450000,0.737500,0.866500,3.862500,0.866500,3.862500,-0.866500,3.862500,-0.866500,$1*%
%AMFreePoly1*
4,1,5,0.700000,-0.600000,-0.700000,-0.600000,-0.700000,0.600000,0.700000,0.600000,0.700000,-0.600000,0.700000,-0.600000,$1*%
G04 Aperture macros list end*
%ADD10R,0.600000X0.700000*%
%ADD11R,0.700000X0.600000*%
%ADD12R,0.900000X1.200000*%
%ADD13RoundRect,0.218750X0.256250X-0.218750X0.256250X0.218750X-0.256250X0.218750X-0.256250X-0.218750X0*%
%ADD14R,0.900000X1.300000*%
%ADD15FreePoly0,90.000000*%
%ADD16RoundRect,0.150000X0.150000X-0.650000X0.150000X0.650000X-0.150000X0.650000X-0.150000X-0.650000X0*%
%ADD17RoundRect,0.250000X0.650000X-0.325000X0.650000X0.325000X-0.650000X0.325000X-0.650000X-0.325000X0*%
%ADD18C,0.700000*%
%ADD19R,0.600000X1.450000*%
%ADD20R,0.300000X1.450000*%
%ADD21O,1.050000X2.100000*%
%ADD22RoundRect,0.006000X-0.414000X-0.094000X0.414000X-0.094000X0.414000X0.094000X-0.414000X0.094000X0*%
%ADD23RoundRect,0.020000X-0.080000X-0.400000X0.080000X-0.400000X0.080000X0.400000X-0.080000X0.400000X0*%
%ADD24R,3.100000X3.100000*%
%ADD25RoundRect,0.218750X-0.256250X0.218750X-0.256250X-0.218750X0.256250X-0.218750X0.256250X0.218750X0*%
%ADD26C,1.700000*%
%ADD27R,1.700000X1.700000*%
%ADD28O,1.700000X1.700000*%
%ADD29R,1.400000X1.200000*%
%ADD30FreePoly1,0.000000*%
%ADD31R,1.600000X1.050000*%
%ADD32RoundRect,0.250000X-0.650000X0.325000X-0.650000X-0.325000X0.650000X-0.325000X0.650000X0.325000X0*%
G04 APERTURE END LIST*
D10*
X151560000Y-62300000D03*
X152560000Y-62300000D03*
X142250000Y-62310000D03*
X141250000Y-62310000D03*
X146170000Y-68410000D03*
X147170000Y-68410000D03*
D11*
X150380000Y-56650000D03*
X150380000Y-55650000D03*
D12*
X151070000Y-36930000D03*
X154370000Y-36930000D03*
D11*
X147110000Y-66510000D03*
X147110000Y-67510000D03*
D10*
X149660000Y-42810000D03*
X148660000Y-42810000D03*
X145320000Y-68410000D03*
X144320000Y-68410000D03*
D11*
X146640000Y-56150000D03*
X146640000Y-55150000D03*
X149430000Y-56650000D03*
X149430000Y-55650000D03*
D13*
X150940000Y-68112500D03*
X150940000Y-69687500D03*
D14*
X148010000Y-41450000D03*
D15*
X149510000Y-41362500D03*
D14*
X151010000Y-41450000D03*
D11*
X149730000Y-66510000D03*
X149730000Y-67510000D03*
D16*
X141505000Y-52700000D03*
X142775000Y-52700000D03*
X144045000Y-52700000D03*
X145315000Y-52700000D03*
X145315000Y-45500000D03*
X144045000Y-45500000D03*
X142775000Y-45500000D03*
X141505000Y-45500000D03*
D17*
X151340000Y-51755000D03*
X151340000Y-48805000D03*
D18*
X149800000Y-32950000D03*
X144020000Y-32950000D03*
D19*
X150160000Y-34395000D03*
X149360000Y-34395000D03*
D20*
X148160000Y-34395000D03*
X147160000Y-34395000D03*
X146660000Y-34395000D03*
X145660000Y-34395000D03*
D19*
X143660000Y-34395000D03*
X144460000Y-34395000D03*
D20*
X145160000Y-34395000D03*
X146160000Y-34395000D03*
X147660000Y-34395000D03*
X148660000Y-34395000D03*
D21*
X151230000Y-33480000D03*
X142590000Y-33480000D03*
X151230000Y-29300000D03*
X142590000Y-29300000D03*
D11*
X144060000Y-36920000D03*
X144060000Y-35920000D03*
D22*
X143475000Y-58700000D03*
X143475000Y-59100000D03*
X143475000Y-59500000D03*
X143475000Y-59900000D03*
X143475000Y-60300000D03*
X143475000Y-60700000D03*
X143475000Y-61100000D03*
X143475000Y-61500000D03*
X143475000Y-61900000D03*
X143475000Y-62300000D03*
X143475000Y-62700000D03*
X143475000Y-63100000D03*
X143475000Y-63500000D03*
X143475000Y-63900000D03*
D23*
X144310000Y-64735000D03*
X144710000Y-64735000D03*
X145110000Y-64735000D03*
X145510000Y-64735000D03*
X145910000Y-64735000D03*
X146310000Y-64735000D03*
X146710000Y-64735000D03*
X147110000Y-64735000D03*
X147510000Y-64735000D03*
X147910000Y-64735000D03*
X148310000Y-64735000D03*
X148710000Y-64735000D03*
X149110000Y-64735000D03*
X149510000Y-64735000D03*
D22*
X150345000Y-63900000D03*
X150345000Y-63500000D03*
X150345000Y-63100000D03*
X150345000Y-62700000D03*
X150345000Y-62300000D03*
X150345000Y-61900000D03*
X150345000Y-61500000D03*
X150345000Y-61100000D03*
X150345000Y-60700000D03*
X150345000Y-60300000D03*
X150345000Y-59900000D03*
X150345000Y-59500000D03*
X150345000Y-59100000D03*
X150345000Y-58700000D03*
D23*
X149510000Y-57865000D03*
X149110000Y-57865000D03*
X148710000Y-57865000D03*
X148310000Y-57865000D03*
X147910000Y-57865000D03*
X147510000Y-57865000D03*
X147110000Y-57865000D03*
X146710000Y-57865000D03*
X146310000Y-57865000D03*
X145910000Y-57865000D03*
X145510000Y-57865000D03*
X145110000Y-57865000D03*
X144710000Y-57865000D03*
X144310000Y-57865000D03*
D24*
X146910000Y-61300000D03*
D11*
X151620000Y-58500000D03*
X151620000Y-57500000D03*
D25*
X141230000Y-54912500D03*
X141230000Y-56487500D03*
D26*
X149450000Y-73750000D03*
D27*
X146910000Y-73750000D03*
D28*
X144370000Y-73750000D03*
D29*
X144370000Y-71310000D03*
X146570000Y-71310000D03*
X146570000Y-69610000D03*
D30*
X144370000Y-69610000D03*
D11*
X148710000Y-36920000D03*
X148710000Y-35920000D03*
D10*
X143510000Y-55625000D03*
X142510000Y-55625000D03*
D31*
X144760000Y-38475000D03*
X144760000Y-42925000D03*
D11*
X147590000Y-56150000D03*
X147590000Y-55150000D03*
D12*
X142670000Y-36920000D03*
X139370000Y-36920000D03*
D11*
X148050000Y-53740000D03*
X148050000Y-52740000D03*
X145005000Y-35920000D03*
X145005000Y-36920000D03*
D10*
X141260000Y-57790000D03*
X142260000Y-57790000D03*
X142510000Y-54675000D03*
X143510000Y-54675000D03*
D32*
X151340000Y-44215000D03*
X151340000Y-47165000D03*
D10*
X151210000Y-42810000D03*
X152210000Y-42810000D03*
X142510000Y-56590000D03*
X143510000Y-56590000D03*
D11*
X147760000Y-36920000D03*
X147760000Y-35920000D03*
X149000000Y-52740000D03*
X149000000Y-53740000D03*
X149730000Y-68840000D03*
X149730000Y-69840000D03*
X146160000Y-66510000D03*
X146160000Y-67510000D03*
X148060000Y-66510000D03*
X148060000Y-67510000D03*
X141550000Y-43760000D03*
X141550000Y-42760000D03*
X145960000Y-36920000D03*
X145960000Y-35920000D03*
X149660000Y-36920000D03*
X149660000Y-35920000D03*
D26*
X155800000Y-28030000D03*
D28*
X155800000Y-30570000D03*
X155800000Y-33110000D03*
X155800000Y-35650000D03*
X155800000Y-38190000D03*
X155800000Y-40730000D03*
X155800000Y-43270000D03*
X155800000Y-45810000D03*
X155800000Y-48350000D03*
X155800000Y-50890000D03*
X155800000Y-53430000D03*
X155800000Y-55970000D03*
X155800000Y-58510000D03*
X155800000Y-61050000D03*
X155800000Y-63590000D03*
X155800000Y-66130000D03*
X155800000Y-68670000D03*
X155800000Y-71210000D03*
X155800000Y-73750000D03*
D26*
X138020000Y-28030000D03*
D28*
X138020000Y-30570000D03*
X138020000Y-33110000D03*
X138020000Y-35650000D03*
X138020000Y-38190000D03*
X138020000Y-40730000D03*
X138020000Y-43270000D03*
X138020000Y-45810000D03*
X138020000Y-48350000D03*
X138020000Y-50890000D03*
X138020000Y-53430000D03*
X138020000Y-55970000D03*
X138020000Y-58510000D03*
X138020000Y-61050000D03*
X138020000Y-63590000D03*
X138020000Y-66130000D03*
X138020000Y-68670000D03*
X138020000Y-71210000D03*
X138020000Y-73750000D03*
M02*
