%FSLAX45Y45*%
G04 Gerber Fmt 4.5, Leading zero omitted, Abs format (unit mm)*
G04 Created by KiCad (PCBNEW (6.0.4)) date 2022-05-18 15:57:31*
%MOMM*%
%LPD*%
G01*
G04 APERTURE LIST*
%TA.AperFunction,Profile*%
%ADD10C,0.100000*%
%TD*%
%ADD11C,0.200000*%
%ADD12C,0.070000*%
G04 APERTURE END LIST*
D10*
X13802000Y-2676000D02*
G75*
G03*
X13675000Y-2803000I0J-127000D01*
G01*
X15707000Y-2803000D02*
G75*
G03*
X15580000Y-2676000I-127000J0D01*
G01*
X13675000Y-2803000D02*
X13675000Y-7375000D01*
X15707000Y-7375000D02*
X15707000Y-2803000D01*
X15580000Y-2676000D02*
X13802000Y-2676000D01*
X15580000Y-7502000D02*
G75*
G03*
X15707000Y-7375000I0J127000D01*
G01*
X13675000Y-7375000D02*
G75*
G03*
X13802000Y-7502000I127000J0D01*
G01*
X13802000Y-7502000D02*
X15580000Y-7502000D01*
D11*
D12*
X14367000Y-3260000D02*
X14437000Y-3330000D01*
X14437000Y-3260000D02*
X14367000Y-3330000D01*
X14945000Y-3260000D02*
X15015000Y-3330000D01*
X15015000Y-3260000D02*
X14945000Y-3330000D01*
D11*
X13927619Y-7817476D02*
X13927619Y-7617476D01*
X13975238Y-7617476D01*
X14003809Y-7627000D01*
X14022857Y-7646048D01*
X14032381Y-7665095D01*
X14041905Y-7703190D01*
X14041905Y-7731762D01*
X14032381Y-7769857D01*
X14022857Y-7788905D01*
X14003809Y-7807952D01*
X13975238Y-7817476D01*
X13927619Y-7817476D01*
X14127619Y-7817476D02*
X14127619Y-7684143D01*
X14127619Y-7722238D02*
X14137143Y-7703190D01*
X14146667Y-7693667D01*
X14165714Y-7684143D01*
X14184762Y-7684143D01*
X14251428Y-7817476D02*
X14251428Y-7684143D01*
X14251428Y-7617476D02*
X14241905Y-7627000D01*
X14251428Y-7636524D01*
X14260952Y-7627000D01*
X14251428Y-7617476D01*
X14251428Y-7636524D01*
X14375238Y-7817476D02*
X14356190Y-7807952D01*
X14346667Y-7788905D01*
X14346667Y-7617476D01*
X14480000Y-7817476D02*
X14460952Y-7807952D01*
X14451428Y-7788905D01*
X14451428Y-7617476D01*
X14708571Y-7817476D02*
X14708571Y-7617476D01*
X14775238Y-7760333D01*
X14841905Y-7617476D01*
X14841905Y-7817476D01*
X15022857Y-7817476D02*
X15022857Y-7712714D01*
X15013333Y-7693667D01*
X14994286Y-7684143D01*
X14956190Y-7684143D01*
X14937143Y-7693667D01*
X15022857Y-7807952D02*
X15003809Y-7817476D01*
X14956190Y-7817476D01*
X14937143Y-7807952D01*
X14927619Y-7788905D01*
X14927619Y-7769857D01*
X14937143Y-7750809D01*
X14956190Y-7741286D01*
X15003809Y-7741286D01*
X15022857Y-7731762D01*
X15118095Y-7684143D02*
X15118095Y-7884143D01*
X15118095Y-7693667D02*
X15137143Y-7684143D01*
X15175238Y-7684143D01*
X15194286Y-7693667D01*
X15203809Y-7703190D01*
X15213333Y-7722238D01*
X15213333Y-7779381D01*
X15203809Y-7798428D01*
X15194286Y-7807952D01*
X15175238Y-7817476D01*
X15137143Y-7817476D01*
X15118095Y-7807952D01*
X15299048Y-7798428D02*
X15308571Y-7807952D01*
X15299048Y-7817476D01*
X15289524Y-7807952D01*
X15299048Y-7798428D01*
X15299048Y-7817476D01*
X15299048Y-7693667D02*
X15308571Y-7703190D01*
X15299048Y-7712714D01*
X15289524Y-7703190D01*
X15299048Y-7693667D01*
X15299048Y-7712714D01*
D12*
X13600000Y-8112000D02*
X13670000Y-8182000D01*
X13670000Y-8112000D02*
X13600000Y-8182000D01*
D11*
X13965714Y-8037476D02*
X13984762Y-8037476D01*
X14003809Y-8047000D01*
X14013333Y-8056524D01*
X14022857Y-8075571D01*
X14032381Y-8113667D01*
X14032381Y-8161286D01*
X14022857Y-8199381D01*
X14013333Y-8218428D01*
X14003809Y-8227952D01*
X13984762Y-8237476D01*
X13965714Y-8237476D01*
X13946667Y-8227952D01*
X13937143Y-8218428D01*
X13927619Y-8199381D01*
X13918095Y-8161286D01*
X13918095Y-8113667D01*
X13927619Y-8075571D01*
X13937143Y-8056524D01*
X13946667Y-8047000D01*
X13965714Y-8037476D01*
X14118095Y-8218428D02*
X14127619Y-8227952D01*
X14118095Y-8237476D01*
X14108571Y-8227952D01*
X14118095Y-8218428D01*
X14118095Y-8237476D01*
X14194286Y-8037476D02*
X14327619Y-8037476D01*
X14241905Y-8237476D01*
X14441905Y-8037476D02*
X14460952Y-8037476D01*
X14480000Y-8047000D01*
X14489524Y-8056524D01*
X14499048Y-8075571D01*
X14508571Y-8113667D01*
X14508571Y-8161286D01*
X14499048Y-8199381D01*
X14489524Y-8218428D01*
X14480000Y-8227952D01*
X14460952Y-8237476D01*
X14441905Y-8237476D01*
X14422857Y-8227952D01*
X14413333Y-8218428D01*
X14403809Y-8199381D01*
X14394286Y-8161286D01*
X14394286Y-8113667D01*
X14403809Y-8075571D01*
X14413333Y-8056524D01*
X14422857Y-8047000D01*
X14441905Y-8037476D01*
X14632381Y-8037476D02*
X14651428Y-8037476D01*
X14670476Y-8047000D01*
X14680000Y-8056524D01*
X14689524Y-8075571D01*
X14699048Y-8113667D01*
X14699048Y-8161286D01*
X14689524Y-8199381D01*
X14680000Y-8218428D01*
X14670476Y-8227952D01*
X14651428Y-8237476D01*
X14632381Y-8237476D01*
X14613333Y-8227952D01*
X14603809Y-8218428D01*
X14594286Y-8199381D01*
X14584762Y-8161286D01*
X14584762Y-8113667D01*
X14594286Y-8075571D01*
X14603809Y-8056524D01*
X14613333Y-8047000D01*
X14632381Y-8037476D01*
X14784762Y-8237476D02*
X14784762Y-8104143D01*
X14784762Y-8123190D02*
X14794286Y-8113667D01*
X14813333Y-8104143D01*
X14841905Y-8104143D01*
X14860952Y-8113667D01*
X14870476Y-8132714D01*
X14870476Y-8237476D01*
X14870476Y-8132714D02*
X14880000Y-8113667D01*
X14899048Y-8104143D01*
X14927619Y-8104143D01*
X14946667Y-8113667D01*
X14956190Y-8132714D01*
X14956190Y-8237476D01*
X15051428Y-8237476D02*
X15051428Y-8104143D01*
X15051428Y-8123190D02*
X15060952Y-8113667D01*
X15080000Y-8104143D01*
X15108571Y-8104143D01*
X15127619Y-8113667D01*
X15137143Y-8132714D01*
X15137143Y-8237476D01*
X15137143Y-8132714D02*
X15146667Y-8113667D01*
X15165714Y-8104143D01*
X15194286Y-8104143D01*
X15213333Y-8113667D01*
X15222857Y-8132714D01*
X15222857Y-8237476D01*
X15613333Y-8027952D02*
X15441905Y-8285095D01*
X15870476Y-8037476D02*
X15889524Y-8037476D01*
X15908571Y-8047000D01*
X15918095Y-8056524D01*
X15927619Y-8075571D01*
X15937143Y-8113667D01*
X15937143Y-8161286D01*
X15927619Y-8199381D01*
X15918095Y-8218428D01*
X15908571Y-8227952D01*
X15889524Y-8237476D01*
X15870476Y-8237476D01*
X15851428Y-8227952D01*
X15841905Y-8218428D01*
X15832381Y-8199381D01*
X15822857Y-8161286D01*
X15822857Y-8113667D01*
X15832381Y-8075571D01*
X15841905Y-8056524D01*
X15851428Y-8047000D01*
X15870476Y-8037476D01*
X16022857Y-8218428D02*
X16032381Y-8227952D01*
X16022857Y-8237476D01*
X16013333Y-8227952D01*
X16022857Y-8218428D01*
X16022857Y-8237476D01*
X16156190Y-8037476D02*
X16175238Y-8037476D01*
X16194286Y-8047000D01*
X16203809Y-8056524D01*
X16213333Y-8075571D01*
X16222857Y-8113667D01*
X16222857Y-8161286D01*
X16213333Y-8199381D01*
X16203809Y-8218428D01*
X16194286Y-8227952D01*
X16175238Y-8237476D01*
X16156190Y-8237476D01*
X16137143Y-8227952D01*
X16127619Y-8218428D01*
X16118095Y-8199381D01*
X16108571Y-8161286D01*
X16108571Y-8113667D01*
X16118095Y-8075571D01*
X16127619Y-8056524D01*
X16137143Y-8047000D01*
X16156190Y-8037476D01*
X16299048Y-8056524D02*
X16308571Y-8047000D01*
X16327619Y-8037476D01*
X16375238Y-8037476D01*
X16394286Y-8047000D01*
X16403809Y-8056524D01*
X16413333Y-8075571D01*
X16413333Y-8094619D01*
X16403809Y-8123190D01*
X16289524Y-8237476D01*
X16413333Y-8237476D01*
X16480000Y-8037476D02*
X16613333Y-8037476D01*
X16527619Y-8237476D01*
X16775238Y-8037476D02*
X16737143Y-8037476D01*
X16718095Y-8047000D01*
X16708571Y-8056524D01*
X16689524Y-8085095D01*
X16680000Y-8123190D01*
X16680000Y-8199381D01*
X16689524Y-8218428D01*
X16699048Y-8227952D01*
X16718095Y-8237476D01*
X16756190Y-8237476D01*
X16775238Y-8227952D01*
X16784762Y-8218428D01*
X16794286Y-8199381D01*
X16794286Y-8151762D01*
X16784762Y-8132714D01*
X16775238Y-8123190D01*
X16756190Y-8113667D01*
X16718095Y-8113667D01*
X16699048Y-8123190D01*
X16689524Y-8132714D01*
X16680000Y-8151762D01*
X16870476Y-8037476D02*
X16870476Y-8075571D01*
X16946667Y-8037476D02*
X16946667Y-8075571D01*
X17241905Y-8313667D02*
X17232381Y-8304143D01*
X17213333Y-8275571D01*
X17203810Y-8256524D01*
X17194286Y-8227952D01*
X17184762Y-8180333D01*
X17184762Y-8142238D01*
X17194286Y-8094619D01*
X17203810Y-8066048D01*
X17213333Y-8047000D01*
X17232381Y-8018428D01*
X17241905Y-8008905D01*
X17308571Y-8056524D02*
X17318095Y-8047000D01*
X17337143Y-8037476D01*
X17384762Y-8037476D01*
X17403810Y-8047000D01*
X17413333Y-8056524D01*
X17422857Y-8075571D01*
X17422857Y-8094619D01*
X17413333Y-8123190D01*
X17299048Y-8237476D01*
X17422857Y-8237476D01*
X17660952Y-8237476D02*
X17660952Y-8037476D01*
X17746667Y-8237476D02*
X17746667Y-8132714D01*
X17737143Y-8113667D01*
X17718095Y-8104143D01*
X17689524Y-8104143D01*
X17670476Y-8113667D01*
X17660952Y-8123190D01*
X17870476Y-8237476D02*
X17851429Y-8227952D01*
X17841905Y-8218428D01*
X17832381Y-8199381D01*
X17832381Y-8142238D01*
X17841905Y-8123190D01*
X17851429Y-8113667D01*
X17870476Y-8104143D01*
X17899048Y-8104143D01*
X17918095Y-8113667D01*
X17927619Y-8123190D01*
X17937143Y-8142238D01*
X17937143Y-8199381D01*
X17927619Y-8218428D01*
X17918095Y-8227952D01*
X17899048Y-8237476D01*
X17870476Y-8237476D01*
X18051429Y-8237476D02*
X18032381Y-8227952D01*
X18022857Y-8208905D01*
X18022857Y-8037476D01*
X18203810Y-8227952D02*
X18184762Y-8237476D01*
X18146667Y-8237476D01*
X18127619Y-8227952D01*
X18118095Y-8208905D01*
X18118095Y-8132714D01*
X18127619Y-8113667D01*
X18146667Y-8104143D01*
X18184762Y-8104143D01*
X18203810Y-8113667D01*
X18213333Y-8132714D01*
X18213333Y-8151762D01*
X18118095Y-8170809D01*
X18289524Y-8227952D02*
X18308571Y-8237476D01*
X18346667Y-8237476D01*
X18365714Y-8227952D01*
X18375238Y-8208905D01*
X18375238Y-8199381D01*
X18365714Y-8180333D01*
X18346667Y-8170809D01*
X18318095Y-8170809D01*
X18299048Y-8161286D01*
X18289524Y-8142238D01*
X18289524Y-8132714D01*
X18299048Y-8113667D01*
X18318095Y-8104143D01*
X18346667Y-8104143D01*
X18365714Y-8113667D01*
X18441905Y-8313667D02*
X18451429Y-8304143D01*
X18470476Y-8275571D01*
X18480000Y-8256524D01*
X18489524Y-8227952D01*
X18499048Y-8180333D01*
X18499048Y-8142238D01*
X18489524Y-8094619D01*
X18480000Y-8066048D01*
X18470476Y-8047000D01*
X18451429Y-8018428D01*
X18441905Y-8008905D01*
X18803810Y-8313667D02*
X18794286Y-8304143D01*
X18775238Y-8275571D01*
X18765714Y-8256524D01*
X18756190Y-8227952D01*
X18746667Y-8180333D01*
X18746667Y-8142238D01*
X18756190Y-8094619D01*
X18765714Y-8066048D01*
X18775238Y-8047000D01*
X18794286Y-8018428D01*
X18803810Y-8008905D01*
X18880000Y-8104143D02*
X18880000Y-8237476D01*
X18880000Y-8123190D02*
X18889524Y-8113667D01*
X18908571Y-8104143D01*
X18937143Y-8104143D01*
X18956190Y-8113667D01*
X18965714Y-8132714D01*
X18965714Y-8237476D01*
X19089524Y-8237476D02*
X19070476Y-8227952D01*
X19060952Y-8218428D01*
X19051429Y-8199381D01*
X19051429Y-8142238D01*
X19060952Y-8123190D01*
X19070476Y-8113667D01*
X19089524Y-8104143D01*
X19118095Y-8104143D01*
X19137143Y-8113667D01*
X19146667Y-8123190D01*
X19156190Y-8142238D01*
X19156190Y-8199381D01*
X19146667Y-8218428D01*
X19137143Y-8227952D01*
X19118095Y-8237476D01*
X19089524Y-8237476D01*
X19213333Y-8104143D02*
X19289524Y-8104143D01*
X19241905Y-8037476D02*
X19241905Y-8208905D01*
X19251429Y-8227952D01*
X19270476Y-8237476D01*
X19289524Y-8237476D01*
X19508571Y-8104143D02*
X19508571Y-8304143D01*
X19508571Y-8113667D02*
X19527619Y-8104143D01*
X19565714Y-8104143D01*
X19584762Y-8113667D01*
X19594286Y-8123190D01*
X19603810Y-8142238D01*
X19603810Y-8199381D01*
X19594286Y-8218428D01*
X19584762Y-8227952D01*
X19565714Y-8237476D01*
X19527619Y-8237476D01*
X19508571Y-8227952D01*
X19718095Y-8237476D02*
X19699048Y-8227952D01*
X19689524Y-8208905D01*
X19689524Y-8037476D01*
X19880000Y-8237476D02*
X19880000Y-8132714D01*
X19870476Y-8113667D01*
X19851429Y-8104143D01*
X19813333Y-8104143D01*
X19794286Y-8113667D01*
X19880000Y-8227952D02*
X19860952Y-8237476D01*
X19813333Y-8237476D01*
X19794286Y-8227952D01*
X19784762Y-8208905D01*
X19784762Y-8189857D01*
X19794286Y-8170809D01*
X19813333Y-8161286D01*
X19860952Y-8161286D01*
X19880000Y-8151762D01*
X19946667Y-8104143D02*
X20022857Y-8104143D01*
X19975238Y-8037476D02*
X19975238Y-8208905D01*
X19984762Y-8227952D01*
X20003810Y-8237476D01*
X20022857Y-8237476D01*
X20165714Y-8227952D02*
X20146667Y-8237476D01*
X20108571Y-8237476D01*
X20089524Y-8227952D01*
X20080000Y-8208905D01*
X20080000Y-8132714D01*
X20089524Y-8113667D01*
X20108571Y-8104143D01*
X20146667Y-8104143D01*
X20165714Y-8113667D01*
X20175238Y-8132714D01*
X20175238Y-8151762D01*
X20080000Y-8170809D01*
X20346667Y-8237476D02*
X20346667Y-8037476D01*
X20346667Y-8227952D02*
X20327619Y-8237476D01*
X20289524Y-8237476D01*
X20270476Y-8227952D01*
X20260952Y-8218428D01*
X20251429Y-8199381D01*
X20251429Y-8142238D01*
X20260952Y-8123190D01*
X20270476Y-8113667D01*
X20289524Y-8104143D01*
X20327619Y-8104143D01*
X20346667Y-8113667D01*
X20422857Y-8313667D02*
X20432381Y-8304143D01*
X20451429Y-8275571D01*
X20460952Y-8256524D01*
X20470476Y-8227952D01*
X20480000Y-8180333D01*
X20480000Y-8142238D01*
X20470476Y-8094619D01*
X20460952Y-8066048D01*
X20451429Y-8047000D01*
X20432381Y-8018428D01*
X20422857Y-8008905D01*
M02*
