M48
; DRILL file {KiCad (6.0.4)} date Mon Apr 25 16:49:25 2022
; FORMAT={-:-/ absolute / metric / decimal}
; #@! TF.CreationDate,2022-04-25T16:49:25-06:00
; #@! TF.GenerationSoftware,Kicad,Pcbnew,(6.0.4)
; #@! TF.FileFunction,Plated,1,4,PTH
FMAT,2
METRIC
; #@! TA.AperFunction,Plated,PTH,ViaDrill
T1C0.200
; #@! TA.AperFunction,Plated,PTH,ViaDrill
T2C0.300
; #@! TA.AperFunction,Plated,PTH,ComponentDrill
T3C0.650
; #@! TA.AperFunction,Plated,PTH,ComponentDrill
T4C1.000
%
G90
G05
T1
X138.02Y-29.3
X138.02Y-31.84
X138.02Y-34.38
X138.02Y-36.92
X138.02Y-39.46
X138.02Y-42.0
X138.02Y-44.54
X138.02Y-47.08
X138.02Y-49.62
X138.02Y-52.16
X138.02Y-54.7
X138.02Y-57.24
X138.02Y-59.78
X138.02Y-62.32
X138.02Y-64.86
X138.02Y-67.4
X138.02Y-69.94
X138.02Y-72.48
X141.245Y-56.055
X141.4Y-62.92
X142.11Y-62.91
X142.39Y-69.94
X143.02Y-42.77
X143.06Y-43.48
X143.06Y-69.29
X143.51Y-57.15
X144.09Y-37.58
X144.82Y-60.69
X144.83Y-59.96
X144.83Y-61.43
X144.83Y-62.15
X144.83Y-62.88
X144.85Y-37.58
X145.31Y-51.53
X145.34Y-59.21
X145.56Y-59.95
X145.56Y-60.657
X145.56Y-61.365
X145.56Y-62.072
X145.56Y-62.78
X145.61Y-37.58
X145.91Y-63.92
X146.02Y-58.93
X146.19Y-63.25
X146.64Y-54.62
X147.3Y-58.45
X147.4Y-71.06
X147.52Y-63.55
X147.6Y-54.62
X147.94Y-58.81
X148.06Y-68.02
X148.06Y-69.01
X148.23Y-63.7
X148.26Y-59.95
X148.26Y-60.682
X148.26Y-61.415
X148.26Y-62.147
X148.26Y-62.88
X148.715Y-58.614
X148.98Y-59.94
X148.98Y-60.68
X148.98Y-61.41
X148.98Y-62.9
X148.99Y-62.16
X149.22Y-43.4
X149.42Y-55.15
X149.44Y-58.74
X149.718Y-67.519
X149.98Y-65.59
X150.37Y-55.15
X150.63Y-65.9
X150.94Y-66.56
X151.67Y-62.85
X151.85Y-57.0
X152.38Y-62.86
X155.8Y-29.3
X155.8Y-31.84
X155.8Y-34.38
X155.8Y-36.92
X155.8Y-39.46
X155.8Y-42.0
X155.8Y-44.54
X155.8Y-47.08
X155.8Y-49.62
X155.8Y-52.16
X155.8Y-54.7
X155.8Y-57.24
X155.8Y-59.78
X155.8Y-62.32
X155.8Y-64.86
X155.8Y-67.4
X155.8Y-69.94
X155.8Y-72.48
T2
X141.62Y-36.9
X141.63Y-37.91
X142.206Y-35.149
X148.06Y-39.62
X149.05Y-39.62
X151.34Y-45.79
X151.37Y-50.08
X151.888Y-35.992
X152.02Y-36.91
X153.17Y-42.0
X154.99Y-34.55
T4
X138.02Y-28.03
X138.02Y-30.57
X138.02Y-33.11
X138.02Y-35.65
X138.02Y-38.19
X138.02Y-40.73
X138.02Y-43.27
X138.02Y-45.81
X138.02Y-48.35
X138.02Y-50.89
X138.02Y-53.43
X138.02Y-55.97
X138.02Y-58.51
X138.02Y-61.05
X138.02Y-63.59
X138.02Y-66.13
X138.02Y-68.67
X138.02Y-71.21
X138.02Y-73.75
X144.37Y-73.75
X146.91Y-73.75
X149.45Y-73.75
X155.8Y-28.03
X155.8Y-30.57
X155.8Y-33.11
X155.8Y-35.65
X155.8Y-38.19
X155.8Y-40.73
X155.8Y-43.27
X155.8Y-45.81
X155.8Y-48.35
X155.8Y-50.89
X155.8Y-53.43
X155.8Y-55.97
X155.8Y-58.51
X155.8Y-61.05
X155.8Y-63.59
X155.8Y-66.13
X155.8Y-68.67
X155.8Y-71.21
X155.8Y-73.75
T3
X142.59Y-29.6G85X142.59Y-29.0
G05
X142.59Y-34.03G85X142.59Y-32.93
G05
X151.23Y-29.6G85X151.23Y-29.0
G05
X151.23Y-34.03G85X151.23Y-32.93
G05
T0
M30
